<?xml version="1.0" encoding="utf-8"?>
<!-- Generator: Adobe Illustrator 16.0.0, SVG Export Plug-In . SVG Version: 6.00 Build 0)  -->
<!DOCTYPE svg PUBLIC "-//W3C//DTD SVG 1.1//EN" "http://www.w3.org/Graphics/SVG/1.1/DTD/svg11.dtd">
<svg version="1.1" id="Layer_1" xmlns="http://www.w3.org/2000/svg" xmlns:xlink="http://www.w3.org/1999/xlink" x="0px" y="0px"
	 width="1366px" height="657px" viewBox="0 0 1366 657" enable-background="new 0 0 1366 657" xml:space="preserve">
<g>
	<g>
		<ellipse fill="#CCCCCC" cx="650.924" cy="534.721" rx="82.005" ry="13.664"/>
		<g>
			<path fill="#BA5320" d="M702.431,458.755c-1.93,3.581,0.997,10.581,2.082,14.041c1.888,6.024,5.093,11.459,6.923,17.461
				c3.548,11.609,3.051,25.531,2.116,37.582c3.217,17.118-9.365,15.56-9.365,15.56c-5.625,1.677-12.44-8.305-15.36-12.109
				c-4.107-5.35-7.258-12.061-13.596-14.782c-4.742-2.034-11.298-3.101-15.601,0.726c-5.536,4.924-5.676,13.389-6.537,20.349
				c-1.088,8.794-5.908,10.473-13.571,10.798c-8.996,0.379-12.865-16.475-15.08-23.327c-4.839-14.962-5.08-29.983-1.304-45.134
				c0.295-1.179,1.543-4.732,0.943-6.016c-1.083-2.32-1.771-0.342-3.437,0.446c-4.451,2.073-9.916,0.652-14.458-0.299
				c-5.665-1.189-11.344-3.369-16.11-6.892c-16.971-14.003,7.899-13.381,7.899-13.381c21.067-1.245,23.992-6.229,23.992-6.229
				c-3.589,0.315-6.979-0.146-10.367-1.462c-16.326-6.34-26.726-21.091-28.253-39.615c-2.657-32.209,22.547-78.989,55.308-81.962
				c30.456-2.763,67.319,15.36,79.817,46.698c2.711,6.803,7.889,26.361,0.635,32.149c0,0,21.944-15.568,10.534,12.754
				c-11.411,28.318-21.357,35.785-21.357,35.785L702.431,458.755z"/>
			<path fill="#512E24" d="M621.967,447.549c0,0,11.119,3.427,11.997,2.804c0,0,2.304,2.681-13.167-1.363L621.967,447.549z"/>
			<path fill="#512E24" d="M721.53,400.042c0,0-1.325-3.062-7.47,5.34c-6.47,8.853-14.27,16.889-21.981,24.505
				c-1.353,1.335-2.56,2.861-4.156,3.886c-0.233,0.151-2.606,1.178-2.599,1.457c0.037,1.654,7.206-3.27,7.688-3.69
				c2.344-2.06,4.474-4.489,6.666-6.729c5.777-5.909,11.592-11.832,17.073-18.056c0.786-0.896,4.193-3.835,4.022-5.277
				L721.53,400.042z"/>
			<g>
				<path fill="#FFCBA4" d="M679.886,437.489l3.231-1.157c26.628-15.882,27.212-40.751,27.212-40.751
					c2.872-21.224-17.262-38.592-17.262-38.592c-17.263-20.534-52.081-18.048-52.081-18.048
					c-19.604,3.421-35.99,28.943-35.99,28.943c-13.752,22.717-7.461,46.835-7.461,46.835c4.441,26.763,35.713,31.732,45.415,32.635
					C642.95,447.354,678.309,441.024,679.886,437.489z"/>
				<g>
					<path fill="#E45A3C" d="M675.717,413.028c-3.075-5.36-9.477-7.904-16.174-7.255c-7.391,0.717-12.908,5.63-17.908,10.705
						c-1.237,1.256-2.242,2.49-3.212,3.93c0,0,0.702,9.268,6.31,9.044c5.609-0.221,23.601-6.845,29.443-2.276
						c4.087,3.194,3.52-5.975,3.402-7.756C677.417,416.977,676.756,414.842,675.717,413.028z"/>
					<path fill="#F91C06" d="M650.305,426.043c-0.226-3.826,3.165-7.139,7.576-7.4c2.972-0.176,5.648,1.08,7.147,3.089"/>
					<path fill="#FFFFFF" d="M675.202,412.216c-7.189-1.774-36.779,8.192-36.779,8.192s5.362-10.201,16.665-13.646
						c0,0,13.075-5.265,19.522,4.648L675.202,412.216z"/>
					<path fill="#FFFFFF" d="M642.636,429.331c0.868,1.124,3.421-0.012,3.421-0.012s13.91-2.911,19.283-3.641
						c5.373-0.732,7.287,0.635,9.862,2.084s2.465-6.126,2.465-6.126c-4.595-2.8-29.104,4.43-34.935,6.208l-1.293,0.347"/>
				</g>
				<g>
					<path fill="#FFFFFF" stroke="#521810" stroke-miterlimit="10" d="M694.768,368.148c0,10.929-8,19.795-17.864,19.795
						c-9.869,0-17.869-8.866-17.869-19.795c0-10.936,8-19.797,17.869-19.797C686.768,348.352,694.768,357.213,694.768,368.148z"/>
					<path display="none" fill="#521810" d="M691.873,382.235c0.139-0.266,0.244-0.555,0.302-0.876
						c0.093-0.517-3.204,1.368-3.351,1.506c-7.9,7.594-18.196,3.799-18.196,3.799s-3.53,1.914-1.114,3.313
						c2.414,1.4,10.753,2.566,19.317-4.91C689.852,384.179,691.235,383.459,691.873,382.235"/>
					<path fill="#F95D41" d="M697.624,391.686c0.585,1.467-2.635,4.321-7.186,6.377c-4.552,2.057-8.719,2.531-9.306,1.066
						c-0.586-1.472,2.633-4.326,7.186-6.378C692.87,390.693,697.037,390.215,697.624,391.686z"/>
					<path fill="none" stroke="#521810" stroke-width="2" stroke-miterlimit="10" d="M648.9,350.155c0,0,6.589,1.983,10.134,0.478"
						/>
					<path fill="#521810" d="M685.064,368.196c-0.028,6.199-4.463,11.204-9.91,11.175c-5.447-0.027-9.842-5.074-9.814-11.272
						c0.027-6.199,4.463-11.202,9.911-11.176C680.697,356.949,685.091,361.998,685.064,368.196z"/>
				</g>
				<g>
					<path fill="#FFFFFF" stroke="#521810" stroke-miterlimit="10" d="M606.848,392.723c5.28,9.376,16.424,12.611,24.89,7.222
						c8.465-5.394,11.045-17.369,5.766-26.749c-5.283-9.38-16.427-12.612-24.892-7.222
						C604.146,371.366,601.565,383.344,606.848,392.723z"/>
					<path display="none" fill="#521810" d="M616.137,403.228c-0.249-0.152-0.479-0.343-0.682-0.589
						c-0.329-0.39,3.41-0.577,3.602-0.539c10.445,2.2,17.447-6.683,17.447-6.683s3.951-0.287,2.556,2.234
						c-1.396,2.519-7.986,8.074-18.944,6.344C618.811,403.787,617.274,403.927,616.137,403.228"/>
					<path fill="#F95D41" d="M625.472,410.901c0.322,1.559-3.33,3.738-8.16,4.875c-4.828,1.137-9.005,0.797-9.331-0.757
						c-0.325-1.563,3.329-3.744,8.159-4.879C620.969,409.004,625.146,409.344,625.472,410.901z"/>
					<path fill="#521810" d="M632.459,386.188c-0.028,6.201-4.463,11.204-9.911,11.177c-5.446-0.028-9.838-5.076-9.812-11.272
						c0.027-6.2,4.463-11.205,9.91-11.178C628.094,374.943,632.486,379.989,632.459,386.188z"/>
					<path fill="none" stroke="#521810" stroke-width="2" stroke-miterlimit="10" d="M620.766,360.362c0,0,6.463-2.411,8.549-5.812"
						/>
				</g>
			</g>
			<path fill="#ED9B7C" stroke="#FFFFFF" stroke-miterlimit="10" d="M690.104,477.746c1.329,4.333,1.107,7.789-1.14,11.531
				c-2.802,4.669-6.498,8.082-11.218,10.219c-2.953,1.337-6.226,2.438-9.402,2.988c-5.278,0.917-10.814,0.811-15.989-1.043
				c-2.854-1.023-5.743-2.372-8.021-4.617c-2.644-2.605-3.953-6.208-4.734-9.909c-0.106-0.502-0.895-3.971,0.13-4.146
				c4.704-0.817,9.407-1.636,14.112-2.453c8.251-1.433,16.502-2.861,24.754-4.298c3.395-0.592,6.891-0.985,10.244-1.798
				C689.326,475.36,689.736,476.555,690.104,477.746z"/>
			<g>
				<path fill="#BA5320" d="M606.254,345.683c-7.567-7.775-34.949,0.353-34.949,0.353c-9.054,9.054,10.58,37.268,10.58,37.268
					s1.324,2.8,3.02-0.467C586.601,379.565,606.254,345.683,606.254,345.683z"/>
				<path fill="#4C2E25" d="M592.461,349.588c-4.219-3.375-17.278,2.362-17.278,2.362c-3.931,5.047,7.5,17.783,7.5,17.783
					s0.825,1.302,1.467-0.419C584.791,367.59,592.461,349.588,592.461,349.588z"/>
			</g>
			<g>
				<path fill="#BA5320" d="M704.979,348.957c10.819-1.568-3.469-35.858-3.469-35.858c-9.824-8.488-36.17,14.188-36.17,14.188
					S703.081,349.23,704.979,348.957z"/>
				<path fill="#4C2E25" d="M697.302,337.868c3.131-4.532-3.33-17.649-3.33-17.649c-5.259-3.765-17.329,8.717-17.329,8.717
					s-1.256,0.924,0.501,1.486C678.902,330.985,697.302,337.868,697.302,337.868z"/>
			</g>
		</g>
	</g>
	<g>
		<polygon fill="#E72016" points="603.552,477.924 595.84,482.24 582.45,439.184 590.162,434.867 		"/>
		<path fill="#C0C0C0" d="M586.827,437.503l4.357-2.439l0.829-4.993l0.458-4.353c0,0,4.134-4.441,6.494-1.603
			c2.351,2.83,1.266,1.313,1.26,1.305c-0.327-0.457-0.423-1.454-0.692-2.012c-0.326-0.675-0.751-1.233-1.25-1.699
			c-1.135-1.057-2.583-1.689-3.972-2.047c-1.343-0.344-2.908-0.385-4.227,0.375l-7.398,4.146l-0.243,0.138l-5.035,2.819
			l-0.857,0.471l-1.115,5.164l-1.669-3.607l-2.911,1.63l-1.787,1.001l4.144,13.323l1.787-0.999l2.911-1.63l-0.715-4.132l3.493,2.576
			l5.854-3.276L586.827,437.503z"/>
	</g>
	<g>
		<path d="M726.097,295.109c0-2.737,2.039-4.714,4.811-4.714c2.936,0,4.812,1.977,4.812,4.714c0,2.661-1.876,4.714-4.812,4.714
			C728.054,299.823,726.097,297.77,726.097,295.109z M728.136,284.236l-1.143-36.496h7.828l-1.141,36.496H728.136z"/>
		<path d="M744.85,295.109c0-2.737,2.038-4.714,4.812-4.714c2.936,0,4.811,1.977,4.811,4.714c0,2.661-1.875,4.714-4.811,4.714
			C746.807,299.823,744.85,297.77,744.85,295.109z M746.888,284.236l-1.141-36.496h7.828l-1.143,36.496H746.888z"/>
	</g>
</g>
<g>
</g>
<g>
</g>
<g>
</g>
<g>
</g>
<g>
</g>
<g>
</g>
</svg>
