<svg xmlns="http://www.w3.org/2000/svg" viewBox="0 0 1234.393 362.866"><defs><style>.cls-1{fill:#001fff;}.cls-2{fill:#29abe2;}.cls-3{fill:#d50057;}.cls-4{fill:#ed40a9;}.cls-5{fill:#ff5100;}.cls-6{fill:#ce009f;}.cls-7{fill:#8331a7;}.cls-8{fill:#ff6b00;}.cls-9{fill:#ffa400;}.cls-10{fill:#ffab4d;}.cls-11{fill:#9e28b5;}.cls-12{fill:#06f;}.cls-13{fill:#f18a00;}.cls-14{fill:#e7004c;}.cls-15{fill:#00ae42;}.cls-16{fill:#009845;}.cls-17{fill:#00ce7c;}.cls-18{fill:#fff;}.cls-19{fill:#333;}</style></defs><title>admin-logo</title><g id="Layer_2" data-name="Layer 2"><g id="Layer_1-2" data-name="Layer 1"><polyline class="cls-1" points="244.903 298.097 282.975 354.556 291.275 246.345 264 273.62"/></g><g id="Layer_2-2" data-name="Layer 2"><polygon class="cls-2" points="361.134 181.866 180.134 362.866 0 181 181 0 361.134 181.866"/><path class="cls-2" d="M14.8,121.451c1.572-.786,228.264-73.318,280.538-90.039a4.572,4.572,0,0,1,5.431,6.5L172.112,281.434Z"/><path class="cls-3" d="M181,0c-4,4,0,85,0,85l51.513-33.487Z"/><polygon class="cls-4" points="181 85 272 92 232.513 51.513 181 85"/><polygon class="cls-5" points="181 85 129 52 181 0 181 85"/><polygon class="cls-3" points="181 85 80.905 100.095 129 52 181 85"/><polygon class="cls-4" points="181 85 158 156 81 100 181 85"/><polygon class="cls-5" points="272 92 158 156 181 85 272 92"/><polygon class="cls-6" points="158 156 270 166 272 92 158 156"/><polygon class="cls-7" points="270 166 340.866 159.866 272 92 270 166"/><polygon class="cls-8" points="158 156 36.984 144.016 81 100 158 156"/><polygon class="cls-9" points="81 100 37 144 14.025 121.025 81 100"/><polygon class="cls-10" points="158 156 103.377 211.534 37 144 158 156"/><polygon class="cls-11" points="158 156 225 207 270 166 158 156"/><polygon class="cls-8" points="103 212 225 207 158 156 103 212"/><polygon class="cls-6" points="225 207 270 166 341 160 225 207"/><polygon class="cls-1" points="341 160 305 238 225 207 341 160"/><polygon class="cls-12" points="341 160 362 181 305 238 341 160"/><polygon class="cls-13" points="225 207 172.666 251.857 169 255 103 212 225 207"/><polygon class="cls-12" points="225.839 206.725 305 238 169 255 225.839 206.725"/><polygon class="cls-12" points="169 255 264.36 278.64 305 238 169 255"/><polygon class="cls-14" points="232.513 51.513 272 92 307 28 232.513 51.513"/><polygon class="cls-1" points="169 255 225 318 264 279 169 255"/><path class="cls-15" d="M103,212c-1,5,18,58,18,58l48-15Z"/><polygon class="cls-16" points="103 212 33.483 214.804 121 270 103 212"/><polygon class="cls-16" points="37 144 33 215 103 212 37 144"/><polygon class="cls-17" points="33 215 0 181 37 144 33 215"/><polygon class="cls-16" points="121 270 225 318 169 255 121 270"/><polygon class="cls-17" points="121 270 104.496 286.5 33 215 121 270"/><polygon class="cls-15" points="121 270 129 311.24 225 318 121 270"/><polygon class="cls-16" points="121 270 129 311 104.496 286.5 121 270"/><polyline class="cls-12" points="225 318 180.134 362.866 129 311"/><polygon class="cls-18" points="87.177 269.784 127.222 239.241 84 197.066 87.177 269.784"/><polygon class="cls-18" points="280.751 47.112 223.822 65.747 165.99 84.677 149.672 90.019 92.662 108.681 57.324 120.248 37.623 126.697 75.925 166.168 96.375 154.3 99.185 152.669 172.956 109.854 181.637 104.816 224.76 79.789 279.693 47.907 225.371 88.756 195.46 111.247 177.151 125.015 115.745 171.19 103.317 180.536 95.753 186.223 105.59 195.868 147.615 237.072 170.603 259.611 185.16 231.719 197.685 207.72 199.705 206.536 199.22 204.781 229.616 146.541 237.73 130.995 282 46.173 280.751 47.112"/><path class="cls-19" d="M431.232,217.47l-.62,3.692c-1.849,11.108-.24,17.841,8.54,17.841,7.467,0,11.3-5.682,13.439-16.577,2.371-12.39.777-20.014-12.194-34.661-14.73-16.589-18.778-25.437-15.243-44.594,3.462-18.993,14.2-28.824,31.693-28.824,27.191,0,30.049,19.812,27.265,36.144l-.463,2.7h-21l.463-2.725c1.727-10.16,1.677-18.6-6.706-18.6-6.194,0-9.416,4.179-10.778,12.521-1.594,9.73.024,15.726,9.806,26.977,18.465,21.052,22.125,33.105,18.018,52.981-4.37,20.837-14.847,32-36.22,32-24.189,0-31.774-14.953-27.463-36.705l.439-2.164Z"/><path class="cls-19" d="M559.543,203c5.056-23.443,11.069-50.822,14.919-66.635h-.206c-8.105,23.942-27.027,78.006-41.285,117.956H513.463c3.189-35.837,7.907-93.007,10.237-118.137h-.413c-3.073,16.084-9.607,45.476-14.383,69.2l-9.688,48.934h-19.41l29.327-137.961H540.78c-3.322,40.156-6.015,75.511-8.345,95.158h.206c6.436-19.573,23.227-65.711,34.723-95.158h30.971L569.008,254.323H548.64Z"/><path class="cls-19" d="M611.227,217.47l-.621,3.692c-1.849,11.108-.24,17.841,8.54,17.841,7.467,0,11.3-5.682,13.439-16.577,2.371-12.39.777-20.014-12.193-34.661-14.731-16.589-18.779-25.437-15.244-44.594,3.462-18.993,14.2-28.824,31.693-28.824,27.191,0,30.049,19.812,27.265,36.144l-.462,2.7h-21l.463-2.725c1.727-10.16,1.677-18.6-6.706-18.6-6.194,0-9.416,4.179-10.778,12.521-1.594,9.73.024,15.726,9.806,26.977,18.465,21.052,22.125,33.105,18.018,52.981-4.37,20.837-14.846,32-36.22,32-24.189,0-31.774-14.953-27.462-36.705l.438-2.164Z"/><path class="cls-19" d="M715.4,116.362h26.562c22.686,0,32.4,13.631,27.8,36.764L767.9,162.6c-4.287,22.008-13.515,33.136-40.283,33.136h-8.3l-12.382,58.585H686.067Zm7.729,62.04h7c11.556,0,14.487-5.873,16.907-16.965l1.677-8c2.347-10.878,2.43-19.56-9.341-19.56h-6.922Z"/><path class="cls-19" d="M847.819,154.085l-13.7,64.673c-4.932,23.5-12.317,37.581-37.739,37.581-24.6,0-31.594-15.961-26.736-39.737l14.06-67.888c4.857-23.571,17.177-34.367,36.491-34.367C842.522,114.347,853.2,129,847.819,154.085Zm-42.676-5.215-14.969,71.343c-2.155,9.9-1.331,18.245,8.466,18.245,8.086,0,11.53-6.807,13.867-17.519l14.969-71.193c2.13-10.142.24-17.336-9.037-17.336C811.527,132.41,807.381,137.827,805.143,148.87Z"/><path class="cls-19" d="M872.774,116.362h20.865l-11.714,55.059h21.9l11.714-55.059H936.58L907.253,254.323H886.207l13.44-63.748h-21.9l-13.44,63.748H843.447Z"/><path class="cls-19" d="M940.1,159.6c6.627-10.4,15.383-30.668,20.885-49.247h18.84c-6.007,19.969-16.011,40.582-22.414,49.247Z"/><path class="cls-19" d="M1070.616,203c5.056-23.443,11.07-50.822,14.919-66.635h-.206c-8.1,23.942-27.027,78.006-41.285,117.956h-19.508c3.19-35.837,7.907-93.007,10.237-118.137h-.413c-3.073,16.084-9.607,45.476-14.382,69.2l-9.689,48.934h-19.41l29.327-137.961h31.648c-3.323,40.156-6.016,75.511-8.346,95.158h.206c6.436-19.573,23.226-65.711,34.724-95.158h30.97l-29.327,137.961h-20.368Z"/><path class="cls-19" d="M1125.216,217.187l-12.661,37.136h-21.981c1.978-5.24,47.978-132.1,50.2-137.961h31.26l-7.6,137.961h-21.047l2.478-37.136Zm21.949-19.335c1.652-21.045,3.387-47.076,4.626-62.311h-.776c-3.157,12.236-12.168,40.859-19.139,62.311Z"/><path class="cls-19" d="M1204.763,116.362h20.864l-25.312,118.807h34.078l-5.594,19.154h-53.363Z"/></g></g></svg>