<?xml version="1.0" encoding="utf-8"?>
<!-- Generator: Adobe Illustrator 16.0.0, SVG Export Plug-In . SVG Version: 6.00 Build 0)  -->
<!DOCTYPE svg PUBLIC "-//W3C//DTD SVG 1.1//EN" "http://www.w3.org/Graphics/SVG/1.1/DTD/svg11.dtd">
<svg version="1.1" id="Layer_1" xmlns="http://www.w3.org/2000/svg" xmlns:xlink="http://www.w3.org/1999/xlink" x="0px" y="0px"
	 width="369.917px" height="780.667px" viewBox="0 0 369.917 780.667" enable-background="new 0 0 369.917 780.667"
	 xml:space="preserve">
<g id="frame">
	<g id="S9_x2B_Frame_1_">
		<g>
			
				<linearGradient id="SVGID_1_" gradientUnits="userSpaceOnUse" x1="-4381.5674" y1="1323.9868" x2="-4378.8594" y2="1323.9868" gradientTransform="matrix(-1 0 0 -1 -4012.6377 1577.1689)">
				<stop  offset="0" style="stop-color:#7A7A7A"/>
				<stop  offset="0.3118" style="stop-color:#919191"/>
				<stop  offset="0.8978" style="stop-color:#BABABA"/>
				<stop  offset="1" style="stop-color:#919191"/>
			</linearGradient>
			<path fill="url(#SVGID_1_)" d="M366.235,222.303c1.489,0,2.695,1.207,2.695,2.694v56.368c0,1.488-1.206,2.695-2.695,2.695h-0.013
				C366.222,274.964,366.235,222.303,366.235,222.303z"/>
			<rect x="366.235" y="223.641" fill="#282828" width="1.341" height="58.829"/>
		</g>
		<linearGradient id="SVGID_2_" gradientUnits="userSpaceOnUse" x1="3.6069" y1="169.8848" x2="6.3154" y2="169.8848">
			<stop  offset="0" style="stop-color:#7A7A7A"/>
			<stop  offset="0.3118" style="stop-color:#919191"/>
			<stop  offset="0.8978" style="stop-color:#BABABA"/>
			<stop  offset="1" style="stop-color:#919191"/>
		</linearGradient>
		<path fill="url(#SVGID_2_)" d="M6.315,224.792H6.302c-1.488,0-2.695-1.206-2.695-2.695V117.673c0-1.488,1.207-2.695,2.695-2.695
			h0.014C6.315,124.074,6.315,218.785,6.315,224.792z"/>
		<linearGradient id="SVGID_3_" gradientUnits="userSpaceOnUse" x1="3.6069" y1="296.3135" x2="6.3154" y2="296.3135">
			<stop  offset="0" style="stop-color:#7A7A7A"/>
			<stop  offset="0.3118" style="stop-color:#919191"/>
			<stop  offset="0.8978" style="stop-color:#BABABA"/>
			<stop  offset="1" style="stop-color:#919191"/>
		</linearGradient>
		<path fill="url(#SVGID_3_)" d="M6.302,327.192c-1.488,0-2.695-1.206-2.695-2.694v-56.368c0-1.487,1.207-2.694,2.695-2.694h0.014
			C6.315,274.531,6.302,327.192,6.302,327.192z"/>
		<linearGradient id="SVGID_4_" gradientUnits="userSpaceOnUse" x1="5.8657" y1="391.1548" x2="367.1357" y2="391.1548">
			<stop  offset="0" style="stop-color:#000000"/>
			<stop  offset="0.1452" style="stop-color:#5D5D5D"/>
			<stop  offset="0.3226" style="stop-color:#000000"/>
			<stop  offset="0.8226" style="stop-color:#5D5D5D"/>
			<stop  offset="1" style="stop-color:#000000"/>
		</linearGradient>
		<path fill="url(#SVGID_4_)" d="M367.103,723.281V325.657l-0.183-60.296v-40.571V115.017c0,0,0.112-54.568,0-67.256
			c-0.113-12.352-4.155-20.211-4.155-20.211c-5.277-12.463-15.495-17.853-21.666-20.232c-10.779-4.94-42.222-4.694-42.222-4.694
			H74.125c0,0-31.444-0.246-42.223,4.694c-6.17,2.38-16.388,7.769-21.665,20.232c0,0-4.042,7.859-4.155,20.211
			c-0.112,12.688,0,67.256,0,67.256v109.773v40.571l-0.183,60.296v397.624c-0.06,5.914-0.952,31.721,12.012,42.373
			c3.743,3.074,12.986,11.71,36.003,12.945c17.413,0.76,86.773,1.089,132.587,1.089c45.813,0,115.172-0.329,132.585-1.089
			c23.019-1.235,32.261-9.871,36.003-12.945C368.054,755.002,367.162,729.195,367.103,723.281z"/>
		<path fill="#737373" d="M367.103,721.915V326.283l-0.183-59.994v-40.367V116.7c0,0,0.112-54.295,0-66.919
			c-0.113-12.289-4.155-20.109-4.155-20.109c-5.277-12.4-15.495-17.763-21.666-20.13c-10.779-4.916-42.222-4.672-42.222-4.672
			H74.125c0,0-31.444-0.244-42.223,4.672c-6.17,2.367-16.388,7.729-21.665,20.13c0,0-4.042,7.82-4.155,20.109
			c-0.112,12.624,0,66.919,0,66.919v109.223v40.367l-0.183,59.994v395.631c-0.06,5.884-0.952,31.562,12.012,42.159
			c3.743,3.06,12.986,11.651,36.003,12.88c17.413,0.757,86.773,1.084,132.587,1.084c45.813,0,115.172-0.327,132.585-1.084
			c23.019-1.229,32.261-9.82,36.003-12.88C368.054,753.477,367.162,727.798,367.103,721.915z"/>
		<path fill="#FFFFFF" d="M186.537,778.487c-41.407,0-113.837-0.295-131.922-1.085c-21.933-1.177-31.439-9.108-35.498-12.496
			c-0.208-0.175-0.402-0.336-0.583-0.485c-8.332-6.847-12.41-20.886-12.124-41.729l0.01-0.782V326.283l0.182-59.994V116.7
			c-0.001-0.542-0.11-54.44,0-66.923c0.112-12.253,4.142-20.232,4.183-20.311c3.947-9.325,11.486-16.37,21.791-20.344
			c9.762-4.476,36.229-4.703,41.436-4.703c0.475,0,0.732,0.002,0.732,0.002h223.589c-0.003,0,0.253-0.002,0.729-0.002
			c5.207,0,31.674,0.227,41.462,4.714c10.278,3.963,17.819,11.008,21.779,20.363c0.026,0.049,4.057,8.027,4.168,20.281
			c0.11,12.483,0.001,66.382,0,66.925V266.29l0.182,59.992v395.633l0.01,0.777c0.287,20.843-3.792,34.883-12.123,41.729
			c-0.182,0.149-0.376,0.311-0.584,0.485c-4.059,3.388-13.565,11.318-35.493,12.496
			C300.373,778.192,227.943,778.487,186.537,778.487z M74.011,5.316c-5.174,0-31.471,0.224-41.09,4.633
			c-10.098,3.895-17.465,10.772-21.327,19.897c-0.055,0.108-3.989,7.911-4.098,19.938c-0.111,12.477-0.002,66.37,0,66.914v149.59
			l-0.183,59.995v395.63l-0.011,0.789c-0.283,20.557,3.686,34.358,11.796,41.023c0.184,0.149,0.379,0.313,0.589,0.488
			c3.991,3.332,13.337,11.131,34.97,12.291c18.067,0.789,90.48,1.082,131.879,1.082s113.812-0.293,131.883-1.083
			c21.628-1.159,30.974-8.958,34.966-12.29c0.209-0.175,0.405-0.338,0.588-0.488c8.11-6.665,12.079-20.466,11.797-41.023
			l-0.011-0.786V326.283l-0.183-59.991V116.7c0.002-0.544,0.111-54.438,0-66.914c-0.108-12.043-4.043-19.831-4.083-19.908
			c-3.877-9.155-11.244-16.033-21.318-19.917c-9.644-4.42-35.941-4.644-41.116-4.644c-0.471,0-0.724,0.002-0.724,0.002H74.74
			C74.736,5.319,74.482,5.316,74.011,5.316z"/>
		<path fill="#070707" d="M366.056,719.997V326.662l-0.184-59.645v-40.134V118.294c0,0,0.112-53.98,0-66.531
			c-0.111-12.218-4.129-19.993-4.129-19.993c-5.248-12.329-15.405-17.66-21.541-20.014c-10.716-4.887-41.977-4.644-41.977-4.644
			H74.777c0,0-31.261-0.243-41.977,4.644c-6.135,2.354-16.293,7.686-21.541,20.014c0,0-4.018,7.775-4.13,19.993
			c-0.112,12.55,0,66.531,0,66.531v108.589v40.134l-0.182,59.645v393.335c-0.059,5.851-0.946,31.378,11.942,41.916
			c3.721,3.042,12.911,11.583,35.795,12.804c17.312,0.752,86.27,1.078,131.817,1.078c45.547,0,114.505-0.325,131.817-1.078
			c22.884-1.221,32.074-9.762,35.795-12.804C367.001,751.375,366.114,725.848,366.056,719.997z"/>
		<path fill="#FFFFFF" d="M357.298,719.427c0,14.139-11.461,25.601-25.6,25.601H40.666c-14.139,0-25.6-11.462-25.6-25.601V68.645
			c0-14.138,11.461-25.6,25.6-25.6h291.033c14.139,0,25.6,11.461,25.6,25.6V719.427z"/>
		<defs>
			<filter id="Adobe_OpacityMaskFilter" filterUnits="userSpaceOnUse" x="22.004" y="14.942" width="335.294" height="755.057">
				<feFlood  style="flood-color:white;flood-opacity:1" result="back"/>
				<feBlend  in="SourceGraphic" in2="back" mode="normal"/>
			</filter>
		</defs>
		<mask maskUnits="userSpaceOnUse" x="22.004" y="14.942" width="335.294" height="755.057" id="SVGID_5_">
			<g filter="url(#Adobe_OpacityMaskFilter)">
				<defs>
					
						<filter id="Adobe_OpacityMaskFilter_1_" filterUnits="userSpaceOnUse" x="22.004" y="14.942" width="335.294" height="755.057">
						<feFlood  style="flood-color:white;flood-opacity:1" result="back"/>
						<feBlend  in="SourceGraphic" in2="back" mode="normal"/>
					</filter>
				</defs>
				<mask maskUnits="userSpaceOnUse" x="22.004" y="14.942" width="335.294" height="755.057" id="SVGID_5_">
					<g filter="url(#Adobe_OpacityMaskFilter_1_)">
					</g>
				</mask>
				<linearGradient id="SVGID_6_" gradientUnits="userSpaceOnUse" x1="22.0039" y1="392.4702" x2="357.2983" y2="392.4702">
					<stop  offset="0" style="stop-color:#4D4D4D"/>
					<stop  offset="0.0376" style="stop-color:#E6E6E6"/>
					<stop  offset="0.2312" style="stop-color:#808080"/>
					<stop  offset="0.6022" style="stop-color:#1A1A1A"/>
					<stop  offset="0.9624" style="stop-color:#000000"/>
					<stop  offset="1" style="stop-color:#B3B3B3"/>
				</linearGradient>
				<path mask="url(#SVGID_5_)" fill="url(#SVGID_6_)" d="M357.298,744.25c0,14.219-11.64,25.748-25.996,25.748H48
					c-14.357,0-25.996-11.529-25.996-25.748V40.69c0-14.22,11.639-25.749,25.996-25.749h283.302
					c14.356,0,25.996,11.528,25.996,25.749V744.25z"/>
			</g>
		</mask>
		<g display="none" opacity="0.5">
			<defs>
				<filter id="Adobe_OpacityMaskFilter_2_" filterUnits="userSpaceOnUse" x="22.004" y="14.942" width="335.294" height="755.057">
					<feFlood  style="flood-color:white;flood-opacity:1" result="back"/>
					<feBlend  in="SourceGraphic" in2="back" mode="normal"/>
				</filter>
			</defs>
			<mask maskUnits="userSpaceOnUse" x="22.004" y="14.942" width="335.294" height="755.057" id="SVGID_7_" display="inline">
				<g filter="url(#Adobe_OpacityMaskFilter_2_)">
					<defs>
						
							<filter id="Adobe_OpacityMaskFilter_3_" filterUnits="userSpaceOnUse" x="22.004" y="14.942" width="335.294" height="755.057">
							<feFlood  style="flood-color:white;flood-opacity:1" result="back"/>
							<feBlend  in="SourceGraphic" in2="back" mode="normal"/>
						</filter>
					</defs>
					<mask maskUnits="userSpaceOnUse" x="22.004" y="14.942" width="335.294" height="755.057" id="SVGID_7_">
						<g filter="url(#Adobe_OpacityMaskFilter_3_)">
						</g>
					</mask>
					<linearGradient id="SVGID_8_" gradientUnits="userSpaceOnUse" x1="22.0039" y1="392.4702" x2="357.2983" y2="392.4702">
						<stop  offset="0" style="stop-color:#FFFFFF"/>
						<stop  offset="0.0376" style="stop-color:#FFFFFF"/>
						<stop  offset="0.2258" style="stop-color:#808080"/>
						<stop  offset="0.5484" style="stop-color:#4D4D4D"/>
						<stop  offset="0.7312" style="stop-color:#4D4D4D"/>
						<stop  offset="0.9624" style="stop-color:#FFFFFF"/>
						<stop  offset="1" style="stop-color:#FFFFFF"/>
					</linearGradient>
					<path mask="url(#SVGID_7_)" fill="url(#SVGID_8_)" d="M357.298,744.25c0,14.219-11.64,25.748-25.996,25.748H48
						c-14.357,0-25.996-11.529-25.996-25.748V40.69c0-14.22,11.639-25.749,25.996-25.749h283.302
						c14.356,0,25.996,11.528,25.996,25.749V744.25z"/>
				</g>
			</mask>
			<linearGradient id="SVGID_9_" gradientUnits="userSpaceOnUse" x1="22.0039" y1="392.4702" x2="357.2983" y2="392.4702">
				<stop  offset="0" style="stop-color:#FFFFFF"/>
				<stop  offset="0.0376" style="stop-color:#FFFFFF"/>
				<stop  offset="0.2258" style="stop-color:#FFFFFF"/>
				<stop  offset="0.5484" style="stop-color:#F7F7F7"/>
				<stop  offset="0.7312" style="stop-color:#F7F7F7"/>
				<stop  offset="0.9624" style="stop-color:#F7F7F7"/>
				<stop  offset="1" style="stop-color:#F7F7F7"/>
			</linearGradient>
			<path display="inline" opacity="0.7" fill="url(#SVGID_9_)" d="M357.298,744.25c0,14.219-11.64,25.748-25.996,25.748H48
				c-14.357,0-25.996-11.529-25.996-25.748V40.69c0-14.22,11.639-25.749,25.996-25.749h283.302
				c14.356,0,25.996,11.528,25.996,25.749V744.25z"/>
		</g>
		<g>
			<path d="M163.333,29.816c-2.168,0-3.933-1.764-3.933-3.931c0-2.169,1.765-3.934,3.933-3.934h46.484
				c2.169,0,3.933,1.765,3.933,3.934c0,2.167-1.764,3.931-3.933,3.931H163.333z"/>
			<path d="M163.333,28.846c-1.633,0-2.962-1.328-2.962-2.961c0-1.634,1.33-2.963,2.962-2.963h46.484
				c1.633,0,2.963,1.33,2.963,2.963c0,1.633-1.33,2.961-2.963,2.961H163.333z"/>
			<path fill="#5B5C61" d="M212.456,25.885c0,1.456-1.181,2.637-2.639,2.637h-46.484c-1.457,0-2.638-1.181-2.638-2.637l0,0
				c0-1.458,1.181-2.639,2.638-2.639h46.484C211.274,23.246,212.456,24.427,212.456,25.885L212.456,25.885z"/>
			<g>
				<rect x="162.304" y="23.733" width="1.197" height="1.198"/>
				<rect x="164.698" y="23.733" width="1.199" height="1.198"/>
				<rect x="161.106" y="24.931" width="1.198" height="1.197"/>
				<rect x="163.501" y="24.931" width="1.196" height="1.197"/>
				<rect x="167.094" y="23.733" width="1.197" height="1.198"/>
				<rect x="169.489" y="23.733" width="1.198" height="1.198"/>
				<rect x="165.896" y="24.931" width="1.198" height="1.197"/>
				<rect x="168.291" y="24.931" width="1.198" height="1.197"/>
				<rect x="171.885" y="23.733" width="1.197" height="1.198"/>
				<rect x="174.279" y="23.733" width="1.198" height="1.198"/>
				<rect x="170.687" y="24.931" width="1.198" height="1.197"/>
				<rect x="173.082" y="24.931" width="1.197" height="1.197"/>
				<rect x="176.675" y="23.733" width="1.197" height="1.198"/>
				<rect x="179.069" y="23.733" width="1.198" height="1.198"/>
				<rect x="175.477" y="24.931" width="1.198" height="1.197"/>
				<rect x="177.872" y="24.931" width="1.197" height="1.197"/>
				<rect x="181.465" y="23.733" width="1.197" height="1.198"/>
				<rect x="183.86" y="23.733" width="1.198" height="1.198"/>
				<rect x="180.267" y="24.931" width="1.198" height="1.197"/>
				<rect x="182.662" y="24.931" width="1.198" height="1.197"/>
				<rect x="186.256" y="23.733" width="1.197" height="1.198"/>
				<rect x="188.65" y="23.733" width="1.197" height="1.198"/>
				<rect x="185.058" y="24.931" width="1.198" height="1.197"/>
				<rect x="187.453" y="24.931" width="1.197" height="1.197"/>
				<rect x="191.046" y="23.733" width="1.197" height="1.198"/>
				<rect x="193.441" y="23.733" width="1.198" height="1.198"/>
				<rect x="189.848" y="24.931" width="1.198" height="1.197"/>
				<rect x="192.243" y="24.931" width="1.198" height="1.197"/>
				<rect x="195.836" y="23.733" width="1.198" height="1.198"/>
				<rect x="198.231" y="23.733" width="1.198" height="1.198"/>
				<rect x="194.639" y="24.931" width="1.198" height="1.197"/>
				<rect x="197.034" y="24.931" width="1.197" height="1.197"/>
				<rect x="200.626" y="23.733" width="1.198" height="1.198"/>
				<rect x="203.021" y="23.733" width="1.199" height="1.198"/>
				<rect x="199.429" y="24.931" width="1.197" height="1.197"/>
				<rect x="201.824" y="24.931" width="1.197" height="1.197"/>
				<rect x="205.417" y="23.733" width="1.198" height="1.198"/>
				<rect x="207.812" y="23.733" width="1.198" height="1.198"/>
				<rect x="204.22" y="24.931" width="1.197" height="1.197"/>
				<rect x="206.614" y="24.931" width="1.197" height="1.197"/>
				<rect x="210.207" y="23.733" width="1.197" height="1.198"/>
				<rect x="209.009" y="24.931" width="1.198" height="1.197"/>
				<rect x="211.404" y="24.931" width="1.198" height="1.197"/>
				<rect x="162.304" y="26.128" width="1.197" height="1.198"/>
				<rect x="164.698" y="26.128" width="1.199" height="1.198"/>
				<rect x="161.106" y="27.326" width="1.198" height="1.197"/>
				<rect x="163.501" y="27.326" width="1.196" height="1.197"/>
				<rect x="167.094" y="26.128" width="1.197" height="1.198"/>
				<rect x="169.489" y="26.128" width="1.198" height="1.198"/>
				<rect x="165.896" y="27.326" width="1.198" height="1.197"/>
				<rect x="168.291" y="27.326" width="1.198" height="1.197"/>
				<rect x="171.885" y="26.128" width="1.197" height="1.198"/>
				<rect x="174.279" y="26.128" width="1.198" height="1.198"/>
				<rect x="170.687" y="27.326" width="1.198" height="1.197"/>
				<rect x="173.082" y="27.326" width="1.197" height="1.197"/>
				<rect x="176.675" y="26.128" width="1.197" height="1.198"/>
				<rect x="179.069" y="26.128" width="1.198" height="1.198"/>
				<rect x="175.477" y="27.326" width="1.198" height="1.197"/>
				<rect x="177.872" y="27.326" width="1.197" height="1.197"/>
				<rect x="181.465" y="26.128" width="1.197" height="1.198"/>
				<rect x="183.86" y="26.128" width="1.198" height="1.198"/>
				<rect x="180.267" y="27.326" width="1.198" height="1.197"/>
				<rect x="182.662" y="27.326" width="1.198" height="1.197"/>
				<rect x="186.256" y="26.128" width="1.197" height="1.198"/>
				<rect x="188.65" y="26.128" width="1.197" height="1.198"/>
				<rect x="185.058" y="27.326" width="1.198" height="1.197"/>
				<rect x="187.453" y="27.326" width="1.197" height="1.197"/>
				<rect x="191.046" y="26.128" width="1.197" height="1.198"/>
				<rect x="193.441" y="26.128" width="1.198" height="1.198"/>
				<rect x="189.848" y="27.326" width="1.198" height="1.197"/>
				<rect x="192.243" y="27.326" width="1.198" height="1.197"/>
				<rect x="195.836" y="26.128" width="1.198" height="1.198"/>
				<rect x="198.231" y="26.128" width="1.198" height="1.198"/>
				<rect x="194.639" y="27.326" width="1.198" height="1.197"/>
				<rect x="197.034" y="27.326" width="1.197" height="1.197"/>
				<rect x="200.626" y="26.128" width="1.198" height="1.198"/>
				<rect x="203.021" y="26.128" width="1.199" height="1.198"/>
				<rect x="199.429" y="27.326" width="1.197" height="1.197"/>
				<rect x="201.824" y="27.326" width="1.197" height="1.197"/>
				<rect x="205.417" y="26.128" width="1.198" height="1.198"/>
				<rect x="207.812" y="26.128" width="1.198" height="1.198"/>
				<rect x="204.22" y="27.326" width="1.197" height="1.197"/>
				<rect x="206.614" y="27.326" width="1.197" height="1.197"/>
				<rect x="210.207" y="26.128" width="1.197" height="1.198"/>
				<rect x="209.009" y="27.326" width="1.198" height="1.197"/>
				<rect x="211.404" y="27.326" width="1.198" height="1.197"/>
			</g>
		</g>
		<path fill="#3598DB" d="M17.137,59.744c3.616-9.75,13.002-16.699,24.01-16.699H332.18c11.007,0,20.393,6.947,24.009,16.696"/>
		<path fill="#CF57FF" d="M17.137,59.744c3.616-9.75,13.002-16.699,24.01-16.699H332.18c11.007,0,20.393,6.947,24.009,16.696"/>
		<path fill="#77BAD8" d="M15.065,111.246V68.645c0-14.138,11.461-25.6,25.6-25.6h291.033c14.139,0,25.6,11.461,25.6,25.6v42.671"/>
		<g id="camera">
			<ellipse fill="#262626" cx="80.795" cy="24.931" rx="4.704" ry="4.5"/>
			<ellipse fill="#262626" cx="63.565" cy="25.408" rx="3.624" ry="3.467"/>
			<ellipse fill="#141414" cx="111.659" cy="24.931" rx="2.662" ry="2.546"/>
			<ellipse fill="#141414" cx="125.875" cy="24.931" rx="2.662" ry="2.546"/>
			<ellipse fill="#1E1E1E" cx="280.01" cy="26.128" rx="3.041" ry="2.909"/>
			<g>
				<ellipse fill="#262626" cx="250.472" cy="26.728" rx="4.704" ry="4.5"/>
				<ellipse opacity="0.2" fill="#EAE5E5" cx="248.853" cy="27.075" rx="1.403" ry="1.31"/>
			</g>
		</g>
	</g>
	<g id="noti_1_">
		<path id="noti" fill="#4383F3" d="M15.065,111.246V68.645c0-14.138,11.461-25.6,25.6-25.6h291.033c14.139,0,25.6,11.461,25.6,25.6
			v42.671"/>
		<path id="noti_2_" display="none" fill="#FAFAFA" d="M15.065,111.246V68.645c0-14.138,11.461-25.6,25.6-25.6h291.033
			c14.139,0,25.6,11.461,25.6,25.6v42.671"/>
		<path id="darknoti" fill="#3871CF" d="M15.842,62.361c2.802-11.1,12.853-19.315,24.824-19.315h291.033
			c12.112,0,22.26,8.411,24.92,19.712"/>
		<g>
			<path fill="#FFFFFF" d="M306.932,53.236c0.423,0.498,0.634,1.119,0.634,1.865c0,0.589-0.131,1.109-0.392,1.561
				c-0.261,0.452-0.632,0.802-1.113,1.051c-0.481,0.249-1.041,0.373-1.679,0.373c-0.498,0-0.995-0.073-1.492-0.218
				s-0.917-0.337-1.256-0.578l0.56-1.219c0.365,0.208,0.738,0.367,1.12,0.479c0.381,0.112,0.738,0.167,1.069,0.167
				c0.531,0,0.941-0.141,1.231-0.423c0.29-0.282,0.435-0.68,0.435-1.194c0-0.48-0.139-0.858-0.417-1.132
				c-0.278-0.273-0.661-0.41-1.15-0.41c-0.257,0-0.527,0.033-0.809,0.1l-0.572-0.734l2.562-2.711h-3.818V48.92h5.435v1.293
				l-2.064,2.139C305.937,52.444,306.509,52.738,306.932,53.236z"/>
			<path fill="#FFFFFF" d="M309.494,52.147c-0.166-0.162-0.249-0.383-0.249-0.666c0-0.29,0.083-0.516,0.249-0.678
				s0.398-0.242,0.697-0.242c0.298,0,0.53,0.081,0.696,0.242c0.166,0.162,0.249,0.384,0.249,0.666c0,0.29-0.083,0.516-0.249,0.678
				c-0.166,0.162-0.398,0.243-0.696,0.243C309.892,52.39,309.66,52.309,309.494,52.147z M309.494,56.127
				c-0.166-0.162-0.249-0.384-0.249-0.666c0-0.29,0.083-0.516,0.249-0.678s0.398-0.243,0.697-0.243c0.298,0,0.53,0.081,0.696,0.243
				c0.166,0.162,0.249,0.383,0.249,0.665c0,0.291-0.083,0.516-0.249,0.678c-0.166,0.162-0.398,0.242-0.696,0.242
				C309.892,56.37,309.66,56.289,309.494,56.127z"/>
			<path fill="#FFFFFF" d="M318.187,56.631v1.293h-5.596v-1.306l3.009-3.482c0.39-0.456,0.659-0.814,0.809-1.076
				s0.224-0.516,0.224-0.765c0-0.365-0.124-0.653-0.373-0.864c-0.249-0.211-0.589-0.317-1.02-0.317c-0.34,0-0.688,0.058-1.045,0.174
				c-0.356,0.116-0.696,0.282-1.02,0.498l-0.672-1.132c0.365-0.265,0.809-0.48,1.331-0.646c0.522-0.166,1.032-0.249,1.529-0.249
				c0.547,0,1.03,0.102,1.449,0.305c0.418,0.204,0.742,0.487,0.97,0.852c0.228,0.365,0.342,0.788,0.342,1.269
				c0,0.431-0.108,0.858-0.323,1.281c-0.216,0.423-0.581,0.924-1.095,1.504l-2.363,2.662H318.187z"/>
			<path fill="#FFFFFF" d="M320.37,56.954c-0.519-0.754-0.777-1.932-0.777-3.532c0-1.608,0.257-2.788,0.771-3.539
				c0.514-0.75,1.297-1.125,2.351-1.125c1.061,0,1.851,0.375,2.369,1.125c0.518,0.75,0.777,1.93,0.777,3.539
				c0,1.6-0.259,2.777-0.777,3.532c-0.519,0.755-1.304,1.132-2.357,1.132S320.888,57.709,320.37,56.954z M323.958,55.965
				c0.257-0.535,0.385-1.382,0.385-2.543s-0.13-2.009-0.392-2.543s-0.674-0.802-1.237-0.802c-0.556,0-0.962,0.268-1.219,0.802
				c-0.257,0.535-0.386,1.383-0.386,2.543s0.128,2.008,0.386,2.543c0.257,0.535,0.667,0.802,1.231,0.802
				S323.701,56.5,323.958,55.965z"/>
			<path fill="#FFFFFF" d="M333.099,49.71c0.514,0.526,0.771,1.271,0.771,2.232s-0.265,1.71-0.796,2.245s-1.273,0.802-2.226,0.802
				h-1.691v2.935h-1.492V48.92h3.258C331.859,48.92,332.584,49.184,333.099,49.71z M332.328,51.967c0-1.145-0.494-1.716-1.48-1.716
				h-1.691v3.408h1.766C331.859,53.659,332.328,53.095,332.328,51.967z"/>
			<path fill="#FFFFFF" d="M343.607,48.92v9.004h-1.455v-6.616l-2.027,4.825h-1.554l-2.052-4.863v6.654h-1.417V48.92h1.791
				l2.462,5.833l2.438-5.833H343.607z"/>
		</g>
		<g>
			<rect x="291.831" y="48.157" fill="none" stroke="#FFFFFF" stroke-miterlimit="10" width="6.005" height="9.108"/>
			<rect x="293.188" y="46.489" fill="#FFFFFF" width="3.291" height="1.668"/>
			<rect x="291.831" y="51.143" fill="#FFFFFF" width="6.005" height="6.152"/>
		</g>
		<g>
			<g>
				<path fill="#FFFFFF" d="M266.43,57.775c-0.469-0.207-0.829-0.501-1.082-0.883s-0.379-0.821-0.379-1.318s0.168-0.959,0.504-1.387
					c0.335-0.427,0.781-0.744,1.337-0.951c-0.448-0.158-0.811-0.436-1.088-0.833s-0.417-0.833-0.417-1.306
					c0-0.464,0.114-0.873,0.342-1.225s0.549-0.626,0.964-0.821s0.899-0.292,1.455-0.292s1.042,0.098,1.461,0.292
					c0.418,0.195,0.742,0.468,0.97,0.821c0.228,0.353,0.342,0.761,0.342,1.225c0,0.473-0.139,0.901-0.417,1.287
					s-0.645,0.657-1.101,0.814c0.555,0.166,1.003,0.462,1.343,0.889c0.34,0.427,0.51,0.914,0.51,1.461
					c0,0.506-0.129,0.95-0.386,1.331c-0.257,0.382-0.62,0.678-1.088,0.89c-0.469,0.211-1.014,0.317-1.636,0.317
					C267.444,58.086,266.898,57.982,266.43,57.775z M269.259,56.463c0.291-0.244,0.436-0.574,0.436-0.989
					c0-0.348-0.149-0.673-0.448-0.976s-0.709-0.549-1.231-0.74c-0.489,0.166-0.873,0.4-1.15,0.703s-0.417,0.636-0.417,1.001
					c0,0.423,0.143,0.757,0.429,1.001c0.286,0.245,0.682,0.367,1.188,0.367S268.969,56.708,269.259,56.463z M269.042,52.091
					c0.219-0.249,0.33-0.535,0.33-0.858c0-0.381-0.116-0.682-0.349-0.902c-0.232-0.219-0.551-0.33-0.958-0.33
					s-0.723,0.108-0.951,0.324c-0.228,0.215-0.342,0.514-0.342,0.896c0,0.315,0.12,0.601,0.361,0.858
					c0.24,0.257,0.572,0.456,0.995,0.597C268.518,52.535,268.822,52.34,269.042,52.091z"/>
				<path fill="#FFFFFF" d="M277.082,52.539c0.406,0.241,0.719,0.579,0.939,1.014c0.22,0.436,0.33,0.939,0.33,1.511
					c0,0.597-0.125,1.125-0.373,1.585c-0.249,0.46-0.599,0.815-1.051,1.063c-0.452,0.249-0.977,0.373-1.573,0.373
					c-0.614,0-1.15-0.128-1.611-0.385c-0.46-0.257-0.816-0.622-1.069-1.095s-0.379-1.02-0.379-1.642
					c0-0.696,0.128-1.345,0.386-1.946c0.257-0.601,0.7-1.283,1.331-2.046l1.841-2.214l1.156,0.896l-1.853,2.114
					c-0.215,0.249-0.373,0.436-0.473,0.56c0.315-0.099,0.647-0.149,0.995-0.149C276.208,52.179,276.676,52.299,277.082,52.539z
					 M276.448,56.345c0.265-0.298,0.398-0.713,0.398-1.244c0-0.547-0.141-0.974-0.423-1.281s-0.671-0.46-1.169-0.46
					c-0.406,0-0.804,0.091-1.194,0.274c-0.183,0.39-0.273,0.829-0.273,1.318c0,0.58,0.139,1.032,0.417,1.355s0.661,0.485,1.15,0.485
					C275.818,56.792,276.183,56.644,276.448,56.345z"/>
				<path fill="#FFFFFF" d="M279.321,51.532c0-1.849,0.671-2.773,2.015-2.773c1.352,0,2.027,0.925,2.027,2.773
					c0,1.841-0.676,2.761-2.027,2.761C279.992,54.293,279.321,53.373,279.321,51.532z M281.933,52.85
					c0.124-0.273,0.187-0.713,0.187-1.318c0-0.605-0.063-1.046-0.187-1.324c-0.125-0.278-0.323-0.417-0.597-0.417
					c-0.265,0-0.46,0.139-0.584,0.417s-0.187,0.719-0.187,1.324c0,0.605,0.062,1.045,0.187,1.318s0.319,0.411,0.584,0.411
					C281.609,53.261,281.808,53.124,281.933,52.85z M286.136,48.92h1.244l-4.39,9.004h-1.256L286.136,48.92z M285.75,55.313
					c0-1.84,0.676-2.761,2.027-2.761c1.351,0,2.027,0.92,2.027,2.761c0,1.849-0.676,2.773-2.027,2.773
					C286.426,58.086,285.75,57.162,285.75,55.313z M288.375,56.637c0.125-0.278,0.187-0.719,0.187-1.325
					c0-0.605-0.062-1.044-0.187-1.318c-0.124-0.273-0.323-0.41-0.597-0.41c-0.274,0-0.473,0.137-0.597,0.41
					c-0.125,0.274-0.187,0.713-0.187,1.318c0,0.605,0.062,1.047,0.187,1.325s0.323,0.417,0.597,0.417
					C288.051,57.054,288.25,56.915,288.375,56.637z"/>
			</g>
		</g>
		<g>
			<g>
				<path fill="#FFFFFF" d="M249.742,54.835c0.069,0.069,0.104,0.158,0.104,0.265v2.211c0,0.107-0.034,0.196-0.104,0.265
					c-0.069,0.069-0.158,0.104-0.265,0.104h-1.105c-0.107,0-0.196-0.035-0.265-0.104c-0.069-0.069-0.104-0.158-0.104-0.265V55.1
					c0-0.107,0.035-0.196,0.104-0.265c0.069-0.069,0.157-0.104,0.265-0.104h1.105C249.584,54.731,249.673,54.766,249.742,54.835z
					 M252.691,52.624c0.069,0.069,0.104,0.158,0.104,0.265v4.422c0,0.107-0.035,0.196-0.104,0.265
					c-0.069,0.069-0.158,0.104-0.265,0.104h-1.105c-0.108,0-0.196-0.035-0.265-0.104c-0.069-0.069-0.104-0.158-0.104-0.265v-4.422
					c0-0.107,0.035-0.196,0.104-0.265c0.069-0.069,0.157-0.104,0.265-0.104h1.105C252.533,52.52,252.622,52.555,252.691,52.624z
					 M255.639,50.412c0.069,0.069,0.104,0.158,0.104,0.265v6.634c0,0.107-0.034,0.196-0.104,0.265
					c-0.069,0.069-0.158,0.104-0.265,0.104h-1.106c-0.107,0-0.196-0.035-0.265-0.104c-0.069-0.069-0.104-0.158-0.104-0.265v-6.634
					c0-0.107,0.035-0.196,0.104-0.265c0.069-0.069,0.157-0.104,0.265-0.104h1.106C255.481,50.309,255.57,50.343,255.639,50.412z
					 M258.588,48.201c0.069,0.069,0.104,0.158,0.104,0.265v8.845c0,0.107-0.035,0.196-0.104,0.265
					c-0.069,0.069-0.158,0.104-0.265,0.104h-1.105c-0.108,0-0.196-0.035-0.265-0.104c-0.069-0.069-0.104-0.158-0.104-0.265v-8.845
					c0-0.107,0.035-0.196,0.104-0.265c0.069-0.069,0.157-0.104,0.265-0.104h1.105C258.43,48.097,258.519,48.132,258.588,48.201z
					 M261.536,45.989c0.069,0.069,0.104,0.158,0.104,0.265v11.057c0,0.107-0.034,0.196-0.104,0.265
					c-0.069,0.069-0.158,0.104-0.265,0.104h-1.106c-0.107,0-0.196-0.035-0.265-0.104c-0.069-0.069-0.104-0.158-0.104-0.265V46.254
					c0-0.107,0.035-0.196,0.104-0.265c0.069-0.069,0.157-0.104,0.265-0.104h1.106C261.378,45.886,261.467,45.92,261.536,45.989z"/>
			</g>
		</g>
		<g>
			<g>
				<path fill="#FFFFFF" d="M243.833,50.595c0,0.108-0.039,0.2-0.115,0.277l-0.783,0.783c-0.077,0.062-0.166,0.096-0.265,0.104
					c-0.1,0.008-0.181-0.027-0.242-0.104c-1.106-1.013-2.388-1.696-3.847-2.05c-1.413-0.353-2.826-0.353-4.238,0
					c-1.459,0.354-2.741,1.037-3.847,2.05c-0.062,0.077-0.142,0.112-0.242,0.104s-0.188-0.042-0.265-0.104l-0.783-0.783
					c-0.077-0.077-0.115-0.169-0.115-0.277c0-0.107,0.038-0.191,0.115-0.253c1.336-1.244,2.895-2.081,4.676-2.511
					c1.72-0.43,3.439-0.43,5.16,0c1.781,0.43,3.34,1.267,4.676,2.511C243.794,50.403,243.833,50.488,243.833,50.595z
					 M241.253,53.221c0,0.108-0.039,0.2-0.115,0.277l-0.783,0.783c-0.077,0.062-0.161,0.092-0.253,0.092s-0.177-0.03-0.253-0.092
					c-0.645-0.538-1.371-0.902-2.177-1.094s-1.612-0.192-2.418,0c-0.807,0.192-1.532,0.557-2.177,1.094
					c-0.077,0.062-0.161,0.092-0.253,0.092c-0.092,0-0.176-0.03-0.253-0.092l-0.783-0.783c-0.077-0.077-0.115-0.169-0.115-0.277
					c0-0.107,0.038-0.199,0.115-0.276c0.875-0.768,1.873-1.286,2.994-1.555c1.121-0.269,2.242-0.269,3.363,0
					c1.121,0.269,2.119,0.787,2.995,1.555C241.214,53.021,241.253,53.114,241.253,53.221z M237.51,55.306
					c0.284,0.284,0.426,0.633,0.426,1.048c0,0.415-0.143,0.764-0.426,1.048c-0.285,0.284-0.634,0.426-1.048,0.426
					s-0.764-0.143-1.048-0.426c-0.285-0.284-0.426-0.633-0.426-1.048c0-0.415,0.142-0.764,0.426-1.048
					c0.284-0.284,0.633-0.426,1.048-0.426S237.225,55.021,237.51,55.306z"/>
			</g>
		</g>
		<g>
			<path fill="#FFFFFF" d="M46.636,56.976c0,0.986-0.69,1.784-1.541,1.784H34.5c-0.851,0-1.541-0.798-1.541-1.784v-7.306
				c0-0.985,0.69-1.784,1.541-1.784h10.595c0.851,0,1.541,0.799,1.541,1.784V56.976z"/>
			<path fill="#CCCCCC" d="M35.701,56.463c-0.687,0.464-1.36,0.667-1.504,0.454l0,0c-0.144-0.213,0.296-0.763,0.981-1.227l8.287-5.6
				c0.686-0.464,1.36-0.667,1.504-0.454l0,0c0.144,0.213-0.295,0.762-0.982,1.226L35.701,56.463z"/>
			<path fill="#CCCCCC" d="M35.376,50.743c-0.673-0.483-1.088-1.056-0.928-1.28l0,0c0.161-0.225,0.838-0.014,1.511,0.469
				l8.125,5.832c0.673,0.482,1.089,1.056,0.928,1.281l0,0c-0.162,0.224-0.837,0.014-1.51-0.469L35.376,50.743z"/>
		</g>
	</g>
	<g id="base_3_">
		<path id="base_2_" fill="#EFEEF4" d="M357.298,702.525v16.902c0,14.139-11.461,25.601-25.6,25.601H40.666
			c-14.139,0-25.6-11.462-25.6-25.601v-16.902"/>
		<g>
			<g>
				<path fill="#EDEDED" stroke="#757575" stroke-width="2" stroke-miterlimit="10" d="M238.737,713.795
					c1.846,0.884,3.313,2.076,4.402,3.574c1.089,1.499,1.633,3.148,1.633,4.946c0,1.799-0.544,3.448-1.633,4.947
					c-1.089,1.5-2.556,2.691-4.402,3.574c-1.846,0.884-3.874,1.325-6.083,1.325c-1.768,0-3.456-0.299-5.065-0.899
					c-0.821,0.632-1.688,1.152-2.604,1.562c-1.326,0.568-2.683,0.852-4.071,0.852c-0.159,0-0.269-0.079-0.332-0.236
					c-0.063-0.159-0.047-0.3,0.047-0.426c0.284-0.284,0.646-0.742,1.089-1.373c0.757-1.104,1.262-2.146,1.515-3.125
					c-0.852-0.883-1.515-1.846-1.988-2.887c-0.473-1.042-0.71-2.146-0.71-3.314c0-1.798,0.544-3.447,1.633-4.946
					c1.088-1.499,2.556-2.69,4.402-3.574c1.846-0.883,3.874-1.325,6.083-1.325C234.863,712.47,236.891,712.913,238.737,713.795z"/>
			</g>
		</g>
		<g>
			<g>
				<path fill="#3598DB" d="M159.946,733.901c0,0.315-0.111,0.583-0.332,0.805l-1.325,1.326c-0.221,0.22-0.49,0.331-0.805,0.331
					c-0.316,0-0.584-0.111-0.805-0.331l-4.734-4.734c-0.221-0.22-0.332-0.489-0.332-0.805v-0.757
					c-1.768,1.389-3.787,2.083-6.059,2.083c-1.799,0-3.448-0.442-4.947-1.326c-1.5-0.883-2.691-2.075-3.574-3.574
					c-0.884-1.499-1.325-3.148-1.325-4.947s0.441-3.447,1.325-4.947c0.883-1.498,2.075-2.69,3.574-3.574
					c1.499-0.883,3.148-1.325,4.947-1.325c1.798,0,3.447,0.442,4.946,1.325c1.499,0.884,2.69,2.076,3.574,3.574
					c0.883,1.5,1.325,3.148,1.325,4.947c0,2.272-0.694,4.292-2.083,6.059h0.757c0.315,0,0.583,0.111,0.805,0.332l4.733,4.733
					C159.835,733.318,159.946,733.586,159.946,733.901z M148.608,727.227c0.931-0.536,1.665-1.27,2.201-2.201
					c0.537-0.93,0.805-1.948,0.805-3.053c0-1.104-0.268-2.122-0.805-3.053c-0.537-0.93-1.271-1.664-2.201-2.201
					c-0.931-0.536-1.949-0.805-3.053-0.805c-1.105,0-2.123,0.269-3.053,0.805c-0.931,0.537-1.665,1.271-2.201,2.201
					c-0.537,0.931-0.805,1.949-0.805,3.053c0,1.105,0.268,2.123,0.805,3.053c0.536,0.931,1.27,1.665,2.201,2.201
					c0.93,0.537,1.948,0.805,3.053,0.805C146.66,728.032,147.677,727.764,148.608,727.227z"/>
			</g>
		</g>
		<g>
			<g>
				<path fill="#EDEDED" stroke="#757575" stroke-width="2" stroke-miterlimit="10" d="M321.037,726.908
					c0.93,0.537,1.664,1.271,2.201,2.201c0.536,0.931,0.805,1.949,0.805,3.053v0.757c0,0.631-0.221,1.167-0.663,1.609
					c-0.442,0.442-0.979,0.663-1.61,0.663h-19.692c-0.631,0-1.167-0.221-1.609-0.663c-0.442-0.442-0.663-0.979-0.663-1.609v-0.757
					c0-1.104,0.268-2.122,0.805-3.053c0.536-0.931,1.27-1.664,2.201-2.201c0.931-0.536,1.948-0.805,3.053-0.805h2.604
					c1.104,0.505,2.256,0.757,3.456,0.757c1.199,0,2.351-0.252,3.456-0.757h2.604C319.088,726.103,320.106,726.372,321.037,726.908z
					 M308.517,723.665c-1.042-0.615-1.87-1.443-2.485-2.485c-0.615-1.042-0.923-2.178-0.923-3.408c0-1.231,0.308-2.367,0.923-3.408
					c0.616-1.042,1.444-1.87,2.485-2.485s2.177-0.923,3.408-0.923c1.23,0,2.367,0.308,3.408,0.923s1.87,1.444,2.485,2.485
					c0.615,1.041,0.923,2.177,0.923,3.408c0,1.23-0.308,2.367-0.923,3.408c-0.616,1.042-1.444,1.87-2.485,2.485
					c-1.042,0.616-2.178,0.923-3.408,0.923C310.694,724.588,309.558,724.281,308.517,723.665z"/>
			</g>
		</g>
		<path fill="#EDEDED" stroke="#757575" stroke-width="2" stroke-miterlimit="10" d="M78.618,724.162
			c0-0.388-0.334-0.662-0.598-0.867c-0.343-0.267-0.663-0.548-0.99-0.838c-0.08-0.073-0.162-0.148-0.242-0.219l-10.964-9.651
			c-0.798-0.719-1.333,0-1.333,0l-12.443,10.918c-0.451,0.374-0.411,0.925-0.411,0.925l2.688,1.252l0.01,8.212
			c0,0,0,1.23,1.195,1.379h6.446c0.643-0.107,0.569-0.792,0.569-0.792v-6.417c0,0,0.013-0.657,0.583-0.641l3.993-0.002
			c0,0,0.566,0.016,0.611,0.643l-0.009,6.385c0,0-0.099,0.833,0.707,0.833l6.191-0.01c1.524-0.032,1.296-1.69,1.296-1.69v-6.555
			v-0.771c0,0,0-0.417,0-0.791L78.618,724.162z"/>
	</g>
</g>
<line fill="none" stroke="#C6C6C6" stroke-width="2" stroke-miterlimit="10" x1="15.065" y1="111.316" x2="357.298" y2="111.316"/>
<g>
	<g>
		<path fill="#FFFDFD" d="M42.874,93.204l-0.754,0.721c-0.153,0.153-0.339,0.229-0.557,0.229c-0.219,0-0.405-0.077-0.558-0.229
			l-6.362-6.362c-0.153-0.152-0.229-0.338-0.229-0.557s0.076-0.404,0.229-0.558l6.362-6.362c0.153-0.153,0.339-0.229,0.558-0.229
			c0.218,0,0.404,0.077,0.557,0.229l0.754,0.721c0.153,0.153,0.224,0.339,0.213,0.558c-0.012,0.219-0.093,0.405-0.246,0.558
			l-3.935,3.771h9.411c0.218,0,0.404,0.077,0.558,0.229c0.153,0.153,0.229,0.339,0.229,0.558v1.049c0,0.219-0.077,0.405-0.229,0.558
			c-0.153,0.153-0.339,0.229-0.558,0.229h-9.411l3.935,3.771c0.153,0.153,0.234,0.339,0.246,0.558
			C43.098,92.865,43.026,93.051,42.874,93.204z"/>
	</g>
	<g>
		<path fill="#FFFDFD" d="M339.783,79.562c0.459-0.459,1.017-0.688,1.672-0.688s1.213,0.229,1.672,0.688
			c0.459,0.459,0.689,1.017,0.689,1.673c0,0.656-0.229,1.213-0.689,1.672c-0.459,0.459-1.017,0.688-1.672,0.688
			s-1.213-0.229-1.672-0.688c-0.459-0.459-0.688-1.017-0.688-1.672C339.094,80.579,339.324,80.021,339.783,79.562z M339.783,85.333
			c-0.459,0.459-0.688,1.017-0.688,1.673c0,0.656,0.229,1.213,0.688,1.672c0.459,0.459,1.017,0.688,1.672,0.688
			s1.213-0.229,1.672-0.688c0.459-0.459,0.689-1.017,0.689-1.672c0-0.656-0.229-1.213-0.689-1.673
			c-0.459-0.459-1.017-0.688-1.672-0.688S340.242,84.875,339.783,85.333z M339.783,91.105c0.459-0.459,1.017-0.688,1.672-0.688
			s1.213,0.229,1.672,0.688c0.459,0.459,0.689,1.017,0.689,1.672c0,0.656-0.229,1.213-0.689,1.673
			c-0.459,0.459-1.017,0.688-1.672,0.688s-1.213-0.229-1.672-0.688c-0.459-0.459-0.688-1.017-0.688-1.673
			C339.094,92.122,339.324,91.564,339.783,91.105z"/>
	</g>
	<g>
		<path fill="#FFFFFF" d="M64.675,93.303h-1.476V82.801h-3.812v-1.328h9.1v1.328h-3.812V93.303z"/>
		<path fill="#FFFFFF" d="M69.356,93.303v-8.837h1.344v1.312h0.131c0.131-0.432,0.426-0.784,0.885-1.058
			c0.459-0.273,0.981-0.41,1.566-0.41c0.268,0,0.503,0.014,0.705,0.041v1.41c-0.191-0.054-0.492-0.082-0.902-0.082
			c-0.672,0-1.227,0.202-1.664,0.606c-0.438,0.404-0.656,0.918-0.656,1.541v5.477H69.356z"/>
		<path fill="#FFFFFF" d="M77.186,82.379c-0.191,0.194-0.423,0.291-0.697,0.291s-0.505-0.097-0.697-0.291s-0.287-0.425-0.287-0.693
			c0-0.268,0.096-0.499,0.287-0.693c0.191-0.194,0.423-0.291,0.697-0.291s0.505,0.097,0.697,0.291
			c0.191,0.194,0.287,0.425,0.287,0.693C77.473,81.955,77.377,82.186,77.186,82.379z M75.784,93.303v-8.837h1.41v8.837H75.784z"/>
		<path fill="#FFFFFF" d="M84.187,84.31c1.125,0,2.026,0.415,2.701,1.246c0.675,0.831,1.012,1.94,1.012,3.328
			c0,1.383-0.339,2.491-1.017,3.325s-1.577,1.25-2.697,1.25c-0.629,0-1.186-0.13-1.673-0.39c-0.486-0.259-0.85-0.624-1.09-1.094
			h-0.131v4.279h-1.41V84.466h1.344v1.476h0.131c0.284-0.508,0.676-0.907,1.176-1.197C83.035,84.455,83.585,84.31,84.187,84.31z
			 M83.851,92.188c0.809,0,1.443-0.292,1.902-0.877c0.459-0.584,0.689-1.394,0.689-2.427c0-1.033-0.229-1.842-0.685-2.426
			c-0.457-0.585-1.089-0.877-1.898-0.877c-0.798,0-1.432,0.296-1.902,0.89c-0.47,0.593-0.705,1.397-0.705,2.414
			c0,1.011,0.233,1.815,0.701,2.411S83.053,92.188,83.851,92.188z"/>
		<path fill="#FFFFFF" d="M90.196,93.303V80.957h1.41v12.346H90.196z"/>
		<path fill="#FFFFFF" d="M100.198,91.016h1.41c-0.213,0.765-0.646,1.364-1.3,1.795c-0.653,0.432-1.46,0.647-2.422,0.647
			c-1.224,0-2.194-0.411-2.91-1.234c-0.716-0.822-1.074-1.933-1.074-3.333c0-1.394,0.361-2.506,1.083-3.336
			c0.721-0.831,1.688-1.246,2.902-1.246c1.191,0,2.129,0.396,2.812,1.188s1.025,1.877,1.025,3.255v0.541h-6.354v0.065
			c0.038,0.875,0.285,1.569,0.742,2.083s1.059,0.771,1.808,0.771C99.061,92.213,99.82,91.814,100.198,91.016z M97.87,85.556
			c-0.705,0-1.285,0.238-1.738,0.713c-0.454,0.476-0.708,1.104-0.762,1.886h4.87c-0.017-0.781-0.241-1.41-0.672-1.886
			C99.135,85.794,98.569,85.556,97.87,85.556z"/>
		<path fill="#FFFFFF" d="M103.551,90.212h1.492c0.093,0.618,0.413,1.11,0.959,1.476c0.546,0.366,1.241,0.549,2.083,0.549
			c0.798,0,1.458-0.192,1.979-0.578s0.783-0.871,0.783-1.456c0-0.502-0.191-0.919-0.574-1.25c-0.382-0.331-0.981-0.6-1.795-0.808
			l-1.517-0.394c-1.071-0.268-1.85-0.656-2.336-1.164s-0.729-1.183-0.729-2.025c0-1.005,0.384-1.818,1.152-2.439
			c0.768-0.62,1.777-0.93,3.029-0.93c1.142,0,2.099,0.306,2.869,0.918c0.771,0.612,1.186,1.396,1.246,2.353h-1.484
			c-0.104-0.607-0.392-1.081-0.865-1.422c-0.473-0.342-1.078-0.513-1.816-0.513c-0.787,0-1.42,0.182-1.898,0.545
			s-0.717,0.843-0.717,1.438c0,0.465,0.176,0.842,0.529,1.131c0.353,0.29,0.936,0.539,1.75,0.746l1.238,0.328
			c1.224,0.306,2.103,0.716,2.636,1.229c0.533,0.514,0.799,1.205,0.799,2.074c0,1.088-0.399,1.953-1.197,2.595
			c-0.798,0.642-1.872,0.963-3.222,0.963c-1.251,0-2.278-0.306-3.078-0.918C104.066,92.052,103.627,91.234,103.551,90.212z"/>
		<path fill="#FFFFFF" d="M126.473,93.303h-1.377v-9.034h-0.099l-3.73,8.952h-1.246l-3.73-8.952h-0.098v9.034h-1.377v-11.83h1.713
			l4.05,9.789h0.131l4.05-9.789h1.713V93.303z"/>
		<path fill="#FFFFFF" d="M128.924,90.212h1.492c0.093,0.618,0.413,1.11,0.959,1.476c0.546,0.366,1.241,0.549,2.083,0.549
			c0.798,0,1.458-0.192,1.979-0.578s0.783-0.871,0.783-1.456c0-0.502-0.191-0.919-0.574-1.25c-0.382-0.331-0.981-0.6-1.795-0.808
			l-1.517-0.394c-1.071-0.268-1.85-0.656-2.336-1.164s-0.729-1.183-0.729-2.025c0-1.005,0.384-1.818,1.152-2.439
			c0.768-0.62,1.777-0.93,3.029-0.93c1.142,0,2.099,0.306,2.869,0.918c0.771,0.612,1.186,1.396,1.246,2.353h-1.484
			c-0.104-0.607-0.392-1.081-0.865-1.422c-0.473-0.342-1.078-0.513-1.816-0.513c-0.787,0-1.42,0.182-1.898,0.545
			s-0.717,0.843-0.717,1.438c0,0.465,0.176,0.842,0.529,1.131c0.353,0.29,0.936,0.539,1.75,0.746l1.238,0.328
			c1.224,0.306,2.103,0.716,2.636,1.229c0.533,0.514,0.799,1.205,0.799,2.074c0,1.088-0.399,1.953-1.197,2.595
			c-0.798,0.642-1.872,0.963-3.222,0.963c-1.251,0-2.278-0.306-3.078-0.918C129.439,92.052,129,91.234,128.924,90.212z"/>
	</g>
</g>
<g>
	<g>
		<path fill="#969696" d="M168.801,143.671h-1.292v-9.189h-3.335v-1.162h7.962v1.162h-3.335V143.671z"/>
		<path fill="#969696" d="M178.323,142.735c-0.638,0.715-1.507,1.072-2.607,1.072s-1.969-0.357-2.607-1.072
			c-0.639-0.715-0.958-1.692-0.958-2.93c0-1.244,0.318-2.222,0.954-2.934c0.636-0.712,1.506-1.069,2.611-1.069
			s1.975,0.356,2.611,1.069c0.636,0.712,0.954,1.69,0.954,2.934C179.281,141.043,178.962,142.021,178.323,142.735z M174.023,141.939
			c0.397,0.505,0.961,0.757,1.693,0.757c0.732,0,1.296-0.252,1.693-0.757c0.397-0.504,0.595-1.216,0.595-2.134
			c0-0.918-0.198-1.63-0.595-2.134s-0.961-0.757-1.693-0.757c-0.731,0-1.296,0.252-1.693,0.757s-0.595,1.216-0.595,2.134
			C173.428,140.723,173.626,141.435,174.023,141.939z"/>
		<path fill="#969696" d="M184.08,143.808c-0.99,0-1.779-0.363-2.367-1.09c-0.588-0.727-0.882-1.698-0.882-2.912
			c0-1.21,0.295-2.18,0.886-2.909c0.59-0.729,1.378-1.094,2.364-1.094c0.54,0,1.024,0.121,1.453,0.362
			c0.428,0.242,0.752,0.573,0.972,0.994h0.108v-4.29h1.233v10.803h-1.176v-1.234h-0.115c-0.244,0.431-0.583,0.767-1.019,1.008
			C185.101,143.687,184.615,143.808,184.08,143.808z M184.367,136.914c-0.703,0-1.255,0.257-1.657,0.771
			c-0.402,0.514-0.603,1.221-0.603,2.12c0,0.904,0.199,1.611,0.599,2.123s0.953,0.768,1.661,0.768c0.703,0,1.258-0.258,1.665-0.775
			c0.406-0.516,0.609-1.222,0.609-2.116c0-0.885-0.204-1.588-0.613-2.109C185.619,137.175,185.065,136.914,184.367,136.914z"/>
		<path fill="#969696" d="M192.394,143.808c-0.76,0-1.386-0.209-1.875-0.627c-0.49-0.418-0.735-0.977-0.735-1.675
			c0-0.688,0.244-1.229,0.731-1.621s1.184-0.614,2.087-0.667l2.231-0.136v-0.703c0-0.478-0.148-0.844-0.445-1.098
			c-0.296-0.253-0.731-0.38-1.305-0.38c-0.464,0-0.849,0.083-1.155,0.251s-0.502,0.404-0.588,0.71h-1.249
			c0.082-0.617,0.401-1.114,0.958-1.492c0.557-0.378,1.249-0.567,2.077-0.567c0.937,0,1.662,0.227,2.173,0.682
			c0.512,0.454,0.768,1.085,0.768,1.894v5.294h-1.176v-1.141h-0.115c-0.249,0.412-0.579,0.727-0.99,0.947
			C193.374,143.698,192.91,143.808,192.394,143.808z M192.623,142.725c0.636,0,1.164-0.184,1.582-0.552s0.627-0.83,0.627-1.385
			v-0.71l-2.08,0.136c-0.583,0.038-1.012,0.16-1.284,0.366s-0.409,0.505-0.409,0.897c0,0.387,0.146,0.692,0.438,0.915
			C191.789,142.613,192.164,142.725,192.623,142.725z"/>
		<path fill="#969696" d="M198.721,146.469c-0.196,0-0.38-0.014-0.553-0.043v-1.054c0.125,0.024,0.296,0.036,0.517,0.036
			c0.359,0,0.645-0.096,0.857-0.287c0.212-0.191,0.4-0.519,0.563-0.983l0.144-0.459l-2.862-7.74h1.334l2.123,6.363h0.115
			l2.116-6.363h1.313l-3.02,8.207c-0.33,0.894-0.681,1.505-1.054,1.833S199.409,146.469,198.721,146.469z"/>
	</g>
</g>
<g id="avatorNtext">
	<g>
		<path fill="#4383F3" d="M57.972,163.722c2.949,1.685,5.289,3.958,7.023,6.823c1.732,2.865,2.6,5.982,2.6,9.349
			c0,3.368-0.867,6.484-2.6,9.349c-1.734,2.865-4.075,5.139-7.023,6.823c-2.949,1.684-6.158,2.526-9.624,2.526
			c-3.467,0-6.674-0.842-9.623-2.526c-2.949-1.685-5.291-3.958-7.023-6.823c-1.734-2.865-2.6-5.981-2.6-9.349
			c0-3.367,0.866-6.484,2.6-9.349c1.733-2.865,4.075-5.139,7.023-6.823c2.949-1.683,6.156-2.525,9.623-2.525
			C51.814,161.196,55.022,162.039,57.972,163.722z M54.673,193.013c1.991-0.905,3.686-2.161,5.083-3.77
			c-0.776-1.357-1.837-2.45-3.182-3.28c-1.346-0.829-2.846-1.244-4.501-1.244c-0.155,0-0.337,0.026-0.543,0.075
			c-1.086,0.352-2.147,0.528-3.182,0.528c-1.035,0-2.095-0.176-3.182-0.528c-0.208-0.049-0.388-0.075-0.543-0.075
			c-1.656,0-3.156,0.415-4.501,1.244c-1.346,0.83-2.406,1.923-3.182,3.28c1.397,1.609,3.091,2.865,5.083,3.77
			c1.991,0.905,4.1,1.357,6.325,1.357C50.572,194.37,52.681,193.918,54.673,193.013z M43.537,170.395
			c-1.346,1.308-2.018,2.865-2.018,4.674s0.672,3.368,2.018,4.674c1.345,1.308,2.949,1.96,4.812,1.96
			c1.863,0,3.466-0.652,4.812-1.96c1.345-1.306,2.018-2.865,2.018-4.674s-0.673-3.367-2.018-4.674
			c-1.346-1.307-2.949-1.96-4.812-1.96C46.486,168.434,44.881,169.088,43.537,170.395z"/>
	</g>
	<g>
		<path fill="#5193F4" d="M342.157,240.703c0,8.25-6.75,15-15,15H100.195c-8.25,0-15-6.75-15-15v-63.98c0-8.25,6.75-15,15-15
			h226.961c8.25,0,15,6.75,15,15V240.703z"/>
	</g>
	<g>
		<g>
			<path fill="#FFFFFF" d="M102.331,175.534h3.551c1.535,0,2.733,0.456,3.594,1.367c0.861,0.911,1.292,2.179,1.292,3.805
				c0,1.631-0.429,2.902-1.288,3.813c-0.858,0.911-2.058,1.367-3.598,1.367h-3.551V175.534z M103.623,176.696v8.027h2.173
				c1.152,0,2.049-0.352,2.69-1.055c0.641-0.703,0.961-1.686,0.961-2.948c0-1.267-0.322-2.254-0.965-2.962
				c-0.644-0.708-1.539-1.062-2.687-1.062H103.623z"/>
			<path fill="#FFFFFF" d="M117.962,183.883h1.234c-0.187,0.67-0.565,1.193-1.137,1.571c-0.572,0.377-1.278,0.566-2.12,0.566
				c-1.071,0-1.92-0.36-2.546-1.08s-0.939-1.691-0.939-2.916c0-1.219,0.315-2.192,0.947-2.919s1.478-1.09,2.539-1.09
				c1.042,0,1.863,0.347,2.46,1.04c0.598,0.693,0.897,1.643,0.897,2.848v0.473h-5.56v0.058c0.034,0.765,0.25,1.373,0.649,1.822
				c0.399,0.45,0.926,0.674,1.582,0.674C116.967,184.931,117.632,184.582,117.962,183.883z M115.925,179.106
				c-0.617,0-1.124,0.208-1.521,0.624c-0.397,0.416-0.62,0.966-0.667,1.65h4.261c-0.015-0.684-0.21-1.234-0.588-1.65
				S116.537,179.106,115.925,179.106z"/>
			<path fill="#FFFFFF" d="M123.385,186.021c-0.76,0-1.386-0.209-1.875-0.627c-0.49-0.418-0.735-0.977-0.735-1.675
				c0-0.688,0.244-1.229,0.731-1.621s1.184-0.614,2.087-0.667l2.231-0.136v-0.703c0-0.478-0.148-0.844-0.445-1.098
				c-0.296-0.253-0.731-0.38-1.305-0.38c-0.464,0-0.849,0.083-1.155,0.251s-0.502,0.404-0.588,0.71h-1.249
				c0.082-0.617,0.401-1.114,0.958-1.492c0.557-0.378,1.249-0.567,2.077-0.567c0.937,0,1.662,0.227,2.173,0.682
				c0.512,0.454,0.768,1.085,0.768,1.894v5.294h-1.176v-1.141h-0.115c-0.249,0.412-0.579,0.727-0.99,0.947
				C124.365,185.911,123.901,186.021,123.385,186.021z M123.614,184.938c0.636,0,1.164-0.184,1.582-0.552s0.627-0.83,0.627-1.385
				v-0.71l-2.08,0.136c-0.583,0.038-1.012,0.16-1.284,0.366s-0.409,0.505-0.409,0.897c0,0.387,0.146,0.692,0.438,0.915
				C122.78,184.827,123.155,184.938,123.614,184.938z"/>
			<path fill="#FFFFFF" d="M129.339,185.885v-7.733h1.176v1.148h0.115c0.115-0.378,0.373-0.687,0.775-0.925
				c0.402-0.239,0.858-0.359,1.37-0.359c0.234,0,0.44,0.012,0.617,0.036v1.234c-0.167-0.047-0.43-0.072-0.789-0.072
				c-0.588,0-1.073,0.177-1.456,0.531c-0.383,0.354-0.574,0.803-0.574,1.348v4.792H129.339z"/>
			<path fill="#FFFFFF" d="M140.565,175.534v6.707c0,0.799,0.25,1.448,0.75,1.948c0.5,0.5,1.189,0.75,2.07,0.75
				c0.879,0,1.569-0.25,2.069-0.75c0.5-0.5,0.75-1.149,0.75-1.948v-6.707h1.291v6.793c0,1.124-0.369,2.039-1.108,2.744
				c-0.739,0.705-1.74,1.058-3.002,1.058c-1.263,0-2.263-0.353-3.002-1.058c-0.739-0.706-1.108-1.62-1.108-2.744v-6.793H140.565z"/>
			<path fill="#FFFFFF" d="M149.833,180.268c0-0.641,0.275-1.176,0.825-1.607c0.55-0.43,1.236-0.646,2.059-0.646
				c0.808,0,1.476,0.187,2.001,0.56s0.83,0.877,0.911,1.514h-1.219c-0.086-0.316-0.276-0.565-0.57-0.75
				c-0.294-0.184-0.671-0.276-1.13-0.276c-0.464,0-0.853,0.107-1.166,0.323c-0.313,0.215-0.47,0.493-0.47,0.832
				c0,0.263,0.109,0.482,0.327,0.656c0.217,0.175,0.556,0.317,1.015,0.427l1.191,0.287c0.736,0.177,1.28,0.433,1.632,0.768
				c0.352,0.335,0.527,0.777,0.527,1.327c0,0.684-0.294,1.245-0.882,1.682s-1.327,0.656-2.216,0.656
				c-0.861,0-1.566-0.191-2.116-0.574c-0.55-0.383-0.858-0.894-0.925-1.535h1.27c0.105,0.335,0.313,0.597,0.624,0.786
				s0.708,0.283,1.191,0.283c0.521,0,0.949-0.112,1.284-0.337c0.335-0.225,0.502-0.514,0.502-0.868c0-0.526-0.409-0.89-1.227-1.09
				l-1.327-0.323c-0.732-0.177-1.266-0.432-1.604-0.764C150.001,181.267,149.833,180.823,149.833,180.268z"/>
			<path fill="#FFFFFF" d="M162.824,183.883h1.234c-0.187,0.67-0.565,1.193-1.137,1.571c-0.572,0.377-1.278,0.566-2.12,0.566
				c-1.071,0-1.92-0.36-2.546-1.08s-0.939-1.691-0.939-2.916c0-1.219,0.315-2.192,0.947-2.919s1.478-1.09,2.539-1.09
				c1.042,0,1.863,0.347,2.46,1.04c0.598,0.693,0.897,1.643,0.897,2.848v0.473h-5.56v0.058c0.034,0.765,0.25,1.373,0.649,1.822
				c0.399,0.45,0.926,0.674,1.582,0.674C161.829,184.931,162.494,184.582,162.824,183.883z M160.787,179.106
				c-0.617,0-1.124,0.208-1.521,0.624c-0.397,0.416-0.62,0.966-0.667,1.65h4.261c-0.015-0.684-0.21-1.234-0.588-1.65
				S161.399,179.106,160.787,179.106z"/>
			<path fill="#FFFFFF" d="M166.095,185.885v-7.733h1.176v1.148h0.115c0.115-0.378,0.373-0.687,0.775-0.925
				c0.402-0.239,0.858-0.359,1.37-0.359c0.234,0,0.44,0.012,0.617,0.036v1.234c-0.167-0.047-0.43-0.072-0.789-0.072
				c-0.588,0-1.073,0.177-1.456,0.531c-0.383,0.354-0.574,0.803-0.574,1.348v4.792H166.095z"/>
			<path fill="#FFFFFF" d="M171.539,188.518h-0.925l0.682-4.082h1.37L171.539,188.518z"/>
		</g>
	</g>
	<g>
		<g>
			<path fill="#FFFFFF" d="M106.313,208.245h-1.292v-9.189h-3.335v-1.162h7.962v1.162h-3.335V208.245z"/>
			<path fill="#FFFFFF" d="M111.556,208.245v-10.803h1.234v4.29h0.115c0.196-0.436,0.496-0.77,0.9-1.004
				c0.404-0.234,0.898-0.352,1.481-0.352c0.823,0,1.473,0.252,1.951,0.757s0.717,1.206,0.717,2.105v5.007h-1.234v-4.706
				c0-1.368-0.595-2.052-1.786-2.052c-0.679,0-1.206,0.197-1.582,0.592s-0.563,0.924-0.563,1.589v4.577H111.556z"/>
			<path fill="#FFFFFF" d="M122.359,208.381c-0.76,0-1.386-0.209-1.875-0.627c-0.49-0.418-0.735-0.977-0.735-1.675
				c0-0.688,0.244-1.229,0.731-1.621s1.184-0.614,2.087-0.667l2.231-0.136v-0.703c0-0.478-0.148-0.844-0.445-1.098
				c-0.296-0.253-0.731-0.38-1.305-0.38c-0.464,0-0.849,0.083-1.155,0.251s-0.502,0.404-0.588,0.71h-1.249
				c0.082-0.617,0.401-1.114,0.958-1.492c0.557-0.378,1.249-0.567,2.077-0.567c0.937,0,1.662,0.227,2.173,0.682
				c0.512,0.454,0.768,1.085,0.768,1.894v5.294h-1.176v-1.141h-0.115c-0.249,0.412-0.579,0.727-0.99,0.947
				C123.339,208.271,122.875,208.381,122.359,208.381z M122.588,207.298c0.636,0,1.164-0.184,1.582-0.552s0.627-0.83,0.627-1.385
				v-0.71l-2.08,0.136c-0.583,0.038-1.012,0.16-1.284,0.366s-0.409,0.505-0.409,0.897c0,0.387,0.146,0.692,0.438,0.915
				C121.754,207.187,122.129,207.298,122.588,207.298z"/>
			<path fill="#FFFFFF" d="M128.313,208.245v-7.733h1.176v1.22h0.115c0.412-0.904,1.186-1.356,2.324-1.356
				c0.866,0,1.533,0.248,2.001,0.743c0.469,0.495,0.703,1.201,0.703,2.12v5.007h-1.234v-4.706c0-0.693-0.149-1.209-0.448-1.546
				c-0.299-0.337-0.757-0.506-1.374-0.506c-0.622,0-1.115,0.195-1.481,0.584c-0.366,0.39-0.549,0.922-0.549,1.596v4.577H128.313z"/>
			<path fill="#FFFFFF" d="M138.306,203.891l3.357-3.379h1.514l-3.329,3.314l3.551,4.419h-1.571l-2.898-3.623l-0.739,0.688v2.934
				h-1.234v-10.803h1.234v6.449H138.306z"/>
			<path fill="#FFFFFF" d="M144.396,202.628c0-0.641,0.275-1.176,0.825-1.607c0.55-0.43,1.236-0.646,2.059-0.646
				c0.808,0,1.476,0.187,2.001,0.56s0.83,0.877,0.911,1.514h-1.219c-0.086-0.316-0.276-0.565-0.57-0.75
				c-0.294-0.184-0.671-0.276-1.13-0.276c-0.464,0-0.853,0.107-1.166,0.323c-0.313,0.215-0.47,0.493-0.47,0.832
				c0,0.263,0.109,0.482,0.327,0.656c0.217,0.175,0.556,0.317,1.015,0.427l1.191,0.287c0.736,0.177,1.28,0.433,1.632,0.768
				c0.352,0.335,0.527,0.777,0.527,1.327c0,0.684-0.294,1.245-0.882,1.682s-1.327,0.656-2.216,0.656
				c-0.861,0-1.566-0.191-2.116-0.574c-0.55-0.383-0.858-0.894-0.925-1.535h1.27c0.105,0.335,0.313,0.597,0.624,0.786
				s0.708,0.283,1.191,0.283c0.521,0,0.949-0.112,1.284-0.337c0.335-0.225,0.502-0.514,0.502-0.868c0-0.526-0.409-0.89-1.227-1.09
				l-1.327-0.323c-0.732-0.177-1.266-0.432-1.604-0.764C144.564,203.627,144.396,203.183,144.396,202.628z"/>
			<path fill="#FFFFFF" d="M156.928,208.245v-6.7h-1.284v-1.033h1.284v-0.861c0-1.521,0.748-2.281,2.245-2.281
				c0.311,0,0.588,0.024,0.832,0.072v1.004c-0.125-0.024-0.318-0.036-0.581-0.036c-0.44,0-0.76,0.105-0.961,0.315
				c-0.201,0.21-0.301,0.531-0.301,0.961v0.825h1.771v1.033h-1.771v6.7H156.928z"/>
			<path fill="#FFFFFF" d="M167.188,207.309c-0.638,0.715-1.507,1.072-2.607,1.072s-1.969-0.357-2.607-1.072
				c-0.639-0.715-0.958-1.692-0.958-2.93c0-1.244,0.318-2.222,0.954-2.934c0.636-0.712,1.506-1.069,2.611-1.069
				s1.975,0.356,2.611,1.069c0.636,0.712,0.954,1.69,0.954,2.934C168.146,205.617,167.827,206.594,167.188,207.309z
				 M162.888,206.513c0.397,0.505,0.961,0.757,1.693,0.757c0.732,0,1.296-0.252,1.693-0.757c0.397-0.504,0.595-1.216,0.595-2.134
				c0-0.918-0.198-1.63-0.595-2.134s-0.961-0.757-1.693-0.757c-0.731,0-1.296,0.252-1.693,0.757s-0.595,1.216-0.595,2.134
				C162.293,205.297,162.491,206.008,162.888,206.513z"/>
			<path fill="#FFFFFF" d="M170.083,208.245v-7.733h1.176v1.148h0.115c0.115-0.378,0.373-0.687,0.775-0.925
				c0.402-0.239,0.858-0.359,1.37-0.359c0.234,0,0.44,0.012,0.617,0.036v1.234c-0.167-0.047-0.43-0.072-0.789-0.072
				c-0.588,0-1.073,0.177-1.456,0.531c-0.383,0.354-0.574,0.803-0.574,1.348v4.792H170.083z"/>
			<path fill="#FFFFFF" d="M179.825,208.245v-7.733h1.176v1.148h0.115c0.115-0.378,0.373-0.687,0.775-0.925
				c0.402-0.239,0.858-0.359,1.37-0.359c0.234,0,0.44,0.012,0.617,0.036v1.234c-0.167-0.047-0.43-0.072-0.789-0.072
				c-0.588,0-1.073,0.177-1.456,0.531c-0.383,0.354-0.574,0.803-0.574,1.348v4.792H179.825z"/>
			<path fill="#FFFFFF" d="M190.326,206.244h1.234c-0.187,0.67-0.565,1.193-1.137,1.571c-0.572,0.377-1.278,0.566-2.12,0.566
				c-1.071,0-1.92-0.36-2.546-1.08s-0.939-1.691-0.939-2.916c0-1.219,0.315-2.192,0.947-2.919s1.478-1.09,2.539-1.09
				c1.042,0,1.863,0.347,2.46,1.04c0.598,0.693,0.897,1.643,0.897,2.848v0.473h-5.56v0.058c0.034,0.765,0.25,1.373,0.649,1.822
				c0.399,0.45,0.926,0.674,1.582,0.674C189.332,207.291,189.997,206.942,190.326,206.244z M188.289,201.466
				c-0.617,0-1.124,0.208-1.521,0.624c-0.397,0.416-0.62,0.966-0.667,1.65h4.261c-0.015-0.684-0.21-1.234-0.588-1.65
				S188.901,201.466,188.289,201.466z"/>
			<path fill="#FFFFFF" d="M196.783,211.215c-0.923,0-1.67-0.191-2.242-0.574c-0.572-0.383-0.905-0.897-1.001-1.542h1.306
				c0.067,0.32,0.27,0.574,0.61,0.76c0.339,0.187,0.782,0.28,1.327,0.28c0.693,0,1.235-0.161,1.625-0.484s0.585-0.769,0.585-1.338
				v-1.521h-0.115c-0.244,0.426-0.577,0.754-0.998,0.986c-0.42,0.232-0.896,0.348-1.427,0.348c-0.995,0-1.784-0.353-2.367-1.058
				s-0.875-1.642-0.875-2.808c0-1.167,0.294-2.107,0.882-2.819c0.588-0.712,1.375-1.069,2.36-1.069c0.541,0,1.033,0.123,1.478,0.37
				c0.445,0.246,0.78,0.577,1.004,0.993h0.115v-1.227h1.176v7.869c0,0.866-0.311,1.554-0.932,2.066
				C198.671,210.959,197.834,211.215,196.783,211.215z M196.725,207.04c0.712,0,1.273-0.25,1.682-0.75
				c0.409-0.5,0.613-1.175,0.613-2.026c0-0.847-0.206-1.521-0.617-2.023c-0.412-0.502-0.971-0.753-1.679-0.753
				c-0.708,0-1.258,0.249-1.65,0.746s-0.588,1.174-0.588,2.03c0,0.856,0.196,1.533,0.588,2.03
				C195.467,206.792,196.018,207.04,196.725,207.04z"/>
			<path fill="#FFFFFF" d="M203.805,198.687c-0.167,0.17-0.371,0.255-0.61,0.255s-0.442-0.085-0.61-0.255
				c-0.167-0.169-0.251-0.372-0.251-0.606s0.083-0.437,0.251-0.606c0.167-0.169,0.371-0.254,0.61-0.254s0.442,0.085,0.61,0.254
				c0.167,0.17,0.251,0.372,0.251,0.606S203.973,198.517,203.805,198.687z M202.579,208.245v-7.733h1.234v7.733H202.579z"/>
			<path fill="#FFFFFF" d="M205.986,202.628c0-0.641,0.275-1.176,0.825-1.607c0.55-0.43,1.236-0.646,2.059-0.646
				c0.808,0,1.476,0.187,2.001,0.56s0.83,0.877,0.911,1.514h-1.219c-0.086-0.316-0.276-0.565-0.57-0.75
				c-0.294-0.184-0.671-0.276-1.13-0.276c-0.464,0-0.853,0.107-1.166,0.323c-0.313,0.215-0.47,0.493-0.47,0.832
				c0,0.263,0.109,0.482,0.327,0.656c0.217,0.175,0.556,0.317,1.015,0.427l1.191,0.287c0.736,0.177,1.28,0.433,1.632,0.768
				c0.352,0.335,0.527,0.777,0.527,1.327c0,0.684-0.294,1.245-0.882,1.682s-1.327,0.656-2.216,0.656
				c-0.861,0-1.566-0.191-2.116-0.574c-0.55-0.383-0.858-0.894-0.925-1.535h1.27c0.105,0.335,0.313,0.597,0.624,0.786
				s0.708,0.283,1.191,0.283c0.521,0,0.949-0.112,1.284-0.337c0.335-0.225,0.502-0.514,0.502-0.868c0-0.526-0.409-0.89-1.227-1.09
				l-1.327-0.323c-0.732-0.177-1.266-0.432-1.604-0.764C206.154,203.627,205.986,203.183,205.986,202.628z"/>
			<path fill="#FFFFFF" d="M214.3,198.511h1.234v2.001h1.721v1.033h-1.721v4.375c0,0.455,0.09,0.784,0.272,0.99
				c0.182,0.206,0.473,0.309,0.875,0.309c0.177,0,0.368-0.009,0.574-0.029v1.041c-0.272,0.047-0.514,0.072-0.724,0.072
				c-0.799,0-1.37-0.16-1.715-0.481c-0.344-0.32-0.516-0.849-0.516-1.585v-4.691h-1.249v-1.033h1.249V198.511z"/>
			<path fill="#FFFFFF" d="M219.12,208.245v-7.733h1.176v1.148h0.115c0.115-0.378,0.373-0.687,0.775-0.925
				c0.402-0.239,0.858-0.359,1.37-0.359c0.234,0,0.44,0.012,0.617,0.036v1.234c-0.167-0.047-0.43-0.072-0.789-0.072
				c-0.588,0-1.073,0.177-1.456,0.531c-0.383,0.354-0.574,0.803-0.574,1.348v4.792H219.12z"/>
			<path fill="#FFFFFF" d="M226.867,208.381c-0.76,0-1.386-0.209-1.875-0.627c-0.49-0.418-0.735-0.977-0.735-1.675
				c0-0.688,0.244-1.229,0.731-1.621s1.184-0.614,2.087-0.667l2.231-0.136v-0.703c0-0.478-0.148-0.844-0.445-1.098
				c-0.296-0.253-0.731-0.38-1.305-0.38c-0.464,0-0.849,0.083-1.155,0.251s-0.502,0.404-0.588,0.71h-1.249
				c0.082-0.617,0.401-1.114,0.958-1.492c0.557-0.378,1.249-0.567,2.077-0.567c0.937,0,1.662,0.227,2.173,0.682
				c0.512,0.454,0.768,1.085,0.768,1.894v5.294h-1.176v-1.141h-0.115c-0.249,0.412-0.579,0.727-0.99,0.947
				C227.848,208.271,227.384,208.381,226.867,208.381z M227.097,207.298c0.636,0,1.164-0.184,1.582-0.552s0.627-0.83,0.627-1.385
				v-0.71l-2.08,0.136c-0.583,0.038-1.012,0.16-1.284,0.366s-0.409,0.505-0.409,0.897c0,0.387,0.146,0.692,0.438,0.915
				C226.262,207.187,226.638,207.298,227.097,207.298z"/>
			<path fill="#FFFFFF" d="M233.338,198.511h1.234v2.001h1.721v1.033h-1.721v4.375c0,0.455,0.09,0.784,0.272,0.99
				c0.182,0.206,0.473,0.309,0.875,0.309c0.177,0,0.368-0.009,0.574-0.029v1.041c-0.272,0.047-0.514,0.072-0.724,0.072
				c-0.799,0-1.37-0.16-1.715-0.481c-0.344-0.32-0.516-0.849-0.516-1.585v-4.691h-1.249v-1.033h1.249V198.511z"/>
			<path fill="#FFFFFF" d="M239.414,198.687c-0.167,0.17-0.371,0.255-0.61,0.255s-0.442-0.085-0.61-0.255
				c-0.167-0.169-0.251-0.372-0.251-0.606s0.083-0.437,0.251-0.606c0.167-0.169,0.371-0.254,0.61-0.254s0.442,0.085,0.61,0.254
				c0.167,0.17,0.251,0.372,0.251,0.606S239.581,198.517,239.414,198.687z M238.187,208.245v-7.733h1.234v7.733H238.187z"/>
			<path fill="#FFFFFF" d="M247.559,207.309c-0.638,0.715-1.507,1.072-2.607,1.072s-1.969-0.357-2.607-1.072
				c-0.639-0.715-0.958-1.692-0.958-2.93c0-1.244,0.318-2.222,0.954-2.934c0.636-0.712,1.506-1.069,2.611-1.069
				s1.975,0.356,2.611,1.069c0.636,0.712,0.954,1.69,0.954,2.934C248.516,205.617,248.197,206.594,247.559,207.309z
				 M243.258,206.513c0.397,0.505,0.961,0.757,1.693,0.757c0.732,0,1.296-0.252,1.693-0.757c0.397-0.504,0.595-1.216,0.595-2.134
				c0-0.918-0.198-1.63-0.595-2.134s-0.961-0.757-1.693-0.757c-0.731,0-1.296,0.252-1.693,0.757s-0.595,1.216-0.595,2.134
				C242.663,205.297,242.861,206.008,243.258,206.513z"/>
			<path fill="#FFFFFF" d="M250.453,208.245v-7.733h1.176v1.22h0.115c0.412-0.904,1.186-1.356,2.324-1.356
				c0.866,0,1.533,0.248,2.001,0.743c0.469,0.495,0.703,1.201,0.703,2.12v5.007h-1.234v-4.706c0-0.693-0.149-1.209-0.448-1.546
				c-0.299-0.337-0.757-0.506-1.374-0.506c-0.622,0-1.115,0.195-1.481,0.584c-0.366,0.39-0.549,0.922-0.549,1.596v4.577H250.453z"/>
			<path fill="#FFFFFF" d="M268.957,207.309c-0.638,0.715-1.507,1.072-2.607,1.072s-1.969-0.357-2.607-1.072
				c-0.639-0.715-0.958-1.692-0.958-2.93c0-1.244,0.318-2.222,0.954-2.934c0.636-0.712,1.506-1.069,2.611-1.069
				s1.975,0.356,2.611,1.069c0.636,0.712,0.954,1.69,0.954,2.934C269.914,205.617,269.595,206.594,268.957,207.309z
				 M264.656,206.513c0.397,0.505,0.961,0.757,1.693,0.757c0.732,0,1.296-0.252,1.693-0.757c0.397-0.504,0.595-1.216,0.595-2.134
				c0-0.918-0.198-1.63-0.595-2.134s-0.961-0.757-1.693-0.757c-0.731,0-1.296,0.252-1.693,0.757s-0.595,1.216-0.595,2.134
				C264.061,205.297,264.259,206.008,264.656,206.513z"/>
			<path fill="#FFFFFF" d="M278.106,200.512v7.733h-1.176v-1.212h-0.115c-0.196,0.436-0.498,0.769-0.904,1.001
				c-0.407,0.232-0.904,0.348-1.492,0.348c-0.861,0-1.516-0.246-1.965-0.739c-0.45-0.493-0.674-1.2-0.674-2.124v-5.007h1.234v4.706
				c0,0.703,0.139,1.219,0.416,1.546c0.277,0.328,0.722,0.492,1.334,0.492c0.674,0,1.195-0.19,1.561-0.57
				c0.366-0.38,0.549-0.912,0.549-1.596v-4.577H278.106z"/>
			<path fill="#FFFFFF" d="M280.431,208.245v-7.733h1.176v1.148h0.115c0.115-0.378,0.373-0.687,0.775-0.925
				c0.402-0.239,0.858-0.359,1.37-0.359c0.234,0,0.44,0.012,0.617,0.036v1.234c-0.167-0.047-0.43-0.072-0.789-0.072
				c-0.588,0-1.073,0.177-1.456,0.531c-0.383,0.354-0.574,0.803-0.574,1.348v4.792H280.431z"/>
			<path fill="#FFFFFF" d="M297.058,208.245l-1.04-2.962H291.9l-1.04,2.962h-1.355l3.816-10.351h1.277l3.816,10.351H297.058z
				 M293.902,199.565l-1.621,4.62h3.357l-1.621-4.62H293.902z"/>
			<path fill="#FFFFFF" d="M303.837,200.376c0.985,0,1.773,0.363,2.363,1.09c0.591,0.727,0.886,1.698,0.886,2.913
				c0,1.21-0.297,2.179-0.89,2.909c-0.593,0.729-1.38,1.094-2.36,1.094c-0.55,0-1.038-0.114-1.463-0.341
				c-0.426-0.227-0.744-0.546-0.954-0.958h-0.115v3.745h-1.234v-10.315h1.176v1.291h0.115c0.249-0.444,0.592-0.793,1.029-1.047
				C302.83,200.503,303.311,200.376,303.837,200.376z M303.543,207.27c0.708,0,1.263-0.256,1.665-0.768
				c0.401-0.512,0.603-1.219,0.603-2.123c0-0.904-0.2-1.612-0.599-2.124s-0.953-0.768-1.661-0.768c-0.698,0-1.253,0.259-1.664,0.778
				c-0.412,0.519-0.617,1.223-0.617,2.113c0,0.885,0.205,1.587,0.613,2.109C302.292,207.009,302.845,207.27,303.543,207.27z"/>
			<path fill="#FFFFFF" d="M312.79,200.376c0.985,0,1.773,0.363,2.363,1.09c0.591,0.727,0.886,1.698,0.886,2.913
				c0,1.21-0.297,2.179-0.89,2.909c-0.593,0.729-1.38,1.094-2.36,1.094c-0.55,0-1.038-0.114-1.463-0.341
				c-0.426-0.227-0.744-0.546-0.954-0.958h-0.115v3.745h-1.234v-10.315h1.176v1.291h0.115c0.249-0.444,0.592-0.793,1.029-1.047
				C311.782,200.503,312.263,200.376,312.79,200.376z M312.495,207.27c0.708,0,1.263-0.256,1.665-0.768
				c0.401-0.512,0.603-1.219,0.603-2.123c0-0.904-0.2-1.612-0.599-2.124s-0.953-0.768-1.661-0.768c-0.698,0-1.253,0.259-1.664,0.778
				c-0.412,0.519-0.617,1.223-0.617,2.113c0,0.885,0.205,1.587,0.613,2.109C311.244,207.009,311.797,207.27,312.495,207.27z"/>
			<path fill="#FFFFFF" d="M318.851,208.317c-0.253,0-0.472-0.092-0.656-0.276s-0.276-0.403-0.276-0.656
				c0-0.258,0.092-0.478,0.276-0.66c0.184-0.182,0.403-0.273,0.656-0.273c0.258,0,0.478,0.091,0.66,0.273
				c0.182,0.182,0.272,0.401,0.272,0.66c0,0.253-0.091,0.472-0.272,0.656C319.329,208.225,319.109,208.317,318.851,208.317z"/>
		</g>
	</g>
	<g>
		<g>
			<path fill="#FFFFFF" d="M106.478,231.539h-1.292v-4.455l-3.673-5.896h1.471l2.791,4.598h0.115l2.791-4.598h1.47l-3.672,5.896
				V231.539z"/>
			<path fill="#FFFFFF" d="M116.38,230.603c-0.638,0.715-1.507,1.072-2.607,1.072s-1.969-0.357-2.607-1.072
				c-0.639-0.715-0.958-1.692-0.958-2.93c0-1.244,0.318-2.222,0.954-2.934c0.636-0.712,1.506-1.069,2.611-1.069
				s1.975,0.356,2.611,1.069c0.636,0.712,0.954,1.69,0.954,2.934C117.337,228.911,117.019,229.888,116.38,230.603z M112.08,229.806
				c0.397,0.505,0.961,0.757,1.693,0.757c0.732,0,1.296-0.252,1.693-0.757c0.397-0.504,0.595-1.216,0.595-2.134
				c0-0.918-0.198-1.63-0.595-2.134s-0.961-0.757-1.693-0.757c-0.731,0-1.296,0.252-1.693,0.757s-0.595,1.216-0.595,2.134
				C111.484,228.59,111.683,229.302,112.08,229.806z"/>
			<path fill="#FFFFFF" d="M125.529,223.806v7.733h-1.176v-1.212h-0.115c-0.196,0.436-0.498,0.769-0.904,1.001
				c-0.407,0.232-0.904,0.348-1.492,0.348c-0.861,0-1.516-0.246-1.965-0.739c-0.45-0.493-0.674-1.2-0.674-2.124v-5.007h1.234v4.706
				c0,0.703,0.139,1.219,0.416,1.546c0.277,0.328,0.722,0.492,1.334,0.492c0.674,0,1.195-0.19,1.561-0.57
				c0.366-0.38,0.549-0.912,0.549-1.596v-4.577H125.529z"/>
			<path fill="#FFFFFF" d="M127.854,231.539v-7.733h1.176v1.148h0.115c0.115-0.378,0.373-0.687,0.775-0.925
				c0.402-0.239,0.858-0.359,1.37-0.359c0.234,0,0.44,0.012,0.617,0.036v1.234c-0.167-0.047-0.43-0.072-0.789-0.072
				c-0.588,0-1.073,0.177-1.456,0.531c-0.383,0.354-0.574,0.803-0.574,1.348v4.792H127.854z"/>
			<path fill="#FFFFFF" d="M144.481,231.539l-1.04-2.962h-4.118l-1.04,2.962h-1.355l3.816-10.351h1.277l3.816,10.351H144.481z
				 M141.325,222.859l-1.621,4.62h3.357l-1.621-4.62H141.325z"/>
			<path fill="#FFFFFF" d="M153.462,226.173h-1.248c-0.105-0.406-0.331-0.74-0.678-1s-0.786-0.391-1.316-0.391
				c-0.693,0-1.245,0.258-1.653,0.775c-0.409,0.516-0.613,1.212-0.613,2.087c0,0.889,0.206,1.599,0.617,2.127
				s0.961,0.792,1.65,0.792c0.521,0,0.955-0.117,1.302-0.352s0.578-0.569,0.692-1.004h1.248c-0.115,0.732-0.457,1.326-1.026,1.783
				c-0.569,0.457-1.305,0.685-2.209,0.685c-1.086,0-1.949-0.365-2.59-1.094c-0.641-0.729-0.961-1.708-0.961-2.938
				c0-1.205,0.32-2.169,0.961-2.891c0.641-0.722,1.501-1.083,2.583-1.083c0.904,0,1.642,0.237,2.213,0.71
				C153.004,224.853,153.348,225.451,153.462,226.173z"/>
			<path fill="#FFFFFF" d="M155.945,221.804h1.234v2.001h1.721v1.033h-1.721v4.375c0,0.455,0.09,0.784,0.272,0.99
				c0.182,0.206,0.473,0.309,0.875,0.309c0.177,0,0.368-0.009,0.574-0.029v1.041c-0.272,0.047-0.514,0.072-0.724,0.072
				c-0.799,0-1.37-0.16-1.715-0.481c-0.344-0.32-0.516-0.849-0.516-1.585v-4.691h-1.249v-1.033h1.249V221.804z"/>
			<path fill="#FFFFFF" d="M162.021,221.98c-0.167,0.17-0.371,0.255-0.61,0.255s-0.442-0.085-0.61-0.255
				c-0.167-0.169-0.251-0.372-0.251-0.606s0.083-0.437,0.251-0.606c0.167-0.169,0.371-0.254,0.61-0.254s0.442,0.085,0.61,0.254
				c0.167,0.17,0.251,0.372,0.251,0.606S162.188,221.811,162.021,221.98z M160.794,231.539v-7.733h1.234v7.733H160.794z"/>
			<path fill="#FFFFFF" d="M170.693,223.806l-2.862,7.733h-1.262l-2.862-7.733h1.32l2.116,6.37h0.115l2.116-6.37H170.693z"/>
			<path fill="#FFFFFF" d="M174.208,231.675c-0.76,0-1.386-0.209-1.875-0.627c-0.49-0.418-0.735-0.977-0.735-1.675
				c0-0.688,0.244-1.229,0.731-1.621s1.184-0.614,2.087-0.667l2.231-0.136v-0.703c0-0.478-0.148-0.844-0.445-1.098
				c-0.296-0.253-0.731-0.38-1.305-0.38c-0.464,0-0.849,0.083-1.155,0.251s-0.502,0.404-0.588,0.71h-1.249
				c0.082-0.617,0.401-1.114,0.958-1.492c0.557-0.378,1.249-0.567,2.077-0.567c0.937,0,1.662,0.227,2.173,0.682
				c0.512,0.454,0.768,1.085,0.768,1.894v5.294h-1.176v-1.141h-0.115c-0.249,0.412-0.579,0.727-0.99,0.947
				C175.188,231.565,174.725,231.675,174.208,231.675z M174.438,230.592c0.636,0,1.164-0.184,1.582-0.552s0.627-0.83,0.627-1.385
				v-0.71l-2.08,0.136c-0.583,0.038-1.012,0.16-1.284,0.366s-0.409,0.505-0.409,0.897c0,0.387,0.146,0.692,0.438,0.915
				C173.603,230.48,173.979,230.592,174.438,230.592z"/>
			<path fill="#FFFFFF" d="M180.678,221.804h1.234v2.001h1.721v1.033h-1.721v4.375c0,0.455,0.09,0.784,0.272,0.99
				c0.182,0.206,0.473,0.309,0.875,0.309c0.177,0,0.368-0.009,0.574-0.029v1.041c-0.272,0.047-0.514,0.072-0.724,0.072
				c-0.799,0-1.37-0.16-1.715-0.481c-0.344-0.32-0.516-0.849-0.516-1.585v-4.691h-1.249v-1.033h1.249V221.804z"/>
			<path fill="#FFFFFF" d="M186.754,221.98c-0.167,0.17-0.371,0.255-0.61,0.255s-0.442-0.085-0.61-0.255
				c-0.167-0.169-0.251-0.372-0.251-0.606s0.083-0.437,0.251-0.606c0.167-0.169,0.371-0.254,0.61-0.254s0.442,0.085,0.61,0.254
				c0.167,0.17,0.251,0.372,0.251,0.606S186.921,221.811,186.754,221.98z M185.527,231.539v-7.733h1.234v7.733H185.527z"/>
			<path fill="#FFFFFF" d="M194.899,230.603c-0.638,0.715-1.507,1.072-2.607,1.072s-1.969-0.357-2.607-1.072
				c-0.639-0.715-0.958-1.692-0.958-2.93c0-1.244,0.318-2.222,0.954-2.934c0.636-0.712,1.506-1.069,2.611-1.069
				s1.975,0.356,2.611,1.069c0.636,0.712,0.954,1.69,0.954,2.934C195.857,228.911,195.538,229.888,194.899,230.603z
				 M190.599,229.806c0.397,0.505,0.961,0.757,1.693,0.757c0.732,0,1.296-0.252,1.693-0.757c0.397-0.504,0.595-1.216,0.595-2.134
				c0-0.918-0.198-1.63-0.595-2.134s-0.961-0.757-1.693-0.757c-0.731,0-1.296,0.252-1.693,0.757s-0.595,1.216-0.595,2.134
				C190.004,228.59,190.202,229.302,190.599,229.806z"/>
			<path fill="#FFFFFF" d="M197.794,231.539v-7.733h1.176v1.22h0.115c0.412-0.904,1.186-1.356,2.324-1.356
				c0.866,0,1.533,0.248,2.001,0.743c0.469,0.495,0.703,1.201,0.703,2.12v5.007h-1.234v-4.706c0-0.693-0.149-1.209-0.448-1.546
				c-0.299-0.337-0.757-0.506-1.374-0.506c-0.622,0-1.115,0.195-1.481,0.584c-0.366,0.39-0.549,0.922-0.549,1.596v4.577H197.794z"/>
			<path fill="#FFFFFF" d="M216.911,226.173h-1.248c-0.105-0.406-0.331-0.74-0.678-1s-0.786-0.391-1.316-0.391
				c-0.693,0-1.245,0.258-1.653,0.775c-0.409,0.516-0.613,1.212-0.613,2.087c0,0.889,0.206,1.599,0.617,2.127
				s0.961,0.792,1.65,0.792c0.521,0,0.955-0.117,1.302-0.352s0.578-0.569,0.692-1.004h1.248c-0.115,0.732-0.457,1.326-1.026,1.783
				c-0.569,0.457-1.305,0.685-2.209,0.685c-1.086,0-1.949-0.365-2.59-1.094c-0.641-0.729-0.961-1.708-0.961-2.938
				c0-1.205,0.32-2.169,0.961-2.891c0.641-0.722,1.501-1.083,2.583-1.083c0.904,0,1.642,0.237,2.213,0.71
				C216.453,224.853,216.796,225.451,216.911,226.173z"/>
			<path fill="#FFFFFF" d="M224.518,230.603c-0.638,0.715-1.507,1.072-2.607,1.072s-1.969-0.357-2.607-1.072
				c-0.639-0.715-0.958-1.692-0.958-2.93c0-1.244,0.318-2.222,0.954-2.934c0.636-0.712,1.506-1.069,2.611-1.069
				s1.975,0.356,2.611,1.069c0.636,0.712,0.954,1.69,0.954,2.934C225.476,228.911,225.157,229.888,224.518,230.603z
				 M220.218,229.806c0.397,0.505,0.961,0.757,1.693,0.757c0.732,0,1.296-0.252,1.693-0.757c0.397-0.504,0.595-1.216,0.595-2.134
				c0-0.918-0.198-1.63-0.595-2.134s-0.961-0.757-1.693-0.757c-0.731,0-1.296,0.252-1.693,0.757s-0.595,1.216-0.595,2.134
				C219.623,228.59,219.821,229.302,220.218,229.806z"/>
			<path fill="#FFFFFF" d="M230.275,231.675c-0.99,0-1.779-0.363-2.367-1.09c-0.588-0.727-0.882-1.698-0.882-2.912
				c0-1.21,0.295-2.18,0.886-2.909c0.59-0.729,1.378-1.094,2.364-1.094c0.54,0,1.024,0.121,1.453,0.362
				c0.428,0.242,0.752,0.573,0.972,0.994h0.108v-4.29h1.233v10.803h-1.176v-1.234h-0.115c-0.244,0.431-0.583,0.767-1.019,1.008
				C231.296,231.554,230.81,231.675,230.275,231.675z M230.562,224.781c-0.703,0-1.255,0.257-1.657,0.771
				c-0.402,0.514-0.603,1.221-0.603,2.12c0,0.904,0.199,1.611,0.599,2.123s0.953,0.768,1.661,0.768c0.703,0,1.258-0.258,1.665-0.775
				c0.406-0.516,0.609-1.222,0.609-2.116c0-0.885-0.204-1.588-0.613-2.109C231.813,225.042,231.26,224.781,230.562,224.781z"/>
			<path fill="#FFFFFF" d="M241.558,229.537h1.234c-0.187,0.67-0.565,1.193-1.137,1.571c-0.572,0.377-1.278,0.566-2.12,0.566
				c-1.071,0-1.92-0.36-2.546-1.08s-0.939-1.691-0.939-2.916c0-1.219,0.315-2.192,0.947-2.919s1.478-1.09,2.539-1.09
				c1.042,0,1.863,0.347,2.46,1.04c0.598,0.693,0.897,1.643,0.897,2.848v0.473h-5.56v0.058c0.034,0.765,0.25,1.373,0.649,1.822
				c0.399,0.45,0.926,0.674,1.582,0.674C240.563,230.584,241.229,230.235,241.558,229.537z M239.521,224.76
				c-0.617,0-1.124,0.208-1.521,0.624c-0.397,0.416-0.62,0.966-0.667,1.65h4.261c-0.015-0.684-0.21-1.234-0.588-1.65
				S240.133,224.76,239.521,224.76z"/>
			<path fill="#FFFFFF" d="M250.231,221.98c-0.167,0.17-0.371,0.255-0.61,0.255s-0.442-0.085-0.61-0.255
				c-0.167-0.169-0.251-0.372-0.251-0.606s0.083-0.437,0.251-0.606c0.167-0.169,0.371-0.254,0.61-0.254s0.442,0.085,0.61,0.254
				c0.167,0.17,0.251,0.372,0.251,0.606S250.398,221.811,250.231,221.98z M249.004,231.539v-7.733h1.234v7.733H249.004z"/>
			<path fill="#FFFFFF" d="M252.412,225.922c0-0.641,0.275-1.176,0.825-1.607c0.55-0.43,1.236-0.646,2.059-0.646
				c0.808,0,1.476,0.187,2.001,0.56s0.83,0.877,0.911,1.514h-1.219c-0.086-0.316-0.276-0.565-0.57-0.75
				c-0.294-0.184-0.671-0.276-1.13-0.276c-0.464,0-0.853,0.107-1.166,0.323c-0.313,0.215-0.47,0.493-0.47,0.832
				c0,0.263,0.109,0.482,0.327,0.656c0.217,0.175,0.556,0.317,1.015,0.427l1.191,0.287c0.736,0.177,1.28,0.433,1.632,0.768
				c0.352,0.335,0.527,0.777,0.527,1.327c0,0.684-0.294,1.245-0.882,1.682s-1.327,0.656-2.216,0.656
				c-0.861,0-1.566-0.191-2.116-0.574c-0.55-0.383-0.858-0.894-0.925-1.535h1.27c0.105,0.335,0.313,0.597,0.624,0.786
				s0.708,0.283,1.191,0.283c0.521,0,0.949-0.112,1.284-0.337c0.335-0.225,0.502-0.514,0.502-0.868c0-0.526-0.409-0.89-1.227-1.09
				l-1.327-0.323c-0.732-0.177-1.266-0.432-1.604-0.764C252.58,226.92,252.412,226.477,252.412,225.922z"/>
			<path fill="#FFFFFF" d="M269.147,231.539v-2.145h-5.043v-1.176c0.947-1.683,2.424-4.026,4.433-7.03h1.872v7.051h1.471v1.155
				h-1.471v2.145H269.147z M265.424,228.16v0.086h3.73v-5.861h-0.086C267.949,224.011,266.734,225.936,265.424,228.16z"/>
			<path fill="#FFFFFF" d="M277.289,231.782c-0.98,0-1.791-0.276-2.432-0.828c-0.641-0.553-0.99-1.276-1.047-2.17h1.27
				c0.058,0.56,0.291,1.01,0.7,1.352c0.409,0.342,0.917,0.513,1.524,0.513c0.693,0,1.251-0.217,1.675-0.653
				c0.423-0.435,0.635-1.006,0.635-1.714c0-0.708-0.211-1.283-0.635-1.725s-0.975-0.664-1.653-0.664
				c-0.469,0-0.89,0.102-1.263,0.305c-0.373,0.203-0.665,0.489-0.875,0.857h-1.212l0.567-5.868h5.774v1.155h-4.763l-0.294,3.321
				h0.115c0.502-0.588,1.231-0.882,2.188-0.882c0.985,0,1.789,0.323,2.411,0.968c0.622,0.646,0.932,1.478,0.932,2.497
				c0,1.052-0.334,1.904-1.004,2.557C279.23,231.456,278.36,231.782,277.289,231.782z"/>
			<path fill="#FFFFFF" d="M286.27,231.775c-0.88,0-1.625-0.243-2.234-0.728c-0.61-0.485-0.996-1.145-1.159-1.977h1.327
				c0.139,0.483,0.393,0.863,0.764,1.141s0.81,0.416,1.316,0.416c0.842,0,1.496-0.363,1.962-1.09
				c0.466-0.727,0.716-1.779,0.75-3.156h-0.057h-0.029h-0.029c-0.253,0.502-0.622,0.893-1.104,1.173s-1.033,0.42-1.65,0.42
				c-0.985,0-1.798-0.327-2.439-0.979c-0.641-0.653-0.961-1.481-0.961-2.485c0-1.042,0.34-1.897,1.019-2.564
				c0.679-0.667,1.549-1.001,2.611-1.001c0.775,0,1.454,0.201,2.037,0.603c0.583,0.402,1.036,0.985,1.356,1.75
				c0.334,0.784,0.502,1.746,0.502,2.884c0,1.779-0.347,3.156-1.04,4.132S287.537,231.775,286.27,231.775z M284.681,226.191
				c0.433,0.442,0.991,0.664,1.675,0.664s1.247-0.22,1.689-0.66s0.664-1.001,0.664-1.686c0-0.693-0.224-1.272-0.671-1.736
				s-1.003-0.696-1.668-0.696c-0.665,0-1.221,0.228-1.667,0.685c-0.447,0.457-0.671,1.024-0.671,1.704
				C284.032,225.173,284.248,225.749,284.681,226.191z"/>
			<path fill="#FFFFFF" d="M298.547,230.939c-0.696,0.562-1.591,0.843-2.687,0.843s-1.991-0.281-2.687-0.843
				c-0.696-0.562-1.043-1.285-1.043-2.17c0-0.674,0.196-1.253,0.588-1.736s0.914-0.784,1.564-0.904v-0.115
				c-0.526-0.144-0.946-0.423-1.259-0.839c-0.313-0.416-0.47-0.906-0.47-1.471c0-0.808,0.31-1.47,0.929-1.987
				c0.619-0.517,1.412-0.775,2.378-0.775c0.966,0,1.758,0.258,2.378,0.775c0.619,0.517,0.929,1.179,0.929,1.987
				c0,0.569-0.154,1.06-0.462,1.471c-0.309,0.412-0.73,0.691-1.266,0.839v0.115c0.65,0.12,1.171,0.421,1.564,0.904
				c0.392,0.483,0.588,1.062,0.588,1.736C299.59,229.654,299.243,230.378,298.547,230.939z M294.11,230.122
				c0.45,0.371,1.033,0.556,1.75,0.556s1.301-0.185,1.75-0.556c0.449-0.371,0.674-0.853,0.674-1.446
				c0-0.593-0.225-1.075-0.674-1.445c-0.45-0.371-1.033-0.556-1.75-0.556s-1.301,0.185-1.75,0.556
				c-0.449,0.371-0.674,0.853-0.674,1.445C293.436,229.27,293.661,229.751,294.11,230.122z M294.383,225.101
				c0.373,0.323,0.865,0.484,1.478,0.484c0.612,0,1.104-0.161,1.478-0.484s0.56-0.747,0.56-1.273c0-0.536-0.187-0.966-0.56-1.291
				s-0.866-0.488-1.478-0.488c-0.612,0-1.105,0.163-1.478,0.488c-0.373,0.325-0.56,0.755-0.56,1.291
				C293.823,224.354,294.01,224.778,294.383,225.101z"/>
			<path fill="#FFFFFF" d="M305.365,231.775c-0.78,0-1.459-0.202-2.038-0.606c-0.579-0.404-1.03-0.986-1.355-1.747
				c-0.335-0.784-0.502-1.746-0.502-2.884c0-1.779,0.347-3.156,1.041-4.132c0.693-0.976,1.673-1.463,2.941-1.463
				c0.88,0,1.625,0.243,2.234,0.729s0.996,1.144,1.159,1.976h-1.327c-0.139-0.483-0.394-0.863-0.764-1.141s-0.809-0.416-1.316-0.416
				c-0.842,0-1.496,0.363-1.962,1.09c-0.466,0.727-0.716,1.779-0.75,3.156h0.115c0.253-0.502,0.622-0.893,1.105-1.173
				c0.483-0.28,1.033-0.419,1.65-0.419c0.985,0,1.798,0.326,2.439,0.979c0.641,0.653,0.961,1.481,0.961,2.485
				c0,1.043-0.339,1.897-1.019,2.564C307.297,231.442,306.427,231.775,305.365,231.775z M303.683,229.946
				c0.447,0.464,1.003,0.696,1.667,0.696s1.221-0.229,1.668-0.685c0.447-0.457,0.671-1.025,0.671-1.704
				c0-0.708-0.217-1.283-0.649-1.726c-0.433-0.442-0.991-0.664-1.675-0.664c-0.684,0-1.247,0.22-1.689,0.66
				s-0.664,1.002-0.664,1.686C303.012,228.904,303.236,229.482,303.683,229.946z"/>
			<path fill="#FFFFFF" d="M314.547,231.782c-1.167,0-2.07-0.473-2.711-1.42c-0.641-0.947-0.961-2.281-0.961-4.003
				c0-1.707,0.323-3.037,0.968-3.988s1.547-1.428,2.704-1.428c1.153,0,2.05,0.479,2.694,1.435c0.643,0.957,0.965,2.291,0.965,4.002
				c0,1.717-0.319,3.046-0.958,3.988C316.609,231.312,315.709,231.782,314.547,231.782z M312.786,229.544
				c0.409,0.741,0.996,1.112,1.761,1.112s1.35-0.37,1.754-1.108c0.404-0.739,0.606-1.801,0.606-3.188
				c0-1.373-0.205-2.429-0.613-3.17c-0.409-0.741-0.991-1.112-1.747-1.112c-0.755,0-1.34,0.372-1.754,1.115s-0.62,1.799-0.62,3.167
				C312.173,227.742,312.377,228.803,312.786,229.544z"/>
			<path fill="#FFFFFF" d="M320.773,231.61c-0.253,0-0.472-0.092-0.656-0.276s-0.276-0.403-0.276-0.656
				c0-0.258,0.092-0.478,0.276-0.66c0.184-0.182,0.403-0.273,0.656-0.273c0.258,0,0.478,0.091,0.66,0.273
				c0.182,0.182,0.272,0.401,0.272,0.66c0,0.253-0.091,0.472-0.272,0.656C321.251,231.518,321.032,231.61,320.773,231.61z"/>
		</g>
	</g>
</g>
<g>
</g>
<g>
</g>
<g>
</g>
<g>
</g>
<g>
</g>
<g>
</g>
</svg>
