<svg xmlns="http://www.w3.org/2000/svg" xmlns:xlink="http://www.w3.org/1999/xlink" viewBox="0 0 1040 2080"><defs><style>.cls-1{isolation:isolate;}.cls-2{fill:#999;}.cls-3{fill:#1a1a1a;}.cls-13,.cls-14,.cls-4,.cls-9{fill:#fff;}.cls-5{fill:#ccc;}.cls-6{fill:#b3b3b3;}.cls-7{fill:#00b7a9;}.cls-8{opacity:0.28;fill:url(#radial-gradient);}.cls-8,.cls-9{mix-blend-mode:multiply;}.cls-14,.cls-9{opacity:0.06;}.cls-10{fill:#333;}.cls-11{opacity:0.9;}.cls-12,.cls-13{opacity:0.5;}</style><radialGradient id="radial-gradient" cx="541.278" cy="413.264" r="1566.706" gradientUnits="userSpaceOnUse"><stop offset="0" stop-color="#fff"/><stop offset="1"/></radialGradient></defs><title>iphone</title><g class="cls-1"><g id="Layer_2" data-name="Layer 2"><g id="Layer_2-2" data-name="Layer 2"><rect class="cls-2" x="6" width="1028" height="2080" rx="153.574" ry="153.574"/><rect class="cls-3" x="23" y="15" width="995" height="2048" rx="136.788" ry="136.788"/><rect class="cls-4" x="68" y="60.5" width="905" height="1959" rx="93.434" ry="93.434"/><g id="Back"><rect class="cls-5" y="281" width="11" height="78"/><rect class="cls-5" y="428" width="11" height="149"/><rect class="cls-5" x="1" y="618" width="11" height="149"/><rect class="cls-5" x="1029" y="477" width="11" height="241"/><rect class="cls-6" x="6" width="1028" height="2080" rx="153.574" ry="153.574"/></g><rect class="cls-7" x="68" y="60.5" width="905" height="1959" rx="93.434" ry="93.434"/><rect class="cls-8" x="68" y="60.5" width="905" height="1959" rx="93.434" ry="93.434"/><path class="cls-9" d="M973,153.93V298.5L68,1549.96V153.93c0-51.38,42.05-93.43,93.43-93.43H879.57C930.95,60.5,973,102.55,973,153.93Z"/><g id="Font"><path d="M881.21,15H159.79C84.55,15,23,76.55,23,151.79V1926.21C23,2001.45,84.55,2063,159.79,2063H881.21c75.24,0,136.79-61.55,136.79-136.79V151.79C1018,76.55,956.45,15,881.21,15ZM973,1926.07c0,51.387-42.043,93.43-93.43,93.43H161.43c-51.387,0-93.43-42.043-93.43-93.43V153.93c0-51.387,42.043-93.43,93.43-93.43h97.262A11.308,11.308,0,0,1,270,71.808V81.55A51.6,51.6,0,0,0,321.45,133h400.1A51.6,51.6,0,0,0,773,81.55V72.177A11.677,11.677,0,0,1,784.677,60.5H879.57c51.387,0,93.43,42.043,93.43,93.43Z"/><rect class="cls-10" x="458" y="73" width="124" height="14" rx="7" ry="7"/><circle class="cls-10" cx="631" cy="80" r="17"/></g><g id="Notis"><g class="cls-11"><path class="cls-4" d="M142.29,107.294h-.31l-6.535,4.184V107.36l6.863-4.382h4.678v23.956h-4.7Z"/><path class="cls-4" d="M160.78,107.294h-.309l-6.535,4.184V107.36l6.862-4.382h4.679v23.956h-4.7Z"/><path class="cls-4" d="M173.409,109.336a2.931,2.931,0,1,1,2.913,2.606A2.679,2.679,0,0,1,173.409,109.336Zm0,12.435a2.928,2.928,0,1,1,2.913,2.623A2.68,2.68,0,0,1,173.409,121.771Z"/><path class="cls-4" d="M191.1,112.988h3.2c2.676,0,4.515-1.477,4.515-3.619,0-2.125-1.766-3.5-4.515-3.5-2.712,0-4.514,1.395-4.7,3.653h-4.386c.236-4.4,3.768-7.139,9.229-7.139,5.1,0,8.9,2.723,8.9,6.391a5.5,5.5,0,0,1-4.752,5.512v.282c3.587.382,5.807,2.607,5.807,5.794,0,4.118-4.223,7.172-9.939,7.172-5.661,0-9.521-2.855-9.757-7.238h4.5c.2,2.225,2.275,3.636,5.3,3.636,3,0,5.116-1.577,5.116-3.835,0-2.341-1.984-3.785-5.225-3.785H191.1Z"/><path class="cls-4" d="M209.48,120.293h4.405c.292,2.208,2.348,3.669,5.061,3.669,3.076,0,5.17-1.893,5.17-4.748,0-2.872-2.112-4.815-5.134-4.815a5.512,5.512,0,0,0-4.824,2.358H209.9l1.366-13.779h15.819V106.6H214.905l-.637,6.723h.309a6.809,6.809,0,0,1,5.552-2.241c4.988,0,8.519,3.337,8.519,8.035,0,5-3.913,8.417-9.738,8.417C213.467,127.531,209.7,124.51,209.48,120.293Z"/></g><g class="cls-11"><rect class="cls-4" x="776.408" y="117.363" width="6.983" height="9.637" rx="1.701" ry="1.701"/><rect class="cls-4" x="787.302" y="112.894" width="6.983" height="14.106" rx="1.701" ry="1.701"/><rect class="cls-4" x="798.335" y="107.587" width="6.983" height="19.413" rx="1.701" ry="1.701"/><rect class="cls-4" x="809.089" y="102" width="6.983" height="25" rx="1.701" ry="1.701"/></g><g class="cls-11"><rect class="cls-4" x="881.857" y="105.72" width="43.481" height="17.709" rx="1.803" ry="1.803"/><g class="cls-12"><path class="cls-4" d="M923.709,128.037H883.486a6.389,6.389,0,0,1-6.381-6.381V107.493a6.388,6.388,0,0,1,6.381-6.38h40.223a6.387,6.387,0,0,1,6.38,6.38v14.163A6.388,6.388,0,0,1,923.709,128.037Zm-40.223-24.909a4.37,4.37,0,0,0-4.365,4.365v14.163a4.37,4.37,0,0,0,4.365,4.365h40.223a4.37,4.37,0,0,0,4.364-4.365V107.493a4.37,4.37,0,0,0-4.364-4.365Z"/></g><polygon class="cls-13" points="932.681 109.751 932.681 119.686 937 114.503 932.681 109.751"/></g><g class="cls-11"><path class="cls-4" d="M847.128,119.723a9.867,9.867,0,0,1,5.935,2.119L847.2,127.7l-5.912-5.876A9.488,9.488,0,0,1,847.128,119.723Z"/><path class="cls-4" d="M859.582,115.323l-3.691,3.691a13.841,13.841,0,0,0-8.763-3.272,13.47,13.47,0,0,0-8.671,3.269l-3.7-3.679a18.725,18.725,0,0,1,12.333-4.775A19.658,19.658,0,0,1,859.582,115.323Z"/><path class="cls-4" d="M866,108.905l-3.556,3.556a23.458,23.458,0,0,0-15.355-5.947,22.748,22.748,0,0,0-15.2,5.966l-3.6-3.575s5.86-7.741,18.8-7.741S866,108.905,866,108.905Z"/></g></g><path class="cls-14" d="M973,153.93V298.5L68,1549.96V153.93c0-51.38,42.05-93.43,93.43-93.43H879.57C930.95,60.5,973,102.55,973,153.93Z"/><path class="cls-4" d="M360.594,301.3h-.188c-6.933,4.217-27.826,18.082-36.914,23.8v-8.246c8.62-5.433,27.733-18.269,37.1-23.89H367.9V428.157h-7.307Z"/><path class="cls-4" d="M435.917,301.3h-.188c-6.932,4.217-27.825,18.082-36.913,23.8v-8.246c8.62-5.433,27.732-18.269,37.1-23.89h7.308V428.157h-7.308Z"/><path class="cls-4" d="M478.169,324.818a6.231,6.231,0,1,1,6.277,6.278A6.257,6.257,0,0,1,478.169,324.818Zm0,72.609a6.231,6.231,0,1,1,6.277,6.278A6.258,6.258,0,0,1,478.169,397.427Z"/><path class="cls-4" d="M543.656,354.705H558.74c20.425,0,34.572-11.9,34.572-28.856,0-16.208-13.867-28.2-33.541-28.2-18.363,0-32.51,11.8-33.634,27.92h-7.214C520.047,305.425,537.1,291,560.052,291c23.235,0,40.661,14.522,40.661,34.2,0,16.77-10.961,29.044-28.669,32.323v.375c20.986,1.311,34.571,14.334,34.571,33.446,0,22.486-19.581,38.788-45.532,38.788-25.858,0-44.783-15.459-45.252-35.977h7.214c.562,16.677,16.77,29.325,38.038,29.325,21.829,0,38.037-13.492,38.037-31.948,0-18.925-15.084-30.262-40.192-30.262H543.656Z"/><path class="cls-4" d="M626.662,395.085h7.4c2.062,16.3,17.708,28.388,36.821,28.388,22.391,0,38.974-16.3,38.974-38.319,0-21.83-16.4-38.412-38.038-38.412-14.99,0-28.2,7.5-35.507,19.955h-7.5l8.057-73.733h71.672v6.745h-65.3l-6.371,57.807h.281c7.308-10.681,20.893-17.426,35.508-17.426,25.483,0,44.6,19.206,44.6,44.971,0,26.045-19.675,45.064-46.47,45.064C647.461,430.125,628.724,415.322,626.662,395.085Z"/><path class="cls-4" d="M312.091,514.288l-9.862-35.965h4.114l7.488,29.557h.106l7.725-29.557h3.929l7.7,29.557h.132l7.488-29.557h4.113l-9.887,35.965h-3.349l-8.095-29.663h-.131l-8.095,29.663Z"/><path class="cls-4" d="M347.66,501.921v-3.137c0-7.436,4.034-12.525,11.1-12.525,6.987,0,11.1,5.063,11.1,12.815v2.294H351.325v.659c0,5.774,2.874,9.571,7.752,9.571,3.692,0,5.88-1.951,6.7-4.561h3.692c-.949,4.271-4.483,7.7-10.494,7.7C351.905,514.736,347.66,509.726,347.66,501.921ZM366.2,498.2v-.079c0-5.01-2.953-8.7-7.435-8.7-4.535,0-7.436,3.692-7.436,8.7v.079Z"/><path class="cls-4" d="M395.068,490.874h.106V476.4h3.639v37.89h-3.455v-4.43h-.105a9.094,9.094,0,0,1-8.358,4.851c-7.041,0-10.969-5.141-10.969-12.682v-3.059c0-7.514,4.271-12.709,10.969-12.709A9.072,9.072,0,0,1,395.068,490.874Zm-15.5,8.3v2.69c0,6.354,3.27,9.6,7.7,9.6,5.009,0,7.989-3.717,7.989-9.571v-2.742c0-5.695-3.085-9.624-8.068-9.624C382.913,489.529,379.564,492.667,379.564,499.179Z"/><path class="cls-4" d="M407.329,486.734h3.639v3.955h.1c1.029-1.978,3.639-4.43,8.253-4.43,5.669,0,9.862,3.613,9.862,10.283v17.746h-3.639V497.07c0-4.72-2.769-7.462-7.146-7.462-5.168,0-7.435,3.77-7.435,7.805v16.875h-3.639Z"/><path class="cls-4" d="M436.1,501.921v-3.137c0-7.436,4.034-12.525,11.1-12.525,6.988,0,11.1,5.063,11.1,12.815v2.294H439.761v.659c0,5.774,2.874,9.571,7.752,9.571,3.691,0,5.88-1.951,6.7-4.561H457.9c-.949,4.271-4.482,7.7-10.494,7.7C440.341,514.736,436.1,509.726,436.1,501.921Zm18.536-3.717v-.079c0-5.01-2.953-8.7-7.436-8.7-4.535,0-7.435,3.692-7.435,8.7v.079Z"/><path class="cls-4" d="M474.249,486.259c6.539,0,9.571,3.9,9.571,8.042h-3.454c-.1-2.135-1.555-4.9-6.249-4.9-3.507,0-6.143,1.529-6.143,4.614,0,3.217,3.4,3.982,6.908,4.72,5.089,1,9.6,2.241,9.6,7.673s-4.482,8.332-10.625,8.332c-6.17,0-10.073-3.164-10.073-7.726h3.586c.317,2.5,2.5,4.615,6.75,4.615,4.4,0,6.75-2.057,6.75-4.826,0-3.3-2.979-3.981-7.2-4.878-5.194-1.16-9.281-2.663-9.281-7.541C464.388,488.843,469,486.259,474.249,486.259Z"/><path class="cls-4" d="M509.291,490.874h.105V476.4h3.639v37.89h-3.454v-4.43h-.105a9.1,9.1,0,0,1-8.359,4.851c-7.04,0-10.969-5.141-10.969-12.682v-3.059c0-7.514,4.272-12.709,10.969-12.709A9.073,9.073,0,0,1,509.291,490.874Zm-15.5,8.3v2.69c0,6.354,3.27,9.6,7.7,9.6,5.01,0,7.99-3.717,7.99-9.571v-2.742c0-5.695-3.085-9.624-8.069-9.624C497.136,489.529,493.787,492.667,493.787,499.179Z"/><path class="cls-4" d="M528.908,514.736c-5.326,0-8.991-3.27-8.991-8.306,0-4.746,3.3-7.805,9.571-7.831h7.62v-3.111c0-3.982-2.346-6.065-6.328-6.065-3.876,0-5.959,1.925-6.328,4.878H521c.343-4.719,3.586-8.042,9.914-8.042,5.748,0,9.835,3.164,9.835,8.781v19.248h-3.533V510.6h-.106C535.869,512.732,533.285,514.736,528.908,514.736Zm8.2-9.651v-3.506H529.62c-4.166,0-5.932,1.977-5.932,4.746,0,3.507,2.821,5.273,6.064,5.273C533.918,511.6,537.108,508.935,537.108,505.085Z"/><path class="cls-4" d="M559.2,514.525l-.844,2.267c-2,5.327-4.535,7.041-8.727,7.041a11.447,11.447,0,0,1-2.347-.211v-3.059c.475.053,1.318.105,2,.105,3.006,0,4.614-1.186,5.484-4.113l.58-1.846-10.283-27.975h4.034l8.042,23.361h.132l7.99-23.361h3.876Z"/><path class="cls-4" d="M566.9,520.589l2.874-10.362h4.035l-4.272,10.362Z"/><path class="cls-4" d="M592.242,514.288V478.323h3.56l12.524,29.083h.106l12.5-29.083h3.533v35.965h-3.322V486.6h-.132l-11,24.917h-3.323l-11-24.917h-.105v27.686Z"/><path class="cls-4" d="M640.705,514.736c-5.326,0-8.991-3.27-8.991-8.306,0-4.746,3.3-7.805,9.571-7.831h7.62v-3.111c0-3.982-2.346-6.065-6.328-6.065-3.876,0-5.959,1.925-6.328,4.878h-3.454c.343-4.719,3.586-8.042,9.914-8.042,5.748,0,9.835,3.164,9.835,8.781v19.248h-3.533V510.6h-.106C647.666,512.732,645.082,514.736,640.705,514.736Zm8.2-9.651v-3.506h-7.488c-4.166,0-5.933,1.977-5.933,4.746,0,3.507,2.822,5.273,6.065,5.273C645.715,511.6,648.905,508.935,648.905,505.085Z"/><path class="cls-4" d="M671,514.525l-.844,2.267c-2,5.327-4.535,7.041-8.727,7.041a11.447,11.447,0,0,1-2.347-.211v-3.059c.475.053,1.318.105,2,.105,3.006,0,4.614-1.186,5.484-4.113l.58-1.846-10.283-27.975H660.9l8.042,23.361h.132l7.989-23.361h3.876Z"/><path class="cls-4" d="M703.8,514.288V482.331h-.053c-1.556.843-6.592,3.981-8.622,5.378V483.86c2.215-1.582,6.671-4.324,8.938-5.537h3.375v35.965Z"/><path class="cls-4" d="M735.653,486.576a6.839,6.839,0,0,0-7.04-5.722c-5.036,0-9.228,4.535-9.518,15.847h.052c1.055-2.848,4.588-5.7,9.466-5.7a11.535,11.535,0,0,1,11.734,11.839c0,7.594-5.379,12.208-12.129,12.208a11.19,11.19,0,0,1-9.15-4.166c-2.241-2.8-3.559-7.066-3.559-12.92,0-14,5.616-20.355,13.289-20.355a10.324,10.324,0,0,1,10.6,8.965ZM728.3,511.809c4.4,0,8.385-2.953,8.385-8.7,0-5.88-4.219-8.807-8.385-8.807-4.509,0-8.569,2.98-8.569,8.6C719.728,508.566,723.788,511.809,728.3,511.809Z"/></g></g></g></svg>