<svg xmlns="http://www.w3.org/2000/svg" xmlns:xlink="http://www.w3.org/1999/xlink" viewBox="0 0 828.568 604.19"><defs><style>.cls-1,.cls-65{fill:none;}.cls-2{fill:#db4568;}.cls-3,.cls-49{fill:#b72157;}.cls-4{fill:#75d1fd;}.cls-5{fill:#60d5fa;}.cls-6{opacity:0.48;}.cls-7{fill:#15b9e5;}.cls-8{fill:#a7e5fd;}.cls-9{fill:url(#linear-gradient);}.cls-10{fill:url(#linear-gradient-2);}.cls-11{isolation:isolate;}.cls-12{clip-path:url(#clip-path);}.cls-13{fill:#09a56f;}.cls-14{fill:#05ad72;}.cls-15{fill:#04b275;}.cls-16{fill:#05b67a;}.cls-17{fill:#22be88;}.cls-18{fill:#05bf7e;}.cls-19{fill:#05c383;}.cls-20{fill:#05c786;}.cls-21{fill:#05cb87;}.cls-22{clip-path:url(#clip-path-2);}.cls-23{fill:#04a36c;}.cls-24{clip-path:url(#clip-path-3);}.cls-25{clip-path:url(#clip-path-4);}.cls-26{clip-path:url(#clip-path-5);}.cls-27{clip-path:url(#clip-path-6);}.cls-28{fill:#05c583;}.cls-29{fill:#48c8fa;}.cls-30{fill:#a6eaff;}.cls-31{fill:#d6f2ff;}.cls-32{fill:#1ac0f1;}.cls-33{fill:#db5173;}.cls-34{clip-path:url(#clip-path-7);}.cls-35{clip-path:url(#clip-path-8);}.cls-36{clip-path:url(#clip-path-9);}.cls-37{clip-path:url(#clip-path-10);}.cls-38{clip-path:url(#clip-path-11);}.cls-39{clip-path:url(#clip-path-12);}.cls-40{clip-path:url(#clip-path-13);}.cls-41{clip-path:url(#clip-path-14);}.cls-42{clip-path:url(#clip-path-15);}.cls-43{clip-path:url(#clip-path-16);}.cls-44{clip-path:url(#clip-path-17);}.cls-45{clip-path:url(#clip-path-18);}.cls-46{clip-path:url(#clip-path-19);}.cls-47{clip-path:url(#clip-path-20);}.cls-48{clip-path:url(#clip-path-21);}.cls-49{fill-rule:evenodd;}.cls-50{fill:#15b8f9;}.cls-51{fill:#00b1e8;}.cls-52{fill:#35c2f9;}.cls-53{fill:#fac206;}.cls-54{fill:#efb614;}.cls-55{fill:#ffd02c;}.cls-56{fill:#ff5d63;}.cls-57{fill:#f46480;}.cls-58{fill:#ff8287;}.cls-59{fill:#c7f4ff;}.cls-60{fill:#fc980d;}.cls-61{fill:#eb8e0c;}.cls-62{fill:#ffe640;}.cls-63{fill:#fcc20d;}.cls-64{opacity:0.44;}.cls-65{stroke:#e8f9ff;stroke-miterlimit:10;stroke-width:2px;stroke-dasharray:12;}</style><linearGradient id="linear-gradient" x1="662.69" y1="515.49" x2="575.805" y2="415.081" gradientUnits="userSpaceOnUse"><stop offset="0" stop-color="#1798d5"/><stop offset="1" stop-color="#71c2f6"/></linearGradient><linearGradient id="linear-gradient-2" x1="451.691" y1="891.653" x2="78.712" y2="245.261" xlink:href="#linear-gradient"/><clipPath id="clip-path"><path class="cls-1" d="M490.707,144.947l-89.52-52.024a.362.362,0,0,0,.377.035l89.521,52.024A.364.364,0,0,1,490.707,144.947Z"/></clipPath><clipPath id="clip-path-2"><path class="cls-1" d="M373.438,130.677,283.917,78.653c1.529.889,3.47,1.249,6.58.491a26.329,26.329,0,0,0,6.928-2.813c16.609-9.589,25.955-36.616,38.46-55.232A90.643,90.643,0,0,1,346.858,7.143a32.937,32.937,0,0,1,6.488-5.086,13.8,13.8,0,0,1,6.09-2.051,5.942,5.942,0,0,1,3.31.833l89.52,52.024a5.937,5.937,0,0,0-3.309-.833,13.81,13.81,0,0,0-6.09,2.05,32.981,32.981,0,0,0-6.488,5.087,90.643,90.643,0,0,0-10.973,13.956c-12.5,18.616-21.851,45.642-38.46,55.232a26.329,26.329,0,0,1-6.928,2.813C376.908,131.926,374.967,131.566,373.438,130.677Z"/></clipPath><clipPath id="clip-path-3"><path class="cls-1" d="M277.309,73.11l89.521,52.023c-.132-.076-.268-.152-.406-.225-6.9-3.649-14.51-8.84-22.464-10.34L254.439,62.544c7.954,1.5,15.559,6.691,22.464,10.34C277.041,72.958,277.177,73.033,277.309,73.11Z"/></clipPath><clipPath id="clip-path-4"><path class="cls-1" d="M321.614,104.649,232.093,52.626c6.989,4.061,15.121,6.594,22.346,9.918l89.521,52.024C336.735,111.244,328.6,108.711,321.614,104.649Z"/></clipPath><clipPath id="clip-path-5"><path class="cls-1" d="M221.923,44.862l89.521,52.024c-1.566-.909-3.374-1.112-5.972.388L215.951,45.25C218.549,43.75,220.357,43.953,221.923,44.862Z"/></clipPath><clipPath id="clip-path-6"><path class="cls-1" d="M90.891,384.558,1.37,332.534q12.194-26.661,24.387-53.313,9.915-21.675,19.83-43.341c5.434-11.875,12.635-31.986,21.979-40.923a27.486,27.486,0,0,1,5.269-3.952c11.448-6.609,25.691-4,34.677-4.472,7.2-.379,12.553.973,20.155-3.415a35.424,35.424,0,0,0,3.26-2.146c6.146-4.526,10.346-9.486,14.719-16.978,14.243-24.4,27.89-49.273,41.883-73.835,3.85-6.756,7.68-13.524,11.6-20.241,4.684-8.017,8.121-18.364,15.37-23.71a15.528,15.528,0,0,1,1.451-.958l89.521,52.024a15.708,15.708,0,0,0-1.451.957c-7.249,5.347-10.686,15.694-15.37,23.711-3.921,6.717-7.751,13.484-11.6,20.241-13.993,24.562-27.64,49.431-41.883,73.835-4.373,7.492-8.573,12.452-14.719,16.978a35.073,35.073,0,0,1-3.261,2.145c-7.6,4.389-12.951,3.037-20.155,3.416-8.985.47-23.228-2.137-34.676,4.472a27.455,27.455,0,0,0-5.269,3.952c-9.344,8.936-16.545,29.048-21.979,40.922q-9.915,21.675-19.83,43.342Q103.084,357.9,90.891,384.558Z"/></clipPath><clipPath id="clip-path-7"><path class="cls-2" d="M251.646,205.443l.022-7.718a.194.194,0,0,0,.114.16l-.022,7.717A.194.194,0,0,1,251.646,205.443Z"/></clipPath><clipPath id="clip-path-8"><path class="cls-2" d="M380.118,211.31l-.022,7.717a.2.2,0,0,1-.116.16l.022-7.718A.2.2,0,0,0,380.118,211.31Z"/></clipPath><clipPath id="clip-path-9"><path class="cls-3" d="M328.1,241.631l-.022,7.718a.587.587,0,0,1-.538.005l.022-7.718A.587.587,0,0,0,328.1,241.631Z"/></clipPath><clipPath id="clip-path-10"><path class="cls-2" d="M327.744,163.162l.022-7.718a.194.194,0,0,0,.114.16l-.022,7.717A.192.192,0,0,1,327.744,163.162Z"/></clipPath><clipPath id="clip-path-11"><path class="cls-2" d="M456.216,169.029l-.022,7.717a.2.2,0,0,1-.116.16l.022-7.718A.2.2,0,0,0,456.216,169.029Z"/></clipPath><clipPath id="clip-path-12"><path class="cls-3" d="M404.2,199.351l-.022,7.717a.587.587,0,0,1-.538,0l.022-7.717A.593.593,0,0,0,404.2,199.351Z"/></clipPath><clipPath id="clip-path-13"><path class="cls-2" d="M437.72,157.784l-.028,9.775a.238.238,0,0,1-.139.2l.027-9.776A.239.239,0,0,0,437.72,157.784Z"/></clipPath><clipPath id="clip-path-14"><path class="cls-2" d="M271.407,194.319l.027-9.776a.244.244,0,0,0,.142.2l-.027,9.776A.242.242,0,0,1,271.407,194.319Z"/></clipPath><clipPath id="clip-path-15"><path class="cls-3" d="M332.09,219.284l-.028,9.776a.775.775,0,0,1-.684,0l.028-9.776A.769.769,0,0,0,332.09,219.284Z"/></clipPath><clipPath id="clip-path-16"><path class="cls-2" d="M410.322,151.374l-.02,7a.178.178,0,0,1-.1.146l.019-7A.177.177,0,0,0,410.322,151.374Z"/></clipPath><clipPath id="clip-path-17"><path class="cls-2" d="M291.252,177.53l.019-7a.179.179,0,0,0,.107.148l-.02,7A.178.178,0,0,1,291.252,177.53Z"/></clipPath><clipPath id="clip-path-18"><path class="cls-3" d="M334.7,195.408l-.02,7a.528.528,0,0,1-.486,0l.02-7A.528.528,0,0,0,334.7,195.408Z"/></clipPath><clipPath id="clip-path-19"><path class="cls-2" d="M389.6,145.617l-.014,4.786a.126.126,0,0,1-.075.1l.013-4.786A.126.126,0,0,0,389.6,145.617Z"/></clipPath><clipPath id="clip-path-20"><path class="cls-2" d="M310.822,155.7l.014-4.786a.112.112,0,0,0,.069.1l-.014,4.786A.117.117,0,0,1,310.822,155.7Z"/></clipPath><clipPath id="clip-path-21"><path class="cls-3" d="M345.941,171.047l-.013,4.786a.366.366,0,0,1-.332,0l.013-4.786A.366.366,0,0,0,345.941,171.047Z"/></clipPath></defs><title>isometric_3</title><g id="Layer_2" data-name="Layer 2"><g id="Layer_1-2" data-name="Layer 1"><polygon class="cls-4" points="464.18 204.583 464.006 265.955 440.432 252.344 440.606 190.972 464.18 204.583"/><polygon class="cls-5" points="828.568 332.562 415.67 572.513 0.07 332.566 412.969 92.616 828.568 332.562"/><g class="cls-6"><polygon class="cls-7" points="638.563 223.165 226.327 462.73 181.449 436.82 593.685 197.254 638.563 223.165"/></g><polygon class="cls-8" points="656.782 241.019 244.553 480.581 222.117 467.628 634.346 228.066 656.782 241.019"/><polygon class="cls-9" points="828.568 332.936 828.503 360.102 415.6 604.19 415.67 572.886 828.568 332.936"/><polygon class="cls-10" points="415.67 572.886 415.6 604.19 0 365.188 0.07 332.94 415.67 572.886"/><g class="cls-11"><g class="cls-11"><g class="cls-12"><g class="cls-11"><path class="cls-13" d="M490.707,144.947l-89.52-52.024.031.017,89.521,52.024-.032-.017"/><path class="cls-14" d="M490.739,144.964,401.218,92.94a.438.438,0,0,0,.05.023l89.521,52.024a.438.438,0,0,1-.05-.023"/><path class="cls-15" d="M490.789,144.987,401.268,92.963l.049.018,89.521,52.024-.049-.018"/><path class="cls-16" d="M490.838,145.005,401.317,92.981l.047.011,89.521,52.023a.394.394,0,0,1-.047-.01"/><path class="cls-17" d="M490.885,145.015,401.364,92.992a.342.342,0,0,0,.045,0L490.93,145.02a.23.23,0,0,1-.045-.005"/><path class="cls-18" d="M490.93,145.02,401.409,93a.32.32,0,0,0,.044,0l89.521,52.023a.213.213,0,0,1-.044,0"/><path class="cls-19" d="M490.974,145.018,401.453,93a.3.3,0,0,0,.043-.009l89.521,52.024a.2.2,0,0,1-.043.008"/><path class="cls-20" d="M491.017,145.01,401.5,92.986a.19.19,0,0,0,.04-.014L491.057,145a.317.317,0,0,1-.04.014"/><path class="cls-21" d="M491.057,145,401.536,92.972l.028-.014,89.521,52.024-.028.014"/></g></g></g><g class="cls-11"><g class="cls-22"><g class="cls-11"><path class="cls-23" d="M373.438,130.677,283.917,78.653l.071.041,89.521,52.023-.071-.04"/><path class="cls-13" d="M373.509,130.717,283.988,78.694a6.586,6.586,0,0,0,.695.341L374.2,131.059a6.4,6.4,0,0,1-.695-.342"/><path class="cls-14" d="M374.2,131.059,284.683,79.035a6.23,6.23,0,0,0,.686.243L374.89,131.3a6.23,6.23,0,0,1-.686-.243"/><path class="cls-15" d="M374.89,131.3,285.369,79.278a6.517,6.517,0,0,0,.725.167l89.521,52.024a6.749,6.749,0,0,1-.725-.167"/><path class="cls-16" d="M375.615,131.469,286.094,79.445a7.469,7.469,0,0,0,.812.1l89.521,52.024a7.469,7.469,0,0,1-.812-.095"/><path class="cls-17" d="M376.427,131.564,286.906,79.54a8.943,8.943,0,0,0,.972.006L377.4,131.57a9.187,9.187,0,0,1-.971-.006"/><path class="cls-18" d="M377.4,131.57l-89.52-52.024a11.664,11.664,0,0,0,1.255-.128l89.521,52.024a11.916,11.916,0,0,1-1.256.128"/><path class="cls-19" d="M378.654,131.442,289.133,79.418c.428-.066.882-.156,1.364-.274.193-.047.386-.1.577-.148L380.6,131.02c-.191.051-.384.1-.577.148-.482.118-.936.208-1.364.274"/><path class="cls-20" d="M380.6,131.02,291.074,79a25.471,25.471,0,0,0,3.089-1.053l89.521,52.024a25.471,25.471,0,0,1-3.089,1.053"/><path class="cls-21" d="M383.684,129.967,294.163,77.943a27.586,27.586,0,0,0,3.262-1.612,36.269,36.269,0,0,0,7.288-5.668l89.521,52.023a36.275,36.275,0,0,1-7.288,5.669,27.586,27.586,0,0,1-3.262,1.612"/><path class="cls-20" d="M394.234,122.686,304.713,70.663q1.392-1.376,2.719-2.905l89.521,52.024q-1.327,1.527-2.719,2.9"/><path class="cls-19" d="M396.953,119.782,307.432,67.758q1.2-1.381,2.358-2.877l89.521,52.024q-1.156,1.493-2.358,2.877"/><path class="cls-18" d="M399.311,116.905,309.79,64.881q1.192-1.539,2.341-3.183l89.521,52.024q-1.149,1.641-2.341,3.183"/><path class="cls-17" d="M401.652,113.722,312.131,61.7q1.316-1.876,2.583-3.866l89.521,52.024q-1.269,1.985-2.583,3.866"/><path class="cls-16" d="M404.235,109.856,314.714,57.832c1.134-1.775,2.242-3.609,3.333-5.48l89.521,52.024c-1.091,1.871-2.2,3.7-3.333,5.48"/><path class="cls-15" d="M407.568,104.376,318.047,52.352c4.483-7.688,8.671-16.024,13.114-23.65l89.521,52.024c-4.443,7.626-8.631,15.962-13.114,23.65"/><path class="cls-16" d="M420.682,80.726,331.161,28.7c1.077-1.85,2.17-3.658,3.285-5.405l89.521,52.024c-1.115,1.747-2.208,3.555-3.285,5.405"/><path class="cls-17" d="M423.967,75.321,334.446,23.3q.714-1.118,1.439-2.2,1.107-1.647,2.245-3.276l89.521,52.023q-1.139,1.626-2.245,3.277-.726,1.08-1.439,2.2"/><path class="cls-18" d="M427.651,69.846,338.13,17.823c1.046-1.491,2.115-2.959,3.215-4.379l89.521,52.024c-1.1,1.42-2.169,2.887-3.215,4.378"/><path class="cls-19" d="M430.866,65.468,341.345,13.444c.866-1.117,1.75-2.2,2.658-3.248L433.524,62.22c-.908,1.044-1.792,2.131-2.658,3.248"/><path class="cls-20" d="M433.524,62.22,344,10.2c.914-1.051,1.85-2.06,2.815-3.013l89.521,52.024c-.965.953-1.9,1.962-2.815,3.013"/><path class="cls-21" d="M436.339,59.207,346.818,7.183l.04-.04a32.937,32.937,0,0,1,6.488-5.086A19.022,19.022,0,0,1,355.6.936L445.12,52.96a19.166,19.166,0,0,0-2.253,1.12,32.981,32.981,0,0,0-6.488,5.087l-.04.04"/><path class="cls-20" d="M445.12,52.96,355.6.936a14.046,14.046,0,0,1,1.686-.58L446.806,52.38a13.872,13.872,0,0,0-1.686.58"/><path class="cls-19" d="M446.806,52.38,357.285.356A10.89,10.89,0,0,1,358.479.1L448,52.126a10.89,10.89,0,0,0-1.194.254"/><path class="cls-18" d="M448,52.126,358.479.1a9.068,9.068,0,0,1,.957-.1h.008L448.965,52.03h-.008a8.811,8.811,0,0,0-.957.1"/><path class="cls-17" d="M448.965,52.03,359.444.006a6.015,6.015,0,0,1,.645.006L449.61,52.036a5.765,5.765,0,0,0-.645-.006"/><path class="cls-16" d="M449.61,52.036,360.089.012a6.153,6.153,0,0,1,.628.074L450.238,52.11a5.637,5.637,0,0,0-.628-.074"/><path class="cls-15" d="M450.238,52.11,360.717.086a5.86,5.86,0,0,1,.635.149l89.521,52.023a5.857,5.857,0,0,0-.635-.148"/><path class="cls-14" d="M450.873,52.258,361.352.235a6,6,0,0,1,.647.23l89.52,52.024a6.126,6.126,0,0,0-.646-.231"/><path class="cls-13" d="M451.519,52.489,362,.465a6.718,6.718,0,0,1,.676.333L452.2,52.822a6.429,6.429,0,0,0-.677-.333"/><path class="cls-23" d="M452.2,52.822,362.675.8l.071.041,89.52,52.024-.07-.041"/></g></g></g><g class="cls-11"><g class="cls-24"><g class="cls-11"><path class="cls-15" d="M343.96,114.568,254.439,62.544c.927.175,1.848.4,2.764.666l89.521,52.024c-.916-.267-1.838-.492-2.764-.666"/><path class="cls-14" d="M346.724,115.234,257.2,63.21a39.513,39.513,0,0,1,4.215,1.507l89.521,52.024a39.513,39.513,0,0,0-4.215-1.507"/><path class="cls-13" d="M350.939,116.741,261.418,64.717a90.824,90.824,0,0,1,9.377,4.769l89.521,52.024a90.925,90.925,0,0,0-9.377-4.769"/><path class="cls-23" d="M360.316,121.51,270.8,69.486c.851.48,1.694.959,2.527,1.429l89.521,52.024c-.834-.47-1.676-.949-2.527-1.429"/><path class="cls-13" d="M362.843,122.939,273.322,70.915c1.213.684,2.407,1.349,3.581,1.969.093.05.185.1.276.151L366.7,125.059c-.091-.051-.183-.1-.276-.151-1.174-.62-2.368-1.285-3.581-1.969"/><path class="cls-23" d="M366.7,125.059,277.179,73.035l.13.075,89.521,52.023-.13-.074"/></g></g></g><g class="cls-11"><g class="cls-25"><g class="cls-11"><path class="cls-23" d="M321.614,104.649,232.093,52.626q.306.177.615.351L322.229,105q-.309-.174-.615-.352"/><path class="cls-13" d="M322.229,105,232.708,52.977a84.564,84.564,0,0,0,8.882,4.229l89.521,52.023A84.359,84.359,0,0,1,322.229,105"/><path class="cls-14" d="M331.111,109.229,241.59,57.206c3.048,1.274,6.138,2.463,9.137,3.717l89.521,52.024c-3-1.254-6.089-2.443-9.137-3.718"/><path class="cls-13" d="M340.248,112.947,250.727,60.923c1.257.525,2.5,1.062,3.712,1.621l89.521,52.024c-1.215-.559-2.455-1.1-3.712-1.621"/></g></g></g><g class="cls-11"><g class="cls-26"><g class="cls-11"><path class="cls-21" d="M305.472,97.274,215.951,45.25a10.258,10.258,0,0,1,1.173-.587l89.521,52.024a10.258,10.258,0,0,0-1.173.587"/><path class="cls-20" d="M306.645,96.687,217.124,44.663a7.312,7.312,0,0,1,.913-.316l89.521,52.024a7.312,7.312,0,0,0-.913.316"/><path class="cls-19" d="M307.558,96.371,218.037,44.347a5.824,5.824,0,0,1,.645-.137L308.2,96.234a5.824,5.824,0,0,0-.645.137"/><path class="cls-18" d="M308.2,96.234,218.682,44.21a5,5,0,0,1,.545-.054L308.748,96.18a4.975,4.975,0,0,0-.545.054"/><path class="cls-17" d="M308.748,96.18,219.227,44.156a4.409,4.409,0,0,1,.5.005L309.25,96.184a4.656,4.656,0,0,0-.5,0"/><path class="cls-16" d="M309.25,96.184,219.729,44.161a4.3,4.3,0,0,1,.489.058l89.521,52.023a4.839,4.839,0,0,0-.489-.058"/><path class="cls-15" d="M309.739,96.242,220.218,44.219a4.542,4.542,0,0,1,.5.115l89.521,52.024a4.788,4.788,0,0,0-.5-.116"/><path class="cls-14" d="M310.236,96.358,220.715,44.334a5.024,5.024,0,0,1,.532.19l89.521,52.023a5.251,5.251,0,0,0-.532-.189"/><path class="cls-13" d="M310.768,96.547,221.247,44.524a5.671,5.671,0,0,1,.6.3l89.521,52.024a5.879,5.879,0,0,0-.6-.3"/><path class="cls-23" d="M311.369,96.844,221.848,44.82l.075.042,89.521,52.024-.075-.042"/></g></g></g><g class="cls-11"><g class="cls-27"><g class="cls-11"><path class="cls-13" d="M90.891,384.558,1.37,332.534q12.194-26.661,24.387-53.313,9.915-21.675,19.83-43.341c.587-1.284,1.195-2.663,1.824-4.114l89.521,52.023c-.629,1.452-1.237,2.831-1.824,4.114q-9.915,21.675-19.83,43.342Q103.084,357.9,90.891,384.558"/><path class="cls-23" d="M136.932,283.789,47.411,231.766c1.138-2.626,2.345-5.486,3.624-8.436l89.521,52.024c-1.279,2.95-2.486,5.81-3.624,8.435"/><path class="cls-13" d="M140.556,275.354,51.035,223.33c1.355-3.125,2.791-6.35,4.31-9.5l89.521,52.024c-1.519,3.153-2.955,6.378-4.31,9.5"/><path class="cls-14" d="M144.866,265.851,55.345,213.827c.8-1.661,1.625-3.3,2.472-4.9l89.521,52.024c-.847,1.6-1.671,3.237-2.472,4.9"/><path class="cls-15" d="M147.338,260.953,57.817,208.929c.632-1.189,1.277-2.354,1.935-3.482l89.521,52.023c-.658,1.129-1.3,2.294-1.935,3.483"/><path class="cls-16" d="M149.273,257.47,59.752,205.447c.529-.906,1.066-1.79,1.611-2.644l89.521,52.023q-.817,1.283-1.611,2.644"/><path class="cls-17" d="M150.884,254.826,61.363,202.8q.723-1.131,1.464-2.191l89.521,52.024q-.743,1.058-1.464,2.19"/><path class="cls-18" d="M152.348,252.636,62.827,200.612q.689-.982,1.395-1.9l89.521,52.024q-.707.912-1.395,1.9"/><path class="cls-19" d="M153.743,250.74,64.222,198.716q.7-.906,1.423-1.735L155.166,249q-.721.828-1.423,1.736"/><path class="cls-20" d="M155.166,249,65.645,196.981q.806-.927,1.633-1.744L156.8,247.261q-.828.816-1.633,1.743"/><path class="cls-21" d="M156.8,247.261,67.278,195.237c.1-.095.192-.188.288-.28a27.486,27.486,0,0,1,5.269-3.952,29.092,29.092,0,0,1,3.425-1.683l89.521,52.024a29.092,29.092,0,0,0-3.425,1.683,27.455,27.455,0,0,0-5.269,3.952c-.1.092-.192.185-.288.28"/><path class="cls-20" d="M165.781,241.346,76.26,189.322a32.923,32.923,0,0,1,4-1.353l89.521,52.024a32.752,32.752,0,0,0-4,1.353"/><path class="cls-19" d="M169.782,239.993,80.261,187.969a40.447,40.447,0,0,1,4.449-.925l89.521,52.024a40.216,40.216,0,0,0-4.449.925"/><path class="cls-18" d="M174.231,239.068,84.71,187.044a56.023,56.023,0,0,1,6.007-.561l89.521,52.023a56.026,56.026,0,0,0-6.007.562"/><path class="cls-17" d="M180.238,238.506,90.717,186.483c6.088-.264,11.892.261,16.426.067l89.521,52.024c-4.534.194-10.338-.331-16.426-.068"/><path class="cls-18" d="M196.664,238.574,107.143,186.55l.369-.017.454-.022,89.521,52.024c-.151.006-.3.014-.455.022l-.368.017"/><path class="cls-17" d="M197.487,238.535l-89.521-52.024c2.92-.126,5.543.011,8.152-.1l89.521,52.024c-2.609.112-5.232-.026-8.152.1"/><path class="cls-18" d="M205.639,238.434,116.118,186.41a29.578,29.578,0,0,0,3.222-.3l89.521,52.024a29.578,29.578,0,0,1-3.222.3"/><path class="cls-19" d="M208.861,238.134,119.34,186.11a22.674,22.674,0,0,0,2.5-.524l89.521,52.024a22.674,22.674,0,0,1-2.5.524"/><path class="cls-20" d="M211.362,237.61l-89.521-52.024a22.325,22.325,0,0,0,2.729-.932l89.521,52.024a22.555,22.555,0,0,1-2.729.932"/><path class="cls-21" d="M214.091,236.678,124.57,184.654a26.492,26.492,0,0,0,3.1-1.536,35.424,35.424,0,0,0,3.26-2.146,49.381,49.381,0,0,0,5.491-4.664l89.521,52.024A49.381,49.381,0,0,1,220.448,233a35.073,35.073,0,0,1-3.261,2.145,26.262,26.262,0,0,1-3.1,1.537"/><path class="cls-20" d="M225.939,228.332l-89.521-52.024c.834-.824,1.635-1.678,2.411-2.571l89.521,52.024c-.776.893-1.577,1.747-2.411,2.571"/><path class="cls-19" d="M228.35,225.761l-89.521-52.024c.607-.7,1.2-1.42,1.78-2.17l89.521,52.024c-.582.75-1.173,1.472-1.78,2.17"/><path class="cls-18" d="M230.13,223.591l-89.521-52.024q.813-1.05,1.6-2.177l89.521,52.024q-.792,1.13-1.6,2.177"/><path class="cls-17" d="M231.734,221.414,142.213,169.39q.818-1.167,1.623-2.427l89.521,52.024q-.807,1.263-1.623,2.427"/><path class="cls-16" d="M233.357,218.987l-89.521-52.024q.9-1.417,1.81-2.969l.2-.339,89.521,52.024-.2.339q-.907,1.554-1.81,2.969"/><path class="cls-15" d="M235.365,215.679l-89.521-52.024c14.171-24.3,27.757-49.048,41.685-73.5,3.769-6.614,7.519-13.239,11.353-19.816L288.4,122.366c-3.834,6.578-7.584,13.2-11.353,19.817-13.929,24.448-27.514,49.2-41.685,73.5"/><path class="cls-16" d="M288.4,122.366,198.882,70.343l.248-.425.023-.039L288.674,121.9l-.023.039-.248.424"/><path class="cls-15" d="M288.674,121.9,199.153,69.879c.485-.832.956-1.688,1.42-2.561l89.521,52.024c-.464.873-.935,1.729-1.42,2.561"/><path class="cls-14" d="M290.094,119.342,200.573,67.318c1.546-2.909,3.006-6,4.59-8.982l89.521,52.024c-1.584,2.979-3.044,6.073-4.59,8.982"/><path class="cls-15" d="M294.684,110.36,205.163,58.336c.485-.913.983-1.816,1.5-2.7l89.521,52.024c-.515.884-1.013,1.787-1.5,2.7"/><path class="cls-16" d="M296.182,107.66,206.661,55.636q.552-.948,1.135-1.863L297.317,105.8q-.584.914-1.135,1.863"/><path class="cls-17" d="M297.317,105.8,207.8,53.773q.5-.782,1.023-1.531l89.521,52.024q-.525.748-1.023,1.531"/><path class="cls-18" d="M298.34,104.266,208.819,52.242q.484-.691.994-1.35l89.521,52.024q-.51.659-.994,1.35"/><path class="cls-19" d="M299.334,102.916,209.813,50.892q.521-.671,1.071-1.3L300.4,101.611q-.552.633-1.071,1.3"/><path class="cls-20" d="M300.4,101.611,210.884,49.587c.427-.49.868-.963,1.326-1.414L301.731,100.2q-.687.676-1.326,1.414"/><path class="cls-21" d="M301.731,100.2,212.21,48.173a21.114,21.114,0,0,1,2.29-1.965,15.528,15.528,0,0,1,1.451-.958l89.521,52.024a15.708,15.708,0,0,0-1.451.957,21.236,21.236,0,0,0-2.29,1.966"/></g></g></g><path class="cls-28" d="M305.472,97.274c5.13-2.962,7.184.716,10.361,3.367,7.943,6.658,18.791,9.632,28.127,13.927,7.954,1.5,15.559,6.691,22.464,10.34,5.335,2.828,5.644,8.2,13.594,6.26a26.329,26.329,0,0,0,6.928-2.813c16.609-9.59,25.955-36.616,38.46-55.232a90.643,90.643,0,0,1,10.973-13.956,32.981,32.981,0,0,1,6.488-5.087,13.81,13.81,0,0,1,6.09-2.05c8.178-.364,11.223,15.639,14.2,23.11q6.048,15.126,12.1,30.244c1.2,3,13.371,41.015,15.827,39.6L90.891,384.558q12.193-26.661,24.387-53.313,9.915-21.675,19.83-43.342c5.434-11.874,12.635-31.986,21.979-40.922a27.455,27.455,0,0,1,5.269-3.952c11.448-6.609,25.691-4,34.676-4.472,7.2-.379,12.554.973,20.155-3.416A35.073,35.073,0,0,0,220.448,233c6.146-4.526,10.346-9.486,14.719-16.978,14.243-24.4,27.89-49.273,41.883-73.835,3.85-6.757,7.68-13.524,11.6-20.241,4.684-8.017,8.121-18.364,15.37-23.711A15.708,15.708,0,0,1,305.472,97.274Z"/></g><polygon class="cls-29" points="575.196 136.675 575.022 198.047 453.006 268.955 453.18 207.583 575.196 136.675"/><polygon class="cls-4" points="575.196 136.675 453.18 207.583 429.606 193.972 551.622 123.064 575.196 136.675"/><polygon class="cls-8" points="462.835 204.17 472.911 264.47 403.62 305.482 394.505 243.879 462.835 204.17"/><polygon class="cls-30" points="394.505 243.879 403.62 305.482 358.975 279.706 359.134 223.458 394.505 243.879"/><polygon class="cls-31" points="462.835 204.17 394.505 243.879 359.134 223.458 427.465 183.749 462.835 204.17"/><polygon class="cls-8" points="360.347 265.109 369.251 326.63 300.783 367.166 292.017 304.818 360.347 265.109"/><polygon class="cls-30" points="292.017 304.818 300.783 367.166 256.487 340.645 256.647 284.397 292.017 304.818"/><polygon class="cls-31" points="360.347 265.109 292.017 304.818 256.647 284.397 324.977 244.688 360.347 265.109"/><polygon class="cls-29" points="289.893 301.026 289.719 362.398 167.703 433.306 167.877 371.934 289.893 301.026"/><polygon class="cls-32" points="167.877 371.934 167.703 433.306 144.129 419.695 144.303 358.323 167.877 371.934"/><polygon class="cls-4" points="289.893 301.026 167.877 371.934 144.303 358.323 266.319 287.415 289.893 301.026"/><g class="cls-11"><polygon class="cls-33" points="335.85 207.794 335.69 264.243 326.861 269.373 327.021 212.925 335.85 207.794"/><polygon class="cls-3" points="327.021 212.925 326.861 269.373 317.974 264.243 318.134 207.794 327.021 212.925"/><polygon class="cls-2" points="335.85 207.794 327.021 212.925 318.134 207.794 326.963 202.663 335.85 207.794"/></g><g class="cls-11"><polygon class="cls-33" points="310.927 222.299 310.767 278.747 301.938 283.878 302.098 227.429 310.927 222.299"/><polygon class="cls-3" points="302.098 227.429 301.938 283.878 293.051 278.747 293.211 222.299 302.098 227.429"/><polygon class="cls-2" points="310.927 222.299 302.098 227.429 293.211 222.299 302.04 217.168 310.927 222.299"/></g><g class="cls-11"><polygon class="cls-33" points="425.675 157.056 425.515 213.504 416.686 218.635 416.846 162.186 425.675 157.056"/><polygon class="cls-3" points="416.846 162.186 416.686 218.635 407.799 213.504 407.959 157.056 416.846 162.186"/><polygon class="cls-2" points="425.675 157.056 416.846 162.186 407.959 157.056 416.788 151.925 425.675 157.056"/></g><g class="cls-11"><polygon class="cls-33" points="400.751 171.56 400.591 228.009 391.762 233.14 391.922 176.691 400.751 171.56"/><polygon class="cls-3" points="391.922 176.691 391.762 233.14 382.875 228.009 383.035 171.56 391.922 176.691"/><polygon class="cls-2" points="400.751 171.56 391.922 176.691 383.035 171.56 391.864 166.429 400.751 171.56"/></g><g class="cls-11"><polygon class="cls-2" points="303.958 167.881 303.936 175.598 252.578 205.444 252.6 197.726 303.958 167.881"/><g class="cls-11"><path class="cls-2" d="M251.646,205.443l.022-7.718a.194.194,0,0,0,.114.16l-.022,7.717A.194.194,0,0,1,251.646,205.443Z"/><g class="cls-34"><g class="cls-11"><path class="cls-2" d="M251.782,197.885l-.022,7.717a.194.194,0,0,1-.114-.159l.022-7.718a.194.194,0,0,0,.114.16"/></g></g></g><polygon class="cls-2" points="379.19 211.316 379.168 219.033 303.936 175.598 303.958 167.881 379.19 211.316"/><g class="cls-11"><path class="cls-2" d="M380.118,211.31l-.022,7.717a.2.2,0,0,1-.116.16l.022-7.718A.2.2,0,0,0,380.118,211.31Z"/><g class="cls-35"><g class="cls-11"><polyline class="cls-2" points="380.118 211.31 380.096 219.027 380.096 219.03 380.118 211.313 380.118 211.31"/><path class="cls-2" d="M380.118,211.313l-.022,7.717,0,.022.022-7.718,0-.021"/><path class="cls-2" d="M380.115,211.334l-.022,7.718-.006.021.022-7.717.006-.022"/><path class="cls-2" d="M380.109,211.356l-.022,7.717-.01.022.022-7.717.01-.022"/><path class="cls-2" d="M380.1,211.378l-.022,7.717c0,.008-.01.016-.016.024l.022-7.717c.006-.008.011-.016.016-.024"/><path class="cls-2" d="M380.083,211.4l-.022,7.717a.205.205,0,0,1-.025.027l.022-7.718a.2.2,0,0,0,.025-.026"/><path class="cls-2" d="M380.058,211.428l-.022,7.718a.307.307,0,0,1-.051.038l.022-7.718a.307.307,0,0,0,.051-.038"/><polyline class="cls-2" points="380.007 211.466 379.985 219.184 379.98 219.187 380.002 211.469 380.007 211.466"/></g></g></g><polygon class="cls-2" points="379.19 211.316 327.833 241.162 252.6 197.726 303.958 167.881 379.19 211.316"/><polygon class="cls-2" points="327.833 241.162 327.811 248.879 252.578 205.444 252.6 197.726 327.833 241.162"/><polygon class="cls-2" points="379.19 211.316 379.168 219.033 327.811 248.879 327.833 241.162 379.19 211.316"/><polygon class="cls-3" points="380.002 211.469 379.98 219.187 328.078 249.349 328.1 241.631 380.002 211.469"/><polygon class="cls-3" points="327.562 241.636 327.54 249.354 251.76 205.602 251.782 197.885 327.562 241.636"/><path class="cls-2" d="M380.009,211.158c.15.086.142.224-.007.311l-51.9,30.162a.587.587,0,0,1-.538,0l-75.78-43.751a.168.168,0,0,1,0-.317l51.9-30.162a.6.6,0,0,1,.546,0Zm-52.176,30,51.357-29.846-75.232-43.435L252.6,197.726l75.233,43.436"/><path class="cls-3" d="M328.1,241.631l-.022,7.718a.587.587,0,0,1-.538.005l.022-7.718A.587.587,0,0,0,328.1,241.631Z"/><g class="cls-36"><g class="cls-11"><path class="cls-3" d="M328.1,241.631l-.022,7.718a.421.421,0,0,1-.089.039l.022-7.718a.421.421,0,0,0,.089-.039"/><path class="cls-3" d="M328.011,241.67l-.022,7.718a.47.47,0,0,1-.074.018l.022-7.717a.617.617,0,0,0,.074-.019"/><path class="cls-3" d="M327.937,241.689l-.022,7.717a.429.429,0,0,1-.05.007l.022-7.717.05-.007"/><path class="cls-3" d="M327.887,241.7l-.022,7.717-.042,0,.022-7.717.042,0"/><path class="cls-3" d="M327.845,241.7l-.022,7.717a.241.241,0,0,1-.038,0l.022-7.717h.038"/><path class="cls-3" d="M327.807,241.7l-.022,7.717-.037,0,.022-7.717.037,0"/><path class="cls-3" d="M327.77,241.7l-.022,7.717-.035,0,.022-7.717.035,0"/><path class="cls-3" d="M327.735,241.693l-.022,7.717-.036-.006.022-7.717.036.006"/><path class="cls-3" d="M327.7,241.687l-.022,7.717-.038-.009.022-7.718.038.01"/><path class="cls-3" d="M327.661,241.677l-.022,7.718-.045-.015.022-7.718a.3.3,0,0,0,.045.015"/><path class="cls-3" d="M327.616,241.662l-.022,7.718a.449.449,0,0,1-.054-.026l.022-7.718a.336.336,0,0,0,.054.026"/></g></g></g><g class="cls-11"><polygon class="cls-2" points="380.056 125.6 380.034 133.317 328.676 163.163 328.698 155.445 380.056 125.6"/><g class="cls-11"><path class="cls-2" d="M327.744,163.162l.022-7.718a.194.194,0,0,0,.114.16l-.022,7.717A.192.192,0,0,1,327.744,163.162Z"/><g class="cls-37"><g class="cls-11"><path class="cls-2" d="M327.88,155.6l-.022,7.717a.192.192,0,0,1-.114-.159l.022-7.718a.194.194,0,0,0,.114.16"/></g></g></g><polygon class="cls-2" points="455.288 169.035 455.266 176.753 380.034 133.317 380.056 125.6 455.288 169.035"/><g class="cls-11"><path class="cls-2" d="M456.216,169.029l-.022,7.717a.2.2,0,0,1-.116.16l.022-7.718A.2.2,0,0,0,456.216,169.029Z"/><g class="cls-38"><g class="cls-11"><polyline class="cls-2" points="456.216 169.029 456.194 176.746 456.194 176.75 456.216 169.032 456.216 169.029"/><path class="cls-2" d="M456.216,169.032l-.022,7.718,0,.021.022-7.717,0-.022"/><path class="cls-2" d="M456.213,169.054l-.022,7.717-.006.022.022-7.718.006-.021"/><path class="cls-2" d="M456.207,169.075l-.022,7.718-.01.022.022-7.718.01-.022"/><path class="cls-2" d="M456.2,169.1l-.022,7.718a.188.188,0,0,1-.016.023l.022-7.717c.006-.008.011-.016.016-.024"/><path class="cls-2" d="M456.181,169.121l-.022,7.717a.205.205,0,0,1-.025.027l.022-7.718a.152.152,0,0,0,.025-.026"/><path class="cls-2" d="M456.156,169.147l-.022,7.718a.307.307,0,0,1-.051.038l.022-7.718a.26.26,0,0,0,.051-.038"/><polyline class="cls-2" points="456.105 169.185 456.083 176.903 456.078 176.906 456.1 169.188 456.105 169.185"/></g></g></g><polygon class="cls-2" points="455.288 169.035 403.931 198.881 328.698 155.445 380.056 125.6 455.288 169.035"/><polygon class="cls-2" points="403.931 198.881 403.909 206.598 328.676 163.163 328.698 155.445 403.931 198.881"/><polygon class="cls-2" points="455.288 169.035 455.266 176.753 403.909 206.598 403.931 198.881 455.288 169.035"/><polygon class="cls-3" points="456.1 169.188 456.078 176.906 404.176 207.068 404.198 199.351 456.1 169.188"/><polygon class="cls-3" points="403.66 199.356 403.638 207.073 327.858 163.321 327.88 155.604 403.66 199.356"/><path class="cls-2" d="M456.107,168.877c.15.087.142.225-.007.311l-51.9,30.163a.593.593,0,0,1-.538,0L327.88,155.6a.168.168,0,0,1,0-.317l51.9-30.162a.6.6,0,0,1,.546,0Zm-52.176,30,51.357-29.846L380.056,125.6,328.7,155.445l75.233,43.436"/><path class="cls-3" d="M404.2,199.351l-.022,7.717a.587.587,0,0,1-.538,0l.022-7.717A.593.593,0,0,0,404.2,199.351Z"/><g class="cls-39"><g class="cls-11"><path class="cls-3" d="M404.2,199.351l-.022,7.717a.421.421,0,0,1-.089.039l.022-7.717a.556.556,0,0,0,.089-.039"/><path class="cls-3" d="M404.109,199.39l-.022,7.717a.617.617,0,0,1-.074.019l.022-7.718a.614.614,0,0,0,.074-.018"/><path class="cls-3" d="M404.035,199.408l-.022,7.718-.05.007.022-7.718.05-.007"/><path class="cls-3" d="M403.985,199.415l-.022,7.718-.042,0,.022-7.717.042,0"/><path class="cls-3" d="M403.943,199.418l-.022,7.717h-.038l.022-7.718h.038"/><path class="cls-3" d="M403.905,199.418l-.022,7.718-.037,0,.022-7.718.037,0"/><path class="cls-3" d="M403.868,199.416l-.022,7.718-.035,0,.022-7.718.035,0"/><path class="cls-3" d="M403.833,199.412l-.022,7.718-.036-.007.022-7.717.036.006"/><path class="cls-3" d="M403.8,199.406l-.022,7.717-.038-.009.021-7.717.039.009"/><path class="cls-3" d="M403.758,199.4l-.021,7.717a.3.3,0,0,1-.045-.015l.022-7.718.044.016"/><path class="cls-3" d="M403.714,199.381l-.022,7.718a.336.336,0,0,1-.054-.026l.022-7.717a.445.445,0,0,0,.054.025"/></g></g></g><g class="cls-11"><polygon class="cls-2" points="436.545 157.777 436.517 167.553 377.382 133.411 377.41 123.636 436.545 157.777"/><g class="cls-11"><path class="cls-2" d="M437.72,157.784l-.028,9.775a.238.238,0,0,1-.139.2l.027-9.776A.239.239,0,0,0,437.72,157.784Z"/><g class="cls-40"><g class="cls-11"><polyline class="cls-2" points="437.72 157.784 437.692 167.559 437.692 167.564 437.72 157.788 437.72 157.784"/><path class="cls-2" d="M437.72,157.788l-.028,9.776a.141.141,0,0,1,0,.028l.028-9.776a.133.133,0,0,0,0-.028"/><path class="cls-2" d="M437.717,157.816l-.028,9.776a.138.138,0,0,1-.008.027l.028-9.776a.276.276,0,0,0,.008-.027"/><path class="cls-2" d="M437.709,157.843l-.028,9.776a.111.111,0,0,1-.013.027l.028-9.775a.175.175,0,0,0,.013-.028"/><path class="cls-2" d="M437.7,157.871l-.028,9.775a.132.132,0,0,1-.019.029l.028-9.776a.231.231,0,0,0,.019-.028"/><path class="cls-2" d="M437.677,157.9l-.028,9.776a.224.224,0,0,1-.03.032l.028-9.776a.3.3,0,0,0,.03-.032"/><path class="cls-2" d="M437.647,157.931l-.028,9.776a.361.361,0,0,1-.06.045l.027-9.776a.333.333,0,0,0,.061-.045"/><polyline class="cls-2" points="437.586 157.976 437.559 167.752 437.553 167.756 437.58 157.98 437.586 157.976"/></g></g></g><polygon class="cls-2" points="377.41 123.636 377.382 133.411 272.582 194.315 272.61 184.539 377.41 123.636"/><g class="cls-11"><path class="cls-2" d="M271.407,194.319l.027-9.776a.244.244,0,0,0,.142.2l-.027,9.776A.242.242,0,0,1,271.407,194.319Z"/><g class="cls-41"><g class="cls-11"><path class="cls-2" d="M271.576,184.742l-.027,9.776a.242.242,0,0,1-.142-.2l.027-9.776a.244.244,0,0,0,.142.2"/></g></g></g><polygon class="cls-2" points="331.744 218.68 331.717 228.456 272.582 194.315 272.61 184.539 331.744 218.68"/><polygon class="cls-2" points="436.545 157.777 436.517 167.553 331.717 228.456 331.744 218.68 436.545 157.777"/><path class="cls-2" d="M437.578,157.583a.21.21,0,0,1,0,.4l-105.49,61.3a.769.769,0,0,1-.684,0l-59.83-34.542a.21.21,0,0,1,0-.4l105.491-61.3a.744.744,0,0,1,.684,0Zm-105.834,61.1,104.8-60.9L377.41,123.636l-104.8,60.9,59.134,34.141"/><polygon class="cls-2" points="436.545 157.777 331.744 218.68 272.61 184.539 377.41 123.636 436.545 157.777"/><polygon class="cls-3" points="437.58 157.98 437.553 167.756 332.062 229.06 332.09 219.284 437.58 157.98"/><polygon class="cls-3" points="331.406 219.284 331.378 229.06 271.549 194.518 271.576 184.742 331.406 219.284"/><path class="cls-3" d="M332.09,219.284l-.028,9.776a.775.775,0,0,1-.684,0l.028-9.776A.769.769,0,0,0,332.09,219.284Z"/><g class="cls-42"><g class="cls-11"><path class="cls-3" d="M332.09,219.284l-.028,9.776a.5.5,0,0,1-.1.044l.027-9.776a.489.489,0,0,0,.1-.044"/><path class="cls-3" d="M331.989,219.328l-.027,9.776a.824.824,0,0,1-.092.023l.028-9.776a.637.637,0,0,0,.091-.023"/><path class="cls-3" d="M331.9,219.351l-.028,9.776-.063.008.027-9.775c.022,0,.043-.005.064-.009"/><path class="cls-3" d="M331.834,219.36l-.027,9.775a.546.546,0,0,1-.056,0l.027-9.776a.512.512,0,0,0,.056,0"/><path class="cls-3" d="M331.778,219.363l-.027,9.776H331.7l.028-9.775h.052"/><path class="cls-3" d="M331.726,219.364l-.028,9.775-.049,0,.027-9.776.05,0"/><path class="cls-3" d="M331.676,219.361l-.027,9.776c-.017,0-.033,0-.049-.006l.027-9.775.049,0"/><path class="cls-3" d="M331.627,219.356l-.027,9.775-.049-.008.027-9.776.049.009"/><path class="cls-3" d="M331.578,219.347l-.027,9.776-.051-.013.028-9.775.05.012"/><path class="cls-3" d="M331.528,219.335l-.028,9.775a.544.544,0,0,1-.057-.019l.028-9.776a.477.477,0,0,0,.057.02"/><path class="cls-3" d="M331.471,219.315l-.028,9.776a.433.433,0,0,1-.065-.031l.028-9.776a.433.433,0,0,0,.065.031"/></g></g></g><g class="cls-11"><polygon class="cls-2" points="409.481 151.375 409.461 158.374 367.123 133.931 367.143 126.932 409.481 151.375"/><g class="cls-11"><path class="cls-2" d="M410.322,151.374l-.02,7a.178.178,0,0,1-.1.146l.019-7A.177.177,0,0,0,410.322,151.374Z"/><g class="cls-43"><g class="cls-11"><polyline class="cls-2" points="410.322 151.374 410.302 158.373 410.302 158.376 410.322 151.377 410.322 151.374"/><path class="cls-2" d="M410.322,151.377l-.02,7,0,.021.02-7,0-.021"/><path class="cls-2" d="M410.32,151.4l-.02,7-.006.02.02-7,.006-.02"/><path class="cls-2" d="M410.314,151.418l-.02,7-.009.02.019-7,.01-.02"/><path class="cls-2" d="M410.3,151.438l-.019,7-.015.022.02-7,.014-.022"/><path class="cls-2" d="M410.29,151.46l-.02,7a.24.24,0,0,1-.022.024l.02-7,.022-.024"/><path class="cls-2" d="M410.268,151.484l-.02,7a.289.289,0,0,1-.046.034l.02-7a.271.271,0,0,0,.046-.033"/><polyline class="cls-2" points="410.222 151.517 410.202 158.517 410.198 158.519 410.217 151.52 410.222 151.517"/></g></g></g><polygon class="cls-2" points="367.143 126.932 367.123 133.931 292.086 177.538 292.106 170.538 367.143 126.932"/><g class="cls-11"><path class="cls-2" d="M291.252,177.53l.019-7a.179.179,0,0,0,.107.148l-.02,7A.178.178,0,0,1,291.252,177.53Z"/><g class="cls-44"><g class="cls-11"><path class="cls-2" d="M291.378,170.679l-.02,7a.178.178,0,0,1-.106-.148l.019-7a.179.179,0,0,0,.107.148"/></g></g></g><polygon class="cls-2" points="334.443 194.982 334.424 201.981 292.086 177.538 292.106 170.539 334.443 194.982"/><polygon class="cls-2" points="409.481 151.375 409.461 158.374 334.424 201.981 334.443 194.982 409.481 151.375"/><path class="cls-2" d="M410.223,151.235c.136.078.13.206-.006.285L334.7,195.408a.528.528,0,0,1-.486,0l-42.832-24.729c-.136-.078-.144-.207-.009-.285l75.522-43.889a.563.563,0,0,1,.5,0Zm-75.78,43.747,75.038-43.607-42.338-24.443-75.037,43.606,42.337,24.444"/><polygon class="cls-2" points="409.481 151.375 334.443 194.982 292.106 170.539 367.143 126.932 409.481 151.375"/><polygon class="cls-3" points="410.217 151.52 410.198 158.519 334.676 202.407 334.696 195.408 410.217 151.52"/><polygon class="cls-3" points="334.21 195.408 334.19 202.407 291.358 177.678 291.378 170.679 334.21 195.408"/><path class="cls-3" d="M334.7,195.408l-.02,7a.528.528,0,0,1-.486,0l.02-7A.528.528,0,0,0,334.7,195.408Z"/><g class="cls-45"><g class="cls-11"><path class="cls-3" d="M334.7,195.408l-.02,7a.359.359,0,0,1-.077.034l.02-7a.409.409,0,0,0,.077-.034"/><path class="cls-3" d="M334.619,195.442l-.02,7a.477.477,0,0,1-.065.017l.02-7a.477.477,0,0,0,.065-.017"/><path class="cls-3" d="M334.554,195.459l-.02,7-.043.006.02-7,.043-.006"/><path class="cls-3" d="M334.511,195.465l-.02,7-.038,0,.02-7,.038,0"/><path class="cls-3" d="M334.473,195.467l-.02,7a.193.193,0,0,1-.034,0l.02-7h.034"/><path class="cls-3" d="M334.439,195.467l-.02,7h-.033l.02-7,.033,0"/><path class="cls-3" d="M334.406,195.465l-.02,7-.033,0,.02-7,.033,0"/><path class="cls-3" d="M334.373,195.462l-.02,7-.034-.006.02-7,.034.006"/><path class="cls-3" d="M334.339,195.456l-.02,7-.036-.009.02-7,.036.009"/><path class="cls-3" d="M334.3,195.447l-.02,7-.042-.014.02-7,.042.014"/><path class="cls-3" d="M334.261,195.433l-.02,7a.3.3,0,0,1-.051-.025l.02-7a.3.3,0,0,0,.051.025"/></g></g></g><g class="cls-11"><polygon class="cls-2" points="371.585 142.02 371.527 164.138 349.619 150.36 349.676 128.242 371.585 142.02"/><polygon class="cls-2" points="349.676 128.242 349.619 150.36 327.853 164.138 327.911 142.02 349.676 128.242"/><polygon class="cls-2" points="327.63 142.082 327.573 164.201 327.572 164.076 327.63 141.958 327.63 142.082"/><polygon class="cls-2" points="349.819 155.798 349.761 177.916 327.853 164.138 327.911 142.02 349.819 155.798"/><polygon class="cls-2" points="371.585 142.02 371.527 164.138 349.761 177.916 349.819 155.798 371.585 142.02"/><path class="cls-2" d="M371.873,141.962l.008.12-21.955,13.9h-.2l-22.1-13.9v-.124l21.955-13.9.189,0ZM349.819,155.8l21.766-13.778-21.909-13.778L327.911,142.02,349.819,155.8"/><polygon class="cls-2" points="371.585 142.02 349.819 155.798 327.911 142.02 349.676 128.242 371.585 142.02"/><polygon class="cls-3" points="371.881 142.082 371.823 164.2 349.868 178.098 349.926 155.98 371.881 142.082"/><polygon class="cls-2" points="349.926 155.98 349.868 178.098 349.671 178.098 349.729 155.98 349.926 155.98"/><polygon class="cls-3" points="349.729 155.98 349.671 178.098 327.573 164.201 327.63 142.082 349.729 155.98"/></g><g class="cls-11"><polygon class="cls-2" points="389.026 145.623 389.012 150.409 354.649 130.57 354.663 125.784 389.026 145.623"/><g class="cls-11"><path class="cls-2" d="M389.6,145.617l-.014,4.786a.126.126,0,0,1-.075.1l.013-4.786A.126.126,0,0,0,389.6,145.617Z"/><g class="cls-46"><g class="cls-11"><polyline class="cls-2" points="389.6 145.617 389.586 150.403 389.586 150.405 389.6 145.619 389.6 145.617"/><path class="cls-2" d="M389.6,145.619l-.014,4.786v.014l.013-4.786,0-.014"/><path class="cls-2" d="M389.6,145.633l-.013,4.786,0,.013.013-4.786,0-.013"/><path class="cls-2" d="M389.594,145.646l-.013,4.786-.007.014.014-4.786.006-.014"/><path class="cls-2" d="M389.588,145.66l-.014,4.786-.01.015.014-4.786.01-.015"/><path class="cls-2" d="M389.578,145.675l-.014,4.786-.016.017.014-4.786.016-.017"/><path class="cls-2" d="M389.562,145.692l-.014,4.786a.187.187,0,0,1-.034.025l.014-4.786a.23.23,0,0,0,.034-.025"/><polyline class="cls-2" points="389.528 145.717 389.514 150.503 389.511 150.505 389.524 145.719 389.528 145.717"/></g></g></g><polygon class="cls-2" points="354.663 125.784 354.649 130.57 311.397 155.705 311.411 150.919 354.663 125.784"/><g class="cls-11"><path class="cls-2" d="M310.822,155.7l.014-4.786a.112.112,0,0,0,.069.1l-.014,4.786A.117.117,0,0,1,310.822,155.7Z"/><g class="cls-47"><g class="cls-11"><path class="cls-2" d="M310.9,151.01l-.014,4.786a.117.117,0,0,1-.069-.1l.014-4.786a.112.112,0,0,0,.069.1"/></g></g></g><polygon class="cls-2" points="389.026 145.623 345.774 170.758 311.411 150.919 354.663 125.784 389.026 145.623"/><polygon class="cls-2" points="345.774 170.758 345.76 175.544 311.397 155.705 311.411 150.919 345.774 170.758"/><polygon class="cls-2" points="389.026 145.623 389.012 150.409 345.76 175.544 345.774 170.758 389.026 145.623"/><polygon class="cls-3" points="389.524 145.719 389.511 150.505 345.928 175.833 345.941 171.047 389.524 145.719"/><polygon class="cls-3" points="345.609 171.047 345.596 175.833 310.891 155.796 310.905 151.01 345.609 171.047"/><path class="cls-3" d="M389.532,145.522c.091.053.092.14-.008.2l-43.583,25.328a.366.366,0,0,1-.332,0L310.9,151.01a.1.1,0,0,1,0-.192l43.583-25.328a.368.368,0,0,1,.34,0Zm-43.758,25.236,43.252-25.135-34.363-19.839-43.252,25.135,34.363,19.839"/><path class="cls-3" d="M345.941,171.047l-.013,4.786a.366.366,0,0,1-.332,0l.013-4.786A.366.366,0,0,0,345.941,171.047Z"/><g class="cls-48"><g class="cls-11"><path class="cls-3" d="M345.941,171.047l-.013,4.786a.291.291,0,0,1-.051.022l.013-4.786a.2.2,0,0,0,.051-.022"/><path class="cls-3" d="M345.89,171.069l-.013,4.786a.228.228,0,0,1-.045.011l.014-4.785a.317.317,0,0,0,.044-.012"/><path class="cls-3" d="M345.846,171.081l-.014,4.785-.03,0,.014-4.786.03,0"/><path class="cls-3" d="M345.816,171.085l-.014,4.786h-.026l.014-4.786h.026"/><path class="cls-3" d="M345.79,171.086l-.014,4.786h-.024l.013-4.786h.025"/><path class="cls-3" d="M345.765,171.087l-.013,4.786-.024,0,.014-4.786.023,0"/><path class="cls-3" d="M345.742,171.085l-.014,4.786-.023,0,.014-4.786.023,0"/><path class="cls-3" d="M345.719,171.083l-.014,4.786-.023,0,.014-4.786.023,0"/><path class="cls-3" d="M345.7,171.079l-.014,4.786-.024-.006.013-4.786.025.006"/><path class="cls-3" d="M345.671,171.073l-.013,4.786-.029-.01.014-4.786.028.01"/><path class="cls-3" d="M345.643,171.063l-.014,4.786a.253.253,0,0,1-.033-.016l.013-4.786.034.016"/></g></g></g><g class="cls-11"><polygon class="cls-2" points="364.13 132.828 364.09 148.341 348.725 138.678 348.765 123.165 364.13 132.828"/><polygon class="cls-2" points="348.765 123.165 348.725 138.678 333.459 148.341 333.5 132.828 348.765 123.165"/><polygon class="cls-2" points="333.303 132.872 333.263 148.385 333.262 148.298 333.303 132.785 333.303 132.872"/><polygon class="cls-2" points="348.865 142.492 348.825 158.004 333.459 148.341 333.5 132.829 348.865 142.492"/><polygon class="cls-2" points="364.13 132.828 364.09 148.341 348.825 158.004 348.865 142.492 364.13 132.828"/><path class="cls-2" d="M364.332,132.788l.006.084-15.4,9.747H348.8l-15.5-9.747v-.087l15.4-9.747.133,0Zm-15.467,9.7,15.265-9.664-15.365-9.663L333.5,132.828l15.365,9.664"/><polygon class="cls-2" points="364.13 132.828 348.865 142.492 333.5 132.829 348.765 123.165 364.13 132.828"/><polygon class="cls-3" points="364.338 132.872 364.298 148.385 348.9 158.132 348.94 142.619 364.338 132.872"/><polygon class="cls-2" points="348.94 142.619 348.9 158.132 348.761 158.132 348.802 142.619 348.94 142.619"/><polygon class="cls-3" points="348.802 142.619 348.761 158.132 333.263 148.385 333.303 132.872 348.802 142.619"/></g><g class="cls-11"><polygon class="cls-2" points="372.531 133.006 372.522 135.933 351.505 123.798 351.514 120.871 372.531 133.006"/><polygon class="cls-2" points="351.514 120.871 351.505 123.798 325.05 139.173 325.058 136.246 351.514 120.871"/><polygon class="cls-2" points="324.752 136.308 324.744 139.235 324.743 139.111 324.752 136.184 324.752 136.308"/><polygon class="cls-2" points="346.075 148.38 346.067 151.307 325.05 139.173 325.058 136.246 346.075 148.38"/><polygon class="cls-2" points="372.531 133.006 372.522 135.933 346.067 151.307 346.075 148.38 372.531 133.006"/><path class="cls-2" d="M372.837,132.944v.123l-26.654,15.49h-.214l-21.217-12.249v-.124l26.654-15.49h.214ZM346.075,148.38l26.456-15.374-21.017-12.135-26.456,15.375,21.017,12.134"/><polygon class="cls-2" points="372.531 133.006 346.075 148.38 325.058 136.246 351.514 120.871 372.531 133.006"/><polygon class="cls-3" points="372.837 133.067 372.829 135.994 346.175 151.484 346.183 148.557 372.837 133.067"/><polygon class="cls-3" points="346.183 148.557 346.175 151.484 345.961 151.484 345.969 148.557 346.183 148.557"/><polygon class="cls-3" points="345.969 148.557 345.961 151.484 324.744 139.235 324.752 136.308 345.969 148.557"/></g><polygon class="cls-49" points="342.706 132.621 347.271 82.798 348.665 135.916 342.706 132.621"/><polyline class="cls-49" points="348.665 135.916 354.019 132.621 347.271 82.798"/><g class="cls-11"><polygon class="cls-50" points="688.043 140.55 687.611 293.051 608.022 339.303 608.454 186.802 688.043 140.55"/><polygon class="cls-51" points="608.454 186.802 608.022 339.303 566.275 315.201 566.708 162.7 608.454 186.802"/><polygon class="cls-52" points="688.043 140.55 608.454 186.802 566.708 162.7 646.297 116.447 688.043 140.55"/></g><g class="cls-11"><polygon class="cls-53" points="783.099 225.088 782.787 335.177 741.312 359.28 741.624 249.19 783.099 225.088"/><polygon class="cls-54" points="741.624 249.19 741.312 359.28 699.566 335.177 699.878 225.088 741.624 249.19"/><polygon class="cls-55" points="783.099 225.088 741.624 249.19 699.878 225.088 741.353 200.986 783.099 225.088"/></g><g class="cls-11"><polygon class="cls-56" points="719.595 290.13 719.416 353.432 677.941 377.534 678.12 314.233 719.595 290.13"/><polygon class="cls-57" points="678.12 314.233 677.941 377.534 636.194 353.432 636.374 290.131 678.12 314.233"/><polygon class="cls-58" points="719.595 290.13 678.12 314.233 636.374 290.131 677.849 266.028 719.595 290.13"/></g><path class="cls-59" d="M105.035,209.766l19.384-.229,3.3,5.675s.036-5.9.036-6.459V194.841a1.016,1.016,0,0,0-1.013-1.013h-21.7a1.016,1.016,0,0,0-1.013,1.013v13.912A1.016,1.016,0,0,0,105.035,209.766Z"/><path class="cls-59" d="M447.175,145.46l-26.195-.314-4.454,7.764s-.049-8.074-.049-8.837v-19.03a1.383,1.383,0,0,1,1.37-1.387h29.328a1.383,1.383,0,0,1,1.37,1.387v19.03A1.383,1.383,0,0,1,447.175,145.46Z"/><path class="cls-59" d="M698.928,185.489l-31.27-.374-5.316,9.267s-.059-9.638-.059-10.548V161.116a1.65,1.65,0,0,1,1.635-1.655h35.01a1.65,1.65,0,0,1,1.635,1.655v22.718A1.65,1.65,0,0,1,698.928,185.489Z"/><path class="cls-59" d="M612.913,315.868l37.321-.453,6.344,11.2s.07-11.653.07-12.754V286.4a1.982,1.982,0,0,0-1.952-2H612.913a1.982,1.982,0,0,0-1.951,2v27.468A1.983,1.983,0,0,0,612.913,315.868Z"/><polygon class="cls-8" points="364.092 313.012 391.372 299.026 474.518 346.303 446.006 360.102 364.092 313.012"/><polygon class="cls-8" points="507.931 324.745 535.212 310.759 702.777 406.038 676.204 421.481 507.931 324.745"/><g class="cls-11"><polygon class="cls-30" points="532.74 409.552 532.624 450.31 464.136 410.769 464.252 370.01 532.74 409.552"/><polygon class="cls-8" points="464.252 370.01 464.136 410.769 365.538 468.068 365.654 427.309 464.252 370.01"/><polygon class="cls-30" points="431.944 493.602 431.828 534.36 319.356 469.424 319.472 428.666 431.944 493.602"/><polygon class="cls-8" points="578.915 408.192 578.8 448.95 431.828 534.36 431.944 493.602 578.915 408.192"/><path class="cls-31" d="M466.443,343.256l112.472,64.936L431.944,493.6,319.472,428.666Zm-32.3,123.6,98.6-57.3L464.252,370.01l-98.6,57.3,68.488,39.542"/></g><g id="_Group_" data-name="&lt;Group&gt;"><g id="_Group_2" data-name="&lt;Group&gt;"><g id="_Group_3" data-name="&lt;Group&gt;"><g id="_Group_4" data-name="&lt;Group&gt;" class="cls-11"><g id="_Group_5" data-name="&lt;Group&gt;"><polygon id="_Path_" data-name="&lt;Path&gt;" class="cls-60" points="478.752 350.151 478.752 396.292 419.389 430.869 419.389 384.728 478.752 350.151"/></g><g id="_Group_6" data-name="&lt;Group&gt;"><polygon id="_Path_2" data-name="&lt;Path&gt;" class="cls-61" points="419.389 384.728 419.389 430.869 411.456 426.367 411.456 380.226 419.389 384.728"/></g><g id="_Group_7" data-name="&lt;Group&gt;"><polygon id="_Path_3" data-name="&lt;Path&gt;" class="cls-62" points="478.752 350.151 419.253 384.728 411.456 380.226 470.955 345.649 478.752 350.151"/></g></g></g></g><polygon id="_Path_4" data-name="&lt;Path&gt;" class="cls-63" points="419.253 384.728 452.489 411.589 478.752 350.151 419.253 384.728"/></g><g class="cls-64"><polyline class="cls-65" points="523.797 139.235 433.708 91.923 433.708 133.067"/><path class="cls-65" d="M662.283,151.01V55.679L446.006,187.817l-.9,186.408c8.9.877,165.858,96.044,165.858,96.044"/><polyline class="cls-65" points="474.518 172.967 641.152 244.688 641.152 292.89"/><polyline class="cls-65" points="449.851 194.187 366.323 243.26 99.408 396.988"/><path class="cls-65" d="M267.1,289.137c-2.871-3.018-151.213-79.441-151.213-79.441"/><line class="cls-65" x1="445.104" y1="374.225" x2="256.272" y2="481.513"/></g></g></g></svg>