<svg xmlns="http://www.w3.org/2000/svg" viewBox="0 0 1720.018 399.724"><defs><style>.cls-1{fill:#fff;}</style></defs><title>logotext_1</title><g id="Layer_2" data-name="Layer 2"><g id="Layer_2-2" data-name="Layer 2"><path class="cls-1" d="M498.608,250.946l-.942,5.617c-2.813,16.893-.365,27.131,12.988,27.131,11.356,0,17.184-8.641,20.437-25.21,3.605-18.842,1.181-30.437-18.544-52.713-22.4-25.229-28.558-38.683-23.181-67.819,5.264-28.885,21.6-43.835,48.2-43.835,41.352,0,45.7,30.131,41.465,54.968l-.7,4.107H546.393l.7-4.144c2.625-15.452,2.549-28.29-10.2-28.29-9.419,0-14.319,6.354-16.391,19.042-2.424,14.8.038,23.916,14.912,41.027,28.083,32.015,33.647,50.345,27.4,80.572-6.646,31.688-22.579,48.66-55.083,48.66-36.788,0-48.323-22.741-41.764-55.822l.665-3.291Z"/><path class="cls-1" d="M693.74,228.943c7.689-35.652,16.835-77.289,22.69-101.337h-.315c-12.324,36.41-41.1,118.631-62.785,179.387H623.661c4.851-54.5,12.027-141.444,15.57-179.663H638.6c-4.674,24.461-14.613,69.16-21.875,105.243l-14.735,74.42H572.476l44.6-209.809h48.13c-5.052,61.066-9.148,114.836-12.692,144.713h.314c9.788-29.765,35.323-99.933,52.808-144.713h47.1l-44.6,209.809H677.158Z"/><path class="cls-1" d="M772.335,250.946l-.942,5.617c-2.814,16.893-.366,27.131,12.988,27.131,11.355,0,17.183-8.641,20.436-25.21,3.606-18.842,1.182-30.437-18.544-52.713-22.4-25.229-28.557-38.683-23.18-67.819,5.263-28.885,21.6-43.835,48.2-43.835,41.352,0,45.7,30.131,41.465,54.968l-.7,4.107H820.119l.7-4.144c2.625-15.452,2.55-28.29-10.2-28.29-9.42,0-14.319,6.354-16.392,19.042-2.423,14.8.039,23.916,14.913,41.027,28.083,32.015,33.647,50.345,27.4,80.572-6.647,31.688-22.579,48.66-55.083,48.66-36.788,0-48.323-22.741-41.765-55.822l.665-3.291Z"/><path class="cls-1" d="M930.749,97.184h40.4c34.5,0,49.279,20.729,42.28,55.909L1010.6,167.5c-6.521,33.47-20.556,50.392-61.264,50.392H936.711l-18.832,89.1H886.148ZM942.5,191.533h10.652c17.573,0,22.032-8.931,25.713-25.8l2.55-12.16c3.568-16.545,3.694-29.747-14.206-29.747H956.687Z"/><path class="cls-1" d="M1132.138,154.551l-20.829,98.355c-7.5,35.744-18.733,57.153-57.395,57.153-37.417,0-48.048-24.274-40.659-60.434l21.382-103.243c7.387-35.846,26.122-52.265,55.5-52.265C1124.081,94.117,1140.317,116.4,1132.138,154.551Zm-64.9-7.93-22.764,108.5c-3.279,15.058-2.025,27.747,12.875,27.747,12.3,0,17.535-10.351,21.09-26.641L1101.2,147.952c3.24-15.423.364-26.364-13.742-26.364C1076.944,121.588,1070.638,129.826,1067.234,146.621Z"/><path class="cls-1" d="M1170.085,97.184h31.73L1184,180.916h33.3l17.814-83.732h32.007l-44.6,209.809h-32.007l20.44-96.948h-33.3l-20.44,96.948h-31.731Z"/><path class="cls-1" d="M1272.465,162.932c10.077-15.82,23.395-46.641,31.763-74.895h28.651c-9.135,30.369-24.351,61.717-34.088,74.895Z"/><path class="cls-1" d="M1470.955,228.943c7.689-35.652,16.835-77.289,22.69-101.337h-.315c-12.324,36.41-41.1,118.631-62.785,179.387h-29.669c4.851-54.5,12.026-141.444,15.57-179.663h-.628c-4.673,24.461-14.612,69.16-21.874,105.243l-14.735,74.42H1349.69l44.6-209.809h48.13c-5.052,61.066-9.149,114.836-12.692,144.713h.314c9.788-29.765,35.323-99.933,52.808-144.713h47.1l-44.6,209.809h-30.976Z"/><path class="cls-1" d="M1553.985,250.517l-19.256,56.476H1501.3c3.007-7.969,72.965-200.9,76.347-209.809h47.539l-11.559,209.809h-32.007l3.77-56.476Zm33.379-29.407c2.513-32.005,5.152-71.59,7.036-94.76h-1.181c-4.8,18.609-18.5,62.138-29.106,94.76Z"/><path class="cls-1" d="M1674.956,97.184h31.731l-38.494,180.68h51.825l-8.507,29.129h-81.155Z"/><polygon class="cls-1" points="91.527 309.749 139.285 273.322 87.738 223.024 91.527 309.749"/><polygon class="cls-1" points="322.387 44.186 254.492 66.41 185.521 88.987 166.06 95.358 98.068 117.614 55.924 131.409 32.428 139.101 78.108 186.175 102.497 172.02 105.848 170.075 193.829 119.014 204.182 113.005 255.61 83.158 321.125 45.135 256.339 93.851 220.668 120.675 198.831 137.095 125.598 192.164 110.776 203.31 101.755 210.093 113.487 221.595 163.606 270.736 191.022 297.616 208.384 264.351 223.321 235.731 225.73 234.318 225.151 232.225 261.402 162.767 271.079 144.227 323.876 43.066 322.387 44.186"/><polygon class="cls-1" points="300.634 102.223 287.995 126.408 361.135 200.251 198.52 362.866 127.336 290.998 107 307.413 198.432 399.724 397.816 200.339 300.634 102.223"/><polygon class="cls-1" points="248.972 87.01 272.209 73.524 199.385 0 0 199.385 101.906 302.27 122.242 285.855 36.682 199.473 199.297 36.857 248.972 87.01"/><polygon class="cls-1" points="276.974 78.335 256 94.106 282.676 121.038 295.315 96.853 276.974 78.335"/><polyline class="cls-1" points="279.023 316.139 317.095 372.599 325.395 264.387 298.12 291.662"/></g></g></svg>