<svg xmlns="http://www.w3.org/2000/svg" viewBox="0 0 1920 1080"><defs><style>.cls-1{isolation:isolate;}.cls-2{fill:#2b3990;opacity:0.07;}.cls-2,.cls-34,.cls-41{mix-blend-mode:multiply;}.cls-3{fill:#b64d50;}.cls-4{fill:#494da5;}.cls-5{fill:#3b4193;}.cls-6{fill:#f7ca82;}.cls-7{fill:#333;}.cls-8{fill:#ecf5ff;}.cls-9{fill:#bcbec0;}.cls-10{fill:#f7b378;}.cls-11{fill:#40a6ec;}.cls-12{fill:#6ec7ef;}.cls-13{fill:#f1f2f2;}.cls-14{fill:#ffc838;}.cls-15{fill:#5fc5c2;}.cls-16{fill:#f6bda2;}.cls-17{fill:#6d4cbb;opacity:0.08;}.cls-18{fill:#f5bca1;}.cls-19{fill:#fff;}.cls-20{fill:#ff9300;}.cls-21{fill:#666;}.cls-22{fill:#f2d0c6;}.cls-23{fill:#b32353;}.cls-24{fill:#435385;}.cls-25{fill:#505050;}.cls-26{fill:#6c6c6c;}.cls-27{fill:#596eb1;}.cls-28{fill:#ef2e6f;}.cls-29{fill:#5f3c1c;}.cls-30{fill:#e3b4a6;}.cls-31{fill:#995d45;}.cls-32{fill:none;stroke:#e3b4a6;stroke-linecap:round;stroke-miterlimit:10;stroke-width:0.9px;}.cls-33{fill:#f2588c;}.cls-34,.cls-41{opacity:0.16;}.cls-35,.cls-41{fill:#555b5e;}.cls-36{fill:#cdd8e7;}.cls-37{fill:#727777;}.cls-38{fill:#e0a082;}.cls-39{fill:#047cfa;}.cls-40{fill:#444a4c;}.cls-42{fill:#5f6568;}.cls-43{fill:#6d7377;}.cls-44{fill:#f5b697;}.cls-45{fill:#cf1e50;}.cls-46{fill:#555a5d;}.cls-47{fill:#c08770;}.cls-48{fill:#915f4a;}.cls-49{fill:#a7735f;}.cls-50{fill:#128078;}.cls-51{fill:#f2dd5f;}.cls-52{fill:#047cfc;}.cls-53{fill:#8e969d;}.cls-54{fill:#42494c;}.cls-55{fill:#9180b8;}.cls-56{fill:#4ec410;}.cls-57{fill:#194900;}.cls-58{fill:#6e4739;}.cls-59{fill:#0c98bb;}.cls-60{fill:#0fa5d7;}.cls-61{fill:#bb0c7e;}.cls-62{fill:#d70f88;}.cls-63{fill:#83533c;}.cls-64{fill:#636363;}.cls-65{fill:#441b00;}.cls-66{fill:#ffaa2e;}.cls-67{fill:#6ab7a4;}.cls-68{fill:#6fc7b5;}.cls-69{fill:#6d473a;}.cls-70{fill:#157064;}.cls-71{fill:#e89d54;}.cls-72{fill:#fad3c3;}</style></defs><title>public_sms_login</title><g class="cls-1"><g id="Layer_1" data-name="Layer 1"><ellipse class="cls-2" cx="1758.93" cy="301.06" rx="35.93" ry="10.94"/><path class="cls-3" d="M1752.84,290.11s.22,5.39,3,6.83,9.94,6.55,8.38,8.83-6.9,4.38-12.54,1.26a104.49,104.49,0,0,1-10.58-7c-1.69-1.08,0-8.74.34-12.1S1752.84,290.11,1752.84,290.11Z"/><path class="cls-4" d="M1770.06,205.77s8.35,43.42,8.35,45.82-22.13,26.32-22.13,26.32l-2.84-20.71,8.88-10.56-6.93-23.58-2.64-21.36,6.09-8.42,11.22,3.13Z"/><path class="cls-4" d="M1740.74,201.7s.45,43,.45,48.78-1.92,39.38-1.92,39.38,2.16,4.81,15.85,2.17l3.38-41.31.34-33.66v-9.61Z"/><polygon class="cls-5" points="1758.84 217.06 1762.32 246.64 1757.6 233.34 1758.84 217.06"/><path class="cls-5" d="M1755.37,204.37a25.36,25.36,0,0,0,13.82-1.81l-.93-3.6-12.89,1.72Z"/><path class="cls-6" d="M1726.2,211.33s.16,4.59,0,6.44c-.32,3.59,1.16,7,2.44,8s4,1.68,5.08,1.08-1-3.94-1.4-5.56c-.88-3.54,0-4.69,0-4.69A10.16,10.16,0,0,0,1733,218c.45.93.84,1.9,1.25,2.85a.37.37,0,0,0,.14.2.26.26,0,0,0,.29,0c1-.87.8-3.1.23-4.11s-2.12-8.4-2.12-8.4Z"/><path class="cls-7" d="M1787.51,157.34c2.16-3.84,7.68-14.4,7.68-14.4h8.64l-8.64,15.36Z"/><path class="cls-6" d="M1789.38,155.91c0-1-.22-2.08-.32-3.1a4.42,4.42,0,0,1,0-1.54c.18-.63.91-1.35,1.63-1,.53.22.48,1.21.6,1.69a6.11,6.11,0,0,1,2.84-3.36,5.72,5.72,0,0,1,4.46-.3,4.17,4.17,0,0,1,2.68,2.58c.58,1.92-1.49,4.58-2.5,6.12-.56.85-1.47,1.42-2.08,2.26a14.93,14.93,0,0,1-1.64,2.34c-1.18,1.12-1.55.47-2.82-.28a9.44,9.44,0,0,1-2.61-1.91c-.78-.94-.34-1.58-.27-2.58C1789.39,156.5,1789.39,156.21,1789.38,155.91Z"/><path class="cls-8" d="M1725,209.2v3.9s5.7.24,9.66-1.95V207.1Z"/><path class="cls-8" d="M1787.6,159.61l1.55-3.57s5.33,2.05,8.09,5.64l-1.62,3.72Z"/><path class="cls-9" d="M1751.27,139.82l.73,1,12,5.76,1-4.08A18.5,18.5,0,0,0,1751.27,139.82Z"/><path class="cls-10" d="M1752.39,136.29a30.22,30.22,0,0,1-.84,5.4l5.13,5.76,4.43,4h2.81l.78-3.31s-1.08-6.84-.42-9.3Z"/><path class="cls-8" d="M1772.8,146.06s5.11,17.57,8,23.76l5.76-10.56c1-1.92,10.56,1,9.6,4.8L1781.75,189l-5.76-3.84L1773.1,181l-3-25Z"/><path class="cls-11" d="M1755.15,201.45s5.6,1.28,12.8-1.92l2.11-53.47-6.32,1.29-6.09-1.06-7.54-4.12-2.49,3.89,3.56,41Z"/><path class="cls-8" d="M1766,154.42s1.65,25.58.85,54.87a16.68,16.68,0,0,0,5.29-2.56s2.09-36.4.68-60.67l-7.7-2.67.18,2.23Z"/><polygon class="cls-12" points="1751.27 139.82 1749.69 142.53 1757.9 151.42 1761.46 146.94 1751.27 139.82"/><path class="cls-8" d="M1734.26,150.8s3.83-4.06,15.43-8.27c0,0,8.86,14.6,6.68,68.38,0,0-15.15-2.1-17.39-3.86C1739,207.05,1739.86,164.33,1734.26,150.8Z"/><path class="cls-6" d="M1749.67,131.84s1.34,9.65,10.12,10.24c10.14.67,11.64-12.52,10.77-18.82-.81-5.89-7.31-13.25-14.62-9.32C1750.45,116.89,1748.24,123,1749.67,131.84Z"/><path class="cls-3" d="M1759.27,111.32s-8.91-.22-11.63,10.65c0,0-2.1,9,4.29,15.56,0,0,.08-3.81.64-4.51s-1.26-3-1-4.43.7-4.07,2.26-2.65l.56.65a.8.8,0,0,0,1.41-.54,5.1,5.1,0,0,1,.69-3.07c1.26-1.63,7.31,4.14,14.24,3.35,0,0,1.82,0,1.8-2.67C1772.57,123.66,1771.12,109.74,1759.27,111.32Z"/><polygon class="cls-12" points="1761.46 146.94 1765.7 150.69 1765.03 142.53 1761.46 146.94"/><polygon class="cls-13" points="1761.46 146.94 1764.57 149.7 1763.3 151.97 1760.52 152.26 1758.75 150.34 1761.46 146.94"/><polygon class="cls-13" points="1763.3 151.97 1765.7 187.56 1763.08 192.96 1759.94 188.16 1760.52 152.26 1763.3 151.97"/><polygon class="cls-5" points="1758.46 251.23 1756.28 277.91 1759.07 274.87 1759.16 250.4 1758.46 251.23"/><polygon class="cls-14" points="1743.94 163.99 1738.66 182.56 1738.21 174.59 1743.94 163.99"/><path class="cls-8" d="M1733.42,151.71s-7.41,20.12-8.85,32.29v26.89s5.92.33,10.41-2.08c0,0-1.28-28,9-44.82C1743.94,164,1741.11,142.33,1733.42,151.71Z"/><path class="cls-15" d="M1584.8,306.48c1.73,2.28,2.2,5.3-1,8.33s-10.47-.48-11.27-.23-.55-11.44,1-11.82S1583.08,304.2,1584.8,306.48Z"/><path class="cls-16" d="M1552.4,303.32c0,1.74-.85,2,.72,5.2a32.5,32.5,0,0,0,6.25,8.18c1.78,1.83,2.93,3,5.58,3.19,1.08.09,3.44-.68,4.36-.1,1.07.67.89,3.17.72,4.23a5.5,5.5,0,0,1-2.88,4.14,6.82,6.82,0,0,1-4.24.25,11.07,11.07,0,0,1-6.93-4.29,74.23,74.23,0,0,1-6.3-9.38c-1.18-2-2.33-4-3.33-6.09-.55-1.14-1.71-1.88-2.44-3.2s-1.43-3.88-2-4.6c-1.19-1.52-2.37-2.3-1.53-3.17,1.66-1.72,3.17,1.25,3.56,1.85s-.3-5,.91-7.12,2.5-1.41,2.27,2.16.21,3.93.21,3.93,1-.36,2.74.77A4.33,4.33,0,0,1,1552.4,303.32Z"/><path class="cls-17" d="M1559,406.92c23.56-2.6,47,4.29,52.46,15.4s-9.3,22.22-32.87,24.81-47.06-4.28-52.47-15.39S1535.43,409.52,1559,406.92Z"/><path class="cls-15" d="M1576.93,421.21a31.79,31.79,0,0,1,6.08,2c1.19.64.78,2.32.66,3.38-.17,1.56-1.92,3.75-7.11,1.4-5.36-2.44-7.47-3.21-7.68-4.76s.32-3.59,1.8-3.86C1572.55,419,1576.93,421.21,1576.93,421.21Z"/><path class="cls-18" d="M1571.19,359.25s.59,13.39,2.28,26.29,4.49,38.94,4.49,38.94.85,2.22,3.81.87c2-.91,1.22-3.06,1.42-4.38.37-2.58,1.28-19.88.6-22.77-.92-3.83-2.1-6.91-1.46-9.33s.38-28.79.38-28.79Z"/><path class="cls-15" d="M1564.86,426.27a31.79,31.79,0,0,1,6.08,2c1.19.64.79,2.33.67,3.38-.18,1.56-1.92,3.76-7.12,1.4-5.36-2.43-7.47-3.2-7.68-4.76s.33-3.58,1.8-3.85C1560.49,424.11,1564.86,426.27,1564.86,426.27Z"/><path class="cls-18" d="M1559.13,364.31s.58,13.39,2.27,26.29,4.49,38.95,4.49,38.95.86,2.22,3.81.86c2-.9,1.23-3.05,1.42-4.38.37-2.57,1.29-19.87.6-22.76-.91-3.84-2.09-6.92-1.45-9.33s.37-28.79.37-28.79Z"/><path class="cls-19" d="M1573.86,301.17c4.1-.08,10,3,11.39,6.72s-1.54,27.1-1.21,31,5.44,25.69,5.72,32.85.16,8.6.16,8.6-2.61,5.77-13.4,6.64c-14.83,1.21-20.88-4-22.24-7s2-26.07,3.49-32.36,2.65-18.06,1.3-23.09-2.43-14.41,2.18-18.6C1566.94,300.74,1569.76,301.25,1573.86,301.17Z"/><path class="cls-16" d="M1560,284.35s-1.23,12.76,3.53,13.85a12.05,12.05,0,0,0,10-2.17s2.72-15.21-3-16.83S1560.85,280,1560,284.35Z"/><path class="cls-20" d="M1562.2,274.85a11.41,11.41,0,0,0-3.25,7.88c0,4.88,2.08,3.76,4.52,3.49s1.72,6.28,1.72,7.91c0,1-2.5,3-4,6.81a18.64,18.64,0,0,0-1.19,5.27c-.18,2.83,1.26-1.16,4.24.74s3.64,12.56,4.45,15.27.27,4.62,4.88,3.26,3.81-.55,5.7-.27,5.87-2.62,5.59-7,.12-14.16.12-18,5.43-22.17-3.26-26.51C1574.21,270,1564.92,269.7,1562.2,274.85Z"/><path class="cls-16" d="M1546.13,356.69s5.46-16.47,6.5-19.81c.69-2.2,1.78-16.06,1.78-16.06l7.87-3.8s-1.82,16.83-2,20.3-9.56,21.69-10.71,23.33-3.9,5.88-7.14,8.45c-1.81,1.42-2.69,1.28-4.23.43-1.32-.73-2.8-1.51-2.86-2.95-.14-3.52,3.72-5.19,5.5-6.1-.77-.81-1.71.2-3.37-.16s-.77-2,1.49-2.37,2.73-1,4.56-1.36A8.93,8.93,0,0,1,1546.13,356.69Z"/><path class="cls-15" d="M1566.19,312.14c-.84-3-4.88-5.6-8.51-2s-7.07,18.46-5.56,20a10.72,10.72,0,0,0,4.91,2.41,6.88,6.88,0,0,0,5.91-1.07C1564.5,330.44,1567.59,317.29,1566.19,312.14Z"/><path class="cls-21" d="M1539.74,288.61l5.72-1.56a1.89,1.89,0,0,1,2.25,1.16l4.64,12.61a1.86,1.86,0,0,1-1.26,2.45l-5.72,1.56a1.88,1.88,0,0,1-2.25-1.16l-4.64-12.6A1.88,1.88,0,0,1,1539.74,288.61Z"/><path class="cls-22" d="M997.06,135.11a5.21,5.21,0,0,1-1.78-.29A137.44,137.44,0,0,1,977,126.28a3.14,3.14,0,0,1,3.08-5.47,134.42,134.42,0,0,0,17.1,8c1.85-.06,8.66-3.29,14.77-7a3.14,3.14,0,1,1,3.28,5.36c-.14.09-3.63,2.22-7.6,4.25C1001.93,134.3,998.94,135.11,997.06,135.11Zm0-6.29"/><path class="cls-23" d="M1010,126.89h0a4.16,4.16,0,0,1,1-5.78l7.24-5.07a4.16,4.16,0,0,1,5.78,1h0a4.16,4.16,0,0,1-1,5.78l-7.24,5.07A4.18,4.18,0,0,1,1010,126.89Z"/><path class="cls-22" d="M977,125.87h0a4.46,4.46,0,0,1-4.45-4.45h0A4.46,4.46,0,0,1,977,117h0a4.46,4.46,0,0,1,4.45,4.44h0A4.46,4.46,0,0,1,977,125.87Z"/><path class="cls-22" d="M974.22,123.66h0a1.39,1.39,0,0,1-1.87-.61l-3.45-6.7a1.4,1.4,0,0,1,.6-1.88h0a1.4,1.4,0,0,1,1.88.6l3.45,6.71A1.4,1.4,0,0,1,974.22,123.66Z"/><polygon class="cls-24" points="979.03 120.77 971.14 119.18 966 104.87 974.72 105.67 979.03 120.77"/><rect class="cls-22" x="971.02" y="115.54" width="6.18" height="7.81" rx="2.94" ry="2.94" transform="translate(70.78 503.06) rotate(-30)"/><path class="cls-22" d="M977.14,119l-.64-1.9a1.58,1.58,0,0,1,1-2h0a1.57,1.57,0,0,1,2,1l.64,1.9a1.57,1.57,0,0,1-1,2h0A1.58,1.58,0,0,1,977.14,119Z"/><path class="cls-25" d="M1013.33,216.13h0v.71h0v.31a1.79,1.79,0,0,1,0,.24v.11l0,.13v.06s0,.07,0,.1h0l0,.08V218l0,.2.07.29,0,.12h0v0s0,.05,0,.08a.56.56,0,0,1,0,.12l0,.08v0h0a1.09,1.09,0,0,0,0,.14h0l.14.32,0,0h0l0,0,0,0a.16.16,0,0,0,0,.07h0l.06.11v0c.06.09.13.21.2.3l.09.12,0,.06,0,.05.06.06a2.18,2.18,0,0,0,.25.28l0,0,.23.21a4.53,4.53,0,0,0,.63.44h0l.08.05.09,0,.08.05.08,0,.08.05.08,0,.08.05.08,0,.08,0,.09.05h0l.28.16.17.07,0,0,.13.06h0l.21.08.06,0,.1,0h0l.2.06.31.08a5.94,5.94,0,0,0,.66.12h0l.1,0h.25l.22,0h.77l.31,0h.19l.14,0h0l.13,0,.16,0h.08l.17,0,.08,0,.21-.05.08,0h0l.32-.1,0,0h.05l.23-.09.14-.07.06,0,.09,0,.28-.15h0l.62-.36.63-.36.62-.36.62-.36.63-.36.62-.36.62-.36.62-.36.63-.36.62-.36h0a4.73,4.73,0,0,0,.9-.67,4.31,4.31,0,0,0,.81-1.1l0-.05h0a4.32,4.32,0,0,0,.21-.47c0-.07.05-.14.07-.2s.08-.24.11-.37l.06-.28c0-.14.06-.29.08-.45s0-.13,0-.2a5.74,5.74,0,0,0,0-.6v-1.18s0-.06,0-.1v-.08l0-.25h0l0-.12a.2.2,0,0,1,0-.07l0-.15-.07-.29-.1-.33v0s0-.08,0-.12l0-.14c0-.09-.1-.23-.15-.32l-.13-.26a3.91,3.91,0,0,0-.36-.54l0,0,0,0a4.6,4.6,0,0,0-.31-.35l-.23-.21h0a3.15,3.15,0,0,0-.3-.24l-.18-.11-.06-.05-.14-.08h0l-.08-.05-.08,0-.08,0-.08,0-.09-.05-.08,0-.08,0-.08,0-.08-.05-.08,0h0l-.29-.16-.16-.08h0l-.13-.06h0l-.22-.09,0,0h0l-.06,0h0l-.19-.06-.32-.08c-.12,0-.35-.08-.66-.13h0l-.23,0h-1.09l-.31,0h0l-.17,0h-.2l-.12,0h-.09l-.08,0h-.08l-.17,0h-.08l-.21.06-.08,0h0l-.17,0-.11,0h0l-.1,0h0l-.22.09-.15.06-.06,0-.09,0c-.09.05-.22.11-.31.17h0l-.62.36-.63.36-.62.36-.62.36-.63.36-.62.36-.62.36-.62.36-.63.36-.62.36h0l-.25.16h0l-.1.07,0,0-.13.1a3,3,0,0,0-.35.3l0,0-.06.06-.09.1,0,0-.08.1-.14.17-.1.14-.06.1h0l-.08.12,0,.1,0,.07,0,0,0,0,0,.1h0a5.57,5.57,0,0,0-.35,1,.83.83,0,0,1,0,.15l0,.15,0,.11v0l0,.08v.22l0,.21v.11a.38.38,0,0,0,0,.1v.1c0,.08,0,.2,0,.29v0Z"/><path class="cls-26" d="M1024.87,221.19h0v.71h0v.31a2.12,2.12,0,0,0,0,.24v.11l0,.14v0s0,.07,0,.11h0V223l0,.2.07.29,0,.12h0v0l0,.08a.56.56,0,0,0,0,.12l0,.08v0h0a1,1,0,0,0,.06.14h0c.06.14.12.26.15.32l0,0h0v0a.43.43,0,0,0,0,.07h0l0,.11,0,0v0c.05.09.13.21.19.3l.09.13,0,0,0,.05,0,.06a3.33,3.33,0,0,0,.25.28l0,0,.22.21a4.59,4.59,0,0,0,.64.44h0l.08.05.08,0,.08,0,.08.05.09.05.08,0,.08.05.08,0,.08.05.08,0h0l.29.16.16.07,0,0,.14.06h0l.22.08.05,0,.1,0h0l.2.06.32.08a6.12,6.12,0,0,0,.65.12h.38l.22,0h.77l.31,0h.19l.14,0h0l.13,0,.17,0h.07l.18,0h.07l.21-.06.09,0h0l.31-.1,0,0h0l.23-.09.14-.06.07,0,.09,0,.27-.15h0l.62-.36.62-.36.63-.36.62-.36.62-.36.62-.36.63-.36.62-.36.62-.36.63-.36h0a4.7,4.7,0,0,0,.89-.67,4.55,4.55,0,0,0,.82-1.1s0,0,0,0h0a4.32,4.32,0,0,0,.21-.47l.08-.2c0-.12.07-.24.1-.37a2.68,2.68,0,0,0,.07-.27c0-.15.05-.3.07-.46a1.36,1.36,0,0,0,0-.2,5.74,5.74,0,0,0,0-.6V217.4l0-.25h0l0-.12a.15.15,0,0,0,0-.07q0-.09,0-.15l-.07-.29c0-.1-.06-.23-.1-.33v0a.56.56,0,0,1,0-.12l-.06-.13a3.27,3.27,0,0,0-.14-.33l-.13-.26a4,4,0,0,0-.37-.54l0,0v0c-.09-.11-.2-.23-.32-.35l-.22-.21h0l-.31-.24-.17-.11-.07-.05-.13-.08h0l-.09-.05-.08,0-.08,0-.08,0-.08-.05-.08,0-.08-.05-.08,0-.09-.05-.08,0h0l-.28-.16-.17-.07,0,0-.13-.06h0l-.21-.09-.06,0h0l-.07,0h0l-.2-.06-.31-.08a5.94,5.94,0,0,0-.66-.12h0l-.23,0h-.11l-.21,0h-.77l-.31,0h0l-.17,0-.16,0h0l-.13,0h-.08l-.09,0h-.07l-.17,0H1035l-.21.06-.09,0h0l-.17,0-.1,0h0l-.1,0h0l-.23.09-.14.06-.07,0-.08,0a3.07,3.07,0,0,0-.31.17h0l-.62.36-.62.36-.62.36-.63.36-.62.36-.62.36-.63.36-.62.36-.62.36-.62.36h0l-.25.16h0l-.1.07,0,0-.12.1a4.39,4.39,0,0,0-.36.3l0,0-.06.06-.1.1,0,.05-.07.09c0,.05-.09.11-.14.17l-.1.14-.07.1h0l-.08.13-.06.09,0,.07,0,0,0,.05a.73.73,0,0,0,0,.09h0a4.91,4.91,0,0,0-.34,1,.94.94,0,0,0,0,.16l0,.14,0,.11v.06l0,.07v.14l0,.21v.11a.31.31,0,0,1,0,.1v.1a2.81,2.81,0,0,0,0,.29v0Z"/><path class="cls-24" d="M1025.06,215A5.24,5.24,0,0,1,1020,211c-.94-3.74-5.64-22.65-5.72-27.68s4.63-24.83,6.06-30.81a5.24,5.24,0,1,1,10.18,2.46c-2.8,11.62-5.81,25.71-5.77,28.2s2.77,14.85,5.4,25.27a5.23,5.23,0,0,1-5.08,6.51Z"/><path class="cls-27" d="M1036.07,219a5.22,5.22,0,0,1-5.06-4c-1-3.74-5.65-22.64-5.72-27.67s4.62-24.83,6.06-30.81a5.23,5.23,0,0,1,10.17,2.45c-2.8,11.63-5.8,25.71-5.77,28.21s2.78,14.84,5.4,25.27a5.23,5.23,0,0,1-3.79,6.35A5.69,5.69,0,0,1,1036.07,219Z"/><path class="cls-27" d="M1042.09,139.37v0h0v0h0c0-.11,0-.24,0-.34v-.34a2.13,2.13,0,0,0,0-.25.09.09,0,0,1,0,0v-.05l-.08-.35a.19.19,0,0,0,0-.07,5.51,5.51,0,0,0-.76-1.87,7.43,7.43,0,0,0-.49-.75l0,0-.19-.24c-.16-.2-.29-.35-.37-.43l-.24-.25-.15-.13-.05-.05-.07-.06,0,0-.21-.18h0l-.3-.21-.28-.18.1.06-.11-.07h0l-.53-.3-.54-.31-.53-.31-.53-.3-.53-.31-.53-.31-.54-.31-.53-.3-.53-.31-.53-.31h0a2.94,2.94,0,0,0-.31-.16l0,0h0l-.41-.16-.15-.05-.08,0h0l-.12,0-.12,0-.1,0-.11,0-.07,0h-.07l-.25,0h0l-.16,0h-.82l-.36,0h-.08l-.38.06-.13,0-.07,0-.14,0h0l-.43.12h0l-.24.07-.1,0,.06,0-.1,0-.25.08-.15.06h0l-.42.17-.45.2-.42.2-.46.23c-.12.08-.29.17-.42.24l-1.15.67-.49.3,0,0-.06,0-.09.06-.18.12h0l-.12.08-.14.1-.12.08a10.78,10.78,0,0,0-2,1.84h0l-.18.23-.05.06c-.1.13-.19.26-.27.38v0l0,0-.15.24,0,0v0c-.1.18-.18.33-.24.47l0,.05,0,.06a1.49,1.49,0,0,0-.1.26s-.06.18-.11.37l0,.07-.06.33a2.67,2.67,0,0,0,0,.5,1.28,1.28,0,0,0,0,.19h0v16.49h0v0h0v0a7.11,7.11,0,0,0,1,3.33,7.77,7.77,0,0,0,1.06,1.44,6.44,6.44,0,0,0,1.37,1.11h0l.53.3.54.31.53.31.53.3.53.31.54.31.53.31.53.3.53.31.53.31h0a5.24,5.24,0,0,0,.94.41h0l.3.08.11,0,.27,0,.14,0h.42a7,7,0,0,0,1.37-.12h.09l.28-.06.08,0h0l.35-.09.16-.05.25-.07.08,0,.3-.1.14-.05h0l.41-.17.13-.05h0l.31-.13.43-.2.51-.27.42-.23,1.15-.67,0,0h0l.4-.25.07,0,.08-.06.26-.16.19-.13,0,0,.19-.14.27-.2h0l.08-.06.37-.3.33-.29.1-.09h0l.13-.12.09-.1h0l.12-.12.06-.07.1-.1,0,0,.2-.22,0,0h0l.06-.06,0-.05.19-.24h0l.08-.11.19-.26v0l0,0,.06-.11.1-.16v0l0-.06h0l.06-.1v0h0l.08-.15,0-.07a.93.93,0,0,0,.05-.1l.13-.32a.56.56,0,0,1,0-.12v0l.06-.19v0l0-.05v-.05s0-.07,0-.11,0-.06,0-.09v-.06a.6.6,0,0,0,0-.12s0-.1,0-.15,0-.12,0-.19v-.33h0v-8.24h0v-4.12h0v-4.12Z"/><path class="cls-28" d="M1042.09,131.85v0h0v0h0c0-.1,0-.23,0-.33v-.35c0-.07,0-.16,0-.25s0,0,0,0v-.06l-.08-.34a.31.31,0,0,0,0-.08,5.59,5.59,0,0,0-.76-1.87,7.29,7.29,0,0,0-.49-.74l0,0c-.06-.08-.12-.17-.19-.25a5.22,5.22,0,0,0-.37-.42l-.24-.25-.15-.14-.05,0-.07-.07,0,0-.21-.17h0l-.3-.22-.28-.18.1.06-.11-.06h0l-.53-.31-.54-.31-.53-.3-.53-.31-.53-.31-.53-.3-.54-.31-.53-.31-.53-.31-.53-.3h0l-.31-.16,0,0h0l-.41-.17-.15-.05-.08,0-.06,0h0l-.12,0-.12,0-.1,0-.11,0h-.14l-.25,0h0l-.16,0h-.82l-.36,0h-.08l-.38.07-.13,0h-.07l-.14,0h0l-.43.11h0l-.24.08-.1,0,.06,0-.1,0-.25.09-.15,0,0,0-.42.17-.45.19-.42.2-.46.24-.42.24-1.15.67-.49.29,0,0-.06,0-.09.06-.18.12h0l-.12.09-.14.09-.12.09a10.44,10.44,0,0,0-2,1.83h0a2,2,0,0,0-.18.23l-.05.06c-.1.13-.19.25-.27.37v0l0,0-.15.24,0,0h0a5.34,5.34,0,0,0-.24.48l0,0,0,.05a2.51,2.51,0,0,0-.1.26c0,.06-.06.19-.11.38l0,.06c0,.1,0,.21-.06.34a2.67,2.67,0,0,0,0,.5,1.21,1.21,0,0,0,0,.18h0v16.49h0v0a7.12,7.12,0,0,0,1,3.34,7.58,7.58,0,0,0,1.06,1.43,6.13,6.13,0,0,0,1.37,1.11h0l.53.31.54.3.53.31.53.31.53.31.54.3.53.31.53.31.53.3.53.31h0a5.14,5.14,0,0,0,.94.42h0l.3.08.11,0,.27,0,.14,0,.2,0h.22a6.3,6.3,0,0,0,1.37-.12h.09l.28-.05.08,0h0l.35-.1.16,0,.25-.08.08,0,.3-.11.14,0h0l.41-.16.13-.06h0l.31-.14.43-.2.51-.26.42-.24,1.15-.67h0l.4-.24.07-.05.08,0,.26-.17.19-.13,0,0,.19-.13.27-.21h0l.08-.06.37-.3.33-.28.1-.09,0,0,.13-.12.09-.09h0l.12-.13.06-.06.1-.1,0,0,.2-.22,0,0h0l.06-.06,0-.05.19-.24h0a.44.44,0,0,1,.08-.11l.19-.27v0l0,0,.06-.1.1-.16v0l0,0h0l.06-.11v0h0l.08-.15,0-.07a.47.47,0,0,0,.05-.1l.13-.31a.5.5,0,0,1,0-.13v0l.06-.19h0l0-.06v0s0-.08,0-.11,0-.06,0-.09v-.07a.52.52,0,0,0,0-.11c0-.05,0-.1,0-.16s0-.11,0-.18v-.33h0V140.1h0V136h0v-4.12Z"/><path class="cls-28" d="M1047.52,128.73h0v0h0a1.48,1.48,0,0,1,0-.21v-.27a.28.28,0,0,0,0-.09V128a.69.69,0,0,0,0-.13h0s0-.08,0-.12a.06.06,0,0,0,0,0v0l0-.09,0-.15s0-.08,0-.11l0-.08a.29.29,0,0,1,0-.09,6,6,0,0,0-.76-1.86c-.15-.25-.31-.48-.47-.71l-.12-.17-.11-.13a4.9,4.9,0,0,0-.38-.45l-.25-.25-.14-.13,0,0-.08-.06,0,0-.22-.18h0a3.06,3.06,0,0,0-.29-.21l-.29-.18.1.06-.11-.07h0l-1.56-.9L1041,121l-1.55-.9-1.56-.9-1.56-.9-1.56-.9-1.56-.9-1.56-.9-1.56-.9-1.55-.9h0l-.31-.16,0,0h0l-.42-.17-.14,0-.08,0h0l-.13,0-.12,0-.09,0-.12,0h-.13l-.25,0-.18,0h-.83l-.35,0h0l-.44.08-.14,0h-.06l-.15,0h0l-.44.12h0l-.25.08-.1,0,.06,0-.1,0-.24.08-.15.06-.05,0-.42.16-.44.2-.43.2-.45.24-.43.24-1.14.66-.49.3-.05,0-.07,0-.09.06-.18.12h0l-.12.08-.15.1-.12.09a10.55,10.55,0,0,0-2,1.82l0,0v0l-.18.21-.05.06c-.1.13-.18.26-.26.38l0,0v0l-.15.24,0,0v0a4.23,4.23,0,0,0-.24.47l0,0,0,.06-.1.26c0,.05,0,.16-.09.31s0,0,0,.05a1,1,0,0,0,0,.18.36.36,0,0,0,0,.1l0,.14s0,.09,0,.13a1.36,1.36,0,0,0,0,.21l0,.34h0v6.11h0v0a7,7,0,0,0,1,3.33,7.67,7.67,0,0,0,1.06,1.44,5.81,5.81,0,0,0,1.37,1.1h0l1.56.9,1.56.9,1.56.9,1.55.9,1.56.9,1.56.9,1.56.9,1.56.9,1.56.9,1.56.9h0a4.7,4.7,0,0,0,.93.42h0l.3.08.12,0,.26,0,.14,0,.2,0h.23a6.63,6.63,0,0,0,1.34-.11l.09,0h0l.26,0,.09,0h0l.37-.1.13,0,.26-.08.08,0,.29-.1.15-.06h0l.42-.16.12,0h0l.31-.14.42-.2c.16-.07.36-.18.51-.26l.43-.24h0l1.15-.67h0l.41-.24.07-.05.08-.05.25-.16.2-.14,0,0,.19-.13.28-.21h0l.08-.06c.12-.08.27-.21.38-.3l.33-.28.09-.09,0,0,.13-.12.1-.09h0l.13-.13.06-.06.1-.1,0,0a2.09,2.09,0,0,0,.2-.22l0,0h0l.05-.06,0-.05.2-.24h0l.09-.12c.06-.09.13-.17.18-.26l0,0,0,0s0-.07.07-.1l.1-.16v0l0,0v0l.07-.11v0a.77.77,0,0,0,.07-.16.43.43,0,0,0,0-.07l0-.1.12-.31a.65.65,0,0,0,0-.13l0,0v0a1.46,1.46,0,0,0,0-.2h0v-.1l0-.11a.29.29,0,0,1,0-.09v-.06a.37.37,0,0,1,0-.12.76.76,0,0,0,0-.15l0-.19v-.33h0v-6.13h0v0Z"/><path class="cls-29" d="M1022.82,102.91h0a5.93,5.93,0,0,1-5.91-5.91V94.29a5.93,5.93,0,0,1,5.91-5.91h0a5.93,5.93,0,0,1,5.91,5.91V97A5.93,5.93,0,0,1,1022.82,102.91Z"/><rect class="cls-30" x="1026.44" y="110.1" width="8.18" height="12.63" rx="4.09" ry="4.09"/><path class="cls-22" d="M1029.54,117h0a10.76,10.76,0,0,1-10.73-10.73V97.88a10.75,10.75,0,0,1,10.73-10.72h0a10.75,10.75,0,0,1,10.72,10.72v8.37A10.75,10.75,0,0,1,1029.54,117Z"/><path class="cls-30" d="M1022,111.27h0a1.6,1.6,0,0,1-1.59-1.59v-4.45a1.59,1.59,0,0,1,1.59-1.59h0a1.59,1.59,0,0,1,1.59,1.59v4.45A1.6,1.6,0,0,1,1022,111.27Z"/><path class="cls-31" d="M1042.31,96.84a4.7,4.7,0,0,0,0-.75v0a12.28,12.28,0,0,0-19-8.94,5.18,5.18,0,0,0-.75,8l5.11,5.12a5.23,5.23,0,0,0,3.68,1.52h1.36v4.88a1.12,1.12,0,0,0,.79,1.09,1.1,1.1,0,0,0,1.39-1.06V104a2.25,2.25,0,0,1,2.25-2.25h0v6.58a2.31,2.31,0,0,0,2.3,2.31h.58a2.32,2.32,0,0,0,2.31-2.31V97S1042.31,96.88,1042.31,96.84Z"/><path class="cls-22" d="M1036,102.69h-.06v6.69h.06a3.35,3.35,0,0,0,0-6.7Z"/><path class="cls-32" d="M1023.59,113.18s3.38,1.84,5.52-1.17"/><path class="cls-22" d="M1029.14,158c-8.16,0-16.72-3.09-18.07-3.59a3.14,3.14,0,0,1,2.21-5.88c6.34,2.37,18.16,4.9,22.88,1.59,4.26-3,4.49-12.54,4.24-15.65a3.14,3.14,0,0,1,6.26-.52c.13,1.59,1.08,15.73-6.9,21.31C1036.86,157.33,1033.05,158,1029.14,158Z"/><path class="cls-33" d="M1043.37,144.31h0a4.16,4.16,0,0,1-4.15-4.15v-8.83a4.17,4.17,0,0,1,4.15-4.15h0a4.17,4.17,0,0,1,4.15,4.15v8.83A4.16,4.16,0,0,1,1043.37,144.31Z"/><path class="cls-22" d="M1010.16,148.52h0a1.4,1.4,0,0,0-.94-1.74l-7.22-2.15a1.41,1.41,0,0,0-1.74.94h0a1.42,1.42,0,0,0,.94,1.74l7.23,2.15A1.4,1.4,0,0,0,1010.16,148.52Z"/><rect class="cls-22" x="1002.88" y="148.41" width="7.3" height="4.76" rx="2.38" ry="2.38" transform="translate(1438.22 -770.88) rotate(106.58)"/><path class="cls-22" d="M1011.3,149.54l.57-1.93a1.57,1.57,0,0,0-1.06-2h0a1.58,1.58,0,0,0-1.95,1.06l-.57,1.92a1.57,1.57,0,0,0,1.06,2h0A1.58,1.58,0,0,0,1011.3,149.54Z"/><path class="cls-22" d="M1014.26,150h0a4.46,4.46,0,0,0-5.36-3.29h0a4.45,4.45,0,0,0-3.29,5.35h0a4.45,4.45,0,0,0,5.35,3.3h0A4.47,4.47,0,0,0,1014.26,150Z"/><g class="cls-34"><ellipse class="cls-35" cx="1514.82" cy="1015.82" rx="15.25" ry="26.33" transform="translate(494.73 2527.76) rotate(-89.84)"/></g><path class="cls-35" d="M1480.05,1001.89a15.25,15.25,0,0,1-4-3.18c-1.91-2.12-5.31-5.52-7.85-4s-2.55,5.1-1.49,7,5.31,4,7.22,6.37,4.25,5.1,6.79,4.67,4.25-3.61,5.31-5.73S1480.05,1001.89,1480.05,1001.89Z"/><path class="cls-36" d="M1534,954.75s.85,22.09,3.4,28.46c0,0,18.69-7.22,20-6s4.67,4.25,1.7,8.5c0,0-22.93,12.31-28.88,10.19s-11-34.4-11.89-37S1529.31,951.35,1534,954.75Z"/><path class="cls-36" d="M1503.82,957.69s-20.16,36.13-24.83,44.63a5.72,5.72,0,0,0,4.67,5.94c5.09,1.28,28.24-35.67,32.06-37.79s15.29-5.1,17.41-17.42C1528.46,948.81,1503.82,957.69,1503.82,957.69Z"/><path class="cls-35" d="M1556.86,976.78s-3.71,0-3.39,5.74,3.18,5.41,4.14,7.64,1.59,7.33,6.37,9.56,6.69-1,7-3.51-4.78-9.23-6.06-12.74S1561.22,974.87,1556.86,976.78Z"/><path class="cls-37" d="M1558.4,976.15a3.25,3.25,0,0,0-1.75,3.66c.48,2.71,1.44,6.21,4,8.6s2.39,7.17,4.78,8.92,4.46,1.59,5.42-.8-2.71-7.16-4.3-9.71S1563.5,976.31,1558.4,976.15Z"/><path class="cls-38" d="M1530.21,909.07a19.52,19.52,0,0,1,6.22,16.67c-1.28,10.52-14.34,1-14.66-6S1528.13,907.68,1530.21,909.07Z"/><path class="cls-39" d="M1516.45,907.41s-10,2.84-13.88,9.13c-1.51,2.43-1.66,10,.48,14.94s.06,22.65.77,26.21,10.85,5.34,16.78,4.39,15.15-5,14.94-11.86c-.6-19.51-.6-29.08-1.42-33.68a15.32,15.32,0,0,0-3.91-7.47S1526.88,905.27,1516.45,907.41Z"/><path class="cls-38" d="M1527.19,959.85c1.7-7.22-2.55-25.48-3.82-28s-12.71-17.4-20.8-15.28c0,0-5.11,7.21-.44,12.31,3.82,3.39,10.62,7.64,12.74,10.61s5.94,19.33,5.73,23.89l.21.14c-.72,1.14-2.06,3.38-1.9,4,.21.85,0,3.83,1.48,5.1s3.4-.85,3.61-2.55.43-3,.43-3,3.4-2.12,3.18-4.25A24.21,24.21,0,0,0,1527.19,959.85Z"/><path class="cls-38" d="M1522.2,878.41s-5.51-1.6-10.14,1.25-5.34,6.05-5.16,10.49-.18,11,2.14,16,12.27.89,15.3-1.07,6.22-9.78,5.87-15.83S1527.71,879.48,1522.2,878.41Z"/><path class="cls-38" d="M1526.41,902.5s-2.33,4.66-2.33,6.35-3.59,3.81-8.25,3-5.07-1.9-5.07-1.9a22.91,22.91,0,0,0,3-6.14C1514.35,901,1526.41,902.5,1526.41,902.5Z"/><path class="cls-40" d="M1506.9,890.15s-2-13.22,7.55-14.5,15.61.64,17.84,8-2.55,15.28-4.78,18.15c0,0-7.33,0-10.83-5.73a73,73,0,0,1-4.78-8Z"/><path class="cls-39" d="M1506.38,886.16s11.89,8.71,25.69,6.59c.43-2.13.85-3.61.85-3.61s-21.44-3.19-25.27-7.22A8.11,8.11,0,0,0,1506.38,886.16Z"/><path class="cls-19" d="M1563.17,844.71l-20.31-1a5,5,0,0,0-5.25,4.75l-.73,14.67a5,5,0,0,0,4.75,5.24l5.61.28,4.25,6,4.83-5.56,5.62.28a5,5,0,0,0,5.24-4.75l.74-14.66A5,5,0,0,0,1563.17,844.71Z"/><g class="cls-34"><ellipse class="cls-35" cx="474.82" cy="786.82" rx="15.25" ry="26.33" transform="translate(-313.33 1259.41) rotate(-89.84)"/></g><path class="cls-35" d="M440.05,772.89a15.25,15.25,0,0,1-4-3.18c-1.91-2.12-5.31-5.52-7.85-4s-2.55,5.1-1.49,7,5.31,4,7.22,6.37,4.25,5.1,6.79,4.67,4.25-3.61,5.31-5.73S440.05,772.89,440.05,772.89Z"/><path class="cls-36" d="M494,725.75s.85,22.09,3.4,28.46c0,0,18.69-7.22,20-6s4.67,4.25,1.7,8.5c0,0-22.93,12.31-28.88,10.19s-11-34.4-11.89-37S489.31,722.35,494,725.75Z"/><path class="cls-36" d="M463.82,728.69S443.66,764.82,439,773.32a5.72,5.72,0,0,0,4.67,5.94c5.09,1.28,28.24-35.67,32.06-37.79s15.29-5.1,17.41-17.42C488.46,719.81,463.82,728.69,463.82,728.69Z"/><path class="cls-35" d="M516.86,747.78s-3.71,0-3.39,5.74,3.18,5.41,4.14,7.64,1.59,7.33,6.37,9.56,6.69-1,7-3.51-4.78-9.23-6.06-12.74S521.22,745.87,516.86,747.78Z"/><path class="cls-37" d="M518.4,747.15a3.25,3.25,0,0,0-1.75,3.66c.48,2.71,1.44,6.21,4,8.6s2.39,7.17,4.78,8.92,4.46,1.59,5.42-.8-2.71-7.16-4.3-9.71S523.5,747.31,518.4,747.15Z"/><path class="cls-38" d="M490.21,680.07a19.52,19.52,0,0,1,6.22,16.67c-1.28,10.52-14.34,1-14.66-6S488.13,678.68,490.21,680.07Z"/><path class="cls-39" d="M476.45,678.41s-10,2.84-13.88,9.13c-1.51,2.43-1.66,10,.48,14.94s.06,22.65.77,26.21,10.85,5.34,16.78,4.39,15.15-5,14.94-11.86c-.6-19.51-.6-29.08-1.42-33.68a15.32,15.32,0,0,0-3.91-7.47S486.88,676.27,476.45,678.41Z"/><path class="cls-38" d="M487.19,730.85c1.7-7.22-2.55-25.48-3.82-28s-12.71-17.4-20.8-15.28c0,0-5.11,7.21-.44,12.31,3.82,3.39,10.62,7.64,12.74,10.61s5.94,19.33,5.73,23.89l.21.14c-.72,1.14-2.06,3.38-1.9,4,.21.85,0,3.83,1.48,5.1s3.4-.85,3.61-2.55.43-3,.43-3,3.4-2.12,3.18-4.25A24.21,24.21,0,0,0,487.19,730.85Z"/><path class="cls-38" d="M482.2,649.41s-5.51-1.6-10.14,1.25-5.34,6.05-5.16,10.49-.18,11,2.14,16,12.27.89,15.3-1.07,6.22-9.78,5.87-15.83S487.71,650.48,482.2,649.41Z"/><path class="cls-38" d="M486.41,673.5s-2.33,4.66-2.33,6.35-3.59,3.81-8.25,3-5.07-1.9-5.07-1.9a22.91,22.91,0,0,0,3-6.14C474.35,672,486.41,673.5,486.41,673.5Z"/><path class="cls-40" d="M466.9,661.15s-2-13.22,7.55-14.5,15.61.64,17.84,8-2.55,15.28-4.78,18.15c0,0-7.33,0-10.83-5.73a73,73,0,0,1-4.78-8Z"/><path class="cls-39" d="M466.38,657.16s11.89,8.71,25.69,6.59c.43-2.13.85-3.61.85-3.61s-21.44-3.19-25.27-7.22A8.11,8.11,0,0,0,466.38,657.16Z"/><path class="cls-19" d="M523.17,615.71l-20.31-1a5,5,0,0,0-5.25,4.75l-.73,14.67a5,5,0,0,0,4.75,5.24l5.61.28,4.25,6,4.83-5.56,5.62.28a5,5,0,0,0,5.24-4.75l.74-14.66A5,5,0,0,0,523.17,615.71Z"/><ellipse class="cls-41" cx="641.17" cy="265.22" rx="16.07" ry="27.74" transform="translate(374.13 905.63) rotate(-89.84)"/><path class="cls-35" d="M651.7,258.34a8.21,8.21,0,0,1-2.44,5.63c-2.63,2.81-4.31,6-3,8.43s7.12,1.69,9.37-.19,1.88-3.75,3.94-6.37,2.43-4.12,1.68-6.94S655.07,256.84,651.7,258.34Z"/><path class="cls-35" d="M632,252.72a7.94,7.94,0,0,1-3.19,4.87c-2.81,2.06-4.31,4.13-3.94,7.31s5.63,2.81,8.25,1.5,2.06-2.62,3.94-4.68,3.18-2.25,3.56-4.5-.19-4.69-1.31-5.06S635.76,250.1,632,252.72Z"/><path class="cls-42" d="M630.52,192.37s.62,52.1,1.37,61.35c.25,2.25,5.75,4.5,8,1.25,2.25-4.25.87-47.86,3.62-55.85C642.76,193.37,633.27,191.37,630.52,192.37Z"/><path class="cls-43" d="M631,194.37a25.6,25.6,0,0,0,11.24,13c6.75,3.5,7.75,9.5,8.25,14.75s.5,36.48,1,37.48,4.75,5,10,0c.5-14.49.75-61.47-.25-67.47S630.27,191.62,631,194.37Z"/><path class="cls-43" d="M631.89,149.56s-5.37,12.41-7.72,22.82c-1,1.68-9.4-.67-14.43-2.69,0,0-4.37,2-2,7.39,1.68,1.34,14.43,5.7,19.47,6a61.17,61.17,0,0,0,11.07-24.84C639.61,149.89,635.91,147.21,631.89,149.56Z"/><path class="cls-44" d="M664.07,203.68a36.06,36.06,0,0,0-.63,5.12c0,1.87,1.88.13,1.88.13s.5,4.87,1.5,5.62,3.37-.88,3.87-4.75-.75-8.25-2.5-9.12S664.07,203.68,664.07,203.68Z"/><path class="cls-43" d="M651,144.64s12,8,13.24,10.74,1.75,10.5-.5,15.75-.75,24.24-1.5,28-10.74,5.24-17,4.25-14.72-2-14.72-9.29.23-24-.27-27.2a50.51,50.51,0,0,1,1.11-16.15C632,148.23,639.44,144.19,651,144.64Z"/><path class="cls-43" d="M662,152.89s8.25,6.24,9,33.23c0,15.75-.25,17.74-.25,17.74s-4.75,4.5-7.25-.24c0-5.75,1-21.5-1.5-31.49s-4.49-11-4.49-11S656,153.64,662,152.89Z"/><path class="cls-38" d="M609.51,171s-2.91-5.15-4.47-6.27c-1.12,0-.45,4.48-.45,4.48s-7.61-4.26-7.83-3.36,4.7,4.25,4.7,4.25-6.49-1.57-6-.67,6,2.91,6,2.91-4.48-.67-4.7.45,5.82,1.34,5.82,1.34-4.25,1.56-3.36,2.24S603,176,603,176s3.36,1.34,5.6.67S610.86,173.05,609.51,171Z"/><path class="cls-36" d="M637.93,146.37s-1.79,18.18,3.13,30.71c0,0,11-24.39,14.09-29.54-1.56-1.34-4.75-3.8-7.21-4.47S637.93,146.37,637.93,146.37Z"/><polygon class="cls-45" points="642.07 152.19 640.72 154.53 642.74 156.55 644.58 154.37 643.58 152.35 642.07 152.19"/><path class="cls-45" d="M641.79,155.43,639.1,170.2s.56,5.2,2,6.88c1.73-1.35,4.59-9.23,4.59-9.23l-2.52-12.76Z"/><path class="cls-46" d="M641.06,177.08s11-25.84,14.09-29.54c1.24,2.35,1.24,15.61,1.24,15.61L648.5,166l1.51,3.36Z"/><path class="cls-46" d="M637.93,146.37s-4.37,8-5.2,15.44l3.69,2.35-1.51,3s2.57,7.21,6.15,9.9C639.44,170.87,637.09,152.41,637.93,146.37Z"/><path class="cls-35" d="M641.45,181.86a.76.76,0,0,1-1.51,0,.76.76,0,1,1,1.51,0Z"/><path class="cls-35" d="M641,191.84a.76.76,0,1,1-.76-.75A.76.76,0,0,1,641,191.84Z"/><path class="cls-38" d="M640.76,143.39a1,1,0,0,1,0,.38c-.1.86-.46,3.07-.51,4s1,2.38,3.38,2.25,6.37-1.25,7.62-4.12a64.46,64.46,0,0,1,.12-8.37Z"/><path class="cls-44" d="M654.51,137.08c-1.84,5.58-6.94,7.5-9.75,8.43s-6.18.57-8.06-1.31-3.56-10.31-2.44-17.62S641,115,647.57,116.28,659.57,121.71,654.51,137.08Z"/><path class="cls-46" d="M649.84,124.89a18.73,18.73,0,0,1-15.94,4s-.67-18.46,18.63-11.92a9.85,9.85,0,0,1,5.37,6.38c1,4.53-1.93,13.26-4.28,15.61a18.76,18.76,0,0,1-.76-4,5.07,5.07,0,0,0,1.76-4.78c-.58-2.94-2.43-.93-2.51,1.25a5,5,0,0,0-.59,1.26l-.34-2.18S648.92,129.09,649.84,124.89Z"/><path class="cls-42" d="M632.78,199.45s7.16,6.26,28.86,2.91c0-.67.23-2.24.23-2.24S644,204.15,632.78,199.45Z"/><path class="cls-7" d="M595.14,161.35l7.05-3.84a1,1,0,0,1,1.35.52c.36,1,.71,2.05,1.07,3.07.47,1.38,2,3.93,1.8,5.37-.59.26-1.17-.32-1.69-.7-.12-.09-.28-.17-.4-.09a.36.36,0,0,0-.13.28,5.72,5.72,0,0,0-.13,1.7,1.87,1.87,0,0,0,.88,1.4c.62.32,1.42.14,2,.5,1.34.81,1.84,3.64,2.32,5a1,1,0,0,1-.48,1.16l-6.31,3.13a1,1,0,0,1-1.3-.49l-6.47-15.82A1,1,0,0,1,595.14,161.35Z"/><path class="cls-19" d="M599,120l-17.61-.87a4.37,4.37,0,0,0-4.55,4.12L576.16,136a4.35,4.35,0,0,0,4.12,4.54l4.88.24,3.68,5.21,4.18-4.82,4.87.24a4.35,4.35,0,0,0,4.55-4.12l.63-12.71A4.36,4.36,0,0,0,599,120Z"/><g class="cls-34"><ellipse class="cls-35" cx="122.98" cy="583.23" rx="16.84" ry="29.06" transform="translate(-460.6 704.56) rotate(-89.84)"/></g><path class="cls-35" d="M133,573.26a5.53,5.53,0,0,0,2.2,4.18c2.25,1.71,9.52,4.44,7.6,6.94.34,1.38-4.37,1.28-7.56-.36s-4.76-3.86-5.93-3.77-1.64.13-2.18-.77.61-7.34.61-7.34S132.38,574.14,133,573.26Z"/><path class="cls-38" d="M137.55,504.79c0,1.06-.35,14.77-1.06,29.19s-1.4,20-1.4,20-1.41,16.88-2.11,19.34-3.87,1.41-4.93,0c-.7-2.11,1.06-20.75-.7-32.71s-4.57-22.15-5.28-27.07S137.55,504.79,137.55,504.79Z"/><path class="cls-35" d="M112.93,575.83s-.7,3.17,2.81,6.33,7,4.57,7.74,6.68-4.92,3.17-8.79.71-5.28-5.63-6.33-5.63,0,.35-1.06,0c0,0-1.64-.47-2-1.64-.12-1.53,1.17-7,1.17-7S112.7,576.18,112.93,575.83Z"/><path class="cls-38" d="M136.49,510.07c-.25.91-1.61,7.82-10,12.54-7.07,3.66-7.56,10-8.64,15.45-.82,4.07-7.65,22.19-5,38.71.19,1.15-1,5.8-6.48.57-.52-15.19-.78-64.42.27-70.71S137.28,507.19,136.49,510.07Z"/><path class="cls-35" d="M105.9,504.44s-3.87,9.15-2.46,18.64.35,14.77.35,14.77,9.84,6.33,17.93,2.46,15.48-4.57,16.53-8.44c1.06-7.73,2.11-23.91-1.76-29.54S131.92,510.77,105.9,504.44Z"/><polygon class="cls-35" points="155 449 164 449 161.67 465.68 153 466 155 449"/><path class="cls-38" d="M135.56,459.31a12.55,12.55,0,0,1,6.79,6.8c2.11,5.16-.23,15.24-.23,15.24s3-7,7.5-10.55,4.93-4.92,4.93-4.92,0-3.76,1.17-4.93c.7.24.94,3.52.94,3.52s3-3.05,5.15-3.05c1.88.47-.23,5.39-2.11,7a7,7,0,0,1-4.22,1.65s-6.56,10.08-8,12.66-5.86,4.92-8.2,5.15S133.68,467.52,135.56,459.31Z"/><path class="cls-45" d="M117.33,456.88s-12.57,8.38-13.88,11.26-2,11.19,2.1,15.55c9.65,10.31-4.23,15.33-1.41,29.78.77,3.93,12.67,6,19.22,4.95s14.54-4.27,14.54-11.87-5.26-14.68,1.41-23.91c4.57-6.33-1.76-12-1.29-20.26.15-2.7-4.45-4.45-4.45-4.45S128.85,454.52,117.33,456.88Z"/><path class="cls-36" d="M125.24,464s-.7,10.2.7,15.47c1.41,1.06,3.17-1.05,3.52-2.46l.35-1.76s4.57,2.82,4.57,1.06S127,464,127,464Z"/><path class="cls-38" d="M103.45,468.14s-4.94,6.76.34,13.8,12.66,11.6,15.12,12.3,15.47-1.4,19.34-6.33c.7.36,3.52-.7,3.87-2.11s-2.81-3.16-4.92-2.46a4.77,4.77,0,0,0-2.82,2.46s-10.9,1.06-13.36,1.06-9.14-9.85-9.85-13S107,467,103.45,468.14Z"/><path class="cls-47" d="M128.07,455.57a1.16,1.16,0,0,0,0,.4c.11.9.48,3.22.53,4.18s-1,2.49-3.53,2.36-6.68-1.31-8-4.32a69.3,69.3,0,0,0-.13-8.77Z"/><path class="cls-38" d="M113.67,449c1.92,5.84,7.26,7.86,10.21,8.84s6.48.59,8.44-1.38,3.74-10.8,2.56-18.46-7.07-12.18-13.95-10.8S108.36,432.85,113.67,449Z"/><path class="cls-48" d="M118.21,433.76a9.67,9.67,0,0,0,6.68,5.27c4.92,1.06,8.79.35,10.9,3.52-.35-3.52.7-12.31-7.39-15.48s-12,1.06-12,1.06-6,1.05-6.33,6-1.06,10.2,1.4,15.47.36,8.09-1.4,9.15c0,1,5.27,4.92,8.79,1.4s1.76-12,.7-14.06S118.21,433.76,118.21,433.76Z"/><path class="cls-19" d="M232.58,852.55l-18.36-.6a4.54,4.54,0,0,0-4.67,4.37l-.43,13.25a4.52,4.52,0,0,0,4.37,4.67l5.07.17,3.93,5.36,4.28-5.09,5.07.16a4.52,4.52,0,0,0,4.67-4.37l.44-13.25A4.54,4.54,0,0,0,232.58,852.55Z"/><path class="cls-19" d="M1214.58,698.55l-18.36-.6a4.54,4.54,0,0,0-4.67,4.37l-.43,13.25a4.52,4.52,0,0,0,4.37,4.67l5.07.17,3.93,5.36,4.28-5.09,5.07.16a4.52,4.52,0,0,0,4.67-4.37l.44-13.25A4.54,4.54,0,0,0,1214.58,698.55Z"/><path class="cls-19" d="M1663.58,529.55l-18.36-.6a4.54,4.54,0,0,0-4.67,4.37l-.43,13.25a4.52,4.52,0,0,0,4.37,4.67l5.07.17,3.93,5.36,4.28-5.09,5.07.16a4.52,4.52,0,0,0,4.67-4.37l.44-13.25A4.54,4.54,0,0,0,1663.58,529.55Z"/><path class="cls-19" d="M468.58,344.55l-18.36-.6a4.54,4.54,0,0,0-4.67,4.37l-.43,13.25a4.52,4.52,0,0,0,4.37,4.67l5.07.17,3.93,5.36,4.28-5.09,5.07.16a4.52,4.52,0,0,0,4.67-4.37l.44-13.25A4.54,4.54,0,0,0,468.58,344.55Z"/><path class="cls-19" d="M182.58,396.55l-18.36-.6a4.54,4.54,0,0,0-4.67,4.37l-.43,13.25a4.52,4.52,0,0,0,4.37,4.67l5.07.17,3.93,5.36,4.28-5.09,5.07.16a4.52,4.52,0,0,0,4.67-4.37l.44-13.25A4.54,4.54,0,0,0,182.58,396.55Z"/><g class="cls-34"><ellipse class="cls-35" cx="1347.89" cy="628.23" rx="29.06" ry="16.84" transform="translate(-1.78 3.83) rotate(-0.16)"/></g><path class="cls-35" d="M1337.85,618.26a5.52,5.52,0,0,1-2.21,4.18c-2.25,1.71-9.51,4.44-7.59,6.94-.34,1.38,4.37,1.28,7.55-.36s4.77-3.86,5.94-3.77,1.64.13,2.18-.77-.61-7.34-.61-7.34S1338.49,619.14,1337.85,618.26Z"/><path class="cls-38" d="M1333.32,549.79c0,1.06.35,14.77,1,29.19s1.41,20,1.41,20,1.41,16.88,2.11,19.34,3.87,1.41,4.92,0c.71-2.11-1-20.75.71-32.71s4.57-22.15,5.27-27.07S1333.32,549.79,1333.32,549.79Z"/><path class="cls-35" d="M1357.94,620.83s.7,3.17-2.82,6.33-7,4.57-7.73,6.68,4.92,3.17,8.79.71,5.27-5.63,6.33-5.63,0,.35,1,0c0,0,1.64-.47,2-1.64.11-1.53-1.18-7-1.18-7S1358.17,621.18,1357.94,620.83Z"/><path class="cls-38" d="M1334.37,555.07c.25.91,1.62,7.82,10,12.54,7.07,3.66,7.56,10,8.64,15.45.82,4.07,7.65,22.19,5,38.71-.18,1.15,1,5.8,6.48.57.53-15.19.79-64.42-.26-70.71S1333.59,552.19,1334.37,555.07Z"/><path class="cls-35" d="M1365,549.44s3.87,9.15,2.46,18.64-.35,14.77-.35,14.77-9.85,6.33-17.94,2.46-15.47-4.57-16.52-8.44c-1.06-7.73-2.11-23.91,1.75-29.54S1339,555.77,1365,549.44Z"/><polygon class="cls-35" points="1315.87 494 1306.87 494 1309.2 510.68 1317.87 511 1315.87 494"/><path class="cls-38" d="M1335.31,504.31a12.55,12.55,0,0,0-6.8,6.8c-2.11,5.16.24,15.24.24,15.24s-3-7-7.5-10.55-4.93-4.92-4.93-4.92,0-3.76-1.17-4.93c-.7.24-.94,3.52-.94,3.52s-3-3.05-5.16-3.05c-1.87.47.24,5.39,2.11,7a7,7,0,0,0,4.22,1.65s6.57,10.08,8,12.66,5.86,4.92,8.2,5.15S1337.19,512.52,1335.31,504.31Z"/><path class="cls-45" d="M1353.54,501.88s12.57,8.38,13.87,11.26,2,11.19-2.09,15.55c-9.66,10.31,4.22,15.33,1.41,29.78-.77,3.93-12.67,6-19.22,4.95S1333,559.15,1333,551.55s5.26-14.68-1.41-23.91c-4.57-6.33,1.76-12,1.29-20.26-.15-2.7,4.45-4.45,4.45-4.45S1342,499.52,1353.54,501.88Z"/><path class="cls-36" d="M1345.63,509s.7,10.2-.71,15.47c-1.4,1.06-3.16-1.05-3.51-2.46l-.35-1.76s-4.58,2.82-4.58,1.06,7.39-12.31,7.39-12.31Z"/><path class="cls-38" d="M1367.41,513.14s4.94,6.76-.33,13.8-12.66,11.6-15.12,12.3-15.48-1.4-19.34-6.33c-.71.36-3.52-.7-3.87-2.11s2.81-3.16,4.92-2.46a4.73,4.73,0,0,1,2.81,2.46s10.91,1.06,13.37,1.06,9.14-9.85,9.84-13S1363.88,512,1367.41,513.14Z"/><path class="cls-47" d="M1342.8,500.57a1.16,1.16,0,0,1,0,.4c-.11.9-.48,3.22-.53,4.18s1,2.49,3.53,2.36,6.68-1.31,8-4.32a69.3,69.3,0,0,1,.13-8.77Z"/><path class="cls-38" d="M1357.2,494c-1.92,5.84-7.26,7.86-10.21,8.84s-6.48.59-8.45-1.38-3.73-10.8-2.55-18.46,7.07-12.18,14-10.8S1362.5,477.85,1357.2,494Z"/><path class="cls-48" d="M1352.66,478.76A9.7,9.7,0,0,1,1346,484c-4.92,1.06-8.79.35-10.9,3.52.35-3.52-.71-12.31,7.38-15.48s12,1.06,12,1.06,6,1.05,6.33,6,1,10.2-1.41,15.47-.35,8.09,1.41,9.15c0,1-5.28,4.92-8.79,1.4s-1.76-12-.71-14.06S1352.66,478.76,1352.66,478.76Z"/><path class="cls-19" d="M1288.29,441.55l18.36-.6a4.53,4.53,0,0,1,4.66,4.37l.44,13.25a4.53,4.53,0,0,1-4.37,4.67l-5.08.17-3.92,5.36-4.28-5.09-5.08.16a4.52,4.52,0,0,1-4.66-4.37l-.44-13.25A4.54,4.54,0,0,1,1288.29,441.55Z"/><g class="cls-34"><ellipse class="cls-35" cx="1778.89" cy="1011.23" rx="29.06" ry="16.84" transform="translate(-2.86 5.05) rotate(-0.16)"/></g><path class="cls-35" d="M1768.85,1001.26a5.52,5.52,0,0,1-2.21,4.18c-2.25,1.71-9.51,4.44-7.59,6.94-.34,1.38,4.37,1.28,7.55-.36s4.77-3.86,5.94-3.77,1.64.13,2.18-.77-.61-7.34-.61-7.34S1769.49,1002.14,1768.85,1001.26Z"/><path class="cls-38" d="M1764.32,932.79c0,1.06.35,14.77,1,29.19s1.41,20,1.41,20,1.41,16.88,2.11,19.34,3.87,1.41,4.92,0c.71-2.11-1-20.75.71-32.71s4.57-22.15,5.27-27.07S1764.32,932.79,1764.32,932.79Z"/><path class="cls-35" d="M1788.94,1003.83s.7,3.17-2.82,6.33-7,4.57-7.73,6.68,4.92,3.17,8.79.71,5.27-5.63,6.33-5.63,0,.35,1,0c0,0,1.64-.47,2-1.64.11-1.53-1.18-7-1.18-7S1789.17,1004.18,1788.94,1003.83Z"/><path class="cls-38" d="M1765.37,938.07c.25.91,1.62,7.82,10,12.54,7.07,3.66,7.56,10,8.64,15.45.82,4.07,7.65,22.19,5,38.71-.18,1.15,1,5.8,6.48.57.53-15.19.79-64.42-.26-70.71S1764.59,935.19,1765.37,938.07Z"/><path class="cls-35" d="M1796,932.44s3.87,9.15,2.46,18.64-.35,14.77-.35,14.77-9.85,6.33-17.94,2.46-15.47-4.57-16.52-8.44c-1.06-7.73-2.11-23.91,1.75-29.54S1770,938.77,1796,932.44Z"/><polygon class="cls-35" points="1746.87 877 1737.87 877 1740.2 893.68 1748.87 894 1746.87 877"/><path class="cls-38" d="M1766.31,887.31a12.55,12.55,0,0,0-6.8,6.8c-2.11,5.16.24,15.24.24,15.24s-3-7-7.5-10.55-4.93-4.92-4.93-4.92,0-3.76-1.17-4.93c-.7.24-.94,3.52-.94,3.52s-3-3.05-5.16-3.05c-1.87.47.24,5.39,2.11,7a7,7,0,0,0,4.22,1.65s6.57,10.08,8,12.66,5.86,4.92,8.2,5.15S1768.19,895.52,1766.31,887.31Z"/><path class="cls-19" d="M1784.54,884.88s12.57,8.38,13.87,11.26,2,11.19-2.09,15.55c-9.66,10.31,4.22,15.33,1.41,29.78-.77,3.93-12.67,6-19.22,4.95S1764,942.15,1764,934.55s5.26-14.68-1.41-23.91c-4.57-6.33,1.76-12,1.29-20.26-.15-2.7,4.45-4.45,4.45-4.45S1773,882.52,1784.54,884.88Z"/><path class="cls-38" d="M1798.41,896.14s4.94,6.76-.33,13.8-12.66,11.6-15.12,12.3-15.48-1.4-19.34-6.33c-.71.36-3.52-.7-3.87-2.11s2.81-3.16,4.92-2.46a4.73,4.73,0,0,1,2.81,2.46s10.91,1.06,13.37,1.06,9.14-9.85,9.84-13S1794.88,895,1798.41,896.14Z"/><path class="cls-47" d="M1773.8,883.57a1.16,1.16,0,0,1,0,.4c-.11.9-.48,3.22-.53,4.18s1,2.49,3.53,2.36,6.68-1.31,8-4.32a69.3,69.3,0,0,1,.13-8.77Z"/><path class="cls-38" d="M1788.2,877c-1.92,5.84-7.26,7.86-10.21,8.84s-6.48.59-8.45-1.38-3.73-10.8-2.55-18.46,7.07-12.18,14-10.8S1793.5,860.85,1788.2,877Z"/><path class="cls-48" d="M1782.77,866.88c-1.53,2.1-5.75-.23-6.84-1.55-1.21,1.77-2.86,3.12-4.14,4.91-.17.24-.38.51-.68.52a1,1,0,0,1-.69-.38l-1.69-1.7c-.57.08-.67.84-.69,1.42a5.48,5.48,0,0,1-1.08,3.43,3,3,0,0,1-3.28,1c-1.47-.64-1.87-2.51-1.89-4.1a5.63,5.63,0,0,1,.68-3.16,2.34,2.34,0,0,1,2.83-1c-2.24-.47-5.1.61-6.54-1.16-1.26-1.54-.2-3.82.87-5.49,1.5-2.34,1.3-4.48,2.48-6.64,1-1.76,3.6-1.38,5.47-.6,6.33,2.64,5.76-3.26,10.66-2.67,2.39.29,4.63,2.68,4.31,5.16a5.43,5.43,0,0,1,6.55-2,4.2,4.2,0,0,1,2.4,2.58,3,3,0,0,1-1.06,3.24,7.34,7.34,0,0,1,7,5.14,1.78,1.78,0,0,1-.67,2.23,7,7,0,0,1-6,1.45c1.28,2.06,4.55,2.94,4.6,5.36a3,3,0,0,1-2.32,2.78,5.49,5.49,0,0,1-3.78-.53c1,.59,2,1.37,2.08,2.5a2.37,2.37,0,0,1-2.49,2.15,6.26,6.26,0,0,1-3.37-1.36,6.39,6.39,0,0,1-2.51-2.57,2.4,2.4,0,0,1,1-3.12,4.67,4.67,0,0,1-1.7-.28A5.55,5.55,0,0,1,1782.77,866.88Z"/><path class="cls-19" d="M1728.29,832.55l18.36-.6a4.53,4.53,0,0,1,4.66,4.37l.44,13.25a4.53,4.53,0,0,1-4.37,4.67l-5.08.17-3.92,5.36-4.28-5.09-5.08.16a4.52,4.52,0,0,1-4.66-4.37l-.44-13.25A4.54,4.54,0,0,1,1728.29,832.55Z"/><path class="cls-19" d="M691.58,818.55l-18.36-.6a4.54,4.54,0,0,0-4.67,4.37l-.43,13.25a4.52,4.52,0,0,0,4.37,4.67l5.07.17,3.93,5.36,4.28-5.09,5.07.16a4.52,4.52,0,0,0,4.67-4.37l.44-13.25A4.54,4.54,0,0,0,691.58,818.55Z"/><path class="cls-19" d="M303.58,120.55l-18.36-.6a4.54,4.54,0,0,0-4.67,4.37l-.43,13.25a4.52,4.52,0,0,0,4.37,4.67l5.07.17,3.93,5.36,4.28-5.09,5.07.16a4.52,4.52,0,0,0,4.67-4.37l.44-13.25A4.54,4.54,0,0,0,303.58,120.55Z"/><path class="cls-19" d="M1310.58,171.55l-18.36-.6a4.54,4.54,0,0,0-4.67,4.37l-.43,13.25a4.52,4.52,0,0,0,4.37,4.67l5.07.17,3.93,5.36,4.28-5.09,5.07.16a4.52,4.52,0,0,0,4.67-4.37l.44-13.25A4.54,4.54,0,0,0,1310.58,171.55Z"/><path class="cls-19" d="M1544.31,243.37l-18.36-.25a4.53,4.53,0,0,0-4.58,4.46l-.18,13.26a4.53,4.53,0,0,0,4.46,4.58l5.08.07,4,5.29,4.17-5.18,5.08.07a4.55,4.55,0,0,0,4.59-4.46l.17-13.26A4.52,4.52,0,0,0,1544.31,243.37Z"/><path class="cls-19" d="M1818.31,101.37l-18.36-.25a4.53,4.53,0,0,0-4.58,4.46l-.18,13.26a4.53,4.53,0,0,0,4.46,4.58l5.08.07,4,5.29,4.17-5.18,5.08.07a4.55,4.55,0,0,0,4.59-4.46l.17-13.26A4.52,4.52,0,0,0,1818.31,101.37Z"/><path class="cls-19" d="M969.31,50.37,951,50.12a4.53,4.53,0,0,0-4.58,4.46l-.18,13.26a4.53,4.53,0,0,0,4.46,4.58l5.08.07,4,5.29,4.17-5.18,5.08.07a4.55,4.55,0,0,0,4.59-4.46L973.77,55A4.52,4.52,0,0,0,969.31,50.37Z"/><ellipse class="cls-41" cx="1639.75" cy="720.13" rx="15.87" ry="27.41" transform="translate(914.98 2357.83) rotate(-89.84)"/><path class="cls-35" d="M1644.42,720.37s-.24,4.93.23,6.22,4.57,3,7.5,2a11.07,11.07,0,0,0,5.63-4c.93-1.4,4.24-3.1,5-4.68,1.23-2.45-1.18-4.46-3.29-4.93a7.54,7.54,0,0,0-6.68,2C1650.86,718.85,1644.42,720.37,1644.42,720.37Z"/><path class="cls-35" d="M1622,713.75s-.23,4.93.24,6.22,4.57,3,7.5,2a11,11,0,0,0,5.62-4c.94-1.4,4.25-3.1,5-4.68,1.24-2.45-1.17-4.46-3.28-4.93a7.5,7.5,0,0,0-6.68,2C1628.41,712.23,1622,713.75,1622,713.75Z"/><path class="cls-49" d="M1621.58,651.28a57.22,57.22,0,0,0,.8,14.63c1.48,7.6.06,43.52-.43,48.21,0,0,2.44,5.68,8.36.49,0-13.83,5.22-38.27,3.49-53.33S1621.58,651.28,1621.58,651.28Z"/><path class="cls-49" d="M1622,653.51c.24.85,1.11,8.88,13.27,13.7,6.67,3.46,7.66,9.38,8.15,14.57s.5,38.52,1,39.5,2.59,4.9,7.78,0c.49-14.32,2.84-63.17,1.85-69.09S1621.27,650.79,1622,653.51Z"/><path class="cls-50" d="M1621.58,651.28l-1.21,31.5s9.94,6.63,16.24.66c-.33-2,.34-13.59.34-13.59l1.65,15.91s10.61,7,17.58-.66c-.67-9.62-1.58-26-1.58-26S1626.44,664.22,1621.58,651.28Z"/><path class="cls-49" d="M1626.78,610.71s-6,.22-6.41,6,4.86,8.84,11.05,8S1626.78,610.71,1626.78,610.71Z"/><path class="cls-51" d="M1641.46,606.72s10.37,3,14.44,9.5c1.58,2.53,1.73,10.37-.49,15.56s-.06,23.58-.81,27.28-11.29,5.56-17.46,4.57-15.78-5.19-15.56-12.35c.62-20.3.62-30.27,1.48-35.06a15.93,15.93,0,0,1,4.08-7.78S1630.59,604.49,1641.46,606.72Z"/><path class="cls-49" d="M1635.47,576.53s5.74-1.67,10.55,1.3,5.56,6.29,5.38,10.92.18,11.48-2.23,16.67-12.77.93-15.92-1.11-6.48-10.19-6.11-16.48S1629.73,577.64,1635.47,576.53Z"/><path class="cls-49" d="M1631.09,601.61s2.42,4.85,2.42,6.61,3.74,4,8.59,3.08,5.28-2,5.28-2a23.51,23.51,0,0,1-3.08-6.39C1643.64,600.07,1631.09,601.61,1631.09,601.61Z"/><path class="cls-46" d="M1651.09,585.29s-1.1-8.18-2.87-11c-4.86-1.77-15-.89-18.79,2.87-2.65,2.43-4,9.51-4,9.51s-.66,5.3,3.76,12.6c0,0,2.43,3.31,2.87,5.08.89-.22,5.53,2.65,10,0l2-6s-3.76-5.74-1.33-7.73,3.32,2,3.32,2l.88-2-1.54-5.53Z"/><path class="cls-49" d="M1655.29,618s-3.09-3.1-7.07.88-.88,10.17,4.42,11.94,16.8.44,21.67-3.54-1.77-21.66-6.64-25.2a55.79,55.79,0,0,0-2.87-6.41c-1.11-1.77-4.86-3.76-5.08-2.65s0,5.75.66,6.85c-.66-.22-3.32-.22-3.32.44s1.33,1.77,3.54,2a4.86,4.86,0,0,1,3.32,1.77s5.52,11.94,4.42,15.92C1666.57,621.77,1661.93,622.21,1655.29,618Z"/><path class="cls-38" d="M1687.11,621s-1.66,4.63-.37,6.12c.75.37,1.3-.93,1.3-.93s.56,4.07,1.48,5.18,3.71-1.85,3.71-5.74S1690.26,617.81,1687.11,621Z"/><path class="cls-52" d="M1692.24,573.49a58.8,58.8,0,0,0-4,16.29c-1,9.63-2.47,31.11-2.47,31.11s3,3.21,6.67-.24c0,0,2-19.26,3.2-27.66s4.7-12.34,3-16S1693,572,1692.24,573.49Z"/><g class="cls-34"><ellipse class="cls-35" cx="1701.53" cy="688.67" rx="15.87" ry="27.41" transform="translate(1008.05 2388.24) rotate(-89.84)"/></g><path class="cls-53" d="M1711.93,681.88a8.06,8.06,0,0,1-2.41,5.55c-2.59,2.78-4.26,5.93-3,8.34s7,1.66,9.26-.19,1.85-3.7,3.88-6.29,2.41-4.08,1.67-6.86S1715.26,680.4,1711.93,681.88Z"/><path class="cls-53" d="M1692.48,676.32a7.83,7.83,0,0,1-3.15,4.82c-2.77,2-4.26,4.07-3.89,7.22s5.56,2.78,8.15,1.48,2-2.59,3.89-4.63,3.15-2.22,3.52-4.44-.18-4.63-1.3-5S1696.19,673.73,1692.48,676.32Z"/><path class="cls-54" d="M1691,616.69s.62,51.49,1.36,60.62c.25,2.22,5.68,4.45,7.9,1.24,2.22-4.2.86-47.29,3.58-55.19C1703.1,617.68,1693.72,615.71,1691,616.69Z"/><path class="cls-35" d="M1691.49,618.67a25.41,25.41,0,0,0,11.12,12.84c6.66,3.46,7.65,9.38,8.14,14.57s.5,36,1,37,4.69,4.94,9.88,0c.49-14.32.74-60.74-.25-66.66S1690.75,616,1691.49,618.67Z"/><path class="cls-44" d="M1724.15,627.87a35.74,35.74,0,0,0-.62,5.06c0,1.85,1.86.12,1.86.12s.49,4.82,1.48,5.56,3.33-.87,3.82-4.69-.74-8.15-2.46-9S1724.15,627.87,1724.15,627.87Z"/><path class="cls-55" d="M1711.25,569.53s11.85,7.91,13.08,10.62,1.73,10.37-.49,15.56-.74,23.95-1.48,27.65-10.62,5.19-16.79,4.2S1690,622.37,1690,615.21s1.24-20.49.74-23.7a54.73,54.73,0,0,1,1-16.79c.62-2.47,4.2-4.2,4.2-4.2S1700.38,567.31,1711.25,569.53Z"/><path class="cls-52" d="M1722.11,577.68s8.15,6.18,8.89,32.84c0,15.56-.25,17.53-.25,17.53s-4.69,4.45-7.16-.24c0-5.68,1-21.24-1.48-31.12s-4.44-10.86-4.44-10.86S1716.19,578.42,1722.11,577.68Z"/><path class="cls-38" d="M1701.12,568.3a1,1,0,0,1,0,.37c-.1.86-.45,3-.5,4s1,2.35,3.33,2.22,6.3-1.23,7.53-4.07a65.28,65.28,0,0,1,.13-8.27Z"/><path class="cls-44" d="M1714.7,562.07c-1.81,5.5-6.85,7.4-9.63,8.33s-6.11.55-8-1.3-3.52-10.18-2.41-17.4,6.67-11.49,13.15-10.19S1719.7,546.88,1714.7,562.07Z"/><path class="cls-48" d="M1699,551.8s-4.31,2.32-6.3-2.66,2.32-5,2.32-5-1.33-3.65,1.65-6,7.3,0,7.3,0,2.65-4.64,7.29-1.66,4.32,6,4.32,6,3.64-1,5,3.65-2,6.63-2,6.63,2,0,1.33,3.65-4.31,6.63-5.64,6.63-1.66-3-1.66-3a3.86,3.86,0,0,0,2.65-4c0-3.32-3.64-.33-3.64-.33s-4,2-4.31-1.66l-.34-3.65S1704.29,557.77,1699,551.8Z"/><ellipse class="cls-41" cx="445.75" cy="542.13" rx="15.87" ry="27.41" transform="translate(-97.64 986.34) rotate(-89.84)"/><path class="cls-35" d="M450.42,542.37s-.24,4.93.23,6.22,4.57,3,7.5,2a11.07,11.07,0,0,0,5.63-4c.93-1.4,4.24-3.1,5-4.68,1.23-2.45-1.18-4.46-3.29-4.93a7.54,7.54,0,0,0-6.68,2C456.86,540.85,450.42,542.37,450.42,542.37Z"/><path class="cls-35" d="M428,535.75s-.23,4.93.24,6.22,4.57,3,7.5,2a11,11,0,0,0,5.62-4c.94-1.4,4.25-3.1,5-4.68,1.24-2.45-1.17-4.46-3.28-4.93a7.5,7.5,0,0,0-6.68,2C434.41,534.23,428,535.75,428,535.75Z"/><path class="cls-49" d="M427.58,473.28a57.22,57.22,0,0,0,.8,14.63c1.48,7.6.06,43.52-.43,48.21,0,0,2.44,5.68,8.36.49,0-13.83,5.22-38.27,3.49-53.33S427.58,473.28,427.58,473.28Z"/><path class="cls-49" d="M428,475.51c.24.85,1.11,8.88,13.27,13.7,6.67,3.46,7.66,9.38,8.15,14.57s.5,38.52,1,39.5,2.59,4.9,7.78,0c.49-14.32,2.84-63.17,1.85-69.09S427.27,472.79,428,475.51Z"/><path class="cls-50" d="M427.58,473.28l-1.21,31.5s9.94,6.63,16.24.66c-.33-2,.34-13.59.34-13.59l1.65,15.91s10.61,7,17.58-.66c-.67-9.62-1.58-26-1.58-26S432.44,486.22,427.58,473.28Z"/><path class="cls-49" d="M432.78,432.71s-6,.22-6.41,6,4.86,8.84,11.05,8S432.78,432.71,432.78,432.71Z"/><path class="cls-51" d="M447.46,428.72s10.37,3,14.44,9.5c1.58,2.53,1.73,10.37-.49,15.56s-.06,23.58-.81,27.28-11.29,5.56-17.46,4.57-15.78-5.19-15.56-12.35c.62-20.3.62-30.27,1.48-35.06a15.93,15.93,0,0,1,4.08-7.78S436.59,426.49,447.46,428.72Z"/><path class="cls-49" d="M441.47,398.53s5.74-1.67,10.55,1.3,5.56,6.29,5.38,10.92.18,11.48-2.23,16.67-12.77.93-15.92-1.11-6.48-10.19-6.11-16.48S435.73,399.64,441.47,398.53Z"/><path class="cls-49" d="M437.09,423.61s2.42,4.85,2.42,6.61,3.74,4,8.59,3.08,5.28-2,5.28-2a23.51,23.51,0,0,1-3.08-6.39C449.64,422.07,437.09,423.61,437.09,423.61Z"/><path class="cls-46" d="M457.09,407.29s-1.1-8.18-2.87-11.05c-4.86-1.77-15-.89-18.79,2.87-2.65,2.43-4,9.51-4,9.51s-.66,5.3,3.76,12.6c0,0,2.43,3.31,2.87,5.08.89-.22,5.53,2.65,9.95,0l2-6s-3.76-5.74-1.33-7.73,3.32,2,3.32,2l.88-2-1.54-5.53Z"/><path class="cls-49" d="M461.29,440s-3.09-3.1-7.07.88-.88,10.17,4.42,11.94,16.8.44,21.67-3.54-1.77-21.66-6.64-25.2a55.79,55.79,0,0,0-2.87-6.41c-1.11-1.77-4.86-3.76-5.08-2.65s0,5.75.66,6.85c-.66-.22-3.32-.22-3.32.44s1.33,1.77,3.54,2a4.86,4.86,0,0,1,3.32,1.77S475.44,438,474.34,442C472.57,443.77,467.93,444.21,461.29,440Z"/><path class="cls-38" d="M493.11,443s-1.66,4.63-.37,6.12c.75.37,1.3-.93,1.3-.93s.56,4.07,1.48,5.18,3.71-1.85,3.71-5.74S496.26,439.81,493.11,443Z"/><path class="cls-52" d="M498.24,395.49a58.8,58.8,0,0,0-3.95,16.29c-1,9.63-2.47,31.11-2.47,31.11s3,3.21,6.67-.24c0,0,2-19.26,3.2-27.66s4.7-12.34,3-16.05S499,394,498.24,395.49Z"/><g class="cls-34"><ellipse class="cls-35" cx="507.53" cy="510.67" rx="15.87" ry="27.41" transform="translate(-4.58 1016.75) rotate(-89.84)"/></g><path class="cls-53" d="M517.93,503.88a8.06,8.06,0,0,1-2.41,5.55c-2.59,2.78-4.26,5.93-3,8.34s7,1.66,9.26-.19,1.85-3.7,3.88-6.29,2.41-4.08,1.67-6.86S521.26,502.4,517.93,503.88Z"/><path class="cls-53" d="M498.48,498.32a7.83,7.83,0,0,1-3.15,4.82c-2.77,2-4.26,4.07-3.89,7.22s5.56,2.78,8.15,1.48,2-2.59,3.89-4.63,3.15-2.22,3.52-4.44-.18-4.63-1.3-5S502.19,495.73,498.48,498.32Z"/><path class="cls-54" d="M497,438.69s.62,51.49,1.36,60.62c.25,2.22,5.68,4.45,7.9,1.24,2.22-4.2.86-47.29,3.58-55.19C509.1,439.68,499.72,437.71,497,438.69Z"/><path class="cls-35" d="M497.49,440.67a25.41,25.41,0,0,0,11.12,12.84c6.66,3.46,7.65,9.38,8.14,14.57s.5,36.05,1,37,4.69,4.94,9.88,0c.49-14.32.74-60.74-.25-66.66S496.75,438,497.49,440.67Z"/><path class="cls-44" d="M530.15,449.87a35.74,35.74,0,0,0-.62,5.06c0,1.85,1.86.12,1.86.12s.49,4.82,1.48,5.56,3.33-.87,3.82-4.69-.74-8.15-2.46-9S530.15,449.87,530.15,449.87Z"/><path class="cls-55" d="M517.25,391.53s11.85,7.91,13.08,10.62,1.73,10.37-.49,15.56-.74,24-1.48,27.65-10.62,5.19-16.79,4.2S496,444.37,496,437.21s1.24-20.49.74-23.7a54.73,54.73,0,0,1,1-16.79c.62-2.47,4.2-4.2,4.2-4.2S506.38,389.31,517.25,391.53Z"/><path class="cls-52" d="M528.11,399.68s8.15,6.18,8.89,32.84c0,15.56-.25,17.53-.25,17.53s-4.69,4.45-7.16-.24c0-5.68,1-21.24-1.48-31.12s-4.44-10.86-4.44-10.86S522.19,400.42,528.11,399.68Z"/><path class="cls-38" d="M507.12,390.3a1,1,0,0,1,0,.37c-.1.86-.45,3-.5,3.95s1,2.35,3.33,2.22,6.3-1.23,7.53-4.07a65.28,65.28,0,0,1,.13-8.27Z"/><path class="cls-44" d="M520.7,384.07c-1.81,5.5-6.85,7.4-9.63,8.33s-6.11.55-8-1.3-3.52-10.18-2.41-17.4,6.67-11.49,13.15-10.19S525.7,368.88,520.7,384.07Z"/><path class="cls-48" d="M505,373.8s-4.31,2.32-6.3-2.66,2.32-5,2.32-5-1.33-3.65,1.65-6,7.3,0,7.3,0,2.65-4.64,7.29-1.66,4.32,6,4.32,6,3.64-1,5,3.65-2,6.63-2,6.63,2,0,1.33,3.65-4.31,6.63-5.64,6.63-1.66-3-1.66-3a3.86,3.86,0,0,0,2.65-4c0-3.32-3.64-.33-3.64-.33s-4,2-4.31-1.66l-.34-3.65S510.29,379.77,505,373.8Z"/><path class="cls-38" d="M163.11,916s-1.66,4.63-.37,6.12c.75.37,1.3-.93,1.3-.93s.56,4.07,1.48,5.18,3.71-1.85,3.71-5.74S166.26,912.81,163.11,916Z"/><path class="cls-56" d="M168.24,868.49a58.8,58.8,0,0,0-4,16.29c-1,9.63-2.47,31.11-2.47,31.11s3,3.21,6.67-.24c0,0,2-19.26,3.2-27.66s4.7-12.34,3-16S169,867,168.24,868.49Z"/><g class="cls-34"><ellipse class="cls-35" cx="177.53" cy="983.67" rx="15.87" ry="27.41" transform="translate(-806.64 1158.42) rotate(-89.84)"/></g><path class="cls-53" d="M187.93,976.88a8.06,8.06,0,0,1-2.41,5.55c-2.59,2.78-4.26,5.93-3,8.34s7,1.66,9.26-.19,1.85-3.7,3.88-6.29,2.41-4.08,1.67-6.86S191.26,975.4,187.93,976.88Z"/><path class="cls-53" d="M168.48,971.32a7.83,7.83,0,0,1-3.15,4.82c-2.77,2-4.26,4.07-3.89,7.22s5.56,2.78,8.15,1.48,2-2.59,3.89-4.63,3.15-2.22,3.52-4.44-.18-4.63-1.3-5S172.19,968.73,168.48,971.32Z"/><path class="cls-57" d="M167,911.69s.62,51.49,1.36,60.62c.25,2.22,5.68,4.45,7.9,1.24,2.22-4.2.86-47.29,3.58-55.19C179.1,912.68,169.72,910.71,167,911.69Z"/><path class="cls-57" d="M167.49,913.67a25.41,25.41,0,0,0,11.12,12.84c6.66,3.46,7.65,9.38,8.14,14.57s.5,36,1,37,4.69,4.94,9.88,0c.49-14.32.74-60.74-.25-66.66S166.75,911,167.49,913.67Z"/><path class="cls-44" d="M200.15,922.87a35.74,35.74,0,0,0-.62,5.06c0,1.85,1.86.12,1.86.12s.49,4.82,1.48,5.56,3.33-.87,3.82-4.69-.74-8.15-2.46-9S200.15,922.87,200.15,922.87Z"/><path class="cls-19" d="M187.25,864.53s11.85,7.91,13.08,10.62,1.73,10.37-.49,15.56-.74,23.95-1.48,27.65-10.62,5.19-16.79,4.2S166,917.37,166,910.21s1.24-20.49.74-23.7a54.73,54.73,0,0,1,1-16.79c.62-2.47,4.2-4.2,4.2-4.2S176.38,862.31,187.25,864.53Z"/><path class="cls-56" d="M198.11,872.68s8.15,6.18,8.89,32.84c0,15.56-.25,17.53-.25,17.53s-4.69,4.45-7.16-.24c0-5.68,1-21.24-1.48-31.12s-4.44-10.86-4.44-10.86S192.19,873.42,198.11,872.68Z"/><path class="cls-38" d="M177.12,863.3a1,1,0,0,1,0,.37c-.1.86-.45,3-.5,4s1,2.35,3.33,2.22,6.3-1.23,7.53-4.07a65.28,65.28,0,0,1,.13-8.27Z"/><path class="cls-44" d="M190.7,857.07c-1.81,5.5-6.85,7.4-9.63,8.33s-6.11.55-8-1.3-3.52-10.18-2.41-17.4,6.67-11.49,13.15-10.19S195.7,841.88,190.7,857.07Z"/><path class="cls-48" d="M175,846.8s-4.31,2.32-6.3-2.66,2.32-5,2.32-5-1.33-3.65,1.65-6,7.3,0,7.3,0,2.65-4.64,7.29-1.66,4.32,6,4.32,6,3.64-1,5,3.65-2,6.63-2,6.63,2,0,1.33,3.65-4.31,6.63-5.64,6.63-1.66-3-1.66-3a3.86,3.86,0,0,0,2.65-4c0-3.32-3.64-.33-3.64-.33s-4,2-4.31-1.66l-.34-3.65S180.29,852.77,175,846.8Z"/><ellipse class="cls-41" cx="183.62" cy="226.52" rx="14.95" ry="25.82" transform="translate(-43.42 409.49) rotate(-89.84)"/><path class="cls-58" d="M178,220.12a7.6,7.6,0,0,0,2.27,5.23c2.44,2.62,4,5.59,2.79,7.85s-6.63,1.57-8.72-.17-1.75-3.49-3.67-5.93-2.26-3.84-1.57-6.46S174.82,218.72,178,220.12Z"/><path class="cls-58" d="M196.28,214.89a7.37,7.37,0,0,0,3,4.53c2.61,1.92,4,3.84,3.66,6.81s-5.23,2.61-7.68,1.39-1.92-2.44-3.66-4.36-3-2.09-3.31-4.19.17-4.36,1.22-4.71S192.79,212.44,196.28,214.89Z"/><path class="cls-59" d="M197.68,158.71s-.59,48.5-1.28,57.11c-.24,2.09-5.35,4.18-7.45,1.16-2.09-4-.81-44.55-3.37-52C186.28,159.64,195.12,157.78,197.68,158.71Z"/><path class="cls-60" d="M197.21,160.57a23.92,23.92,0,0,1-10.47,12.1c-6.28,3.25-7.21,8.84-7.67,13.72s-.47,34-.93,34.89-4.42,4.65-9.31,0c-.46-13.49-.7-57.22.23-62.8S197.91,158,197.21,160.57Z"/><path class="cls-38" d="M194.69,119.44s4.68,1.56,6.56,9.37,2.49,10,2.49,10a23.77,23.77,0,0,1,7.5-3.75c4.38-1.25,5.62-4.06,5.62-4.06s-.93-2.5,0-3.44-.62-5.31.63-4.69,2.19,3.13,2.19,4.69v1.56s3.12-2.5,5-1.25,0,2.81,0,2.81a4.84,4.84,0,0,1,.63,3.44c-.31,2.19-3.44,2.81-5,2.81s-7.81,5.94-11.87,7.81-5,5-6.56,4.06-8.12-6.25-10-10.62S186.25,125.37,194.69,119.44Z"/><path class="cls-36" d="M178.6,114.28s-11.16,7.44-12.33,10-1.62,9.77.47,14.66.7,22.56,1.39,26.05,10,4.89,15.82,3.95,14.66-4.88,14.66-11.63-1.17-19.3-.7-22.33a39.64,39.64,0,0,0-.88-13.82c-.58-2.33-3.91-3.91-3.91-3.91S189.69,115.38,178.6,114.28Z"/><path class="cls-38" d="M172.09,138.28c1-8.33,0-12.7-2.29-13.74s-3.53-.26-3.53-.26a18.94,18.94,0,0,0-4.59,14c0,3.75-2.09,12.71-1.67,16.46.4,3.6.42,10.08,1.53,12.79a12.45,12.45,0,0,0-1.26,7.4c.47,3.61,2.68,5.12,3.61,4.42s1.39-5.23,1.39-5.23S167,175.75,167,174a33.26,33.26,0,0,0-.59-4.76,11.24,11.24,0,0,0-1.55-2c1-1.58,1.58-8.93,1.58-12.76S171.05,146.61,172.09,138.28Z"/><path class="cls-38" d="M175.35,107.24c1.7,5.19,6.45,7,9.07,7.86s5.75.52,7.5-1.23,3.31-9.59,2.27-16.4-6.28-10.81-12.39-9.59S170.63,92.94,175.35,107.24Z"/><path class="cls-38" d="M188.14,113.12a1.22,1.22,0,0,0,0,.35c.1.8.43,2.86.47,3.72s-.93,2.21-3.14,2.09-5.93-1.16-7.09-3.84a59.24,59.24,0,0,0-.12-7.79Z"/><path class="cls-48" d="M190,108.66a8.55,8.55,0,0,0-1.87-.31c-.79,0-2.66,1.87-2.66,1.87l-2.66-.31a8.27,8.27,0,0,0,3.28,1.41c1.57.15,3.91-1.25,3.91-1.25a10.12,10.12,0,0,0,2.19.93c.46,0,2.5-2.18,2.5-2.18l-1.88.62-1.87-1.72Z"/><path class="cls-36" d="M172.51,98.2s15.82,3.85,22.7.52a48.82,48.82,0,0,0-.63-5s-11,.41-18.74-.94Z"/><path class="cls-48" d="M187.81,94.45s-1.4,6.87-3.59,9.06c-1.09,1.25-5.47,2.18-5.47,2.18s2.5-3.12,2.5-3.59c-1.72,1.87-2.81,3.12-4.53,3.44a14.64,14.64,0,0,1-3.9,0l1.09-1.41-3,1.09a4.73,4.73,0,0,0,1.41-3.74,36.11,36.11,0,0,1,2-10.78c1.25-3.28,5.15-4.53,5.15-4.53l6.1.78a18.11,18.11,0,0,1,5.46,0c2.81.47,5.78,4.27,6,6.14s-.21,7.71,0,8.54a4.12,4.12,0,0,0,1.25,1.67s-3.33-.63-4-1.46-2.91-8.54-2.91-8.54l-1.88.63-1.45-1.46Z"/><ellipse class="cls-41" cx="1159.89" cy="892.25" rx="16.22" ry="28.01" transform="translate(264.35 2049.6) rotate(-89.84)"/><path class="cls-58" d="M1153.75,885.31a8.23,8.23,0,0,0,2.46,5.68c2.65,2.84,4.35,6,3,8.51s-7.19,1.71-9.47-.19-1.89-3.78-4-6.43-2.46-4.16-1.7-7S1150.34,883.79,1153.75,885.31Z"/><path class="cls-58" d="M1173.62,879.63a8,8,0,0,0,3.22,4.92c2.84,2.08,4.35,4.17,4,7.38s-5.68,2.84-8.33,1.52-2.08-2.65-4-4.73-3.22-2.28-3.6-4.55.19-4.73,1.33-5.11S1169.84,877,1173.62,879.63Z"/><path class="cls-61" d="M1175.13,818.69s-.63,52.61-1.38,61.95c-.26,2.27-5.81,4.54-8.08,1.26-2.27-4.29-.88-48.32-3.66-56.39C1162.77,819.7,1172.36,817.68,1175.13,818.69Z"/><path class="cls-62" d="M1174.63,820.71a26,26,0,0,1-11.36,13.12c-6.81,3.54-7.82,9.59-8.32,14.89s-.51,36.84-1,37.85-4.8,5-10.1,0c-.5-14.63-.75-62.07.26-68.13S1175.39,817.94,1174.63,820.71Z"/><path class="cls-48" d="M1201.68,768.94l9.11,1.3a1.2,1.2,0,0,1,1,1.38l-2.9,18.11a1.2,1.2,0,0,1-1.46,1l-8.39-1.94a1.21,1.21,0,0,1-.93-1.32l2.19-17.47A1.19,1.19,0,0,1,1201.68,768.94Z"/><path class="cls-38" d="M1171.89,776.09s5.08,1.69,7.12,10.17,2.71,10.84,2.71,10.84a25.79,25.79,0,0,1,8.13-4.07c4.74-1.35,6.1-4.4,6.1-4.4-.82-2.19-.7-6,1.65-7.13,1-.46,2.35-.52,2.89.4.83,1.4-.64,2.09-1,3.22-1.15,3.31,1.54,3.42,3.78,3.57a2.91,2.91,0,0,1,1.21.25c1.65.9.88,3.54-.14,4.6a6.71,6.71,0,0,1-4.63,1.53c-1.7,0-8.47,6.44-12.88,8.47s-5.42,5.42-7.12,4.4-8.81-6.77-10.84-11.52S1162.74,782.53,1171.89,776.09Z"/><path class="cls-50" d="M1154.44,770.5s-12.11,8.07-13.37,10.85-1.77,10.59.5,15.89.76,24.48,1.52,28.27,10.85,5.29,17.16,4.29,15.89-5.3,15.89-12.62-1.26-20.95-.75-24.23a42.77,42.77,0,0,0-1-15c-.63-2.52-4.23-4.23-4.23-4.23S1166.47,771.68,1154.44,770.5Z"/><path class="cls-38" d="M1147.38,796.54c1.13-9,0-13.79-2.49-14.92s-3.82-.27-3.82-.27a20.58,20.58,0,0,0-5,15.19c0,4.06-2.26,13.78-1.8,17.84s.45,10.94,1.65,13.89a13.43,13.43,0,0,0-1.36,8c.5,3.91,2.9,5.55,3.91,4.8s1.51-5.68,1.51-5.68,1.9,1.77,1.9-.13a36.71,36.71,0,0,0-.63-5.17,12.74,12.74,0,0,0-1.69-2.11c1.07-1.72,1.71-9.68,1.71-13.84S1146.25,805.57,1147.38,796.54Z"/><path class="cls-38" d="M1150.91,762.86c1.85,5.63,7,7.57,9.84,8.52s6.25.57,8.14-1.32,3.59-10.41,2.46-17.79-6.81-11.74-13.44-10.41S1145.8,747.34,1150.91,762.86Z"/><path class="cls-38" d="M1164.79,769.23a1.12,1.12,0,0,0,0,.39c.1.87.46,3.1.51,4s-1,2.4-3.4,2.27-6.44-1.26-7.7-4.16a64.33,64.33,0,0,0-.13-8.45Z"/><path class="cls-48" d="M1164.43,749s-1.52,7.46-3.89,9.83c-1.19,1.35-5.93,2.37-5.93,2.37s2.71-3.39,2.71-3.9c-1.87,2-3,3.39-4.92,3.73a15.71,15.71,0,0,1-4.23,0l1.19-1.52-3.22,1.18a5.15,5.15,0,0,0,1.52-4.07,39.37,39.37,0,0,1,2.2-11.69c1.36-3.55,5.59-4.91,5.59-4.91l6.61.85a19.69,19.69,0,0,1,5.93,0c3,.51,6.27,4.63,6.5,6.66s-.23,8.36,0,9.26a4.32,4.32,0,0,0,1.35,1.81s-3.61-.68-4.29-1.58-3.16-9.26-3.16-9.26l-2,.68-1.59-1.59Z"/><g class="cls-34"><ellipse class="cls-35" cx="242.41" cy="252.05" rx="14.95" ry="25.82" transform="translate(-10.32 493.74) rotate(-89.84)"/></g><path class="cls-60" d="M233.71,252.32a10,10,0,0,1-4.58.42c-2.3-.42-4.79-1-5.84,0s-.2,2.29,2.71,3.54a38.86,38.86,0,0,0,6,1.87c.63.21,3.33,1.25,4.79.63s1.46-2.92,1.25-3.54a20.09,20.09,0,0,1-.42-2.5Z"/><path class="cls-60" d="M257.14,244.51a9.92,9.92,0,0,1-4.59.42c-2.29-.42-4.79-1-5.83,0s-.2,2.29,2.71,3.54a38.86,38.86,0,0,0,6,1.87c.62.21,3.33,1.25,4.79.63s1.46-2.92,1.25-3.54a20.09,20.09,0,0,1-.42-2.5Z"/><path class="cls-40" d="M262.73,187.71a54.3,54.3,0,0,1-.76,13.78c-1.4,7.16-1.24,40.58-.77,45,0,0-1.46,4-6-.21,0-13-5.58-35-3.95-49.15S262.73,187.71,262.73,187.71Z"/><path class="cls-35" d="M262.32,189.8c-.22.81-1.05,8.38-12.5,12.91-6.12,3.59-6.28,8.7-6.74,13.58s-5,35.52-5.42,36.45-.87,5.57-5.76.92c-.46-13.49-.69-59.55.24-65.13S263,187.25,262.32,189.8Z"/><path class="cls-38" d="M254.74,146.53a22.61,22.61,0,0,1,9.37,5.62c3.75,4.06,9.06,11.25,10.62,15S263.8,183.39,261.3,185c-2.81,1.25-3.75-2.5-2.19-4.06S266.3,170,266.3,169s-11.87-9.37-13.43-12.5S251.3,148.09,254.74,146.53Z"/><path class="cls-55" d="M244,145.72s-9.77,2.8-13.61,9c-1.48,2.39-2.09,10,.47,14.66,5.14,9.36-1.11,16.86.75,25.7.74,3.48,10.65,5.23,16.46,4.3s16.12-5,14.66-11.63c-5.7-25.56-.59-28.51-1.4-33a15,15,0,0,0-3.84-7.33S254.23,143.63,244,145.72Z"/><path class="cls-38" d="M249.64,117.29s-5.41-1.57-9.94,1.22-5.24,5.93-5.06,10.29-.18,10.82,2.09,15.7,12,.88,15-1,6.11-9.6,5.76-15.53S255.05,118.33,249.64,117.29Z"/><path class="cls-38" d="M253.77,140.92s-2.28,4.56-2.28,6.22-3.53,3.73-8.09,2.9-5-1.86-5-1.86a22.18,22.18,0,0,0,2.9-6C241.94,139.46,253.77,140.92,253.77,140.92Z"/><path class="cls-48" d="M237.56,118.72a11.08,11.08,0,0,0-3.44,8.75c.32,5.62,5.63,4.69,6.88,7.5.93-1.25,0-4.06,0-4.06s2.18,2.18,2.5,3.75.31,4.37,1.87,6.24,7.24,2.61,7.24,2.61,6.19-6,6.82-13.54-2.2-14.26-7.5-15C240.68,113.41,237.56,118.72,237.56,118.72Z"/><path class="cls-63" d="M254.43,121.85s2.19-5.31,6.25-3.75,6.87,3.75,6.87,10.31S266.92,140,271,144c-1.25,1.25-7.5.31-9.69-4.38a21.15,21.15,0,0,1-2.19-8.12v5.31s-4.29-2-2.81-11.56C256.55,123.71,252.24,125.91,254.43,121.85Z"/><path class="cls-38" d="M236.94,155s-10-8.43-13.44-15c-3.34-6.39,1.29-18.68,1.83-24.22a12.35,12.35,0,0,0,3-2.54c.84-1.25,3.54-2.5,2.71-2.92s-3.54.63-3.54.63,4.37-5.42,4.58-6.88-3.54-.62-5.83,1-4.58,8.54-4.27,10.83c-.94,1.25-6.56,9.69-7.18,17.81s1.56,10.93,1.56,10.93,7.5,17.81,14.37,21.87S240.06,159.33,236.94,155Z"/><ellipse class="cls-41" cx="645.73" cy="997.14" rx="29.1" ry="16.86" transform="translate(-2.83 1.84) rotate(-0.16)"/><path class="cls-40" d="M647.08,998s-.25,5.22.24,6.59,4.86,3.24,8,2.12a11.7,11.7,0,0,0,6-4.23c1-1.5,4.51-3.3,5.35-5,1.31-2.6-1.24-4.73-3.48-5.23a8,8,0,0,0-7.09,2.12C653.92,996.38,647.08,998,647.08,998Z"/><path class="cls-40" d="M623.23,991s-.25,5.22.25,6.59,4.85,3.24,8,2.12a11.75,11.75,0,0,0,6-4.23c1-1.5,4.5-3.3,5.35-5,1.31-2.6-1.24-4.73-3.48-5.23a8,8,0,0,0-7.1,2.12C630.08,989.35,623.23,991,623.23,991Z"/><path class="cls-40" d="M622.83,924.63a60.29,60.29,0,0,0,.85,15.53c1.57,8.06.06,46.21-.46,51.2,0,0,4.46,5.5,10.75,0,0-14.69,3.67-40.12,1.83-56.11S622.83,924.63,622.83,924.63Z"/><path class="cls-40" d="M623.28,927c.25.91,1.18,9.43,14.1,14.55,7.08,3.67,8.13,10,8.65,15.47s.52,40.9,1.05,42,5,5.24,10.49,0c.52-15.21.78-67.12-.27-73.42S622.5,924.1,623.28,927Z"/><path class="cls-38" d="M628.73,879.13a21.59,21.59,0,0,0-6.88,18.44c1.41,11.62,15.84,1.06,16.2-6.69S631,877.6,628.73,879.13Z"/><path class="cls-36" d="M643.93,877.3s11,3.15,15.34,10.09c1.68,2.69,1.84,11-.52,16.52s-.07,25-.86,29-12,5.89-18.55,4.85-16.75-5.51-16.51-13.11c.66-21.56.66-32.15,1.57-37.24a16.93,16.93,0,0,1,4.33-8.26S632.4,874.94,643.93,877.3Z"/><path class="cls-38" d="M659.17,887.36c3.79,1.89,6.21,11.58,7.76,15.18a55.1,55.1,0,0,0,6-6c1.45-1.7,2.85-4.85,4.7-6,4.48-2.9,5,2,3.86,5.06C679,902.28,674.28,908.4,669.9,914c-7,9-14.09-4.53-17.07-10.11-2.81-5.28-4.92-13.38-.35-15.5S659.17,887.36,659.17,887.36Z"/><polygon class="cls-64" points="675 868 686 868 680.5 889.65 671 887 675 868"/><path class="cls-38" d="M676.82,890.68l-.22-7.28a2.43,2.43,0,0,1,.48-1.89,2.15,2.15,0,0,1,1.08-.46,7.31,7.31,0,0,1,6.74,2,5.42,5.42,0,0,1,.49,6.74c-1,1.24-2.48,1.92-3.6,3"/><path class="cls-38" d="M637.57,845.25s6.1-1.77,11.21,1.37,5.9,6.69,5.71,11.6.19,12.2-2.36,17.7-13.57,1-16.92-1.18-6.88-10.81-6.48-17.5S631.48,846.42,637.57,845.25Z"/><path class="cls-38" d="M632.92,871.88s2.57,5.14,2.57,7,4,4.21,9.12,3.28,5.62-2.11,5.62-2.11a24.91,24.91,0,0,1-3.28-6.78C646.25,870.24,632.92,871.88,632.92,871.88Z"/><path class="cls-36" d="M654.6,855.67s-1.41,2.81-6,0c-3.52,1.05-3.52,2.81-3.17,5.63s-2.11-1.41-3.87.71-1.41,4.57,1.41,6.33-.36,5.29-.36,5.29-5.28,3.87-8.8,0-9.15-12.68-4.93-22.89S653.19,838.77,654.6,855.67Z"/><ellipse class="cls-41" cx="1258.95" cy="344.14" rx="29.1" ry="16.86" transform="translate(-0.97 3.57) rotate(-0.16)"/><path class="cls-40" d="M1260.3,345s-.25,5.22.25,6.59,4.85,3.24,8,2.12a11.78,11.78,0,0,0,6-4.23c1-1.5,4.5-3.3,5.35-5,1.31-2.6-1.25-4.73-3.49-5.23a8,8,0,0,0-7.09,2.12C1267.14,343.38,1260.3,345,1260.3,345Z"/><path class="cls-40" d="M1236.46,338s-.25,5.22.24,6.59,4.86,3.24,8,2.12a11.7,11.7,0,0,0,6-4.23c1-1.5,4.51-3.3,5.35-5,1.31-2.6-1.24-4.73-3.48-5.23a7.94,7.94,0,0,0-7.09,2.12C1243.3,336.35,1236.46,338,1236.46,338Z"/><path class="cls-40" d="M1236.05,271.63a60.82,60.82,0,0,0,.85,15.53c1.57,8.06.07,46.21-.46,51.2,0,0,4.46,5.5,10.75,0,0-14.69,3.67-40.12,1.84-56.11S1236.05,271.63,1236.05,271.63Z"/><path class="cls-40" d="M1236.51,274c.25.91,1.18,9.43,14.09,14.55,7.08,3.67,8.13,10,8.65,15.47s.53,40.9,1,41.95,5,5.24,10.49,0c.73-21.15,3.57-44.76-4.23-64.71-1.11-2.85-1.76-5.93-2.89-8.73-1.31-3.23-.39-2.73-4.11-3C1257.56,269.3,1235.72,271.07,1236.51,274Z"/><path class="cls-16" d="M1242,226.13a21.59,21.59,0,0,0-6.88,18.44c1.41,11.62,15.85,1.06,16.2-6.69S1244.25,224.6,1242,226.13Z"/><path class="cls-65" d="M1257.16,224.3s11,3.15,15.33,10.09c6.25,10-5.16,20.69-6.88,29.91a80.28,80.28,0,0,0-1,14c0,1.43-.08,3-1,4.07a5.73,5.73,0,0,1-3.88,1.59c-7.92.93-24-1.14-23.7-12.36.66-21.56.66-32.15,1.57-37.24a16.93,16.93,0,0,1,4.33-8.26S1245.62,221.94,1257.16,224.3Z"/><path class="cls-16" d="M1272.4,234.36c3.78,1.89,6.21,11.58,7.75,15.18a55.1,55.1,0,0,0,6-6c1.45-1.7,2.85-4.85,4.71-6.05,4.48-2.9,5,2,3.86,5.06-2.5,6.74-7.24,12.86-11.62,18.48-9.9,12.68-15.6-17.21-17.74-21.47a8.59,8.59,0,0,1-1.35-3.76C1264.09,230.76,1270,233,1272.4,234.36Z"/><polygon class="cls-64" points="1288.22 215 1299.22 215 1293.72 236.65 1284.22 234 1288.22 215"/><path class="cls-16" d="M1290,237.68l-.22-7.28a2.43,2.43,0,0,1,.48-1.89,2.19,2.19,0,0,1,1.08-.46,7.3,7.3,0,0,1,6.74,2,5.42,5.42,0,0,1,.49,6.74c-1,1.24-2.48,1.92-3.59,3"/><path class="cls-16" d="M1250.8,192.25s6.09-1.77,11.21,1.37,5.9,6.69,5.7,11.6.2,12.2-2.36,17.7-13.57,1-16.91-1.18-6.88-10.81-6.49-17.5S1244.7,193.42,1250.8,192.25Z"/><path class="cls-38" d="M1246.14,218.88s2.58,5.14,2.58,7,4,4.21,9.12,3.28,5.61-2.11,5.61-2.11a25.23,25.23,0,0,1-3.28-6.78C1259.47,217.24,1246.14,218.88,1246.14,218.88Z"/><path class="cls-66" d="M1267.44,202.59c-.28,1.11-1.26.74-3.71,1.07s-6,1.85-7,4.14c-1.76,3.68.72,4,3.46,5.67,4.8,2.9,13.39,15.07,2.94,15.21-7,.08-5.56,4.85-6.11,9.78-.9,8.13-13,8.65-18.73,6.16-2.64-1.14-4.58-4.34-3.39-7l-5.28-.06a2.16,2.16,0,0,1-1.28-.3,1.85,1.85,0,0,1-.57-1.25c-.76-5,2.82-9.47,6.18-13.22,4.87-5.44,5.7-8.33,5.21-15a18.38,18.38,0,0,1,7.53-15.38c5.2-3.46,13.09-3.35,17.54,1.31a11.85,11.85,0,0,1,3.29,6.58A8.75,8.75,0,0,1,1267.44,202.59Z"/><path class="cls-19" d="M933,300.55l18.35-.6a4.53,4.53,0,0,1,4.67,4.37l.44,13.25a4.54,4.54,0,0,1-4.37,4.67l-5.08.17-3.93,5.36-4.27-5.09-5.08.16a4.54,4.54,0,0,1-4.67-4.37l-.43-13.25A4.53,4.53,0,0,1,933,300.55Z"/><ellipse class="cls-41" cx="1039.62" cy="482.14" rx="16.86" ry="29.1" transform="translate(554.53 1520.4) rotate(-89.84)"/><path class="cls-40" d="M1038.28,483s.24,5.22-.25,6.59-4.86,3.24-8,2.12a11.7,11.7,0,0,1-6-4.23c-1-1.5-4.51-3.3-5.35-5-1.31-2.6,1.24-4.73,3.48-5.23a8,8,0,0,1,7.1,2.12C1031.43,481.38,1038.28,483,1038.28,483Z"/><path class="cls-40" d="M1062.12,476s.25,5.22-.25,6.59-4.85,3.24-8,2.12a11.73,11.73,0,0,1-6-4.23c-1-1.5-4.5-3.3-5.35-5-1.31-2.6,1.25-4.73,3.49-5.23a7.94,7.94,0,0,1,7.09,2.12C1055.27,474.35,1062.12,476,1062.12,476Z"/><path class="cls-40" d="M1062.53,409.63a60.57,60.57,0,0,1-.86,15.53c-1.57,8.06-.06,46.21.46,51.2,0,0-4.45,5.5-10.75,0,0-14.69-3.67-40.12-1.83-56.11S1062.53,409.63,1062.53,409.63Z"/><path class="cls-40" d="M1062.07,412c-.25.91-1.18,9.43-14.1,14.55-7.08,3.67-8.12,10-8.65,15.47s-.52,40.9-1,41.95-5,5.24-10.49,0c-.72-21.15-3.57-44.76,4.23-64.71,1.12-2.85,1.76-5.93,2.9-8.73,1.31-3.23.38-2.73,4.11-3C1041,407.3,1062.86,409.07,1062.07,412Z"/><path class="cls-16" d="M1056.63,364.13a21.6,21.6,0,0,1,6.87,18.44c-1.41,11.62-15.84,1.06-16.19-6.69S1054.33,362.6,1056.63,364.13Z"/><path class="cls-67" d="M1041.42,362.3s-11,3.15-15.34,10.09c-6.25,10,5.16,20.69,6.89,29.91a81.26,81.26,0,0,1,1,14c0,1.43.08,3,1,4.07a5.73,5.73,0,0,0,3.89,1.59c7.92.93,24-1.14,23.7-12.36-.67-21.56-.67-32.15-1.58-37.24a17,17,0,0,0-4.32-8.26S1053,359.94,1041.42,362.3Z"/><path class="cls-16" d="M1026.18,372.36c-3.79,1.89-6.21,11.58-7.76,15.18a54.14,54.14,0,0,1-6-6c-1.46-1.7-2.86-4.85-4.71-6-4.48-2.9-5,2-3.86,5.06,2.49,6.74,7.23,12.86,11.61,18.48,9.9,12.68,15.6-17.21,17.75-21.47a8.58,8.58,0,0,0,1.34-3.76C1034.48,368.76,1028.57,371,1026.18,372.36Z"/><polygon class="cls-64" points="1010.35 353 999.35 353 1004.85 374.65 1014.35 372 1010.35 353"/><path class="cls-16" d="M1008.53,375.68l.22-7.28a2.47,2.47,0,0,0-.47-1.89,2.22,2.22,0,0,0-1.09-.46,7.31,7.31,0,0,0-6.74,2,5.42,5.42,0,0,0-.49,6.74c1,1.24,2.48,1.92,3.6,3"/><path class="cls-68" d="M1031.14,392c3.29-6,7.28-12.19,6.54-19.31a8.68,8.68,0,0,0-1.19-3.9c-5.3-8.16-15.09,9.53-16.86,13-.66,1.32-1.15,3.12,0,4.1a3.7,3.7,0,0,0,1.12.61C1021.74,386.92,1032,390.33,1031.14,392Z"/><path class="cls-16" d="M1047.78,330.25s-6.1-1.77-11.21,1.37-5.9,6.69-5.7,11.6-.2,12.2,2.36,17.7,13.56,1,16.91-1.18,6.88-10.81,6.49-17.5S1053.87,331.42,1047.78,330.25Z"/><path class="cls-16" d="M1052.43,356.88s-2.57,5.14-2.57,7-4,4.21-9.12,3.28-5.61-2.11-5.61-2.11a25,25,0,0,0,3.27-6.78C1039.1,355.24,1052.43,356.88,1052.43,356.88Z"/><path class="cls-66" d="M1031.09,340.68a13,13,0,0,0,3.76,1c8.49,1.18,6.51,8.07,6.87,14.73.12,2.27.42,4.87,2.29,6.15a5.1,5.1,0,0,0,2.73.78c2.65.07,5.12-1.22,7.46-2.46a6.75,6.75,0,0,0,1.91-1.33,6.68,6.68,0,0,0,1.27-3.16c1.07-5.1,2.7-10.9.66-15.87-1.29-3.16-2-8.56-4.11-11.08a1.44,1.44,0,0,0-1.16-.62,1.7,1.7,0,0,0-.84.48l-3.12,2.82c-.24.21-.54.45-.86.37s-.51-.64-.51-1.07c0-2.24.53-4.76-.88-6.49a13.49,13.49,0,0,0-3.91,3.91,8.81,8.81,0,0,1-.74-3.09c-.19-1-.8-2.19-1.86-2.34a16.33,16.33,0,0,1-5.86,6.76,8.38,8.38,0,0,0-3.55-5.54c-.15,3-1.56,5.76-2.17,8.7C1027.61,337.41,1028.67,339.54,1031.09,340.68Z"/><g class="cls-34"><ellipse class="cls-35" cx="899.89" cy="695.97" rx="17.56" ry="30.31" transform="matrix(0, -1, 1, 0, 201.37, 1593.89)"/></g><path class="cls-69" d="M911.4,688.46a8.92,8.92,0,0,1-2.67,6.14c-2.86,3.08-4.71,6.56-3.27,9.22s7.78,1.84,10.24-.2,2-4.1,4.3-7,2.66-4.5,1.84-7.58S915.08,686.82,911.4,688.46Z"/><path class="cls-69" d="M889.89,682.32a8.65,8.65,0,0,1-3.48,5.32c-3.07,2.25-4.71,4.51-4.3,8s6.14,3.07,9,1.64,2.25-2.87,4.3-5.12,3.48-2.46,3.89-4.92-.2-5.12-1.43-5.53S894,679.45,889.89,682.32Z"/><path class="cls-54" d="M888.25,616.36s.68,56.94,1.5,67c.28,2.46,6.29,4.91,8.74,1.36,2.46-4.64,1-52.29,4-61C901.63,617.46,891.26,615.27,888.25,616.36Z"/><path class="cls-35" d="M888.8,618.55a28.13,28.13,0,0,0,12.29,14.2c7.37,3.82,8.46,10.38,9,16.11s.55,39.87,1.09,41,5.19,5.46,10.93,0c.54-15.84.81-67.18-.28-73.74S888,615.54,888.8,618.55Z"/><path class="cls-70" d="M889.57,568.69s-5.87,14.67-8.44,26c-1.1,1.84-10.27-.73-15.77-2.93,0,0-4.77,2.2-2.2,8.07,1.83,1.46,15.77,6.23,21.27,6.6a66.79,66.79,0,0,0,12.1-27.14C898,570.16,894,566.13,889.57,568.69Z"/><path class="cls-44" d="M865.54,593.88s-2.44-5.38-4.4-5.87-.73,3.18-.73,3.18-7.34,2.44-7.58,5.13,4.89,3.43,6.6,3.67S867,598.77,865.54,593.88Z"/><path class="cls-50" d="M910.65,564.2s13.1,8.74,14.47,11.75,1.91,11.47-.55,17.2-.82,26.49-1.64,30.59-11.74,5.73-18.57,4.64-17.2-5.73-17.2-13.65,1.37-22.67.82-26.22a60.07,60.07,0,0,1,1.09-18.57c.68-2.73,4.64-4.64,4.64-4.64S898.63,561.75,910.65,564.2Z"/><path class="cls-50" d="M925.12,576s-10.43,6.31-6.4,14.38c.74.37,9.9,7.34,10.64,12.47-.37,3.67-11,5.87-11,5.87s-2.57,5.13,2.2,7.33,16.87-4.76,19.8-10.26S927.85,577.7,925.12,576Z"/><path class="cls-44" d="M919.82,611.48s-2-3.42-3.18-3.91-.49,2.69-.49,2.69l-2.93-1.71s-3.67.24-3.42,1.22,1.71,5.13,3.91,6.36,7.58,1.71,8.31,0S919.82,611.48,919.82,611.48Z"/><path class="cls-38" d="M899.45,562.84a1.24,1.24,0,0,1,0,.41c-.11.94-.5,3.36-.56,4.37s1.09,2.59,3.69,2.45,7-1.36,8.33-4.5a70,70,0,0,1,.14-9.15Z"/><path class="cls-44" d="M914.47,555.94c-2,6.1-7.58,8.2-10.65,9.22s-6.76.61-8.81-1.43-3.89-11.27-2.66-19.26,7.37-12.7,14.54-11.26S920,539.15,914.47,555.94Z"/><path class="cls-48" d="M910.65,534.22c-9.17-3.55-15.52-.49-17.23,6.36,0,0,4.4,3.91,8.8,1.71s8.31-3.18,9.53-1.22-1.1,8.74-1.1,8.74-.18,5-2.93,7.52-5.5-2.76-8.8-3.12-6.24.55-6.24,2.56.19,5.14,1.47,7.34,4.85,2.83,10.22,1.23a15.07,15.07,0,0,0,9.4-7.65c-.73-.36-2.68-1.07-2.53-2.19a43.92,43.92,0,0,1,1.25-5.69,1.68,1.68,0,0,1,2.44-.92l1.1.86S919.82,537.77,910.65,534.22Zm-14.12,27.51c-2.2,0-2.38-1.29-2.38-1.29a8.58,8.58,0,0,0,.92-2.56,5,5,0,0,1,3.48.36,7.2,7.2,0,0,1,2.57,2.94A23.86,23.86,0,0,1,896.53,561.73Z"/><ellipse class="cls-41" cx="810.31" cy="739.14" rx="17.56" ry="30.31" transform="translate(68.87 1547.35) rotate(-89.84)"/><path class="cls-58" d="M815.47,739.42s-.26,5.44.26,6.87,5,3.37,8.29,2.2a12.23,12.23,0,0,0,6.23-4.4c1-1.56,4.69-3.44,5.57-5.19,1.36-2.71-1.3-4.93-3.63-5.44a8.31,8.31,0,0,0-7.39,2.2C822.6,737.73,815.47,739.42,815.47,739.42Z"/><path class="cls-58" d="M790.63,732.1s-.25,5.44.26,6.87,5.06,3.37,8.3,2.2a12.21,12.21,0,0,0,6.22-4.41c1-1.55,4.69-3.43,5.57-5.18,1.37-2.71-1.29-4.93-3.62-5.45a8.31,8.31,0,0,0-7.39,2.21C797.76,730.41,790.63,732.1,790.63,732.1Z"/><path class="cls-59" d="M790.21,663a63.26,63.26,0,0,0,.89,16.18c1.64,8.4.07,48.13-.48,53.32,0,0,4.64,5.74,11.2,0,0-15.29,3.82-41.78,1.91-58.44S790.21,663,790.21,663Z"/><path class="cls-60" d="M790.69,665.46c.26.95,1.23,9.83,14.68,15.16,7.37,3.82,8.46,10.37,9,16.11s.55,42.6,1.09,43.69,5.19,5.47,10.93,0c.54-15.84.81-69.91-.28-76.46S789.87,662.46,790.69,665.46Z"/><path class="cls-44" d="M847.73,634.15a23.94,23.94,0,0,1,2.57-3.3c.73-.55,6.05-1.65,6.23-.73s-2.75,2.2-2.75,2.2,5.69,1.28,6.79,2.93-5.32,2.57-7,2.57a8.11,8.11,0,0,0-3.48,1.1S845.9,637.82,847.73,634.15Z"/><path class="cls-45" d="M812.2,613.71s11.46,3.28,16,10.51c1.74,2.8,1.91,11.47-.55,17.21s-.06,26.08-.88,30.17-12.5,6.15-19.32,5.06S790,670.92,790.21,663c.69-22.45.69-33.48,1.64-38.78a17.58,17.58,0,0,1,4.51-8.6S800.18,611.25,812.2,613.71Z"/><path class="cls-71" d="M826.2,623.47s3.91,1.83,4.95,7.57,5.22,14.6,5.22,14.6l10.23-12.52a6.54,6.54,0,0,1,4.7,6.06s-10.69,17.61-15.65,19.17-14.41-19.49-16-23.92S821.5,621.39,826.2,623.47Z"/><path class="cls-72" d="M805.57,580.32s6.35-1.84,11.68,1.44,6.14,7,5.94,12.08c-.26,6.41-.21,13.59-2.46,18.43-2.66,5.74-14.13,1-17.62-1.22s-7.16-11.27-6.75-18.23S799.22,581.55,805.57,580.32Z"/><path class="cls-72" d="M800.73,608.06s2.67,5.36,2.67,7.31,4.15,4.38,9.5,3.41,5.85-2.19,5.85-2.19a26.08,26.08,0,0,1-3.41-7.07C814.61,606.36,800.73,608.06,800.73,608.06Z"/><path class="cls-71" d="M816.74,577.49s1.83.73,5.5,2.56l3.67,1.84L823,584.46s2.93,1.46,3.66,4c.37,1.47-2.56.73-2.56.73a14.94,14.94,0,0,1,.36,4c0,2.93-2.56,0-6.23-.74,1.1.74,1.47,3.67,1.47,3.67a78.46,78.46,0,0,1-8.07-1.47c.73,1.1,1.83,6.24,1.83,6.24s-3.3-4-4-1.47,1.1,7,3.3,6.6l1.46-.36a8,8,0,0,1-3.3,4.76c-2.56,1.47-7.33,2.21-7.33,2.21s-7-7.34-7.7-8.81-3.3-6.6-3.3-11.73S796.2,583,796.2,583a12.54,12.54,0,0,1,1.84-4c1.46-2.2,8.07-1.46,9.17-1.83a42.9,42.9,0,0,0,5.13-3.3l.37,3.67,5.5-2.2Z"/><path class="cls-19" d="M856.58,527.55l-18.36-.6a4.54,4.54,0,0,0-4.67,4.37l-.43,13.25a4.52,4.52,0,0,0,4.37,4.67l5.07.17,3.93,5.36,4.28-5.09,5.07.16a4.52,4.52,0,0,0,4.67-4.37l.44-13.25A4.54,4.54,0,0,0,856.58,527.55Z"/></g></g></svg>