<svg xmlns="http://www.w3.org/2000/svg" xmlns:xlink="http://www.w3.org/1999/xlink" viewBox="0 0 1920 1080"><defs><style>.cls-1,.cls-107{fill:none;}.cls-2{fill:#0360c2;}.cls-3{isolation:isolate;}.cls-4{fill:#2b3990;opacity:0.07;}.cls-24,.cls-31,.cls-4{mix-blend-mode:multiply;}.cls-5{fill:#b64d50;}.cls-6{fill:#494da5;}.cls-7{fill:#3b4193;}.cls-8{fill:#f7ca82;}.cls-9{fill:#333;}.cls-10{fill:#ecf5ff;}.cls-11{fill:#bcbec0;}.cls-12{fill:#f7b378;}.cls-13{fill:#40a6ec;}.cls-14{fill:#6ec7ef;}.cls-15{fill:#f1f2f2;}.cls-16{fill:#ffc838;}.cls-17{fill:#5fc5c2;}.cls-18{fill:#f6bda2;}.cls-19{fill:#6d4cbb;opacity:0.08;}.cls-20{fill:#f5bca1;}.cls-21{fill:#fff;}.cls-22{fill:#ff9300;}.cls-23{fill:#666;}.cls-24,.cls-31{opacity:0.16;}.cls-25,.cls-31{fill:#555b5e;}.cls-26{fill:#cdd8e7;}.cls-27{fill:#727777;}.cls-28{fill:#e0a082;}.cls-29{fill:#047cfa;}.cls-30{fill:#444a4c;}.cls-32{fill:#5f6568;}.cls-33{fill:#6d7377;}.cls-34{fill:#f5b697;}.cls-35{fill:#cf1e50;}.cls-36{fill:#555a5d;}.cls-37{fill:#c08770;}.cls-38{fill:#915f4a;}.cls-39{fill:#6d473a;}.cls-40{fill:#42494c;}.cls-41{fill:#157064;}.cls-42{fill:#128078;}.cls-43{fill:#6e4739;}.cls-44{fill:#0c98bb;}.cls-45{fill:#0fa5d7;}.cls-46{fill:#e89d54;}.cls-47{fill:#fad3c3;}.cls-48{fill:#a7735f;}.cls-49{fill:#f2dd5f;}.cls-50{fill:#047cfc;}.cls-51{fill:#8e969d;}.cls-52{fill:#9180b8;}.cls-53{fill:#4ec410;}.cls-54{fill:#194900;}.cls-55{fill:#83533c;}.cls-56{fill:#441b00;}.cls-57{fill:#636363;}.cls-58{fill:#ffaa2e;}.cls-59{fill:#6ab7a4;}.cls-60{fill:#6fc7b5;}.cls-61{clip-path:url(#clip-path);}.cls-62{fill:#3b3b3b;}.cls-63{clip-path:url(#clip-path-2);}.cls-64{fill:#424242;}.cls-65{fill:#444;}.cls-66{fill:#474747;}.cls-67{fill:#494949;}.cls-68{fill:#4b4b4b;}.cls-69{fill:#4e4e4e;}.cls-70{fill:#505050;}.cls-71{fill:#525252;}.cls-72{fill:#585858;}.cls-73{fill:#3d3d3d;}.cls-74{clip-path:url(#clip-path-3);}.cls-75{fill:#404040;}.cls-76{fill:#3e3e3e;}.cls-77{fill:#626262;}.cls-78{fill:#29abe2;}.cls-79{fill:#e6e6e6;}.cls-80{clip-path:url(#clip-path-4);}.cls-81{fill:#024892;}.cls-82{fill:#024a97;}.cls-83{fill:#024d9c;}.cls-84{fill:#034fa1;}.cls-85{fill:#0352a6;}.cls-86{fill:#0354ab;}.cls-87{fill:#0357b0;}.cls-88{fill:#0359b5;}.cls-89{clip-path:url(#clip-path-5);}.cls-90{clip-path:url(#clip-path-6);}.cls-91{fill:#036bd9;}.cls-92{opacity:0.21;}.cls-93{fill:#020202;}.cls-94{fill:#8e8e8e;}.cls-95{fill:#7a7a7a;}.cls-96{fill:#bb0c7e;}.cls-97{fill:#d70f88;}.cls-98{fill:#f2d0c6;}.cls-99{fill:#b32353;}.cls-100{fill:#435385;}.cls-101{fill:#6c6c6c;}.cls-102{fill:#596eb1;}.cls-103{fill:#ef2e6f;}.cls-104{fill:#5f3c1c;}.cls-105{fill:#e3b4a6;}.cls-106{fill:#995d45;}.cls-107{stroke:#e3b4a6;stroke-linecap:round;stroke-miterlimit:10;stroke-width:0.9px;}.cls-108{fill:#f2588c;}</style><clipPath id="clip-path"><path class="cls-1" d="M688.46,715.89l0-16.3c0,5.2,3.42,10.41,10.29,14.37l0,16.3C691.87,726.3,688.44,721.09,688.46,715.89Z"/></clipPath><clipPath id="clip-path-2"><path class="cls-1" d="M1271.79,755.59l0,16.3c0,5.14-3.39,10.26-10.13,14.18l0-16.31C1268.41,765.85,1271.78,760.72,1271.79,755.59Z"/></clipPath><clipPath id="clip-path-3"><path class="cls-1" d="M1053.88,890.52l-.05,16.3c-13.56,7.88-35.63,7.89-49.28,0l0-16.3C1018.25,898.4,1040.31,898.4,1053.88,890.52Z"/></clipPath><clipPath id="clip-path-4"><path class="cls-1" d="M1183.61,746.84l0,9.64a3.53,3.53,0,0,1-2,2.89l0-9.64A3.54,3.54,0,0,0,1183.61,746.84Z"/></clipPath><clipPath id="clip-path-5"><path class="cls-2" d="M997.09,824.5l0-9.64a3.56,3.56,0,0,0,2.08,2.93l0,9.64A3.55,3.55,0,0,1,997.09,824.5Z"/></clipPath><clipPath id="clip-path-6"><path class="cls-1" d="M1036.93,833.77l0,9.65a11.13,11.13,0,0,1-10,0l0-9.64A11.1,11.1,0,0,0,1036.93,833.77Z"/></clipPath></defs><title>public_sms</title><g class="cls-3"><g id="Layer_1" data-name="Layer 1"><ellipse class="cls-4" cx="1759.91" cy="281.53" rx="28.08" ry="8.55"/><path class="cls-5" d="M1755.15,273s.17,4.22,2.33,5.34,7.77,5.12,6.55,6.9-5.39,3.43-9.8,1a80.75,80.75,0,0,1-8.27-5.47c-1.31-.84,0-6.82.27-9.45S1755.15,273,1755.15,273Z"/><path class="cls-6" d="M1768.61,207s6.53,33.94,6.53,35.82-17.31,20.57-17.31,20.57l-2.21-16.18,6.94-8.26-5.42-18.43-2.06-16.7,4.76-6.58,8.77,2.44Z"/><path class="cls-6" d="M1745.69,203.86s.35,33.62.35,38.13-1.5,30.78-1.5,30.78,1.69,3.76,12.39,1.69l2.64-32.28.27-26.31v-7.51Z"/><polygon class="cls-7" points="1759.84 215.87 1762.56 238.99 1758.87 228.59 1759.84 215.87"/><path class="cls-7" d="M1757.13,205.94a19.8,19.8,0,0,0,10.8-1.4l-.73-2.82-10.07,1.35Z"/><path class="cls-8" d="M1734.32,211.39s.13,3.58,0,5c-.25,2.81.91,5.51,1.91,6.26s3.14,1.32,4,.85-.78-3.08-1.1-4.35c-.69-2.77,0-3.66,0-3.66a7.5,7.5,0,0,0,.54,1c.35.73.65,1.48,1,2.23a.38.38,0,0,0,.11.16.21.21,0,0,0,.23,0c.79-.68.63-2.43.19-3.22a63,63,0,0,1-1.66-6.56Z"/><path class="cls-9" d="M1782.25,169.19c1.68-3,6-11.26,6-11.26H1795l-6.75,12Z"/><path class="cls-8" d="M1783.71,168.07c0-.81-.17-1.63-.25-2.42a3.23,3.23,0,0,1,0-1.2c.13-.5.7-1.06,1.27-.82.41.18.37,1,.47,1.33a4.76,4.76,0,0,1,2.22-2.63,4.44,4.44,0,0,1,3.48-.23,3.28,3.28,0,0,1,2.1,2c.45,1.49-1.17,3.58-2,4.78-.43.67-1.14,1.11-1.62,1.77a11.35,11.35,0,0,1-1.29,1.82c-.92.88-1.2.37-2.2-.22a7.31,7.31,0,0,1-2-1.48c-.61-.74-.26-1.24-.21-2Q1783.73,168.42,1783.71,168.07Z"/><path class="cls-10" d="M1733.4,209.72v3.05s4.46.19,7.56-1.52v-3.17Z"/><path class="cls-10" d="M1782.32,171l1.21-2.8s4.16,1.61,6.32,4.41l-1.26,2.91Z"/><path class="cls-11" d="M1753.92,155.5l.57.8,9.41,4.5.78-3.19A14.43,14.43,0,0,0,1753.92,155.5Z"/><path class="cls-12" d="M1754.8,152.73a23.17,23.17,0,0,1-.66,4.23l4,4.5,3.46,3.1h2.2l.61-2.59s-.85-5.34-.33-7.27Z"/><path class="cls-10" d="M1770.75,160.37s4,13.73,6.25,18.57l4.5-8.25c.75-1.5,8.25.75,7.5,3.75l-11.25,19.5-4.51-3-2.25-3.3-2.38-19.5Z"/><path class="cls-13" d="M1757,203.66a17.16,17.16,0,0,0,10-1.5l1.65-41.79-4.94,1-4.76-.83-5.89-3.22-2,3,2.78,32Z"/><path class="cls-10" d="M1765.42,166.9s1.29,20,.67,42.9a13,13,0,0,0,4.13-2s1.63-28.45.53-47.42l-6-2.08.14,1.74Z"/><polygon class="cls-14" points="1753.92 155.5 1752.69 157.61 1759.1 164.56 1761.88 161.06 1753.92 155.5"/><path class="cls-10" d="M1740.62,164.08s3-3.17,12.07-6.47c0,0,6.92,11.42,5.22,53.45,0,0-11.85-1.64-13.6-3C1744.31,208.05,1745,174.65,1740.62,164.08Z"/><path class="cls-8" d="M1752.67,149.26s1,7.54,7.91,8c7.93.53,9.1-9.79,8.42-14.71-.64-4.6-5.71-10.36-11.43-7.29C1753.28,137.57,1751.55,142.33,1752.67,149.26Z"/><path class="cls-5" d="M1760.17,133.21s-7-.17-9.09,8.33c0,0-1.64,7.06,3.36,12.16,0,0,.06-3,.5-3.52s-1-2.35-.75-3.46.55-3.18,1.77-2.07l.43.51a.63.63,0,0,0,1.1-.43,4,4,0,0,1,.54-2.4c1-1.27,5.72,3.24,11.13,2.62,0,0,1.42,0,1.41-2.08C1770.57,142.87,1769.43,132,1760.17,133.21Z"/><polygon class="cls-14" points="1761.88 161.06 1765.2 163.99 1764.68 157.61 1761.88 161.06"/><polygon class="cls-15" points="1761.88 161.06 1764.32 163.21 1763.32 164.99 1761.15 165.22 1759.77 163.72 1761.88 161.06"/><polygon class="cls-15" points="1763.32 164.99 1765.2 192.81 1763.15 197.03 1760.7 193.28 1761.15 165.22 1763.32 164.99"/><polygon class="cls-7" points="1759.54 242.58 1757.83 263.43 1760.02 261.05 1760.09 241.92 1759.54 242.58"/><polygon class="cls-16" points="1748.19 174.38 1744.06 188.9 1743.72 182.67 1748.19 174.38"/><path class="cls-10" d="M1740,164.79s-5.79,15.73-6.92,25.24v21a17.82,17.82,0,0,0,8.14-1.63s-1-21.9,7-35C1748.19,174.38,1746,157.46,1740,164.79Z"/><path class="cls-17" d="M1544.75,415.43c1.22,1.61,1.55,3.74-.73,5.88s-7.38-.35-7.94-.17-.39-8.07.69-8.33S1543.54,413.82,1544.75,415.43Z"/><path class="cls-18" d="M1521.9,413.2c0,1.23-.6,1.4.51,3.67a23.1,23.1,0,0,0,4.41,5.77c1.25,1.29,2.06,2.1,3.93,2.25.76.06,2.43-.49,3.08-.08s.62,2.24.5,3a3.84,3.84,0,0,1-2,2.92,4.84,4.84,0,0,1-3,.18,7.85,7.85,0,0,1-4.88-3,52.27,52.27,0,0,1-4.44-6.61c-.83-1.41-1.64-2.83-2.36-4.3-.38-.8-1.2-1.33-1.71-2.26s-1-2.73-1.41-3.24c-.83-1.07-1.67-1.62-1.08-2.24,1.17-1.21,2.24.89,2.51,1.31s-.21-3.56.65-5,1.76-1,1.59,1.52.15,2.77.15,2.77a2.4,2.4,0,0,1,1.94.55A3,3,0,0,1,1521.9,413.2Z"/><path class="cls-19" d="M1526.55,486.25c16.62-1.83,33.19,3,37,10.86s-6.56,15.67-23.18,17.5-33.19-3-37-10.85S1509.94,488.09,1526.55,486.25Z"/><path class="cls-17" d="M1539.2,496.33a22.51,22.51,0,0,1,4.28,1.42c.85.45.56,1.65.47,2.39-.12,1.1-1.35,2.65-5,1s-5.27-2.25-5.42-3.35.23-2.53,1.27-2.72C1536.11,494.8,1539.2,496.33,1539.2,496.33Z"/><path class="cls-20" d="M1535.15,452.64s.42,9.44,1.61,18.54,3.16,27.46,3.16,27.46.61,1.56,2.69.61c1.4-.64.86-2.16,1-3.09.26-1.81.91-14,.43-16.05-.65-2.71-1.48-4.88-1-6.58s.26-20.3.26-20.3Z"/><path class="cls-17" d="M1530.69,499.9a22.76,22.76,0,0,1,4.29,1.42c.84.46.55,1.65.47,2.39-.13,1.1-1.36,2.65-5,1s-5.27-2.26-5.41-3.36.23-2.53,1.26-2.72C1527.61,498.38,1530.69,499.9,1530.69,499.9Z"/><path class="cls-20" d="M1526.65,456.21s.41,9.44,1.6,18.54,3.17,27.46,3.17,27.46.6,1.57,2.68.61c1.41-.64.87-2.15,1-3.09.27-1.81.91-14,.43-16.05-.65-2.71-1.48-4.88-1-6.58s.27-20.3.27-20.3Z"/><path class="cls-21" d="M1537,411.69c2.9-.06,7.06,2.09,8,4.74s-1.08,19.1-.84,21.85,3.83,18.12,4,23.17.12,6.06.12,6.06-1.84,4.07-9.45,4.69c-10.46.85-14.72-2.85-15.68-4.95s1.44-18.39,2.46-22.82,1.87-12.73.92-16.28-1.72-10.16,1.53-13.12C1532.16,411.38,1534.14,411.74,1537,411.69Z"/><path class="cls-18" d="M1527.28,399.83s-.87,9,2.49,9.76a8.47,8.47,0,0,0,7.08-1.53s1.92-10.72-2.1-11.87S1527.86,396.77,1527.28,399.83Z"/><path class="cls-22" d="M1528.82,393.13a8,8,0,0,0-2.3,5.55c0,3.44,1.47,2.65,3.19,2.46s1.21,4.43,1.21,5.58c0,.72-1.76,2.1-2.8,4.81a13.12,13.12,0,0,0-.84,3.71c-.13,2,.89-.82,3,.52s2.56,8.86,3.13,10.77.19,3.25,3.44,2.29,2.69-.38,4-.19,4.14-1.84,4-4.91.08-10,.08-12.66,3.82-15.64-2.3-18.7C1537.28,389.7,1530.73,389.49,1528.82,393.13Z"/><path class="cls-18" d="M1517.48,450.83s3.85-11.61,4.58-14c.49-1.55,1.26-11.33,1.26-11.33l5.55-2.68s-1.28,11.87-1.42,14.32-6.75,15.29-7.55,16.44a28.48,28.48,0,0,1-5,6c-1.28,1-1.9.91-3,.31s-2-1.06-2-2.08c-.1-2.48,2.62-3.66,3.88-4.3-.54-.57-1.21.14-2.38-.12s-.54-1.42,1.05-1.67,1.93-.72,3.22-1A6.73,6.73,0,0,1,1517.48,450.83Z"/><path class="cls-17" d="M1531.62,419.42a3.45,3.45,0,0,0-6-1.4c-2.56,2.54-5,13-3.92,14.12a7.61,7.61,0,0,0,3.47,1.7,4.85,4.85,0,0,0,4.17-.76C1530.43,432.32,1532.62,423.05,1531.62,419.42Z"/><path class="cls-23" d="M1513,402.83l4-1.1a1.31,1.31,0,0,1,1.58.82l3.28,8.89a1.32,1.32,0,0,1-.89,1.73l-4,1.1a1.33,1.33,0,0,1-1.59-.82l-3.27-8.89A1.31,1.31,0,0,1,1513,402.83Z"/><g class="cls-24"><ellipse class="cls-25" cx="1496.24" cy="898.5" rx="13.51" ry="23.32" transform="translate(593.52 2392.2) rotate(-89.84)"/></g><path class="cls-25" d="M1465.44,886.17a13.52,13.52,0,0,1-3.57-2.82c-1.69-1.89-4.7-4.89-7-3.58s-2.26,4.52-1.32,6.21,4.71,3.57,6.4,5.64,3.76,4.51,6,4.14,3.76-3.2,4.7-5.08S1465.44,886.17,1465.44,886.17Z"/><path class="cls-26" d="M1513.21,844.41s.76,19.56,3,25.21c0,0,16.55-6.4,17.68-5.27s4.14,3.76,1.51,7.52c0,0-20.31,10.91-25.58,9s-9.78-30.47-10.53-32.73S1509.08,841.4,1513.21,844.41Z"/><path class="cls-26" d="M1486.5,847s-17.86,32-22,39.53a5.09,5.09,0,0,0,4.14,5.27c4.51,1.13,25-31.6,28.4-33.48s13.54-4.51,15.42-15.42C1508.32,839.15,1486.5,847,1486.5,847Z"/><path class="cls-25" d="M1533.48,863.93s-3.29,0-3,5.07,2.82,4.8,3.67,6.78,1.41,6.48,5.64,8.46,5.93-.85,6.21-3.1-4.23-8.19-5.36-11.29S1537.34,862.23,1533.48,863.93Z"/><path class="cls-27" d="M1534.84,863.36a2.9,2.9,0,0,0-1.55,3.25c.43,2.39,1.27,5.5,3.53,7.61s2.11,6.35,4.23,7.9,4,1.41,4.8-.7-2.4-6.35-3.81-8.61S1539.36,863.5,1534.84,863.36Z"/><path class="cls-28" d="M1509.87,804a17.29,17.29,0,0,1,5.51,14.77c-1.13,9.31-12.7.85-13-5.36S1508,802.72,1509.87,804Z"/><path class="cls-29" d="M1497.68,802.48s-8.82,2.52-12.29,8.09c-1.34,2.15-1.47,8.82.42,13.23s.06,20.06.69,23.21,9.61,4.73,14.86,3.89,13.42-4.41,13.23-10.5c-.53-17.28-.53-25.76-1.26-29.83a13.53,13.53,0,0,0-3.46-6.62S1506.93,800.59,1497.68,802.48Z"/><path class="cls-28" d="M1507.2,848.93c1.5-6.4-2.26-22.57-3.39-24.83s-11.25-15.41-18.42-13.53c0,0-4.53,6.38-.39,10.9,3.39,3,9.41,6.77,11.29,9.4s5.25,17.11,5.07,21.16l.19.13c-.64,1-1.83,3-1.69,3.54.19.75,0,3.38,1.32,4.51s3-.75,3.19-2.26.38-2.63.38-2.63,3-1.88,2.82-3.76A22.84,22.84,0,0,0,1507.2,848.93Z"/><path class="cls-28" d="M1502.78,776.8s-4.89-1.42-9,1.1-4.73,5.36-4.57,9.3-.16,9.76,1.89,14.18,10.87.78,13.55-1,5.51-8.67,5.2-14S1507.66,777.74,1502.78,776.8Z"/><path class="cls-28" d="M1506.51,798.14s-2.06,4.12-2.06,5.62-3.19,3.37-7.31,2.62-4.5-1.69-4.5-1.69a19.91,19.91,0,0,0,2.62-5.43C1495.83,796.82,1506.51,798.14,1506.51,798.14Z"/><path class="cls-30" d="M1489.23,787.2s-1.78-11.72,6.68-12.85,13.82.57,15.8,7.06-2.26,13.54-4.23,16.08c0,0-6.49,0-9.59-5.08a66.14,66.14,0,0,1-4.24-7Z"/><path class="cls-29" d="M1488.76,783.66s10.54,7.71,22.76,5.83c.38-1.88.75-3.19.75-3.19s-19-2.83-22.38-6.4A7.18,7.18,0,0,0,1488.76,783.66Z"/><path class="cls-21" d="M1539.06,747l-18-.9a4.43,4.43,0,0,0-4.64,4.2l-.65,13a4.45,4.45,0,0,0,4.2,4.65l5,.25,3.76,5.32,4.28-4.92,5,.25a4.44,4.44,0,0,0,4.65-4.21l.65-13A4.44,4.44,0,0,0,1539.06,747Z"/><ellipse class="cls-31" cx="644.43" cy="266.97" rx="14.31" ry="24.7" transform="translate(375.63 910.65) rotate(-89.84)"/><path class="cls-25" d="M653.81,260.85a7.3,7.3,0,0,1-2.17,5c-2.34,2.5-3.84,5.34-2.67,7.51s6.34,1.5,8.34-.17,1.67-3.33,3.51-5.67,2.17-3.67,1.5-6.18S656.81,259.52,653.81,260.85Z"/><path class="cls-25" d="M636.28,255.84a7,7,0,0,1-2.84,4.34c-2.5,1.84-3.84,3.68-3.5,6.51s5,2.51,7.34,1.34,1.84-2.34,3.51-4.17,2.83-2,3.17-4-.17-4.17-1.17-4.51S639.62,253.51,636.28,255.84Z"/><path class="cls-32" d="M634.94,202.09s.56,46.41,1.23,54.64c.22,2,5.12,4,7.12,1.12,2-3.79.78-42.62,3.23-49.75C645.85,203,637.39,201.2,634.94,202.09Z"/><path class="cls-33" d="M635.39,203.87a22.89,22.89,0,0,0,10,11.58c6,3.11,6.9,8.46,7.35,13.13s.44,32.49.89,33.38,4.23,4.46,8.9,0c.45-12.9.67-54.75-.22-60.09S634.72,201.43,635.39,203.87Z"/><path class="cls-33" d="M636.16,164a138.69,138.69,0,0,0-6.87,20.33c-.9,1.49-8.37-.6-12.85-2.39,0,0-3.89,1.79-1.8,6.57,1.5,1.2,12.86,5.09,17.34,5.38a54.35,54.35,0,0,0,9.86-22.11C643,164.26,639.75,161.87,636.16,164Z"/><path class="cls-34" d="M664.83,212.17a32.08,32.08,0,0,0-.56,4.56c0,1.67,1.67.11,1.67.11s.44,4.34,1.33,5,3-.78,3.45-4.23-.66-7.35-2.22-8.13S664.83,212.17,664.83,212.17Z"/><path class="cls-33" d="M653.19,159.58s10.69,7.13,11.8,9.57,1.56,9.35-.44,14-.67,21.59-1.34,24.92-9.57,4.68-15.13,3.79S635,210.07,635,203.62s.2-21.33-.25-24.23a45.14,45.14,0,0,1,1-14.38C636.27,162.78,642.89,159.18,653.19,159.58Z"/><path class="cls-33" d="M663,166.93s7.34,5.56,8,29.6c0,14-.22,15.8-.22,15.8s-4.23,4-6.46-.22c0-5.12.89-19.14-1.33-28s-4-9.8-4-9.8S657.65,167.6,663,166.93Z"/><path class="cls-28" d="M616.24,183.09s-2.59-4.58-4-5.58c-1,0-.4,4-.4,4s-6.77-3.79-7-3,4.18,3.79,4.18,3.79-5.77-1.4-5.38-.6,5.38,2.59,5.38,2.59-4-.6-4.18.4,5.18,1.19,5.18,1.19-3.79,1.4-3,2,3.39-.4,3.39-.4,3,1.19,5,.6S617.43,184.89,616.24,183.09Z"/><path class="cls-26" d="M641.54,161.13s-1.59,16.19,2.79,27.34c0,0,9.77-21.72,12.56-26.3-1.4-1.19-4.24-3.39-6.43-4S641.54,161.13,641.54,161.13Z"/><polygon class="cls-35" points="645.23 166.31 644.03 168.4 645.83 170.19 647.47 168.25 646.58 166.46 645.23 166.31"/><path class="cls-35" d="M645,169.2l-2.39,13.15s.5,4.63,1.74,6.12c1.55-1.19,4.09-8.22,4.09-8.22l-2.24-11.35Z"/><path class="cls-36" d="M644.33,188.47s9.82-23,12.56-26.3c1.09,2.09,1.09,13.9,1.09,13.9l-7,2.54,1.34,3Z"/><path class="cls-36" d="M641.54,161.13s-3.88,7.17-4.63,13.74l3.29,2.1-1.35,2.69s2.3,6.42,5.48,8.81C642.89,182.94,640.8,166.51,641.54,161.13Z"/><path class="cls-25" d="M644.68,192.73a.67.67,0,1,1-1.34,0,.67.67,0,1,1,1.34,0Z"/><path class="cls-25" d="M644.23,201.63a.67.67,0,1,1-.67-.68A.67.67,0,0,1,644.23,201.63Z"/><path class="cls-28" d="M644.07,158.47a1.17,1.17,0,0,1,0,.34c-.09.77-.41,2.74-.46,3.56s.89,2.11,3,2,5.67-1.11,6.79-3.67a59.25,59.25,0,0,1,.11-7.46Z"/><path class="cls-34" d="M656.31,152.85c-1.63,5-6.18,6.68-8.68,7.51s-5.51.5-7.18-1.17-3.17-9.18-2.17-15.69,6-10.35,11.85-9.18S660.82,139.16,656.31,152.85Z"/><path class="cls-36" d="M652.16,142a16.66,16.66,0,0,1-14.2,3.58s-.6-16.44,16.59-10.61a8.78,8.78,0,0,1,4.78,5.68c.9,4-1.72,11.81-3.81,13.9a16,16,0,0,1-.67-3.59,4.53,4.53,0,0,0,1.56-4.26c-.52-2.61-2.16-.82-2.24,1.12a4.83,4.83,0,0,0-.52,1.13l-.3-1.95S651.33,145.73,652.16,142Z"/><path class="cls-32" d="M637,208.4s6.38,5.58,25.71,2.59c0-.6.2-2,.2-2S646.92,212.58,637,208.4Z"/><path class="cls-9" d="M603.44,174.47l6.28-3.42a.84.84,0,0,1,1.2.46l1,2.73c.42,1.23,1.8,3.5,1.61,4.79-.53.23-1.05-.28-1.51-.63-.11-.07-.25-.15-.36-.08a.37.37,0,0,0-.12.25,4.85,4.85,0,0,0-.1,1.52,1.62,1.62,0,0,0,.78,1.24c.55.29,1.26.13,1.8.45,1.19.72,1.63,3.24,2.06,4.46a.84.84,0,0,1-.43,1L610,190.06a.84.84,0,0,1-1.16-.43l-5.77-14.1A.85.85,0,0,1,603.44,174.47Z"/><path class="cls-21" d="M606.19,140.5l-17.63.16a4.36,4.36,0,0,0-4.3,4.38l.11,12.73a4.36,4.36,0,0,0,4.38,4.3l4.88,0,4,5,3.9-5.06,4.87,0a4.35,4.35,0,0,0,4.3-4.38l-.11-12.73A4.36,4.36,0,0,0,606.19,140.5Z"/><g class="cls-24"><ellipse class="cls-25" cx="499.3" cy="749.41" rx="14.65" ry="25.3" transform="translate(-251.53 1246.58) rotate(-89.84)"/></g><path class="cls-25" d="M508,740.74a4.82,4.82,0,0,0,1.92,3.63c2,1.49,8.29,3.86,6.61,6,.3,1.21-3.8,1.11-6.57-.31s-4.15-3.36-5.17-3.28-1.42.11-1.89-.67.53-6.39.53-6.39S507.48,741.5,508,740.74Z"/><path class="cls-28" d="M512,681.14c0,.92-.31,12.86-.92,25.41S509.83,724,509.83,724s-1.22,14.7-1.83,16.84-3.37,1.22-4.29,0c-.61-1.84.92-18.06-.61-28.47s-4-19.28-4.59-23.57S512,681.14,512,681.14Z"/><path class="cls-25" d="M490.55,743s-.61,2.76,2.45,5.51,6.12,4,6.73,5.82-4.28,2.75-7.65.61-4.59-4.9-5.51-4.9,0,.31-.92,0c0,0-1.43-.41-1.73-1.43a39.73,39.73,0,0,1,1-6.12S490.35,743.28,490.55,743Z"/><path class="cls-28" d="M511.06,685.73c-.22.79-1.41,6.81-8.7,10.92-6.16,3.19-6.58,8.73-7.52,13.44-.71,3.55-6.66,19.32-4.39,33.7.16,1-.86,5.05-5.64.49-.46-13.22-.69-56.07.23-61.54S511.74,683.22,511.06,685.73Z"/><path class="cls-25" d="M484.43,680.83s-3.37,8-2.14,16.23.3,12.85.3,12.85,8.57,5.51,15.61,2.15,13.47-4,14.39-7.35c.92-6.73,1.84-20.81-1.53-25.71S507.08,686.34,484.43,680.83Z"/><polygon class="cls-25" points="527.17 632.58 535 632.58 532.97 647.09 525.43 647.37 527.17 632.58"/><path class="cls-28" d="M510.24,641.55a10.94,10.94,0,0,1,5.92,5.92c1.84,4.49-.2,13.26-.2,13.26s2.65-6.12,6.53-9.18,4.28-4.28,4.28-4.28,0-3.27,1-4.29c.61.2.82,3.06.82,3.06s2.65-2.65,4.49-2.65c1.63.41-.21,4.69-1.84,6.12a6.12,6.12,0,0,1-3.67,1.43s-5.72,8.77-6.94,11-5.1,4.28-7.14,4.49S508.61,648.69,510.24,641.55Z"/><path class="cls-35" d="M494.38,639.44s-10.94,7.29-12.08,9.8-1.74,9.73,1.82,13.53c8.41,9-3.67,13.35-1.22,25.92.66,3.42,11,5.22,16.72,4.31s12.66-3.72,12.66-10.33-4.57-12.78,1.23-20.81c4-5.51-1.53-10.41-1.12-17.64.13-2.34-3.88-3.87-3.88-3.87S504.41,637.39,494.38,639.44Z"/><path class="cls-26" d="M501.26,645.63s-.61,8.88.62,13.47c1.22.92,2.75-.92,3.06-2.14l.3-1.53s4,2.45,4,.92-6.43-10.72-6.43-10.72Z"/><path class="cls-28" d="M482.3,649.24a10.28,10.28,0,0,0,.29,12c4.59,6.13,11,10.11,13.16,10.72s13.47-1.23,16.84-5.51c.61.3,3.06-.61,3.37-1.84s-2.45-2.75-4.29-2.14a4.1,4.1,0,0,0-2.45,2.14s-9.49.92-11.63.92-8-8.57-8.57-11.33S485.38,648.25,482.3,649.24Z"/><path class="cls-37" d="M503.73,638.3a.85.85,0,0,0,0,.34c.09.79.42,2.81.46,3.65s-.91,2.16-3.08,2.05-5.81-1.14-7-3.76a58.29,58.29,0,0,0-.11-7.64Z"/><path class="cls-28" d="M491.19,632.54c1.67,5.09,6.32,6.84,8.89,7.69s5.64.52,7.35-1.19,3.25-9.4,2.22-16.07-6.15-10.6-12.14-9.4S486.57,618.52,491.19,632.54Z"/><path class="cls-38" d="M495.14,619.31A8.46,8.46,0,0,0,501,623.9c4.28.92,7.65.31,9.49,3.06-.31-3.06.61-10.71-6.43-13.47s-10.41.92-10.41.92-5.2.92-5.51,5.21-.92,8.87,1.23,13.46.3,7-1.23,8c0,.92,4.59,4.29,7.65,1.23s1.53-10.41.62-12.25S495.14,619.31,495.14,619.31Z"/><g class="cls-24"><ellipse class="cls-25" cx="199.59" cy="612.5" rx="14.31" ry="24.71" transform="matrix(0, -1, 1, 0, -413.47, 810.35)"/></g><path class="cls-39" d="M209,606.37a7.24,7.24,0,0,1-2.17,5c-2.33,2.51-3.84,5.35-2.67,7.52s6.35,1.5,8.35-.17,1.67-3.34,3.51-5.68,2.17-3.67,1.5-6.18S212,605,209,606.37Z"/><path class="cls-39" d="M191.43,601.37a7,7,0,0,1-2.84,4.34c-2.5,1.83-3.84,3.67-3.5,6.51s5,2.5,7.34,1.33,1.84-2.33,3.51-4.17,2.84-2,3.17-4-.16-4.17-1.17-4.51S194.77,599,191.43,601.37Z"/><path class="cls-40" d="M190.1,547.61s.55,46.41,1.22,54.65c.22,2,5.12,4,7.12,1.11,2-3.79.78-42.63,3.23-49.75C201,548.5,192.55,546.71,190.1,547.61Z"/><path class="cls-25" d="M190.54,549.39a23,23,0,0,0,10,11.57c6,3.12,6.9,8.46,7.35,13.14s.44,32.5.89,33.39,4.23,4.45,8.9,0c.45-12.91.67-54.76-.22-60.11S189.87,546.94,190.54,549.39Z"/><path class="cls-41" d="M191.17,508.75A172,172,0,0,0,184.29,530c-.9,1.5-8.37-.6-12.85-2.39,0,0-3.89,1.79-1.8,6.58,1.5,1.19,12.86,5.08,17.34,5.38a54.37,54.37,0,0,0,9.87-22.12C198,509.94,194.76,506.65,191.17,508.75Z"/><path class="cls-34" d="M171.59,529.28s-2-4.39-3.59-4.79-.6,2.59-.6,2.59-6,2-6.18,4.19,4,2.79,5.38,3S172.78,533.26,171.59,529.28Z"/><path class="cls-42" d="M208.35,505.09s10.69,7.12,11.8,9.57,1.56,9.35-.45,14-.66,21.6-1.33,24.94-9.57,4.67-15.14,3.78-14-4.67-14-11.13,1.11-18.48.66-21.37a49.28,49.28,0,0,1,.89-15.14c.56-2.22,3.79-3.78,3.79-3.78S198.56,503.08,208.35,505.09Z"/><path class="cls-42" d="M220.15,514.66s-8.5,5.15-5.22,11.73c.6.29,8.08,6,8.67,10.16-.29,3-9,4.78-9,4.78s-2.1,4.19,1.79,6,13.75-3.88,16.14-8.37S222.37,516.09,220.15,514.66Z"/><path class="cls-34" d="M215.83,543.63s-1.59-2.8-2.59-3.19-.4,2.19-.4,2.19l-2.39-1.4s-3,.2-2.79,1,1.4,4.19,3.19,5.18,6.18,1.4,6.78,0S215.83,543.63,215.83,543.63Z"/><path class="cls-28" d="M199.22,504a.85.85,0,0,1,0,.34c-.09.77-.41,2.74-.45,3.56s.89,2.11,3,2,5.68-1.11,6.79-3.67a59.25,59.25,0,0,1,.11-7.46Z"/><path class="cls-34" d="M211.47,498.35c-1.64,5-6.18,6.68-8.68,7.52s-5.51.5-7.18-1.17-3.18-9.19-2.17-15.7,6-10.35,11.85-9.18S216,484.66,211.47,498.35Z"/><path class="cls-38" d="M208.36,480.65c-7.48-2.89-12.66-.4-14.05,5.18,0,0,3.58,3.19,7.17,1.39s6.78-2.59,7.77-1-.89,7.12-.89,7.12-.15,4-2.39,6.13-4.49-2.24-7.18-2.54-5.08.45-5.08,2.09a12.65,12.65,0,0,0,1.19,6c1,1.79,4,2.31,8.33,1a12.33,12.33,0,0,0,7.67-6.24c-.6-.3-2.19-.88-2.07-1.79a38,38,0,0,1,1-4.64s.4-1.34,2-.75l.89.7S215.83,483.54,208.36,480.65Zm-11.51,22.42c-1.8,0-1.95-1.05-1.95-1.05a6.93,6.93,0,0,0,.75-2.09,4,4,0,0,1,2.84.3,5.73,5.73,0,0,1,2.09,2.39A19.24,19.24,0,0,1,196.85,503.07Z"/><ellipse class="cls-31" cx="126.56" cy="647.69" rx="14.31" ry="24.71" transform="matrix(0, -1, 1, 0, -521.48, 772.41)"/><path class="cls-43" d="M130.77,647.91s-.21,4.44.21,5.6,4.12,2.75,6.76,1.8a10,10,0,0,0,5.07-3.59c.85-1.27,3.83-2.8,4.55-4.23,1.11-2.21-1.06-4-3-4.44a6.77,6.77,0,0,0-6,1.8C136.58,646.54,130.77,647.91,130.77,647.91Z"/><path class="cls-43" d="M110.52,641.94s-.21,4.44.22,5.6,4.12,2.75,6.76,1.8a10,10,0,0,0,5.07-3.59c.84-1.27,3.82-2.8,4.54-4.23,1.11-2.21-1-4-3-4.44a6.78,6.78,0,0,0-6,1.8C116.34,640.57,110.52,641.94,110.52,641.94Z"/><path class="cls-44" d="M110.18,585.62a51.78,51.78,0,0,0,.72,13.19c1.34,6.85.06,39.24-.39,43.47,0,0,3.79,4.67,9.13,0,0-12.47,3.12-34.06,1.56-47.64S110.18,585.62,110.18,585.62Z"/><path class="cls-45" d="M110.57,587.62c.21.78,1,8,12,12.36,6,3.12,6.9,8.46,7.35,13.13s.45,34.73.89,35.62,4.23,4.45,8.9,0c.45-12.91.67-57-.22-62.33S109.9,585.18,110.57,587.62Z"/><path class="cls-34" d="M157.07,562.1a19.11,19.11,0,0,1,2.09-2.69c.6-.45,4.93-1.34,5.08-.6s-2.24,1.8-2.24,1.8,4.63,1,5.53,2.39-4.33,2.09-5.68,2.09a6.59,6.59,0,0,0-2.84.9S155.57,565.09,157.07,562.1Z"/><path class="cls-35" d="M128.1,545.44s9.35,2.67,13,8.57c1.42,2.28,1.56,9.35-.44,14s-.06,21.25-.73,24.59-10.18,5-15.75,4.12-14.22-4.68-14-11.13c.56-18.3.56-27.29,1.34-31.61a14.31,14.31,0,0,1,3.67-7S118.3,543.44,128.1,545.44Z"/><path class="cls-46" d="M139.51,553.4s3.19,1.49,4,6.16,4.25,11.91,4.25,11.91l8.35-10.21a5.34,5.34,0,0,1,3.82,5s-8.71,14.34-12.75,15.62-11.74-15.89-13-19.5S135.69,551.7,139.51,553.4Z"/><path class="cls-47" d="M122.7,518.23s5.18-1.51,9.52,1.17,5,5.67,4.84,9.85c-.21,5.22-.17,11.07-2,15-2.17,4.68-11.52.84-14.36-1s-5.85-9.18-5.51-14.86S117.53,519.23,122.7,518.23Z"/><path class="cls-47" d="M118.75,540.84s2.18,4.37,2.18,5.95,3.38,3.58,7.75,2.78,4.76-1.78,4.76-1.78a21.44,21.44,0,0,1-2.78-5.76C130.07,539.45,118.75,540.84,118.75,540.84Z"/><path class="cls-46" d="M131.81,515.91s1.49.6,4.48,2.1l3,1.49-2.39,2.1a6.29,6.29,0,0,1,3,3.28c.3,1.2-2.1.6-2.1.6a11.94,11.94,0,0,1,.3,3.29c0,2.39-2.09,0-5.08-.6.9.6,1.2,3,1.2,3s-4.49-.6-6.58-1.19c.6.89,1.49,5.08,1.49,5.08s-2.69-3.29-3.28-1.2.89,5.68,2.69,5.38l1.19-.3a6.58,6.58,0,0,1-2.69,3.89,21.85,21.85,0,0,1-6,1.79s-5.68-6-6.28-7.17-2.69-5.38-2.69-9.57a12.45,12.45,0,0,1,3-7.47,10.15,10.15,0,0,1,1.5-3.29c1.19-1.79,6.58-1.2,7.47-1.49a34.72,34.72,0,0,0,4.19-2.69l.3,3,4.48-1.79Z"/><path class="cls-21" d="M248.58,477.55l-18.36-.6a4.54,4.54,0,0,0-4.67,4.37l-.43,13.25a4.52,4.52,0,0,0,4.37,4.67l5.07.17,3.93,5.36,4.28-5.09,5.07.16a4.52,4.52,0,0,0,4.67-4.37l.44-13.25A4.54,4.54,0,0,0,248.58,477.55Z"/><path class="cls-21" d="M233.58,756.55l-18.36-.6a4.54,4.54,0,0,0-4.67,4.37l-.43,13.25a4.52,4.52,0,0,0,4.37,4.67l5.07.17,3.93,5.36,4.28-5.09,5.07.16a4.52,4.52,0,0,0,4.67-4.37l.44-13.25A4.54,4.54,0,0,0,233.58,756.55Z"/><path class="cls-21" d="M1680.58,520.55l-18.36-.6a4.54,4.54,0,0,0-4.67,4.37l-.43,13.25a4.52,4.52,0,0,0,4.37,4.67l5.07.17,3.93,5.36,4.28-5.09,5.07.16a4.52,4.52,0,0,0,4.67-4.37l.44-13.25A4.54,4.54,0,0,0,1680.58,520.55Z"/><path class="cls-21" d="M527.58,574.55l-18.36-.6a4.54,4.54,0,0,0-4.67,4.37l-.43,13.25a4.52,4.52,0,0,0,4.37,4.67l5.07.17,3.93,5.36,4.28-5.09,5.07.16a4.52,4.52,0,0,0,4.67-4.37l.44-13.25A4.54,4.54,0,0,0,527.58,574.55Z"/><path class="cls-21" d="M1306.58,437.55l-18.36-.6a4.54,4.54,0,0,0-4.67,4.37l-.43,13.25a4.52,4.52,0,0,0,4.37,4.67l5.07.17,3.93,5.36,4.28-5.09,5.07.16a4.52,4.52,0,0,0,4.67-4.37l.44-13.25A4.54,4.54,0,0,0,1306.58,437.55Z"/><g class="cls-24"><ellipse class="cls-25" cx="1774.28" cy="967.59" rx="26.11" ry="15.12" transform="matrix(1, 0, 0, 1, -2.74, 5.04)"/></g><path class="cls-25" d="M1765.26,958.63a5,5,0,0,1-2,3.76c-2,1.53-8.55,4-6.82,6.23-.31,1.24,3.92,1.15,6.78-.32s4.29-3.47,5.34-3.39,1.47.12,2-.69-.54-6.59-.54-6.59S1765.83,959.42,1765.26,958.63Z"/><path class="cls-28" d="M1761.19,897.12c0,1,.32,13.27,1,26.23s1.26,18,1.26,18,1.27,15.17,1.9,17.38,3.48,1.26,4.42,0c.63-1.9-.94-18.64.63-29.38s4.11-19.91,4.74-24.33S1761.19,897.12,1761.19,897.12Z"/><path class="cls-25" d="M1783.31,960.94s.63,2.85-2.53,5.69-6.32,4.11-7,6,4.42,2.84,7.9.63,4.74-5,5.68-5,0,.31.95,0c0,0,1.48-.42,1.79-1.48.11-1.37-1.05-6.31-1.05-6.31S1783.52,961.26,1783.31,960.94Z"/><path class="cls-28" d="M1762.14,901.86c.22.82,1.45,7,9,11.27,6.35,3.29,6.79,9,7.76,13.88.73,3.65,6.88,19.94,4.53,34.77-.16,1,.88,5.22,5.82.52.48-13.65.71-57.88-.23-63.52S1761.43,899.27,1762.14,901.86Z"/><path class="cls-25" d="M1789.63,896.81s3.47,8.21,2.21,16.74-.32,13.27-.32,13.27-8.84,5.69-16.11,2.21-13.9-4.1-14.85-7.58c-1-7-1.89-21.48,1.58-26.54S1766.25,902.49,1789.63,896.81Z"/><polygon class="cls-25" points="1745.51 847 1737.43 847 1739.53 861.98 1747.31 862.27 1745.51 847"/><path class="cls-28" d="M1763,856.26a11.28,11.28,0,0,0-6.1,6.11c-1.9,4.64.21,13.69.21,13.69s-2.74-6.32-6.74-9.48-4.43-4.42-4.43-4.42,0-3.37-1.05-4.42c-.63.21-.84,3.16-.84,3.16s-2.74-2.74-4.64-2.74c-1.68.42.21,4.84,1.9,6.32a6.33,6.33,0,0,0,3.79,1.47s5.9,9.06,7.16,11.38,5.27,4.42,7.37,4.63S1764.67,863.64,1763,856.26Z"/><path class="cls-21" d="M1779.35,854.08s11.3,7.53,12.47,10.12,1.8,10-1.88,14c-8.67,9.26,3.8,13.77,1.27,26.75-.69,3.53-11.39,5.38-17.27,4.44s-13.06-3.83-13.06-10.66,4.72-13.19-1.27-21.48c-4.1-5.69,1.58-10.74,1.16-18.2-.14-2.42,4-4,4-4S1769,852,1779.35,854.08Z"/><path class="cls-28" d="M1791.82,864.2a10.61,10.61,0,0,1-.3,12.39c-4.74,6.32-11.37,10.42-13.58,11.06s-13.9-1.27-17.38-5.69c-.63.31-3.16-.63-3.47-1.9s2.52-2.84,4.42-2.21a4.27,4.27,0,0,1,2.53,2.21s9.79,1,12,1,8.22-8.84,8.85-11.69S1788.65,863.18,1791.82,864.2Z"/><path class="cls-37" d="M1769.71,852.9a1.32,1.32,0,0,1,0,.36c-.1.81-.43,2.89-.48,3.76s.94,2.24,3.17,2.12,6-1.18,7.18-3.88a60.61,60.61,0,0,1,.12-7.88Z"/><path class="cls-28" d="M1782.65,847c-1.73,5.25-6.53,7.06-9.18,7.94s-5.82.53-7.58-1.23-3.36-9.71-2.3-16.59,6.35-10.94,12.53-9.7S1787.41,832.5,1782.65,847Z"/><path class="cls-38" d="M1777.77,837.91c-1.38,1.89-5.16-.2-6.15-1.4-1.08,1.59-2.56,2.81-3.71,4.42a.93.93,0,0,1-.62.47.9.9,0,0,1-.61-.35l-1.52-1.52c-.52.07-.61.75-.62,1.27a4.87,4.87,0,0,1-1,3.08,2.64,2.64,0,0,1-3,.86c-1.31-.57-1.67-2.25-1.69-3.68a5,5,0,0,1,.61-2.84,2.1,2.1,0,0,1,2.54-.89c-2-.42-4.58.55-5.88-1-1.13-1.38-.17-3.43.79-4.93,1.35-2.1,1.17-4,2.23-6,.87-1.59,3.24-1.24,4.91-.55,5.69,2.38,5.18-2.92,9.57-2.39a4.47,4.47,0,0,1,3.88,4.63,4.89,4.89,0,0,1,5.89-1.77,3.79,3.79,0,0,1,2.15,2.32,2.68,2.68,0,0,1-.95,2.91,6.6,6.6,0,0,1,6.27,4.62,1.6,1.6,0,0,1-.6,2,6.27,6.27,0,0,1-5.38,1.31c1.16,1.84,4.09,2.63,4.13,4.81a2.71,2.71,0,0,1-2.08,2.5,5,5,0,0,1-3.39-.48c.86.53,1.83,1.23,1.87,2.24a2.13,2.13,0,0,1-2.24,1.94,5.62,5.62,0,0,1-3-1.22A5.74,5.74,0,0,1,1778,846a2.16,2.16,0,0,1,.86-2.81,4,4,0,0,1-1.52-.25A5,5,0,0,1,1777.77,837.91Z"/><path class="cls-21" d="M1728.29,832.55l18.36-.6a4.53,4.53,0,0,1,4.66,4.37l.44,13.25a4.53,4.53,0,0,1-4.37,4.67l-5.08.17-3.92,5.36-4.28-5.09-5.08.16a4.52,4.52,0,0,1-4.66-4.37l-.44-13.25A4.54,4.54,0,0,1,1728.29,832.55Z"/><path class="cls-21" d="M247.58,99.55,229.22,99a4.54,4.54,0,0,0-4.67,4.37l-.43,13.25a4.52,4.52,0,0,0,4.37,4.67l5.07.17,3.93,5.36,4.28-5.09,5.07.16a4.52,4.52,0,0,0,4.67-4.37l.44-13.25A4.54,4.54,0,0,0,247.58,99.55Z"/><path class="cls-21" d="M1383.58,105.55l-18.36-.6a4.54,4.54,0,0,0-4.67,4.37l-.43,13.25a4.52,4.52,0,0,0,4.37,4.67l5.07.17,3.93,5.36,4.28-5.09,5.07.16a4.52,4.52,0,0,0,4.67-4.37l.44-13.25A4.54,4.54,0,0,0,1383.58,105.55Z"/><path class="cls-21" d="M1550.31,285.37l-18.36-.25a4.53,4.53,0,0,0-4.58,4.46l-.18,13.26a4.53,4.53,0,0,0,4.46,4.58l5.08.07,4,5.29,4.17-5.18,5.08.07a4.55,4.55,0,0,0,4.59-4.46l.17-13.26A4.52,4.52,0,0,0,1550.31,285.37Z"/><path class="cls-21" d="M1811.31,111.37l-18.36-.25a4.53,4.53,0,0,0-4.58,4.46l-.18,13.26a4.53,4.53,0,0,0,4.46,4.58l5.08.07,4,5.29,4.17-5.18,5.08.07a4.55,4.55,0,0,0,4.59-4.46l.17-13.26A4.52,4.52,0,0,0,1811.31,111.37Z"/><ellipse class="cls-31" cx="1659.98" cy="702.6" rx="14.27" ry="24.63" transform="translate(952.68 2360.58) rotate(-89.84)"/><path class="cls-25" d="M1664.17,702.82s-.21,4.42.21,5.58,4.11,2.74,6.75,1.79a9.93,9.93,0,0,0,5-3.58c.85-1.26,3.82-2.79,4.53-4.21,1.11-2.21-1-4-3-4.43a6.76,6.76,0,0,0-6,1.79C1670,701.45,1664.17,702.82,1664.17,702.82Z"/><path class="cls-25" d="M1644,696.87s-.21,4.42.21,5.58,4.11,2.74,6.74,1.79a9.92,9.92,0,0,0,5.06-3.58c.84-1.26,3.81-2.79,4.53-4.21,1.11-2.21-1-4-3-4.43a6.76,6.76,0,0,0-6,1.79C1649.78,695.5,1644,696.87,1644,696.87Z"/><path class="cls-48" d="M1643.65,640.71a51.47,51.47,0,0,0,.72,13.15c1.33,6.83.05,39.12-.39,43.34,0,0,2.19,5.1,7.52.44,0-12.43,4.69-34.4,3.13-47.94S1643.65,640.71,1643.65,640.71Z"/><path class="cls-48" d="M1644,642.71c.21.77,1,8,11.92,12.32,6,3.11,6.88,8.43,7.33,13.09s.44,34.63.89,35.51,2.33,4.41,7,0c.44-12.87,2.55-56.78,1.66-62.11S1643.37,640.27,1644,642.71Z"/><path class="cls-42" d="M1643.65,640.71,1642.56,669s8.94,6,14.6.6c-.3-1.79.3-12.22.3-12.22l1.49,14.31s9.54,6.26,15.8-.6c-.6-8.64-1.42-23.4-1.42-23.4S1648,652.34,1643.65,640.71Z"/><path class="cls-48" d="M1648.32,604.25s-5.37.2-5.76,5.36,4.37,7.95,9.93,7.15S1648.32,604.25,1648.32,604.25Z"/><path class="cls-49" d="M1661.51,600.65s9.32,2.67,13,8.55c1.41,2.28,1.55,9.32-.45,14s0,21.2-.72,24.53-10.15,5-15.7,4.1-14.18-4.66-14-11.1c.56-18.25.56-27.2,1.33-31.51a14.28,14.28,0,0,1,3.66-7S1651.75,598.66,1661.51,600.65Z"/><path class="cls-48" d="M1656.13,573.52s5.16-1.5,9.49,1.17,5,5.66,4.83,9.82.16,10.32-2,15-11.49.83-14.32-1-5.82-9.15-5.49-14.81S1651,574.52,1656.13,573.52Z"/><path class="cls-48" d="M1652.19,596.07s2.18,4.35,2.18,5.93,3.36,3.57,7.72,2.78,4.75-1.79,4.75-1.79a21,21,0,0,1-2.77-5.74C1663.47,594.68,1652.19,596.07,1652.19,596.07Z"/><path class="cls-36" d="M1670.18,581.4s-1-7.36-2.59-9.94c-4.37-1.59-13.51-.79-16.89,2.58-2.38,2.19-3.57,8.55-3.57,8.55s-.6,4.77,3.37,11.32a20.11,20.11,0,0,1,2.59,4.57c.79-.19,5,2.39,8.94,0l1.79-5.36s-3.38-5.17-1.2-7,3,1.79,3,1.79l.8-1.79-1.39-5Z"/><path class="cls-48" d="M1674,610.8s-2.78-2.78-6.36.8-.79,9.14,4,10.73,15.1.4,19.47-3.18-1.59-19.47-6-22.65a48.62,48.62,0,0,0-2.59-5.77c-1-1.58-4.37-3.37-4.57-2.38s0,5.17.6,6.16c-.6-.2-3-.2-3,.4s1.19,1.59,3.18,1.79a4.31,4.31,0,0,1,3,1.59s5,10.73,4,14.3C1684.08,614.18,1679.91,614.58,1674,610.8Z"/><path class="cls-28" d="M1702.55,613.45s-1.49,4.16-.33,5.5c.67.33,1.17-.84,1.17-.84s.49,3.67,1.33,4.66,3.33-1.66,3.33-5.16S1705.38,610.62,1702.55,613.45Z"/><path class="cls-50" d="M1707.16,570.78a53.06,53.06,0,0,0-3.55,14.65c-.89,8.66-2.22,28-2.22,28s2.66,2.88,6-.22c0,0,1.78-17.32,2.89-24.86s4.21-11.1,2.66-14.43S1707.82,569.45,1707.16,570.78Z"/><g class="cls-24"><ellipse class="cls-25" cx="1715.51" cy="674.32" rx="14.27" ry="24.63" transform="translate(1036.34 2387.92) rotate(-89.84)"/></g><path class="cls-51" d="M1724.86,668.22a7.27,7.27,0,0,1-2.17,5c-2.33,2.5-3.83,5.33-2.66,7.49s6.32,1.5,8.32-.17,1.67-3.33,3.5-5.66,2.16-3.66,1.49-6.15S1727.85,666.88,1724.86,668.22Z"/><path class="cls-51" d="M1707.38,663.22a7.07,7.07,0,0,1-2.83,4.33c-2.5,1.83-3.83,3.66-3.5,6.49s5,2.5,7.33,1.33,1.83-2.33,3.49-4.16,2.83-2,3.16-4-.16-4.16-1.16-4.5S1710.71,660.89,1707.38,663.22Z"/><path class="cls-40" d="M1706.05,609.62s.55,46.28,1.22,54.49c.22,2,5.1,4,7.1,1.11,2-3.77.78-42.5,3.22-49.6C1716.92,610.51,1708.49,608.74,1706.05,609.62Z"/><path class="cls-25" d="M1706.49,611.4a22.8,22.8,0,0,0,10,11.54c6,3.11,6.88,8.43,7.32,13.09s.44,32.41.89,33.3,4.22,4.43,8.88,0c.44-12.88.66-54.6-.23-59.93S1705.82,609,1706.49,611.4Z"/><path class="cls-34" d="M1735.84,619.67a32.41,32.41,0,0,0-.55,4.55c0,1.66,1.66.11,1.66.11s.45,4.33,1.34,5,3-.78,3.44-4.22-.67-7.32-2.22-8.1S1735.84,619.67,1735.84,619.67Z"/><path class="cls-52" d="M1724.24,567.23s10.66,7.11,11.77,9.55,1.55,9.32-.45,14-.66,21.53-1.33,24.86-9.54,4.66-15.09,3.77-14-4.66-14-11.1,1.11-18.42.66-21.3a49,49,0,0,1,.89-15.1c.56-2.22,3.77-3.77,3.77-3.77S1714.48,565.24,1724.24,567.23Z"/><path class="cls-50" d="M1734,574.56s7.32,5.55,8,29.52c0,14-.22,15.75-.22,15.75s-4.22,4-6.44-.22c0-5.1.89-19.09-1.33-28s-4-9.77-4-9.77S1728.68,575.22,1734,574.56Z"/><path class="cls-28" d="M1715.15,566.12a1,1,0,0,1,0,.34c-.09.77-.4,2.73-.45,3.55s.89,2.11,3,2,5.66-1.11,6.77-3.67a58.78,58.78,0,0,1,.11-7.43Z"/><path class="cls-34" d="M1727.35,560.52c-1.63,5-6.16,6.66-8.65,7.49s-5.5.5-7.16-1.16-3.16-9.16-2.17-15.65,6-10.32,11.82-9.16S1731.85,546.87,1727.35,560.52Z"/><path class="cls-38" d="M1713.22,551.29s-3.87,2.09-5.66-2.39,2.09-4.47,2.09-4.47a4.88,4.88,0,0,1,1.49-5.36c2.68-2.09,6.55,0,6.55,0s2.39-4.17,6.56-1.49,3.88,5.36,3.88,5.36,3.27-.89,4.47,3.28-1.79,6-1.79,6,1.79,0,1.19,3.28-3.87,6-5.07,6-1.49-2.68-1.49-2.68a3.47,3.47,0,0,0,2.39-3.58c0-3-3.28-.29-3.28-.29s-3.58,1.78-3.88-1.49l-.29-3.28S1718,556.65,1713.22,551.29Z"/><path class="cls-28" d="M203.13,875.6s-1.52,4.21-.34,5.55c.68.34,1.18-.84,1.18-.84s.5,3.7,1.35,4.71,3.36-1.68,3.36-5.21S206,872.74,203.13,875.6Z"/><path class="cls-53" d="M207.78,832.47a53.55,53.55,0,0,0-3.59,14.81C203.3,856,202,875.54,202,875.54s2.69,2.92,6.06-.22c0,0,1.79-17.5,2.91-25.13s4.27-11.21,2.7-14.58S208.46,831.13,207.78,832.47Z"/><g class="cls-24"><ellipse class="cls-25" cx="216.22" cy="937.12" rx="14.42" ry="24.9" transform="translate(-721.51 1150.69) rotate(-89.84)"/></g><path class="cls-51" d="M225.67,931a7.3,7.3,0,0,1-2.19,5c-2.35,2.52-3.87,5.38-2.69,7.57s6.39,1.52,8.41-.17,1.69-3.36,3.54-5.72,2.18-3.7,1.51-6.22S228.7,929.61,225.67,931Z"/><path class="cls-51" d="M208,925.91a7.07,7.07,0,0,1-2.86,4.37c-2.52,1.85-3.87,3.7-3.53,6.56s5,2.52,7.4,1.35,1.86-2.36,3.54-4.21,2.86-2,3.19-4-.16-4.2-1.17-4.54S211.37,923.55,208,925.91Z"/><path class="cls-54" d="M206.66,871.73s.56,46.77,1.23,55.07c.23,2,5.16,4,7.18,1.12,2-3.81.79-42.95,3.25-50.13C217.65,872.63,209.13,870.83,206.66,871.73Z"/><path class="cls-54" d="M207.11,873.52a23.06,23.06,0,0,0,10.09,11.67c6.06,3.14,7,8.52,7.41,13.23s.44,32.76.89,33.65,4.26,4.49,9,0c.44-13,.67-55.18-.23-60.56S206.43,871.06,207.11,873.52Z"/><path class="cls-34" d="M236.78,881.88a32.73,32.73,0,0,0-.56,4.6c0,1.68,1.68.11,1.68.11s.45,4.38,1.35,5,3-.79,3.47-4.26-.67-7.41-2.24-8.19S236.78,881.88,236.78,881.88Z"/><path class="cls-21" d="M225.05,828.88s10.77,7.18,11.89,9.65,1.57,9.42-.45,14.13-.67,21.76-1.34,25.13-9.65,4.71-15.26,3.81-14.13-4.71-14.13-11.22,1.12-18.62.67-21.53a49.79,49.79,0,0,1,.9-15.26c.56-2.24,3.82-3.81,3.82-3.81S215.18,826.86,225.05,828.88Z"/><path class="cls-53" d="M234.92,836.29s7.41,5.6,8.08,29.83c0,14.13-.22,15.93-.22,15.93s-4.27,4-6.51-.23c0-5.16.9-19.29-1.35-28.26s-4-9.87-4-9.87S229.54,837,234.92,836.29Z"/><path class="cls-28" d="M215.86,827.76a1,1,0,0,1,0,.34c-.09.78-.41,2.76-.45,3.59s.89,2.13,3,2,5.72-1.13,6.84-3.71a60.05,60.05,0,0,1,.11-7.51Z"/><path class="cls-34" d="M228.19,822.1c-1.64,5-6.22,6.73-8.74,7.57s-5.56.5-7.24-1.18-3.2-9.25-2.19-15.81,6.06-10.44,11.95-9.26S232.74,808.3,228.19,822.1Z"/><path class="cls-38" d="M213.91,812.77s-3.91,2.11-5.72-2.41,2.11-4.52,2.11-4.52a4.94,4.94,0,0,1,1.5-5.42c2.72-2.11,6.63,0,6.63,0s2.41-4.22,6.63-1.51,3.92,5.42,3.92,5.42,3.31-.9,4.52,3.32-1.81,6-1.81,6,1.81,0,1.2,3.31-3.91,6-5.12,6-1.5-2.71-1.5-2.71a3.5,3.5,0,0,0,2.41-3.62c0-3-3.32-.3-3.32-.3s-3.61,1.81-3.91-1.5l-.31-3.32S218.73,818.19,213.91,812.77Z"/><path class="cls-28" d="M630.49,508.06s-1.39,3.85-.31,5.08c.62.31,1.08-.77,1.08-.77s.46,3.39,1.23,4.32,3.08-1.54,3.08-4.78S633.11,505.44,630.49,508.06Z"/><path class="cls-53" d="M634.75,468.57a48.89,48.89,0,0,0-3.28,13.55c-.83,8-2.06,25.89-2.06,25.89s2.47,2.67,5.55-.21c0,0,1.64-16,2.67-23s3.9-10.27,2.46-13.35S635.37,467.33,634.75,468.57Z"/><g class="cls-24"><ellipse class="cls-25" cx="642.48" cy="564.4" rx="13.21" ry="22.8" transform="translate(76.27 1205.28) rotate(-89.84)"/></g><path class="cls-51" d="M651.13,558.75a6.67,6.67,0,0,1-2,4.62c-2.16,2.31-3.54,4.93-2.47,6.93s5.86,1.39,7.71-.15,1.54-3.09,3.23-5.24,2-3.39,1.39-5.7S653.9,557.51,651.13,558.75Z"/><path class="cls-51" d="M635,554.12a6.49,6.49,0,0,1-2.61,4c-2.32,1.69-3.55,3.39-3.24,6s4.62,2.31,6.78,1.23,1.69-2.16,3.23-3.85,2.62-1.85,2.93-3.7-.15-3.85-1.08-4.16A5.34,5.34,0,0,0,635,554.12Z"/><path class="cls-54" d="M633.72,504.51s.52,42.83,1.13,50.44c.21,1.84,4.73,3.69,6.58,1,1.84-3.49.71-39.34,3-45.91C643.79,505.34,636,503.69,633.72,504.51Z"/><path class="cls-54" d="M634.13,506.16a21.19,21.19,0,0,0,9.25,10.68c5.54,2.88,6.36,7.81,6.78,12.12s.41,30,.82,30.81,3.9,4.11,8.21,0c.41-11.91.62-50.53-.2-55.46S633.52,503.9,634.13,506.16Z"/><path class="cls-34" d="M661.3,513.81a30,30,0,0,0-.51,4.21c0,1.54,1.54.1,1.54.1s.41,4,1.23,4.63,2.78-.72,3.19-3.91-.62-6.78-2.06-7.5S661.3,513.81,661.3,513.81Z"/><path class="cls-21" d="M650.57,465.28s9.86,6.57,10.88,8.83,1.44,8.63-.41,12.94-.61,19.93-1.23,23-8.83,4.31-14,3.49-12.94-4.31-12.94-10.27,1-17,.62-19.72a45.19,45.19,0,0,1,.82-14c.51-2,3.49-3.49,3.49-3.49S641.53,463.43,650.57,465.28Z"/><path class="cls-53" d="M659.6,472.06s6.78,5.13,7.4,27.32c0,12.94-.21,14.58-.21,14.58s-3.9,3.7-5.95-.2c0-4.73.82-17.67-1.24-25.88s-3.69-9-3.69-9S654.67,472.67,659.6,472.06Z"/><path class="cls-28" d="M642.14,464.25a1,1,0,0,1,0,.31c-.08.71-.38,2.53-.42,3.29s.83,1.95,2.78,1.85,5.23-1,6.26-3.39a55.43,55.43,0,0,1,.1-6.88Z"/><path class="cls-34" d="M653.44,459.07c-1.51,4.58-5.7,6.16-8,6.93s-5.08.46-6.62-1.08-2.93-8.47-2-14.48,5.55-9.55,10.94-8.48S657.6,446.43,653.44,459.07Z"/><path class="cls-38" d="M640.37,450.52a3.62,3.62,0,0,1-5.25-2.2c-1.65-4.14,1.94-4.14,1.94-4.14a4.54,4.54,0,0,1,1.37-5c2.49-1.93,6.07,0,6.07,0s2.21-3.86,6.07-1.38,3.59,5,3.59,5,3-.83,4.14,3-1.66,5.52-1.66,5.52,1.66,0,1.11,3-3.59,5.52-4.69,5.52-1.38-2.48-1.38-2.48a3.2,3.2,0,0,0,2.2-3.31c0-2.76-3-.28-3-.28s-3.31,1.66-3.59-1.38l-.27-3S644.78,455.49,640.37,450.52Z"/><ellipse class="cls-31" cx="152.69" cy="227.43" rx="13.14" ry="22.69" transform="translate(-75.17 379.47) rotate(-89.84)"/><path class="cls-43" d="M147.71,221.8a6.68,6.68,0,0,0,2,4.6c2.14,2.3,3.52,4.91,2.45,6.9s-5.83,1.38-7.66-.15-1.54-3.07-3.22-5.21-2-3.38-1.38-5.68S145,220.58,147.71,221.8Z"/><path class="cls-43" d="M163.81,217.21a6.47,6.47,0,0,0,2.61,4c2.3,1.69,3.52,3.37,3.22,6s-4.6,2.3-6.75,1.23-1.68-2.15-3.22-3.84-2.6-1.84-2.91-3.67.15-3.84,1.07-4.14S160.75,215.06,163.81,217.21Z"/><path class="cls-44" d="M165,167.84s-.51,42.62-1.13,50.18c-.2,1.84-4.7,3.68-6.54,1-1.84-3.48-.71-39.15-3-45.69C155,168.66,162.79,167,165,167.84Z"/><path class="cls-45" d="M164.63,169.48a21.09,21.09,0,0,1-9.2,10.63c-5.52,2.86-6.34,7.76-6.74,12.06s-.41,29.84-.82,30.66-3.89,4.08-8.18,0c-.41-11.86-.61-50.29.21-55.19S165.24,167.23,164.63,169.48Z"/><path class="cls-28" d="M162.41,133.33s4.12,1.38,5.76,8.24,2.2,8.78,2.2,8.78a21,21,0,0,1,6.59-3.29c3.84-1.1,4.94-3.57,4.94-3.57s-.82-2.2,0-3-.55-4.67.55-4.12,1.92,2.75,1.92,4.12v1.37s2.74-2.19,4.39-1.1,0,2.48,0,2.48a4.18,4.18,0,0,1,.55,3c-.27,1.93-3,2.48-4.39,2.48s-6.86,5.21-10.43,6.86-4.39,4.39-5.77,3.57-7.13-5.49-8.78-9.34S155,138.55,162.41,133.33Z"/><path class="cls-26" d="M148.28,128.8s-9.81,6.54-10.84,8.79-1.43,8.59.41,12.88.62,19.83,1.23,22.89,8.79,4.29,13.9,3.48,12.88-4.3,12.88-10.22-1-17-.62-19.63a34.59,34.59,0,0,0-.77-12.15c-.51-2-3.43-3.43-3.43-3.43S158,129.76,148.28,128.8Z"/><path class="cls-28" d="M142.55,149.89c.92-7.32,0-11.16-2-12.07s-3.1-.23-3.1-.23a16.66,16.66,0,0,0-4,12.3c0,3.3-1.83,11.17-1.46,14.46s.37,8.86,1.34,11.25a11,11,0,0,0-1.1,6.5c.41,3.17,2.35,4.5,3.17,3.88s1.22-4.6,1.22-4.6,1.54,1.44,1.54-.1a29.28,29.28,0,0,0-.52-4.19,10.18,10.18,0,0,0-1.36-1.71c.87-1.39,1.38-7.84,1.38-11.21S141.64,157.21,142.55,149.89Z"/><path class="cls-28" d="M145.42,122.62c1.5,4.56,5.67,6.13,8,6.9s5.06.46,6.59-1.08,2.91-8.43,2-14.41-5.52-9.5-10.88-8.43S141.28,110.05,145.42,122.62Z"/><path class="cls-28" d="M156.66,127.78a1,1,0,0,0,0,.31c.08.71.38,2.51.42,3.27s-.82,1.94-2.76,1.84-5.22-1-6.24-3.38A54.8,54.8,0,0,0,148,123Z"/><path class="cls-38" d="M158.29,123.86a7.6,7.6,0,0,0-1.64-.27c-.69,0-2.34,1.65-2.34,1.65L152,125a7.24,7.24,0,0,0,2.88,1.24,7.54,7.54,0,0,0,3.43-1.1,8.89,8.89,0,0,0,1.92.82c.42,0,2.2-1.92,2.2-1.92l-1.65.55L159.12,123Z"/><path class="cls-26" d="M142.92,114.67s13.91,3.38,20,.45a43.23,43.23,0,0,0-.55-4.39s-9.7.37-16.47-.82Z"/><path class="cls-38" d="M156.37,111.37s-1.23,6-3.16,8c-1,1.1-4.8,1.93-4.8,1.93a21,21,0,0,0,2.2-3.16c-1.51,1.65-2.47,2.74-4,3a13.09,13.09,0,0,1-3.44,0l1-1.24-2.61,1a4.18,4.18,0,0,0,1.23-3.29,31.71,31.71,0,0,1,1.79-9.47c1.1-2.88,4.53-4,4.53-4l5.35.69a15.67,15.67,0,0,1,4.8,0c2.47.41,5.08,3.75,5.26,5.39s-.18,6.77,0,7.51a3.62,3.62,0,0,0,1.1,1.46s-2.93-.55-3.47-1.28-2.57-7.5-2.57-7.5l-1.64.55-1.28-1.29Z"/><g class="cls-24"><ellipse class="cls-25" cx="204.34" cy="249.86" rx="13.14" ry="22.69" transform="translate(-46.09 453.49) rotate(-89.84)"/></g><path class="cls-45" d="M196.7,250.1a8.83,8.83,0,0,1-4,.37c-2-.37-4.21-.92-5.12,0s-.18,2,2.38,3.11a34.57,34.57,0,0,0,5.31,1.65c.54.18,2.92,1.09,4.2.54s1.29-2.56,1.1-3.11a17.9,17.9,0,0,1-.36-2.19Z"/><path class="cls-45" d="M217.29,243.24a8.86,8.86,0,0,1-4,.37c-2-.37-4.21-.92-5.12,0s-.19,2,2.38,3.11a34.08,34.08,0,0,0,5.3,1.64c.55.19,2.93,1.1,4.21.55s1.28-2.56,1.1-3.11a18.45,18.45,0,0,1-.37-2.19Z"/><path class="cls-30" d="M222.2,193.33a47.32,47.32,0,0,1-.67,12.11c-1.22,6.28-1.08,35.65-.67,39.54,0,0-1.29,3.47-5.31-.19,0-11.44-4.9-30.72-3.47-43.18S222.2,193.33,222.2,193.33Z"/><path class="cls-25" d="M221.84,195.17c-.19.71-.92,7.36-11,11.34-5.37,3.15-5.51,7.64-5.92,11.93s-4.34,31.21-4.75,32-.77,4.89-5.07.8c-.4-11.85-.61-52.32.21-57.23S222.45,192.92,221.84,195.17Z"/><path class="cls-28" d="M215.18,157.14a19.88,19.88,0,0,1,8.24,4.94c3.29,3.57,8,9.88,9.33,13.17s-9.61,14.28-11.8,15.65c-2.47,1.1-3.3-2.19-1.92-3.57s6.31-9.6,6.31-10.43-10.43-8.23-11.8-11S212.16,158.51,215.18,157.14Z"/><path class="cls-52" d="M205.74,156.43s-8.58,2.46-12,7.87c-1.31,2.1-1.84,8.79.41,12.88,4.51,8.23-1,14.82.66,22.59.64,3.06,9.35,4.59,14.46,3.78s14.17-4.44,12.88-10.22c-5-22.47-.52-25.06-1.23-29a13.17,13.17,0,0,0-3.37-6.44S214.74,154.59,205.74,156.43Z"/><path class="cls-28" d="M210.7,131.44s-4.75-1.37-8.74,1.08-4.6,5.21-4.44,9-.16,9.51,1.84,13.8,10.57.77,13.18-.92,5.37-8.43,5.06-13.64S215.45,132.36,210.7,131.44Z"/><path class="cls-28" d="M214.33,152.21s-2,4-2,5.47-3.1,3.28-7.11,2.55-4.37-1.64-4.37-1.64a19.68,19.68,0,0,0,2.55-5.29C203.94,150.93,214.33,152.21,214.33,152.21Z"/><path class="cls-38" d="M200.08,132.71a9.69,9.69,0,0,0-3,7.68c.27,4.94,4.94,4.12,6,6.59.83-1.1,0-3.57,0-3.57s1.93,1.92,2.2,3.3.27,3.84,1.65,5.49,6.36,2.28,6.36,2.28,5.44-5.3,6-11.89-1.93-12.53-6.59-13.18C202.83,128,200.08,132.71,200.08,132.71Z"/><path class="cls-55" d="M214.91,135.45s1.92-4.66,5.49-3.29,6,3.29,6,9.06-.55,10.15,3,13.72c-1.1,1.1-6.59.28-8.51-3.84A18.67,18.67,0,0,1,219,144v4.67s-3.78-1.79-2.48-10.16C216.77,137.09,213,139,214.91,135.45Z"/><path class="cls-28" d="M199.54,164.55s-8.79-7.41-11.81-13.18c-2.94-5.61,1.14-16.41,1.61-21.28a10.83,10.83,0,0,0,2.6-2.23c.73-1.1,3.11-2.2,2.38-2.56s-3.11.54-3.11.54,3.84-4.75,4-6-3.12-.55-5.13.91-4,7.5-3.75,9.52c-.82,1.09-5.76,8.51-6.31,15.64s1.37,9.61,1.37,9.61,6.59,15.65,12.63,19.22S202.28,168.39,199.54,164.55Z"/><ellipse class="cls-31" cx="1331.8" cy="246.55" rx="23.79" ry="13.78" transform="translate(-0.69 3.78) rotate(-0.16)"/><path class="cls-30" d="M1332.9,247.25s-.2,4.27.2,5.39,4,2.65,6.51,1.73a9.63,9.63,0,0,0,4.89-3.46c.81-1.22,3.68-2.69,4.37-4.07,1.07-2.12-1-3.86-2.85-4.27a6.48,6.48,0,0,0-5.79,1.73C1338.5,245.93,1332.9,247.25,1332.9,247.25Z"/><path class="cls-30" d="M1313.41,241.5s-.2,4.28.21,5.39,4,2.65,6.51,1.73a9.53,9.53,0,0,0,4.88-3.45c.81-1.22,3.68-2.7,4.37-4.07,1.07-2.13-1-3.87-2.85-4.28a6.55,6.55,0,0,0-5.79,1.73C1319,240.18,1313.41,241.5,1313.41,241.5Z"/><path class="cls-30" d="M1313.08,187.28a49.55,49.55,0,0,0,.7,12.7c1.28,6.59,0,37.77-.38,41.84,0,0,3.65,4.5,8.79,0,0-12,3-32.79,1.5-45.86S1313.08,187.28,1313.08,187.28Z"/><path class="cls-30" d="M1313.46,189.21c.2.75,1,7.72,11.51,11.9,5.79,3,6.65,8.14,7.08,12.64s.43,33.43.85,34.29,4.08,4.28,8.58,0c.59-17.29,2.92-36.59-3.46-52.89-.91-2.33-1.44-4.85-2.36-7.13-1.07-2.65-.32-2.24-3.37-2.5C1330.66,185.38,1312.81,186.83,1313.46,189.21Z"/><path class="cls-18" d="M1317.9,150.1a17.65,17.65,0,0,0-5.62,15.07c1.15,9.5,13,.86,13.24-5.47S1319.78,148.85,1317.9,150.1Z"/><path class="cls-56" d="M1330.33,148.6s9,2.57,12.54,8.25c5.1,8.2-4.22,16.91-5.63,24.45a65.53,65.53,0,0,0-.8,11.46,5.19,5.19,0,0,1-.81,3.33,4.69,4.69,0,0,1-3.18,1.3c-6.47.76-19.65-.93-19.37-10.11.54-17.62.54-26.27,1.29-30.43a13.83,13.83,0,0,1,3.53-6.75S1320.9,146.67,1330.33,148.6Z"/><path class="cls-18" d="M1342.79,156.82c3.09,1.55,5.07,9.47,6.34,12.41a45.62,45.62,0,0,0,4.92-4.91c1.19-1.39,2.33-4,3.84-4.95,3.66-2.37,4.09,1.62,3.16,4.14-2,5.5-5.91,10.51-9.5,15.1-8.08,10.36-12.74-14.06-14.5-17.55A7,7,0,0,1,1336,158C1336,153.88,1340.84,155.72,1342.79,156.82Z"/><polygon class="cls-57" points="1355.72 141 1364.72 141 1360.22 158.7 1352.46 156.53 1355.72 141"/><path class="cls-18" d="M1357.21,159.54l-.18-5.95a2,2,0,0,1,.39-1.54,1.7,1.7,0,0,1,.89-.38,6,6,0,0,1,5.51,1.62,4.45,4.45,0,0,1,.4,5.52c-.79,1-2,1.56-2.94,2.46"/><path class="cls-18" d="M1325.14,122.4s5-1.45,9.16,1.13,4.82,5.46,4.66,9.48.16,10-1.93,14.47-11.09.8-13.82-1-5.63-8.84-5.31-14.3S1320.15,123.37,1325.14,122.4Z"/><path class="cls-28" d="M1321.33,144.17s2.1,4.2,2.1,5.73,3.25,3.44,7.46,2.68,4.59-1.72,4.59-1.72a20.36,20.36,0,0,1-2.68-5.54C1332.23,142.83,1321.33,144.17,1321.33,144.17Z"/><path class="cls-58" d="M1338.74,130.86c-.23.9-1,.6-3,.87s-4.86,1.52-5.75,3.38c-1.44,3,.59,3.29,2.83,4.64,3.92,2.37,10.94,12.32,2.4,12.43-5.74.07-4.54,4-5,8-.74,6.65-10.62,7.07-15.31,5-2.16-.93-3.74-3.55-2.77-5.69l-4.32-.05a1.76,1.76,0,0,1-1-.24,1.57,1.57,0,0,1-.47-1c-.62-4.07,2.31-7.74,5-10.81,4-4.45,4.66-6.81,4.26-12.29a15,15,0,0,1,6.15-12.58c4.25-2.82,10.7-2.73,14.35,1.08a9.76,9.76,0,0,1,2.68,5.37A7.12,7.12,0,0,1,1338.74,130.86Z"/><path class="cls-21" d="M376,275.55l18.35-.6a4.53,4.53,0,0,1,4.67,4.37l.44,13.25a4.54,4.54,0,0,1-4.37,4.67l-5.08.17-3.93,5.36-4.27-5.09-5.08.16a4.54,4.54,0,0,1-4.67-4.37l-.43-13.25A4.53,4.53,0,0,1,376,275.55Z"/><ellipse class="cls-31" cx="422.13" cy="451.18" rx="13.82" ry="23.86" transform="translate(-30.24 872.03) rotate(-89.84)"/><path class="cls-30" d="M421,451.88s.2,4.28-.2,5.4-4,2.66-6.54,1.74a9.59,9.59,0,0,1-4.89-3.47c-.82-1.22-3.7-2.7-4.39-4.08-1.08-2.14,1-3.88,2.85-4.29a6.52,6.52,0,0,1,5.82,1.74C415.42,450.55,421,451.88,421,451.88Z"/><path class="cls-30" d="M440.58,446.11s.21,4.29-.2,5.41-4,2.65-6.53,1.73a9.47,9.47,0,0,1-4.9-3.47c-.82-1.22-3.7-2.7-4.39-4.08-1.07-2.13,1-3.88,2.86-4.28a6.53,6.53,0,0,1,5.81,1.73C435,444.78,440.58,446.11,440.58,446.11Z"/><path class="cls-30" d="M440.92,391.71a49.86,49.86,0,0,1-.7,12.74c-1.29,6.61-.06,37.9.37,42,0,0-3.65,4.52-8.81,0,0-12-3-32.9-1.51-46S440.92,391.71,440.92,391.71Z"/><path class="cls-30" d="M440.54,393.65c-.21.74-1,7.74-11.56,11.93-5.8,3-6.66,8.17-7.09,12.69s-.43,33.54-.86,34.4-4.09,4.3-8.6,0c-.6-17.35-2.93-36.71,3.46-53.07.92-2.33,1.45-4.86,2.38-7.15,1.07-2.65.31-2.25,3.37-2.51C423.27,389.8,441.19,391.25,440.54,393.65Z"/><path class="cls-18" d="M436.08,354.41a17.71,17.71,0,0,1,5.64,15.11c-1.16,9.53-13,.87-13.29-5.48S434.19,353.15,436.08,354.41Z"/><path class="cls-59" d="M423.61,352.9s-9,2.58-12.58,8.28c-5.12,8.23,4.23,17,5.65,24.53a65.92,65.92,0,0,1,.8,11.5,5.17,5.17,0,0,0,.81,3.34,4.72,4.72,0,0,0,3.19,1.3c6.49.76,19.72-.93,19.44-10.14-.55-17.68-.55-26.36-1.3-30.53a13.87,13.87,0,0,0-3.54-6.77S433.07,351,423.61,352.9Z"/><path class="cls-18" d="M411.11,361.15c-3.11,1.56-5.09,9.5-6.36,12.45a45.09,45.09,0,0,1-4.94-4.93c-1.19-1.39-2.33-4-3.86-5-3.67-2.38-4.1,1.62-3.16,4.15,2,5.52,5.93,10.55,9.52,15.15,8.12,10.4,12.8-14.11,14.55-17.6a7,7,0,0,0,1.11-3.09C417.92,358.2,413.07,360.05,411.11,361.15Z"/><polygon class="cls-57" points="398.13 345.28 389.11 345.28 393.62 363.03 401.41 360.86 398.13 345.28"/><path class="cls-18" d="M396.64,363.88l.18-6a2,2,0,0,0-.39-1.55,1.7,1.7,0,0,0-.89-.38,6,6,0,0,0-5.53,1.63,4.45,4.45,0,0,0-.4,5.53c.79,1,2,1.57,2.95,2.47"/><path class="cls-60" d="M415.18,377.25c2.69-4.92,6-10,5.36-15.84a7,7,0,0,0-1-3.2c-4.34-6.69-12.37,7.82-13.82,10.69-.54,1.08-.94,2.56,0,3.37a3,3,0,0,0,.92.49C407.47,373.09,415.92,375.89,415.18,377.25Z"/><path class="cls-18" d="M428.82,326.62s-5-1.45-9.19,1.13-4.84,5.48-4.68,9.51-.16,10,1.94,14.51,11.12.81,13.87-1,5.64-8.87,5.32-14.36S433.82,327.59,428.82,326.62Z"/><path class="cls-18" d="M432.64,348.46s-2.11,4.22-2.11,5.75-3.26,3.45-7.48,2.68-4.6-1.72-4.6-1.72a20.45,20.45,0,0,0,2.68-5.56C421.71,347.11,432.64,348.46,432.64,348.46Z"/><path class="cls-58" d="M415.14,335.17a10.29,10.29,0,0,0,3.08.81c7,1,5.34,6.62,5.63,12.07.1,1.87.34,4,1.88,5.05a4.17,4.17,0,0,0,2.24.64c2.17.06,4.2-1,6.12-2a4.08,4.08,0,0,0,2.6-3.68c.89-4.18,2.22-8.94.55-13-1.06-2.59-1.62-7-3.38-9.09a1.15,1.15,0,0,0-.95-.51,1.33,1.33,0,0,0-.68.4l-2.57,2.31c-.19.17-.44.37-.7.3s-.42-.53-.41-.88c0-1.83.43-3.9-.72-5.32a10.91,10.91,0,0,0-3.21,3.21,6.91,6.91,0,0,1-.61-2.53c-.16-.86-.66-1.8-1.52-1.92a13.45,13.45,0,0,1-4.81,5.54,6.88,6.88,0,0,0-2.91-4.54c-.13,2.45-1.28,4.72-1.78,7.13C412.29,332.49,413.15,334.24,415.14,335.17Z"/><g class="cls-3"><g class="cls-3"><g class="cls-61"><g class="cls-3"><path class="cls-62" d="M698.79,714l0,16.3c-6.87-4-10.3-9.17-10.28-14.37l0-16.3c0,5.2,3.42,10.41,10.29,14.37"/></g></g></g><g class="cls-3"><g class="cls-63"><g class="cls-3"><path class="cls-64" d="M1271.79,755.59l0,16.3c0,.11,0,.21,0,.31l0-16.3v-.31"/><path class="cls-65" d="M1271.79,755.9l0,16.3a11.35,11.35,0,0,1-.23,2l0-16.31a12.26,12.26,0,0,0,.23-2"/><path class="cls-66" d="M1271.56,757.89l0,16.31a12.78,12.78,0,0,1-.56,2l0-16.3a12.9,12.9,0,0,0,.56-2"/><path class="cls-67" d="M1271,759.86l0,16.3a13.64,13.64,0,0,1-.93,2l0-16.3a14.7,14.7,0,0,0,.93-2"/><path class="cls-68" d="M1270.07,761.84l0,16.3a14.86,14.86,0,0,1-1.4,2.08l.05-16.3a17.62,17.62,0,0,0,1.4-2.08"/><path class="cls-69" d="M1268.67,763.92l-.05,16.3a21.16,21.16,0,0,1-2.16,2.33l0-16.31a21.08,21.08,0,0,0,2.16-2.32"/><path class="cls-70" d="M1266.51,766.24l0,16.31a27.11,27.11,0,0,1-4.42,3.27l0-16.31a27,27,0,0,0,4.42-3.27"/><path class="cls-71" d="M1262.09,769.51l0,16.31-.42.25,0-16.31.43-.25"/></g></g></g><polygon class="cls-72" points="1261.66 769.76 1261.62 786.07 1053.83 906.82 1053.88 890.52 1261.66 769.76"/><polygon class="cls-73" points="1004.59 890.52 1004.55 906.82 698.74 730.26 698.79 713.96 1004.59 890.52"/><g class="cls-3"><g class="cls-74"><g class="cls-3"><path class="cls-71" d="M1053.88,890.52l-.05,16.3a39.71,39.71,0,0,1-7.64,3.36l0-16.3a39.71,39.71,0,0,0,7.64-3.36"/><path class="cls-70" d="M1046.24,893.88l0,16.3a50.93,50.93,0,0,1-6.6,1.64l.05-16.3a51.75,51.75,0,0,0,6.6-1.64"/><path class="cls-69" d="M1039.64,895.52l-.05,16.3c-1.46.26-2.94.47-4.44.62l0-16.3c1.49-.15,3-.36,4.44-.62"/><path class="cls-68" d="M1035.2,896.14l0,16.3c-1.28.13-2.57.21-3.87.26l0-16.31c1.3,0,2.59-.13,3.87-.25"/><path class="cls-67" d="M1031.33,896.39l0,16.31c-1.18,0-2.37,0-3.56,0l0-16.3c1.19,0,2.38,0,3.57,0"/><path class="cls-66" d="M1027.76,896.41l0,16.3c-1.15,0-2.3-.09-3.44-.18l0-16.3c1.14.09,2.28.15,3.43.18"/><path class="cls-65" d="M1024.33,896.23l0,16.3c-1.13-.09-2.26-.22-3.38-.38l0-16.3c1.12.16,2.25.28,3.39.38"/><path class="cls-64" d="M1020.94,895.85l0,16.3c-1.17-.16-2.32-.36-3.46-.6l0-16.3c1.13.23,2.29.43,3.45.6"/><path class="cls-75" d="M1017.49,895.25l0,16.3c-1.23-.25-2.45-.55-3.63-.89l0-16.3c1.19.34,2.4.63,3.64.89"/><path class="cls-76" d="M1013.85,894.36l0,16.3a44,44,0,0,1-4.24-1.43l0-16.3c1.36.54,2.78,1,4.23,1.43"/><path class="cls-62" d="M1009.62,892.93l0,16.3a37.51,37.51,0,0,1-5-2.41l0-16.3a38.24,38.24,0,0,0,5,2.41"/></g></g></g><path class="cls-77" d="M1261.5,741.22c13.66,7.88,13.73,20.66.16,28.54L1053.88,890.52c-13.57,7.88-35.63,7.88-49.29,0L698.79,714c-13.65-7.88-13.73-20.66-.16-28.55L906.42,564.66c13.56-7.88,35.63-7.88,49.28,0Z"/></g><path class="cls-78" d="M1003.81,636.71c2.77,1.6,2.78,4.21,0,5.81L963,666.26a11.1,11.1,0,0,1-10,0l-1.26-.73c-2.77-1.6-2.78-4.21,0-5.81L992.51,636a11.1,11.1,0,0,1,10,0Z"/><g class="cls-3"><path class="cls-79" d="M1040.21,634.55c.22.12.22.32,0,.44L825.08,760a.85.85,0,0,1-.76,0l-79-45.58a.23.23,0,0,1,0-.44L960.51,589a.85.85,0,0,1,.76,0ZM963,666.26l40.84-23.74c2.75-1.6,2.74-4.21,0-5.81l-1.26-.73a11.1,11.1,0,0,0-10,0l-40.84,23.74c-2.75,1.6-2.74,4.21,0,5.81l1.26.73a11.1,11.1,0,0,0,10,0"/><path class="cls-79" d="M1057.33,778.35c.13.08.13.2,0,.27l-93.85,54.54a.53.53,0,0,1-.46,0l-69.17-39.94c-.13-.07-.13-.19,0-.27l93.84-54.53a.49.49,0,0,1,.47,0Z"/><path class="cls-21" d="M1238.88,738.24c3,1.74,3,4.56,0,6.3L1010.69,877.17a12,12,0,0,1-10.88,0L719.53,715.35c-3-1.74-3-4.56,0-6.3L947.72,576.42a12,12,0,0,1,10.88,0ZM825.08,760l215.14-125c.21-.12.21-.32,0-.44L961.27,589a.85.85,0,0,0-.76,0L745.37,714c-.21.12-.21.31,0,.44l79,45.58a.85.85,0,0,0,.76,0m138.4,73.14,93.85-54.54c.13-.07.13-.19,0-.27l-69.17-39.93a.49.49,0,0,0-.47,0L893.85,793c-.13.08-.13.2,0,.27L963,833.16a.53.53,0,0,0,.46,0M845.87,769.32,1056.35,647c1.49-.86,1.48-2.28,0-3.15a6.06,6.06,0,0,0-5.44,0L840.42,766.17c-1.5.87-1.49,2.28,0,3.15a6.06,6.06,0,0,0,5.44,0m15.52,9L1071.87,656c1.49-.86,1.48-2.28,0-3.15a6,6,0,0,0-5.43,0L855.94,775.13c-1.49.87-1.49,2.29,0,3.15a6,6,0,0,0,5.44,0m15.52,9,210.48-122.32c1.49-.86,1.48-2.28,0-3.14a6,6,0,0,0-5.43,0L871.46,784.09c-1.49.87-1.48,2.29,0,3.15a6,6,0,0,0,5.44,0m257.78-80.79-76.32,44.35a1,1,0,0,0,0,1.91l2.14,1.24a3.64,3.64,0,0,0,3.31,0l76.31-44.35a1,1,0,0,0,0-1.91l-2.14-1.24a3.69,3.69,0,0,0-3.3,0M1102,687.56l-76.32,44.35a1,1,0,0,0,0,1.91l2.14,1.24a3.64,3.64,0,0,0,3.31,0l76.31-44.35a1,1,0,0,0,0-1.91l-2.15-1.24a3.6,3.6,0,0,0-3.29,0m16.36,9.44L1042,741.35a1,1,0,0,0,0,1.92l2.14,1.23a3.62,3.62,0,0,0,3.3,0l76.32-44.35a1,1,0,0,0,0-1.91l-2.15-1.23a3.63,3.63,0,0,0-3.29,0"/><path class="cls-79" d="M1107.41,688.8a1,1,0,0,1,0,1.91l-76.32,44.35a3.62,3.62,0,0,1-3.3,0l-2.14-1.24a1,1,0,0,1,0-1.91L1102,687.56a3.62,3.62,0,0,1,3.3,0Z"/><path class="cls-79" d="M1123.77,698.24a1,1,0,0,1,0,1.91l-76.32,44.35a3.65,3.65,0,0,1-3.3,0l-2.14-1.24c-.91-.53-.92-1.39,0-1.91L1118.33,697a3.6,3.6,0,0,1,3.29,0Z"/><path class="cls-79" d="M1140.13,707.69a1,1,0,0,1,0,1.91L1063.83,754a3.64,3.64,0,0,1-3.31,0l-2.14-1.24a1,1,0,0,1,0-1.91l76.32-44.35a3.69,3.69,0,0,1,3.3,0Z"/><path class="cls-79" d="M1056.33,643.85c1.5.87,1.51,2.29,0,3.15L845.87,769.32a6,6,0,0,1-5.44,0c-1.5-.87-1.51-2.28,0-3.15l210.47-122.32A6.06,6.06,0,0,1,1056.33,643.85Z"/><path class="cls-79" d="M1071.85,652.82c1.5.86,1.51,2.28,0,3.14L861.39,778.28a6,6,0,0,1-5.44,0c-1.5-.86-1.5-2.28,0-3.15l210.48-122.31A6,6,0,0,1,1071.85,652.82Z"/><path class="cls-79" d="M1087.37,661.78c1.5.86,1.51,2.28,0,3.14L876.91,787.24a6,6,0,0,1-5.44,0c-1.49-.86-1.5-2.28,0-3.15l210.48-122.31A6,6,0,0,1,1087.37,661.78Z"/></g><g class="cls-3"><g class="cls-3"><g class="cls-80"><g class="cls-3"><path class="cls-81" d="M1183.61,746.84l0,9.64v.07l0-9.65v-.06"/><path class="cls-82" d="M1183.6,746.9l0,9.65a3.05,3.05,0,0,1,0,.41l0-9.65a1.84,1.84,0,0,0,0-.41"/><path class="cls-83" d="M1183.56,747.31l0,9.65a3.45,3.45,0,0,1-.11.4l0-9.64a3.17,3.17,0,0,0,.12-.41"/><path class="cls-84" d="M1183.44,747.72l0,9.64c-.06.13-.12.27-.19.4l0-9.64a2.42,2.42,0,0,0,.19-.4"/><path class="cls-85" d="M1183.25,748.12l0,9.64a4,4,0,0,1-.29.43l0-9.64a2.87,2.87,0,0,0,.28-.43"/><path class="cls-86" d="M1183,748.55l0,9.64a3.84,3.84,0,0,1-.44.47l0-9.64a6.31,6.31,0,0,0,.44-.47"/><path class="cls-87" d="M1182.53,749l0,9.64a5.88,5.88,0,0,1-.89.66l0-9.64a5.88,5.88,0,0,0,.89-.66"/><path class="cls-88" d="M1181.64,749.68l0,9.64-.08,0,0-9.64.09-.05"/></g></g></g><path class="cls-2" d="M997.09,824.5l0-9.64a3.56,3.56,0,0,0,2.08,2.93l0,9.64A3.55,3.55,0,0,1,997.09,824.5Z"/><g class="cls-89"><g class="cls-3"><path class="cls-2" d="M999.2,817.79l0,9.64a3.55,3.55,0,0,1-2.09-2.93l0-9.64a3.56,3.56,0,0,0,2.08,2.93"/></g></g><polygon class="cls-2" points="1181.55 749.73 1181.53 759.37 1036.9 843.41 1036.93 833.77 1181.55 749.73"/><polygon class="cls-2" points="1026.89 833.77 1026.86 843.41 999.18 827.43 999.2 817.79 1026.89 833.77"/><g class="cls-3"><g class="cls-90"><path class="cls-2" d="M1036.93,833.77l0,9.65a8.23,8.23,0,0,1-1.54.67l0-9.64a7.65,7.65,0,0,0,1.54-.68"/><path class="cls-2" d="M1035.39,834.45l0,9.64a11.1,11.1,0,0,1-1.35.34l0-9.64a11.58,11.58,0,0,0,1.35-.34"/><path class="cls-2" d="M1034,834.79l0,9.64c-.29.05-.6.09-.9.12l0-9.64c.31,0,.61-.07.91-.12"/><path class="cls-2" d="M1033.13,834.91l0,9.64c-.27,0-.53.05-.8.06l0-9.64c.27,0,.53,0,.79-.06"/><path class="cls-2" d="M1032.34,835l0,9.64h-.73l0-9.64h.73"/><path class="cls-2" d="M1031.61,835l0,9.64-.7,0,0-9.64.7,0"/><path class="cls-2" d="M1030.91,834.93l0,9.64c-.23,0-.47,0-.7-.08l0-9.64c.23,0,.46.06.7.08"/><path class="cls-2" d="M1030.21,834.85l0,9.64c-.23,0-.47-.07-.7-.12l0-9.64c.23,0,.46.09.7.12"/><path class="cls-2" d="M1029.51,834.73l0,9.64c-.25,0-.5-.11-.74-.18l0-9.64c.24.07.48.13.74.18"/><path class="cls-2" d="M1028.77,834.55l0,9.64a7.89,7.89,0,0,1-.86-.29l0-9.64c.27.11.56.2.86.29"/><path class="cls-2" d="M1027.91,834.26l0,9.64a6.85,6.85,0,0,1-1-.49l0-9.64a6.85,6.85,0,0,0,1,.49"/></g></g><path class="cls-91" d="M1181.52,743.91c2.77,1.6,2.78,4.22,0,5.82l-144.62,84a11.1,11.1,0,0,1-10,0l-27.69-16c-2.76-1.6-2.78-4.22,0-5.81l144.63-84.05a11.08,11.08,0,0,1,10,0Z"/></g><g class="cls-92"><path class="cls-93" d="M1074,796.91q.71,1.89-1.86,3.38a8.92,8.92,0,0,1-4.75,1.17,10.08,10.08,0,0,1-5-1.36l-.32-.18A5.75,5.75,0,0,1,1060,798a2.23,2.23,0,0,1-.27-2,3.41,3.41,0,0,1,1.58-1.7,7.84,7.84,0,0,1,4.41-1,10.7,10.7,0,0,1,4.88,1.54l.74.42-6.91,4a7.28,7.28,0,0,0,3.33.91,5.67,5.67,0,0,0,3.08-.71,2.78,2.78,0,0,0,1.19-1.13,1.92,1.92,0,0,0,.11-1.23Zm-11,1.44,5.11-3-.14-.08a6.72,6.72,0,0,0-2.79-.78,4.53,4.53,0,0,0-2.46.58,1.6,1.6,0,0,0-1,1.48,2.61,2.61,0,0,0,1.28,1.77"/><path class="cls-93" d="M1062.19,801.8q1.68,1,1.38,2.31t-2.46,2.61a11.19,11.19,0,0,1-3.18,1.22,10.7,10.7,0,0,1-3.39.23,6.86,6.86,0,0,1-2.82-.85l1.82-1.06a5,5,0,0,0,2.9.61,7.37,7.37,0,0,0,3.18-1c1-.56,1.49-1.09,1.61-1.62s-.16-1-.84-1.37a3.82,3.82,0,0,0-2.28-.49,17.22,17.22,0,0,0-3.66.85,18.21,18.21,0,0,1-5,1,6.56,6.56,0,0,1-3.49-.79c-1.08-.63-1.55-1.4-1.4-2.31s.92-1.77,2.3-2.57a9.84,9.84,0,0,1,3.08-1.15,9.74,9.74,0,0,1,3.22-.12,7.31,7.31,0,0,1,2.73.87l-1.82,1.06a5.06,5.06,0,0,0-2.77-.69,6.22,6.22,0,0,0-3,.89c-.89.52-1.39,1-1.49,1.56s.2,1,.9,1.38a3.65,3.65,0,0,0,2.14.41,15,15,0,0,0,3.49-.78,22.18,22.18,0,0,1,3.75-.94,9.42,9.42,0,0,1,2.79-.05A6.46,6.46,0,0,1,1062.19,801.8Z"/><polygon class="cls-93" points="1131.53 753.68 1138.83 761.34 1137.41 762.16 1127.15 759.11 1132.52 765 1131.11 765.82 1117.88 761.62 1119.62 760.61 1129.31 763.88 1124 758.06 1125.4 757.24 1135.67 760.37 1129.79 754.7 1131.53 753.68"/><path class="cls-93" d="M1124.2,769.28a3.85,3.85,0,0,1-1.77,1.8,8.75,8.75,0,0,1-4.81,1.12,10.87,10.87,0,0,1-5.14-1.47l-.12-.07a5.74,5.74,0,0,1-2.12-1.91,2.19,2.19,0,0,1-.22-2,3.77,3.77,0,0,1,1.74-1.77,8.82,8.82,0,0,1,4.83-1.12,10.8,10.8,0,0,1,5.14,1.48l.13.07a5.79,5.79,0,0,1,2.12,1.89A2.17,2.17,0,0,1,1124.2,769.28Zm-6.35,1.61a5.38,5.38,0,0,0,3.15-.63q1.32-.78,1-1.83c-.17-.71-.89-1.43-2.15-2.16a8.29,8.29,0,0,0-3.53-1.11,5.41,5.41,0,0,0-3.17.62c-.86.5-1.21,1.11-1,1.81s.89,1.43,2.17,2.17a8.36,8.36,0,0,0,3.53,1.13"/><polygon class="cls-93" points="1115.11 775.12 1113.29 776.18 1095.73 774.04 1106.38 780.19 1104.56 781.25 1090.75 773.27 1092.57 772.21 1110.19 774.36 1099.49 768.19 1101.3 767.14 1115.11 775.12"/><path class="cls-93" d="M1094,786.1c.17.9-.37,1.72-1.61,2.44a7.44,7.44,0,0,1-4.35.83,11.52,11.52,0,0,1-4.93-1.55l-.13-.08c-1.58-.91-2.48-1.85-2.7-2.84s.28-1.82,1.48-2.52a7.36,7.36,0,0,1,4.06-.94l-5.35-3.09,1.75-1,14.57,8.42-1.59.93Zm-5.64,1.91a4.91,4.91,0,0,0,3-.59c1.11-.64,1.41-1.39.92-2.27l-4.71-2.72a5.61,5.61,0,0,0-3.86.55c-.85.5-1.18,1.08-1,1.75s.94,1.36,2.24,2.11a8.39,8.39,0,0,0,3.44,1.17"/><path class="cls-93" d="M1086,792l-1.75,1-6.79-3.92a4.57,4.57,0,0,0-2.15-.65,3.94,3.94,0,0,0-2.08.58,2,2,0,0,0-1,1.13,1.53,1.53,0,0,0,.19,1.27l7.32,4.23-1.75,1-10.26-5.93,1.64-1,1.35.72c-.21-1,.32-1.91,1.58-2.64a6.56,6.56,0,0,1,6.93.23Z"/></g><path class="cls-21" d="M1074,794.55c.47,1.25-.15,2.39-1.86,3.38a9.1,9.1,0,0,1-4.75,1.17,10.06,10.06,0,0,1-5-1.37l-.32-.18a5.86,5.86,0,0,1-2.15-1.91,2.26,2.26,0,0,1-.26-2,3.47,3.47,0,0,1,1.58-1.71,7.84,7.84,0,0,1,4.41-1,10.82,10.82,0,0,1,4.88,1.54l.74.42-6.91,4a7.15,7.15,0,0,0,3.33.9,5.69,5.69,0,0,0,3.08-.71,2.76,2.76,0,0,0,1.19-1.12,2,2,0,0,0,.11-1.24ZM1063,796l5.11-3-.14-.07a6.43,6.43,0,0,0-2.79-.78,4.36,4.36,0,0,0-2.46.58,1.63,1.63,0,0,0-1,1.48A2.64,2.64,0,0,0,1063,796"/><path class="cls-21" d="M1062.19,799.44c1.11.64,1.58,1.41,1.38,2.31s-1,1.76-2.46,2.6a11.19,11.19,0,0,1-3.18,1.22,11,11,0,0,1-3.39.24,7,7,0,0,1-2.82-.86l1.82-1.06a5,5,0,0,0,2.9.61,7.32,7.32,0,0,0,3.18-1c1-.55,1.49-1.09,1.61-1.61s-.16-1-.84-1.38a3.92,3.92,0,0,0-2.28-.49,17.38,17.38,0,0,0-3.66.86,18.51,18.51,0,0,1-5,1,6.47,6.47,0,0,1-3.49-.79c-1.08-.62-1.55-1.39-1.4-2.3s.92-1.78,2.3-2.58a9.84,9.84,0,0,1,3.08-1.15,10.3,10.3,0,0,1,3.22-.12,7.31,7.31,0,0,1,2.73.87l-1.82,1.06a5.14,5.14,0,0,0-2.77-.68,6.21,6.21,0,0,0-3,.88c-.89.52-1.39,1-1.49,1.56s.2,1,.9,1.38a3.72,3.72,0,0,0,2.14.42,15.14,15.14,0,0,0,3.49-.79,22.94,22.94,0,0,1,3.75-.94,9.76,9.76,0,0,1,2.79-.05A6.35,6.35,0,0,1,1062.19,799.44Z"/><path class="cls-21" d="M1086,789.67l-1.75,1-6.79-3.92a4.57,4.57,0,0,0-2.15-.65,3.86,3.86,0,0,0-2.08.59,2,2,0,0,0-1,1.12,1.55,1.55,0,0,0,.19,1.28l7.32,4.22-1.75,1-10.26-5.92,1.64-1,1.35.71c-.21-1,.32-1.9,1.57-2.63a6.58,6.58,0,0,1,6.94.22Z"/><path class="cls-21" d="M1094,783.73c.17.91-.37,1.72-1.61,2.44a7.44,7.44,0,0,1-4.35.84,11.44,11.44,0,0,1-4.94-1.56l-.13-.07c-1.58-.91-2.47-1.86-2.69-2.85s.28-1.82,1.48-2.52a7.27,7.27,0,0,1,4.06-.93l-5.35-3.09,1.75-1,14.57,8.42-1.59.93Zm-5.64,1.91a4.86,4.86,0,0,0,3-.58c1.12-.65,1.42-1.4.93-2.28l-4.71-2.72a5.61,5.61,0,0,0-3.86.56c-.85.49-1.18,1.08-1,1.74s.93,1.37,2.23,2.12a8.45,8.45,0,0,0,3.45,1.16"/><polygon class="cls-21" points="1131.53 751.32 1138.83 758.97 1137.41 759.79 1127.15 756.74 1132.52 762.63 1131.11 763.45 1117.88 759.25 1119.62 758.24 1129.31 761.51 1123.99 755.69 1125.4 754.88 1135.67 758 1129.79 752.33 1131.53 751.32"/><path class="cls-21" d="M1124.19,766.92a3.77,3.77,0,0,1-1.76,1.8,8.77,8.77,0,0,1-4.81,1.11,10.76,10.76,0,0,1-5.14-1.47l-.12-.07a5.65,5.65,0,0,1-2.12-1.91,2.17,2.17,0,0,1-.22-2,3.74,3.74,0,0,1,1.74-1.78,8.89,8.89,0,0,1,4.83-1.12,10.84,10.84,0,0,1,5.14,1.49l.12.07a5.69,5.69,0,0,1,2.12,1.88A2.14,2.14,0,0,1,1124.19,766.92Zm-6.34,1.6a5.33,5.33,0,0,0,3.14-.63c.89-.51,1.24-1.13,1.06-1.83s-.89-1.42-2.15-2.15a8.35,8.35,0,0,0-3.53-1.12,5.34,5.34,0,0,0-3.17.63c-.86.49-1.21,1.1-1,1.8s.89,1.43,2.17,2.17a8.36,8.36,0,0,0,3.53,1.13"/><polygon class="cls-21" points="1115.11 772.75 1113.29 773.81 1095.73 771.67 1106.38 777.82 1104.56 778.88 1090.75 770.9 1092.57 769.85 1110.19 772 1099.49 765.82 1101.3 764.77 1115.11 772.75"/><path class="cls-94" d="M1160.7,812.53c5.75,3.32,5.78,8.69.07,12s-15,3.32-20.72,0-5.77-8.69-.07-12S1155,809.22,1160.7,812.53Z"/><path class="cls-94" d="M855.32,612.57c2.8,1.62,2.81,4.27,0,5.88L814.48,642.2a11.21,11.21,0,0,1-10.15,0c-2.79-1.61-2.81-4.26,0-5.87l40.88-23.75A11.22,11.22,0,0,1,855.32,612.57Z"/><path class="cls-95" d="M817.36,708.86l0,0,4.41,2.72,1.81,1.95c.24.28.2.51-.14.71l-.78.45a1.58,1.58,0,0,1-1.06.14l-2.18-.34.58,1.25a.45.45,0,0,1-.22.62l-.76.45a1.75,1.75,0,0,1-.61.18,1.41,1.41,0,0,1-.6-.06l-3.45-1.11-4.67-2.5a.48.48,0,0,1-.3-.42.53.53,0,0,1,.3-.44,1.38,1.38,0,0,1,.71-.16,1.4,1.4,0,0,1,.74.17l4.47,2.38,2.11.67L817,714l-1.69-1a.51.51,0,0,1-.3-.42.53.53,0,0,1,.32-.43,1.53,1.53,0,0,1,.72-.18,1.49,1.49,0,0,1,.73.17l1.74,1,2.67.42-1.17-1.27-4.13-2.56a.52.52,0,0,1-.28-.42.48.48,0,0,1,.28-.42,1.41,1.41,0,0,1,.73-.18A1.43,1.43,0,0,1,817.36,708.86Z"/><path class="cls-95" d="M806.63,715.09l0,0,4.41,2.73,1.81,1.95c.25.27.2.5-.14.7L812,721a1.66,1.66,0,0,1-1.05.14l-2.18-.34.57,1.25a.44.44,0,0,1-.21.61l-.77.45a1.41,1.41,0,0,1-.6.18,1.47,1.47,0,0,1-.61,0l-3.45-1.11L799,719.57a.49.49,0,0,1-.3-.42.53.53,0,0,1,.31-.44,1.45,1.45,0,0,1,.7-.16,1.47,1.47,0,0,1,.74.18l4.47,2.38,2.12.67-.72-1.58-1.69-1a.51.51,0,0,1-.3-.43c0-.16.11-.3.32-.43a1.47,1.47,0,0,1,.72-.17,1.3,1.3,0,0,1,.73.17l1.74,1,2.67.42-1.17-1.26L805.2,716a.53.53,0,0,1-.29-.43.48.48,0,0,1,.28-.42,1.53,1.53,0,0,1,.74-.18A1.39,1.39,0,0,1,806.63,715.09Z"/><path class="cls-95" d="M828.08,702.63h0l4.4,2.73,1.82,2c.25.27.2.51-.15.7l-.78.46a1.6,1.6,0,0,1-1,.14l-2.17-.34.56,1.25a.45.45,0,0,1-.21.62l-.76.44a1.45,1.45,0,0,1-.6.18,1.71,1.71,0,0,1-.62,0l-3.45-1.11-4.67-2.51a.48.48,0,0,1-.29-.42.5.5,0,0,1,.3-.43,1.49,1.49,0,0,1,.71-.17,1.53,1.53,0,0,1,.74.18l4.46,2.38,2.12.67-.71-1.58-1.69-1q-.32-.18-.3-.42a.5.5,0,0,1,.31-.43,1.39,1.39,0,0,1,.73-.18,1.45,1.45,0,0,1,.72.17l1.75,1,2.67.41-1.18-1.26-4.12-2.56a.5.5,0,0,1-.28-.43.47.47,0,0,1,.27-.42,1.56,1.56,0,0,1,.74-.17A1.27,1.27,0,0,1,828.08,702.63Z"/><path class="cls-95" d="M841.52,700.7a.53.53,0,0,1,.31.43.51.51,0,0,1-.29.43l-1.5.86a1.57,1.57,0,0,1-1.46,0l-1.26-.73q-.32-.18-.3-.42a.48.48,0,0,1,.3-.43l1.48-.86a1.39,1.39,0,0,1,.73-.18,1.47,1.47,0,0,1,.74.18Z"/><path class="cls-95" d="M850.08,690.63a.45.45,0,0,1,.29.42.49.49,0,0,1-.28.4,1.77,1.77,0,0,1-1,.19,1.7,1.7,0,0,0-.92.17l-3.29,1.91c-.33.19-.36.36-.08.52a1,1,0,0,0,.76.06l5.6-1.25A5.44,5.44,0,0,1,853,693a4.26,4.26,0,0,1,1.67.53,1.53,1.53,0,0,1,.93,1.31,1.44,1.44,0,0,1-.85,1.25l-2.95,1.71a4.58,4.58,0,0,1-1.88.56,2.82,2.82,0,0,1-1.55-.14.52.52,0,0,1-.3-.42c0-.17.1-.31.33-.45a2,2,0,0,1,.91-.16,2.45,2.45,0,0,0,1.23-.35l2.71-1.58a.47.47,0,0,0,.29-.45.62.62,0,0,0-.35-.46,1.63,1.63,0,0,0-1.21-.13l-5.68,1.25a4.83,4.83,0,0,1-1.6.08,3.52,3.52,0,0,1-1.28-.39,1.39,1.39,0,0,1-.82-1.1,1.25,1.25,0,0,1,.76-1.12l3.34-1.93a4.13,4.13,0,0,1,1.85-.53A2.67,2.67,0,0,1,850.08,690.63Z"/><path class="cls-95" d="M867.25,688a.5.5,0,0,1,.3.42.53.53,0,0,1-.3.43,1.53,1.53,0,0,1-.74.18,1.72,1.72,0,0,1-.74-.17l-5.93-3.22c-.32-.18-.57-.22-.75-.11a.32.32,0,0,0-.17.25l-.14.93,5.36,3.09c.2.12.3.25.29.42a.51.51,0,0,1-.3.42,1.6,1.6,0,0,1-.73.18,1.39,1.39,0,0,1-.73-.18l-5.83-3.37a.68.68,0,0,0-.7,0,.29.29,0,0,0-.17.23l-.16,1.12,5.23,3a.53.53,0,0,1,.31.42.49.49,0,0,1-.29.42,1.53,1.53,0,0,1-.74.17,1.31,1.31,0,0,1-.74-.17l-7-4a.45.45,0,0,1,0-.85,1.47,1.47,0,0,1,1.27-.09,1.36,1.36,0,0,1,.78-1.12,3.66,3.66,0,0,1,2.18-.4,1.36,1.36,0,0,1,.77-1.32,3.4,3.4,0,0,1,1.66-.4,3.66,3.66,0,0,1,1.77.4Z"/><path class="cls-95" d="M930.73,651.67a1.41,1.41,0,0,1-.73-.18l-.5,1.15L927,654.07a4.87,4.87,0,0,1-4.42,0l-.85-.49a1.55,1.55,0,0,1-.93-1.29,1.5,1.5,0,0,1,.91-1.28l2.86-1.66a5.14,5.14,0,0,1,.78-.33l-1.06-.59a1.65,1.65,0,0,0-1.46,0L920.09,650a1.67,1.67,0,0,1-1.47,0,.45.45,0,0,1,0-.85l2.77-1.61a4.48,4.48,0,0,1,2.18-.53,4.56,4.56,0,0,1,2.23.52l5.67,3.07c.2.12.31.26.3.42a.51.51,0,0,1-.3.43A1.42,1.42,0,0,1,930.73,651.67Zm-5.2,1.53,2.05-1.19.66-1.47-.67-.33a1.47,1.47,0,0,0-.74-.18,1.37,1.37,0,0,0-.72.18l-2.87,1.67a.49.49,0,0,0-.3.42c0,.17.1.31.3.43l.82.47a1.3,1.3,0,0,0,.73.17,1.42,1.42,0,0,0,.74-.17"/><path class="cls-95" d="M920.88,656.79a.49.49,0,0,1,.3.42.51.51,0,0,1-.29.43,1.42,1.42,0,0,1-.74.17,1.53,1.53,0,0,1-.74-.16l-5.93-3.22a.79.79,0,0,0-.76-.11.34.34,0,0,0-.17.25l-.14.93,5.37,3.1a.49.49,0,0,1,.29.41.53.53,0,0,1-.3.42,1.6,1.6,0,0,1-.73.18,1.45,1.45,0,0,1-.74-.18l-5.83-3.37a.68.68,0,0,0-.7,0,.3.3,0,0,0-.16.23l-.16,1.12,5.22,3a.51.51,0,0,1,.31.42.5.5,0,0,1-.28.42,1.73,1.73,0,0,1-.75.18,1.53,1.53,0,0,1-.74-.17l-7-4a.45.45,0,0,1,0-.85,1.47,1.47,0,0,1,1.27-.09,1.36,1.36,0,0,1,.78-1.11,3.68,3.68,0,0,1,2.19-.41,1.35,1.35,0,0,1,.77-1.32,3.37,3.37,0,0,1,1.66-.4,3.72,3.72,0,0,1,1.77.4Z"/><path class="cls-95" d="M910,663.12c.22.13.32.26.31.42a.51.51,0,0,1-.3.43,1.56,1.56,0,0,1-.74.17,1.75,1.75,0,0,1-.73-.17l-5.69-3.08a1.41,1.41,0,0,0-.73-.16,1.46,1.46,0,0,0-.75.17l-.82.48a.76.76,0,0,0-.37.47l-.72,2,4.66,2.69q.32.16.3.42a.45.45,0,0,1-.29.42,1.59,1.59,0,0,1-1.47,0l-10.13-5.85a.45.45,0,0,1-.29-.42c0-.15.1-.29.31-.41a1.37,1.37,0,0,1,.72-.18,1.49,1.49,0,0,1,.73.17l3.71,2.14.4-1.12a2.09,2.09,0,0,1,.91-1.12l.9-.53a4.45,4.45,0,0,1,2.18-.52,4.51,4.51,0,0,1,2.23.52Z"/><path class="cls-95" d="M898.24,669.81a2,2,0,0,1-1.07,1.59l-1.71,1a5.62,5.62,0,0,1-2.75.62,5.33,5.33,0,0,1-2.73-.52l-3.1-1.78a1.67,1.67,0,0,1-.92-1.57,1.92,1.92,0,0,1,1.08-1.61l1.71-1a5.64,5.64,0,0,1,2.72-.64,5.31,5.31,0,0,1,2.76.53l3.1,1.79A1.6,1.6,0,0,1,898.24,669.81ZM894,671.55l1.69-1a.72.72,0,0,0,.41-.55l0-.48c0-.18-.06-.35-.31-.49l-3-1.72a1.58,1.58,0,0,0-.92-.21l-.91.06a1.8,1.8,0,0,0-.84.22l-1.51.88c-.33.19-.5.39-.52.58l-.07.53a.52.52,0,0,0,.32.5l3,1.72a1.66,1.66,0,0,0,.93.2l1,0a1.52,1.52,0,0,0,.66-.2"/><path class="cls-95" d="M886.15,681.23a.49.49,0,0,1-.29.43,1.46,1.46,0,0,1-.75.17,1.31,1.31,0,0,1-.75-.18l-10.46-6c-.2-.12-.3-.26-.29-.42a.5.5,0,0,1,.3-.44,1.53,1.53,0,0,1,.74-.17,1.45,1.45,0,0,1,.72.17l.48.27a1.8,1.8,0,0,1,.9-1.9l.34-.19a4.22,4.22,0,0,1,2-.5l2.28-.09a4.58,4.58,0,0,1,2.56.56l2.3,1.32a1.55,1.55,0,0,1,1,1.55l-.15,1.28a1.64,1.64,0,0,1-1,1.18l-.32.19a4,4,0,0,1-2,.49h-1.13l3.24,1.87C886,680.92,886.15,681.06,886.15,681.23Zm-1.83-3.69.37-.21a.64.64,0,0,0,.31-.49l.12-1.24c0-.2-.07-.38-.33-.53l-2.36-1.36a1.67,1.67,0,0,0-.94-.17l-2.28.1a1.33,1.33,0,0,0-.63.15l-.43.25a.65.65,0,0,0-.24.6v1.26a.61.61,0,0,0,.36.53l1.88,1.09a2,2,0,0,0,1,.19h2.1a2.3,2.3,0,0,0,1.08-.17"/><path class="cls-95" d="M871.54,678.16c.2.12.3.26.29.42a.51.51,0,0,1-.29.4,1.75,1.75,0,0,1-.95.19,1.85,1.85,0,0,0-.91.16l-3.3,1.92c-.32.19-.35.36-.07.52a1,1,0,0,0,.75.06l5.6-1.25a5.78,5.78,0,0,1,1.82-.08,4.44,4.44,0,0,1,1.66.53,1.54,1.54,0,0,1,.94,1.31,1.47,1.47,0,0,1-.85,1.25l-3,1.72a4.63,4.63,0,0,1-1.88.55,2.77,2.77,0,0,1-1.56-.14.49.49,0,0,1-.29-.41c0-.18.1-.32.33-.45a1.81,1.81,0,0,1,.9-.17,2.45,2.45,0,0,0,1.23-.35l2.72-1.58a.46.46,0,0,0,.29-.45.67.67,0,0,0-.36-.46,1.68,1.68,0,0,0-1.21-.13L867.78,683a4.63,4.63,0,0,1-1.61.08,3.33,3.33,0,0,1-1.28-.39,1.41,1.41,0,0,1-.82-1.09,1.24,1.24,0,0,1,.77-1.12l3.33-1.94A4.31,4.31,0,0,1,870,678,2.88,2.88,0,0,1,871.54,678.16Z"/><path class="cls-95" d="M941.44,644.82a.53.53,0,0,1,.32.43.49.49,0,0,1-.29.43l-4.41,2.56a1.42,1.42,0,0,1-.74.17,1.53,1.53,0,0,1-.74-.18.51.51,0,0,1-.3-.42.49.49,0,0,1,.3-.43l1.45-.85-8.65-5-1.47.86a1.53,1.53,0,0,1-.74.18,1.37,1.37,0,0,1-.72-.18.53.53,0,0,1-.32-.43.54.54,0,0,1,.31-.42l2.22-1.29a1.49,1.49,0,0,1,.73-.17,1.53,1.53,0,0,1,.74.17l9.38,5.42,1.47-.86a1.65,1.65,0,0,1,1.46,0Z"/><path class="cls-95" d="M948.79,638.36a.54.54,0,0,1,.31.43.49.49,0,0,1-.3.43l-1.49.86a1.57,1.57,0,0,1-1.46,0l-1.26-.73a.51.51,0,0,1-.31-.42c0-.17.11-.31.32-.44l1.47-.85a1.49,1.49,0,0,1,.73-.17,1.35,1.35,0,0,1,.74.17Z"/><path class="cls-95" d="M985.25,619.39a.45.45,0,0,1,0,.84,1.41,1.41,0,0,1-.73.18,1.54,1.54,0,0,1-.75-.17L977.85,617c-.33-.17-.58-.21-.76-.1a.3.3,0,0,0-.17.25l-.14.93,5.36,3.09a.48.48,0,0,1,.29.41.5.5,0,0,1-.31.43,1.41,1.41,0,0,1-.71.17,1.46,1.46,0,0,1-.75-.17l-5.83-3.37a.64.64,0,0,0-.69,0,.32.32,0,0,0-.17.23l-.16,1.12,5.23,3a.54.54,0,0,1,.31.42.49.49,0,0,1-.29.42,1.45,1.45,0,0,1-.74.18,1.4,1.4,0,0,1-.74-.17l-7-4a.48.48,0,0,1-.31-.42.51.51,0,0,1,.3-.42,1.49,1.49,0,0,1,1.28-.09,1.36,1.36,0,0,1,.77-1.12,3.7,3.7,0,0,1,2.19-.4,1.34,1.34,0,0,1,.78-1.32,3.33,3.33,0,0,1,1.65-.4,3.69,3.69,0,0,1,1.77.4Z"/><path class="cls-95" d="M973.33,626.17a2,2,0,0,1-1.07,1.59l-1.71,1a5.9,5.9,0,0,1-2.76.62,5.42,5.42,0,0,1-2.72-.52l-3.1-1.79a1.66,1.66,0,0,1-.92-1.57,1.91,1.91,0,0,1,1.08-1.61l1.71-1a5.64,5.64,0,0,1,2.72-.64,5.2,5.2,0,0,1,2.76.54l3.1,1.78A1.6,1.6,0,0,1,973.33,626.17Zm-4.25,1.74,1.69-1a.7.7,0,0,0,.41-.54l.05-.49c0-.18-.07-.34-.32-.49l-3-1.71a1.56,1.56,0,0,0-.91-.22l-.92.06a1.92,1.92,0,0,0-.83.22l-1.51.88c-.33.19-.5.39-.52.58l-.07.53c0,.2.08.37.32.51l3,1.71a1.68,1.68,0,0,0,.93.2l1,0a1.52,1.52,0,0,0,.66-.2"/><path class="cls-95" d="M956.72,627.9c.21.13.31.27.31.43a.51.51,0,0,1-.3.42l-3.14,1.82a.61.61,0,0,0-.33.46l-.16,1.26c0,.21.1.39.37.55l1.79,1a1.31,1.31,0,0,0,.71.15l2.38-.11a1.79,1.79,0,0,0,.87-.25l3-1.73a1.46,1.46,0,0,1,.73-.17,1.41,1.41,0,0,1,.73.17q.32.18.3.42a.48.48,0,0,1-.29.43l-3.12,1.81a4.13,4.13,0,0,1-1.9.52l-2.65.11a4,4,0,0,1-2.22-.49l-1.91-1.1-.06,0a1.33,1.33,0,0,1-.8-1.35l.17-1.38a1.53,1.53,0,0,1,.8-1.06l3.28-1.9a1.41,1.41,0,0,1,.73-.17A1.54,1.54,0,0,1,956.72,627.9Z"/><ellipse class="cls-31" cx="1256.87" cy="596.64" rx="13.45" ry="24.87" transform="translate(657.11 1852.03) rotate(-89.86)"/><path class="cls-43" d="M1251.42,590.88a6.55,6.55,0,0,0,2.19,4.71c2.35,2.36,3.86,5,2.69,7.07s-6.39,1.41-8.41-.16-1.68-3.14-3.53-5.34-2.18-3.45-1.51-5.8S1248.4,589.63,1251.42,590.88Z"/><path class="cls-43" d="M1269.07,586.18a6.58,6.58,0,0,0,2.86,4.08c2.52,1.72,3.86,3.45,3.53,6.12s-5,2.35-7.4,1.25-1.85-2.19-3.53-3.92-2.85-1.88-3.19-3.77.17-3.92,1.18-4.23A6.13,6.13,0,0,1,1269.07,586.18Z"/><path class="cls-96" d="M1270.42,535.64s-.56,43.63-1.24,51.37c-.22,1.89-5.15,3.77-7.17,1-2-3.56-.78-40.07-3.25-46.77C1259.43,536.48,1268,534.8,1270.42,535.64Z"/><path class="cls-97" d="M1270,537.31a21.87,21.87,0,0,1-10.09,10.88c-6.05,2.93-6.94,8-7.39,12.35s-.45,30.55-.9,31.39-4.26,4.19-9,0c-.45-12.14-.68-51.48.22-56.5S1270.64,535,1270,537.31Z"/><path class="cls-38" d="M1294,494.38l8.09,1.08a1,1,0,0,1,.91,1.14l-2.58,15a1.06,1.06,0,0,1-1.29.81l-7.46-1.6a1,1,0,0,1-.82-1.1l1.94-14.49A1.06,1.06,0,0,1,1294,494.38Z"/><path class="cls-28" d="M1267.53,500.31s4.52,1.4,6.32,8.43,2.41,9,2.41,9a23.32,23.32,0,0,1,7.23-3.37c4.21-1.12,5.41-3.65,5.41-3.65-.72-1.81-.62-5,1.47-5.92.86-.38,2.09-.43,2.57.34.73,1.16-.57,1.73-.92,2.66-1,2.75,1.36,2.84,3.36,3a2.82,2.82,0,0,1,1.08.22c1.46.74.78,2.93-.14,3.81a6.24,6.24,0,0,1-4.11,1.27c-1.5,0-7.52,5.34-11.43,7s-4.82,4.5-6.32,3.65-7.83-5.62-9.63-9.55S1259.41,505.65,1267.53,500.31Z"/><path class="cls-42" d="M1252,495.67s-10.76,6.7-11.88,9-1.57,8.79.45,13.18.67,20.3,1.34,23.44,9.64,4.39,15.24,3.56,14.12-4.4,14.12-10.47-1.12-17.37-.67-20.09a33.12,33.12,0,0,0-.85-12.44c-.56-2.09-3.76-3.51-3.76-3.51S1262.72,496.65,1252,495.67Z"/><path class="cls-28" d="M1245.76,517.26c1-7.49,0-11.43-2.2-12.36s-3.4-.23-3.4-.23a16.45,16.45,0,0,0-4.43,12.59c0,3.38-2,11.43-1.6,14.8s.4,9.07,1.47,11.52a10.52,10.52,0,0,0-1.21,6.65c.45,3.25,2.57,4.61,3.47,4s1.35-4.71,1.35-4.71,1.68,1.47,1.68-.1a28.51,28.51,0,0,0-.56-4.29,10.19,10.19,0,0,0-1.5-1.75c1-1.43,1.52-8,1.52-11.48S1244.76,524.76,1245.76,517.26Z"/><path class="cls-28" d="M1248.9,489.34c1.65,4.67,6.22,6.28,8.74,7.06s5.55.47,7.23-1.1,3.19-8.63,2.18-14.75-6-9.73-11.93-8.63S1244.36,476.47,1248.9,489.34Z"/><path class="cls-28" d="M1261.23,494.62a1,1,0,0,0,0,.32c.09.72.41,2.57.46,3.34s-.9,2-3,1.89-5.71-1.05-6.84-3.45a49.23,49.23,0,0,0-.11-7Z"/><path class="cls-38" d="M1260.91,477.83s-1.35,6.18-3.46,8.14c-1,1.13-5.26,2-5.26,2s2.4-2.81,2.4-3.23c-1.65,1.69-2.71,2.81-4.36,3.09a15.05,15.05,0,0,1-3.76,0l1-1.26-2.86,1a4.14,4.14,0,0,0,1.36-3.37,30.7,30.7,0,0,1,2-9.7c1.21-2.95,5-4.07,5-4.07l5.87.7a18.79,18.79,0,0,1,5.26,0c2.71.42,5.57,3.84,5.77,5.53s-.2,6.93,0,7.68a3.7,3.7,0,0,0,1.21,1.5s-3.21-.56-3.82-1.31-2.81-7.69-2.81-7.69l-1.8.57-1.41-1.31Z"/><ellipse class="cls-31" cx="699.11" cy="954.22" rx="22.13" ry="12.82" transform="matrix(1, 0, 0, 1, -2.7, 1.99)"/><path class="cls-30" d="M700.13,954.87s-.19,4,.19,5,3.69,2.46,6.06,1.61a8.91,8.91,0,0,0,4.54-3.22c.76-1.13,3.43-2.5,4.07-3.78,1-2-.94-3.6-2.65-4a6.07,6.07,0,0,0-5.39,1.61C705.34,953.64,700.13,954.87,700.13,954.87Z"/><path class="cls-30" d="M682,949.52s-.19,4,.19,5,3.69,2.46,6,1.61a9,9,0,0,0,4.55-3.22c.75-1.14,3.42-2.51,4.07-3.79,1-2-1-3.59-2.65-4a6.05,6.05,0,0,0-5.4,1.61C687.2,948.29,682,949.52,682,949.52Z"/><path class="cls-30" d="M681.69,899.07a46,46,0,0,0,.65,11.81c1.19,6.13,0,35.15-.35,38.94,0,0,3.39,4.19,8.17,0,0-11.17,2.8-30.51,1.4-42.68S681.69,899.07,681.69,899.07Z"/><path class="cls-30" d="M682,900.86c.19.7.89,7.18,10.72,11.07,5.38,2.79,6.18,7.58,6.58,11.76s.4,31.11.79,31.91,3.79,4,8,0c.4-11.57.6-51.05-.2-55.84S681.44,898.67,682,900.86Z"/><path class="cls-28" d="M686.18,864.47a16.38,16.38,0,0,0-5.23,14c1.07,8.84,12,.8,12.31-5.09S687.92,863.3,686.18,864.47Z"/><path class="cls-26" d="M697.74,863.07s8.38,2.4,11.67,7.68c1.27,2,1.39,8.38-.4,12.56s0,19.05-.65,22-9.12,4.49-14.11,3.69-12.74-4.19-12.56-10c.5-16.4.5-24.45,1.2-28.32a12.77,12.77,0,0,1,3.29-6.28S689,861.28,697.74,863.07Z"/><path class="cls-28" d="M709.33,870.72c2.88,1.45,4.73,8.81,5.9,11.55a42,42,0,0,0,4.58-4.57c1.1-1.29,2.17-3.69,3.58-4.61,3.4-2.2,3.8,1.51,2.93,3.86-1.89,5.12-5.5,9.78-8.83,14-5.32,6.81-10.72-3.45-13-7.69-2.14-4-3.75-10.18-.27-11.78S709.33,870.72,709.33,870.72Z"/><polygon class="cls-57" points="721.37 856 729.74 856 725.55 872.47 718.33 870.45 721.37 856"/><path class="cls-28" d="M722.75,873.25l-.17-5.53a1.88,1.88,0,0,1,.37-1.44,1.52,1.52,0,0,1,.82-.35,5.55,5.55,0,0,1,5.13,1.51,4.12,4.12,0,0,1,.37,5.13c-.73.94-1.88,1.45-2.73,2.29"/><path class="cls-28" d="M692.91,838.69s4.63-1.34,8.52,1,4.49,5.09,4.34,8.82.15,9.28-1.8,13.47-10.32.74-12.86-.9-5.23-8.23-4.93-13.31S688.27,839.59,692.91,838.69Z"/><path class="cls-28" d="M689.37,859s2,3.91,2,5.34,3,3.2,6.94,2.49,4.27-1.61,4.27-1.61A18.87,18.87,0,0,1,700,860C699.5,857.7,689.37,859,689.37,859Z"/><path class="cls-26" d="M705.85,846.62s-1.07,2.14-4.55,0c-2.68.8-2.68,2.14-2.41,4.29s-1.61-1.08-2.95.53-1.07,3.48,1.07,4.82-.26,4-.26,4-4,2.94-6.7,0-7-9.64-3.75-17.41S704.78,833.77,705.85,846.62Z"/><path class="cls-98" d="M1254.06,866.11a5.21,5.21,0,0,1-1.78-.29,137.44,137.44,0,0,1-18.29-8.54,3.14,3.14,0,0,1,3.08-5.47,134.42,134.42,0,0,0,17.1,8c1.85-.06,8.66-3.29,14.77-7a3.14,3.14,0,0,1,3.28,5.36c-.14.09-3.63,2.22-7.6,4.25C1258.93,865.3,1255.94,866.11,1254.06,866.11Zm0-6.29"/><path class="cls-99" d="M1267,857.89h0a4.16,4.16,0,0,1,1-5.78l7.24-5.07a4.16,4.16,0,0,1,5.78,1h0a4.16,4.16,0,0,1-1,5.78l-7.24,5.07A4.18,4.18,0,0,1,1267,857.89Z"/><path class="cls-98" d="M1234,856.87h0a4.46,4.46,0,0,1-4.45-4.45h0A4.46,4.46,0,0,1,1234,848h0a4.46,4.46,0,0,1,4.45,4.44h0A4.46,4.46,0,0,1,1234,856.87Z"/><path class="cls-98" d="M1231.22,854.66h0a1.39,1.39,0,0,1-1.87-.61l-3.45-6.7a1.4,1.4,0,0,1,.6-1.88h0a1.4,1.4,0,0,1,1.88.6l3.45,6.71A1.4,1.4,0,0,1,1231.22,854.66Z"/><polygon class="cls-100" points="1236.03 851.77 1228.14 850.18 1223 835.87 1231.72 836.67 1236.03 851.77"/><rect class="cls-98" x="1228.02" y="846.54" width="6.18" height="7.81" rx="2.94" ry="2.94" transform="translate(-260.29 729.49) rotate(-30)"/><path class="cls-98" d="M1234.14,850l-.64-1.9a1.58,1.58,0,0,1,1-2h0a1.57,1.57,0,0,1,2,1l.64,1.9a1.57,1.57,0,0,1-1,2h0A1.58,1.58,0,0,1,1234.14,850Z"/><path class="cls-70" d="M1270.33,947.13h0v.71h0v.31a1.79,1.79,0,0,1,0,.24v.11l0,.13v.06s0,.07,0,.1h0l0,.08V949l0,.2.07.29,0,.12h0v0l0,.08a.56.56,0,0,1,0,.12l0,.08v0h0a1.09,1.09,0,0,0,0,.14h0l.14.32,0,0h0l0,0,0,0a.16.16,0,0,0,0,.07h0l.06.11v0c.06.09.13.21.2.3l.09.12,0,.06,0,.05.06.06a2.18,2.18,0,0,0,.25.28l0,0,.23.21a4.53,4.53,0,0,0,.63.44h0l.08,0,.09,0,.08.05.08,0,.08.05.08,0,.08,0,.08.05.08,0,.09.05h0l.28.16.17.07,0,0,.13.06h0l.21.08.06,0,.1,0h0l.2.06.31.08a5.94,5.94,0,0,0,.66.12h0l.1,0h.25l.22,0h.77l.31,0h.19l.14,0h0l.13,0,.16,0h.08l.17,0,.08,0,.21,0,.08,0h0l.32-.1,0,0h0l.23-.09.14-.07.06,0,.09,0,.28-.15h0l.62-.36.63-.36.62-.36.62-.36.63-.36.62-.36.62-.36.62-.36.63-.36.62-.36h0a4.73,4.73,0,0,0,.9-.67,4.31,4.31,0,0,0,.81-1.1l0-.05h0a4.32,4.32,0,0,0,.21-.47c0-.07.05-.14.07-.2s.08-.24.11-.37l.06-.28c0-.14.06-.29.08-.45s0-.13,0-.2a5.74,5.74,0,0,0,0-.6v-1.18s0-.06,0-.1v-.08l0-.25h0l0-.12a.2.2,0,0,1,0-.07l0-.15-.07-.29-.1-.33v0s0-.08,0-.12l0-.14c0-.09-.1-.23-.15-.32l-.13-.26a3.91,3.91,0,0,0-.36-.54l0,0,0,0a4.6,4.6,0,0,0-.31-.35l-.23-.21h0a3.15,3.15,0,0,0-.3-.24l-.18-.11-.06,0-.14-.08h0l-.08,0-.08-.05-.08,0-.08-.05-.09,0-.08,0-.08,0-.08,0-.08,0-.08,0h0l-.29-.16-.16-.08h0l-.13-.06h0l-.22-.09,0,0h0l-.06,0h0l-.19-.06-.32-.08c-.12,0-.35-.08-.66-.13h0l-.23,0h-1.09l-.31,0h0l-.17,0h-.2l-.12,0h-.09l-.08,0h-.08l-.17,0h-.08l-.21.06-.08,0h0l-.17,0-.11,0h0l-.1,0h0l-.22.09-.15.06-.06,0-.09,0c-.09,0-.22.11-.31.17h0l-.62.36-.63.36-.62.36-.62.36-.63.36-.62.36-.62.36-.62.36-.63.36-.62.36h0l-.25.16h0l-.1.07,0,0-.13.1a3,3,0,0,0-.35.3l0,.05-.06.06-.09.1,0,0-.08.1-.14.17-.1.14-.06.1h0l-.08.12,0,.1,0,.07,0,0,0,0,0,.1h0a5.57,5.57,0,0,0-.35,1,.83.83,0,0,1,0,.15l0,.15,0,.11v0l0,.08v.22l0,.21v.11a.38.38,0,0,0,0,.1v.1c0,.08,0,.2,0,.29v0Z"/><path class="cls-101" d="M1281.87,952.19h0v.71h0v.31a2.12,2.12,0,0,0,0,.24v.11l0,.14v0s0,.07,0,.11h0V954l0,.2.07.29,0,.12h0v0l0,.08a.56.56,0,0,0,0,.12l0,.08v0h0a1,1,0,0,0,.06.14h0c.06.14.12.26.15.32l0,.05h0v0a.43.43,0,0,0,0,.07h0l0,.11,0,0v0c.05.09.13.21.19.3l.09.13,0,.05,0,0,0,.06a3.33,3.33,0,0,0,.25.28l0,0,.22.21a4.59,4.59,0,0,0,.64.44h0l.08.05.08,0,.08,0,.08.05.09,0,.08,0,.08.05.08,0,.08.05.08,0h0l.29.16.16.07,0,0,.14.06h0l.22.08.05,0,.1,0h0l.2.06.32.08a6.12,6.12,0,0,0,.65.12h.38l.22,0h.77l.31,0h.19l.14,0h0l.13,0,.17,0h.07l.18,0h.07l.21-.06.09,0h0l.31-.1,0,0h0l.23-.09.14-.06.07,0,.09,0,.27-.15h0l.62-.36.62-.36.63-.36.62-.36.62-.36.62-.36.63-.36.62-.36.62-.36.63-.36h0a4.7,4.7,0,0,0,.89-.67,4.55,4.55,0,0,0,.82-1.1s0,0,0,0h0a4.32,4.32,0,0,0,.21-.47l.08-.2c0-.12.07-.24.1-.37a2.68,2.68,0,0,0,.07-.27c0-.15.05-.3.07-.46a1.36,1.36,0,0,0,0-.2,5.74,5.74,0,0,0,0-.6V948.4l0-.25h0l0-.12a.15.15,0,0,0,0-.07q0-.09,0-.15l-.07-.29c0-.1-.06-.23-.1-.33v0a.56.56,0,0,1,0-.12l-.06-.13a3.27,3.27,0,0,0-.14-.33l-.13-.26a4,4,0,0,0-.37-.54l0,0v0c-.09-.11-.2-.23-.32-.35l-.22-.21h0l-.31-.24-.17-.11-.07,0-.13-.08h0l-.09,0-.08,0-.08,0-.08,0-.08,0-.08,0-.08,0-.08-.05-.09,0-.08,0h0l-.28-.16-.17-.07,0,0-.13-.06h0l-.21-.09-.06,0h0l-.07,0h0l-.2-.06-.31-.08a5.94,5.94,0,0,0-.66-.12h0l-.23,0h-.11l-.21,0h-.77l-.31,0h0l-.17,0-.16,0h0l-.13,0h-.08l-.09,0h-.07l-.17,0H1292l-.21.06-.09,0h0l-.17.05-.1,0h0l-.1,0h0l-.23.09-.14.06-.07,0-.08,0a3.07,3.07,0,0,0-.31.17h0l-.62.36-.62.36-.62.36-.63.36-.62.36-.62.36-.63.36-.62.36-.62.36-.62.36h0l-.25.16h0l-.1.07,0,0-.12.1a4.39,4.39,0,0,0-.36.3l0,0-.06.06-.1.1,0,.05-.07.09c0,.05-.09.11-.14.17l-.1.14-.07.1h0l-.08.13-.06.09,0,.07,0,0,0,.05a.73.73,0,0,0,0,.09h0a4.91,4.91,0,0,0-.34,1,.94.94,0,0,0,0,.16l0,.14,0,.11v.06l0,.07v.14l0,.21v.11a.31.31,0,0,1,0,.1v.1a2.81,2.81,0,0,0,0,.29v0Z"/><path class="cls-100" d="M1282.06,946a5.24,5.24,0,0,1-5.07-4c-.94-3.74-5.64-22.65-5.72-27.68s4.63-24.83,6.06-30.81a5.24,5.24,0,1,1,10.18,2.46c-2.8,11.62-5.81,25.71-5.77,28.2s2.77,14.85,5.4,25.27a5.23,5.23,0,0,1-5.08,6.51Z"/><path class="cls-102" d="M1293.07,950a5.22,5.22,0,0,1-5.06-4c-1-3.74-5.65-22.64-5.72-27.67s4.62-24.83,6.06-30.81a5.23,5.23,0,0,1,10.17,2.45c-2.8,11.63-5.8,25.71-5.77,28.21s2.78,14.84,5.4,25.27a5.23,5.23,0,0,1-3.79,6.35A5.69,5.69,0,0,1,1293.07,950Z"/><path class="cls-102" d="M1299.09,870.37v0h0v0h0c0-.11,0-.24,0-.34v-.34a2.13,2.13,0,0,0,0-.25.09.09,0,0,1,0,0v-.05l-.08-.35a.19.19,0,0,0,0-.07,5.51,5.51,0,0,0-.76-1.87,7.43,7.43,0,0,0-.49-.75l0,0-.19-.24c-.16-.2-.29-.35-.37-.43l-.24-.25-.15-.13-.05,0-.07-.06,0,0-.21-.18h0l-.3-.21-.28-.18.1.06-.11-.07h0l-.53-.3-.54-.31-.53-.31-.53-.3-.53-.31-.53-.31-.54-.31-.53-.3-.53-.31-.53-.31h0a2.94,2.94,0,0,0-.31-.16l0,0h0l-.41-.16-.15,0-.08,0h0l-.12,0-.12,0-.1,0-.11,0-.07,0h-.07l-.25,0h0l-.16,0h-.82l-.36,0h-.08l-.38.06-.13,0-.07,0-.14,0h0l-.43.12h0l-.24.07-.1,0,.06,0-.1,0-.25.08-.15.06h0l-.42.17-.45.2-.42.2-.46.23c-.12.08-.29.17-.42.24l-1.15.67-.49.3,0,0-.06,0-.09.06-.18.12h0l-.12.08-.14.1-.12.08a10.78,10.78,0,0,0-2,1.84h0l-.18.23,0,.06c-.1.13-.19.26-.27.38v0l0,0-.15.24,0,0v0c-.1.18-.18.33-.24.47l0,0,0,.06a1.49,1.49,0,0,0-.1.26s-.06.18-.11.37l0,.07q0,.15-.06.33a2.67,2.67,0,0,0,0,.5,1.28,1.28,0,0,0,0,.19h0v16.49h0v0h0v0a7.11,7.11,0,0,0,1,3.33,7.77,7.77,0,0,0,1.06,1.44,6.44,6.44,0,0,0,1.37,1.11h0l.53.3.54.31.53.31.53.3.53.31.54.31.53.31.53.3.53.31.53.31h0a5.24,5.24,0,0,0,.94.41h0l.3.08.11,0,.27,0,.14,0h.42a7,7,0,0,0,1.37-.12h.09l.28-.06.08,0h0l.35-.09.16,0,.25-.07.08,0,.3-.1.14,0h0l.41-.17.13,0h0l.31-.13.43-.2.51-.27.42-.23,1.15-.67,0,0h0l.4-.25.07,0,.08-.06.26-.16.19-.13,0,0,.19-.14.27-.2h0l.08-.06.37-.3.33-.29.1-.09h0l.13-.12.09-.1h0l.12-.12.06-.07.1-.1,0,0,.2-.22,0,0h0l.06-.06,0-.05.19-.24h0l.08-.11.19-.26v0l0,0,.06-.11.1-.16v0l0-.06h0l.06-.1v0h0l.08-.15,0-.07a.93.93,0,0,0,.05-.1l.13-.32a.56.56,0,0,1,0-.12v0l.06-.19v0l0,0v-.05s0-.07,0-.11,0-.06,0-.09v-.06a.6.6,0,0,0,0-.12s0-.1,0-.15,0-.12,0-.19v-.33h0v-8.24h0v-4.12h0v-4.12Z"/><path class="cls-103" d="M1299.09,862.85v0h0v0h0c0-.1,0-.23,0-.33v-.35c0-.07,0-.16,0-.25s0,0,0,0v-.06l-.08-.34a.31.31,0,0,0,0-.08,5.59,5.59,0,0,0-.76-1.87,7.29,7.29,0,0,0-.49-.74l0,0c-.06-.08-.12-.17-.19-.25a5.22,5.22,0,0,0-.37-.42l-.24-.25-.15-.14-.05,0-.07-.07,0,0-.21-.17h0l-.3-.22-.28-.18.1.06-.11-.06h0l-.53-.31-.54-.31-.53-.3-.53-.31-.53-.31-.53-.3-.54-.31-.53-.31-.53-.31-.53-.3h0l-.31-.16,0,0h0l-.41-.17-.15,0-.08,0-.06,0h0l-.12,0-.12,0-.1,0-.11,0h-.14l-.25,0h0l-.16,0h-.82l-.36,0h-.08l-.38.07-.13,0h-.07l-.14,0h0l-.43.11h0l-.24.08-.1,0,.06,0-.1,0-.25.09-.15.05,0,0-.42.17-.45.19-.42.2-.46.24-.42.24-1.15.67-.49.29,0,0-.06,0-.09.06-.18.12h0l-.12.09-.14.09-.12.09a10.44,10.44,0,0,0-2,1.83h0a2,2,0,0,0-.18.23l0,.06c-.1.13-.19.25-.27.37v0l0,0-.15.24,0,0h0a5.34,5.34,0,0,0-.24.48l0,0,0,.05a2.51,2.51,0,0,0-.1.26c0,.06-.06.19-.11.38l0,.06c0,.1,0,.21-.06.34a2.67,2.67,0,0,0,0,.5,1.21,1.21,0,0,0,0,.18h0v16.49h0v0a7.12,7.12,0,0,0,1,3.34,7.58,7.58,0,0,0,1.06,1.43,6.13,6.13,0,0,0,1.37,1.11h0l.53.31.54.3.53.31.53.31.53.31.54.3.53.31.53.31.53.3.53.31h0a5.14,5.14,0,0,0,.94.42h0l.3.08.11,0,.27,0,.14,0,.2,0h.22a6.3,6.3,0,0,0,1.37-.12h.09l.28,0,.08,0h0l.35-.1.16,0,.25-.08.08,0,.3-.11.14-.05h0l.41-.16.13-.06h0l.31-.14.43-.2.51-.26.42-.24,1.15-.67h0l.4-.24.07,0,.08,0,.26-.17.19-.13,0,0,.19-.13.27-.21h0l.08-.06.37-.3.33-.28.1-.09,0,0,.13-.12.09-.09h0l.12-.13.06-.06.1-.1,0,0,.2-.22,0,0h0l.06-.06,0-.05.19-.24h0a.44.44,0,0,1,.08-.11l.19-.27v0l0,0,.06-.1.1-.16v0l0,0h0l.06-.11v0h0l.08-.15,0-.07a.47.47,0,0,0,.05-.1l.13-.31a.5.5,0,0,1,0-.13v0l.06-.19h0l0-.06v0s0-.08,0-.11,0-.06,0-.09v-.07a.52.52,0,0,0,0-.11s0-.1,0-.16,0-.11,0-.18v-.33h0V871.1h0V867h0v-4.12Z"/><path class="cls-103" d="M1304.52,859.73h0v0h0a1.48,1.48,0,0,1,0-.21v-.27a.28.28,0,0,0,0-.09V859a.69.69,0,0,0,0-.13h0s0-.08,0-.12a.06.06,0,0,0,0,0v0l0-.09,0-.15s0-.08,0-.11l0-.08a.29.29,0,0,1,0-.09,6,6,0,0,0-.76-1.86c-.15-.25-.31-.48-.47-.71l-.12-.17-.11-.13a4.9,4.9,0,0,0-.38-.45l-.25-.25-.14-.13,0,0-.08-.06,0,0-.22-.18h0a3.06,3.06,0,0,0-.29-.21l-.29-.18.1.06-.11-.07h0l-1.56-.9L1298,852l-1.55-.9-1.56-.9-1.56-.9-1.56-.9-1.56-.9-1.56-.9-1.56-.9-1.55-.9h0l-.31-.16,0,0h0l-.42-.17-.14-.05-.08,0h0l-.13,0-.12,0-.09,0-.12,0h-.13l-.25,0-.18,0h-.83l-.35,0h0l-.44.08-.14,0h-.06l-.15,0h0l-.44.12h0l-.25.08-.1,0,.06,0-.1,0-.24.08-.15.06,0,0-.42.16-.44.2-.43.2-.45.24-.43.24-1.14.66-.49.3,0,0-.07,0-.09.06-.18.12h0l-.12.08-.15.1-.12.09a10.55,10.55,0,0,0-2,1.82l0,0v0l-.18.21,0,.06c-.1.13-.18.26-.26.38l0,0v0l-.15.24,0,0v0a4.23,4.23,0,0,0-.24.47l0,0,0,.06-.1.26s0,.16-.09.31,0,0,0,0a1,1,0,0,0,0,.18.36.36,0,0,0,0,.1l0,.14s0,.09,0,.13a1.36,1.36,0,0,0,0,.21l0,.34h0v6.11h0v.05a7,7,0,0,0,1,3.33,7.67,7.67,0,0,0,1.06,1.44,5.81,5.81,0,0,0,1.37,1.1h0l1.56.9,1.56.9,1.56.9,1.55.9,1.56.9,1.56.9,1.56.9,1.56.9,1.56.9,1.56.9h0a4.7,4.7,0,0,0,.93.42h0l.3.08.12,0,.26,0,.14,0,.2,0h.23a6.63,6.63,0,0,0,1.34-.11l.09,0h0l.26,0,.09,0h0l.37-.1.13,0,.26-.08.08,0,.29-.1.15-.06h0l.42-.16.12,0h0l.31-.14.42-.2c.16-.07.36-.18.51-.26l.43-.24h0l1.15-.67h0l.41-.24.07-.05.08,0,.25-.16.2-.14,0,0,.19-.13.28-.21h0l.08-.06c.12-.08.27-.21.38-.3l.33-.28.09-.09,0,0,.13-.12.1-.09h0l.13-.13.06-.06.1-.1,0,0a2.09,2.09,0,0,0,.2-.22l0,0h0l.05-.06,0-.05.2-.24h0l.09-.12c.06-.09.13-.17.18-.26l0,0,0,0s0-.07.07-.1l.1-.16v0l0-.05v0l.07-.11v0a.77.77,0,0,0,.07-.16.43.43,0,0,0,0-.07l0-.1.12-.31a.65.65,0,0,0,0-.13l0,0v0a1.46,1.46,0,0,0,0-.2h0v-.1l0-.11a.29.29,0,0,1,0-.09v-.06a.37.37,0,0,1,0-.12.76.76,0,0,0,0-.15l0-.19v-.33h0v-6.13h0v0Z"/><path class="cls-104" d="M1279.82,833.91h0a5.93,5.93,0,0,1-5.91-5.91v-2.71a5.93,5.93,0,0,1,5.91-5.91h0a5.93,5.93,0,0,1,5.91,5.91V828A5.93,5.93,0,0,1,1279.82,833.91Z"/><rect class="cls-105" x="1283.44" y="841.1" width="8.18" height="12.63" rx="4.09" ry="4.09"/><path class="cls-98" d="M1286.54,848h0a10.76,10.76,0,0,1-10.73-10.73v-8.37a10.75,10.75,0,0,1,10.73-10.72h0a10.75,10.75,0,0,1,10.72,10.72v8.37A10.75,10.75,0,0,1,1286.54,848Z"/><path class="cls-105" d="M1279,842.27h0a1.6,1.6,0,0,1-1.59-1.59v-4.45a1.59,1.59,0,0,1,1.59-1.59h0a1.59,1.59,0,0,1,1.59,1.59v4.45A1.6,1.6,0,0,1,1279,842.27Z"/><path class="cls-106" d="M1299.31,827.84a4.7,4.7,0,0,0,0-.75v0a12.28,12.28,0,0,0-19-8.94,5.18,5.18,0,0,0-.75,8l5.11,5.12a5.23,5.23,0,0,0,3.68,1.52h1.36v4.88a1.12,1.12,0,0,0,.79,1.09,1.1,1.1,0,0,0,1.39-1.06V835a2.25,2.25,0,0,1,2.25-2.25h0v6.58a2.31,2.31,0,0,0,2.3,2.31h.58a2.32,2.32,0,0,0,2.31-2.31V828S1299.31,827.88,1299.31,827.84Z"/><path class="cls-98" d="M1293,833.69h-.06v6.69h.06a3.35,3.35,0,1,0,0-6.7Z"/><path class="cls-107" d="M1280.59,844.18s3.38,1.84,5.52-1.17"/><path class="cls-98" d="M1286.14,889c-8.16,0-16.72-3.09-18.07-3.59a3.14,3.14,0,0,1,2.21-5.88c6.34,2.37,18.16,4.9,22.88,1.59,4.26-3,4.49-12.54,4.24-15.65a3.14,3.14,0,0,1,6.26-.52c.13,1.59,1.08,15.73-6.9,21.31C1293.86,888.33,1290.05,889,1286.14,889Z"/><path class="cls-108" d="M1300.37,875.31h0a4.16,4.16,0,0,1-4.15-4.15v-8.83a4.17,4.17,0,0,1,4.15-4.15h0a4.17,4.17,0,0,1,4.15,4.15v8.83A4.16,4.16,0,0,1,1300.37,875.31Z"/><path class="cls-98" d="M1267.16,879.52h0a1.4,1.4,0,0,0-.94-1.74l-7.22-2.15a1.41,1.41,0,0,0-1.74.94h0a1.42,1.42,0,0,0,.94,1.74l7.23,2.15A1.4,1.4,0,0,0,1267.16,879.52Z"/><rect class="cls-98" x="1259.88" y="879.41" width="7.3" height="4.76" rx="2.38" ry="2.38" transform="translate(2469.16 -77.65) rotate(106.58)"/><path class="cls-98" d="M1268.3,880.54l.57-1.93a1.57,1.57,0,0,0-1.06-2h0a1.58,1.58,0,0,0-2,1.06l-.57,1.92a1.57,1.57,0,0,0,1.06,2h0A1.58,1.58,0,0,0,1268.3,880.54Z"/><path class="cls-98" d="M1271.26,881h0a4.46,4.46,0,0,0-5.36-3.29h0a4.45,4.45,0,0,0-3.29,5.35h0a4.45,4.45,0,0,0,5.35,3.3h0A4.47,4.47,0,0,0,1271.26,881Z"/><path class="cls-21" d="M714.58,793.55l-18.36-.6a4.54,4.54,0,0,0-4.67,4.37l-.43,13.25a4.52,4.52,0,0,0,4.37,4.67l5.07.17,3.93,5.36,4.28-5.09,5.07.16a4.52,4.52,0,0,0,4.67-4.37l.44-13.25A4.54,4.54,0,0,0,714.58,793.55Z"/></g></g></svg>