<svg xmlns="http://www.w3.org/2000/svg" viewBox="0 0 70.73 60.282"><defs><style>.cls-1{fill:#fff;}</style></defs><title>sms_logo</title><g id="Layer_2" data-name="Layer 2"><g id="Layer_1-2" data-name="Layer 1"><path class="cls-1" d="M67.5,60.282a3.538,3.538,0,0,1-1.926-.6c-.047-.031-.093-.064-.137-.1L56.5,52.625C54.031,51,51.5,50.77,43.622,50.77H15.46A15.377,15.377,0,0,1,0,35.514V15.256A15.377,15.377,0,0,1,15.46,0H55.251a15.377,15.377,0,0,1,15.46,15.256V35.514c-.04,7.883-.043,18.784-.043,20.306a3.922,3.922,0,0,1-1.46,3.931A3,3,0,0,1,67.5,60.282ZM15.46,4A11.372,11.372,0,0,0,4,15.256V35.514A11.373,11.373,0,0,0,15.46,46.77H43.622c8.2,0,11.638.221,15.155,2.566.041.027.08.056.119.085l7.772,6.046c0-2.416.006-12.535.043-19.963V15.256A11.372,11.372,0,0,0,55.251,4Z"/><path class="cls-1" d="M36.129,14.664a1.905,1.905,0,0,1,.612,1.441v19.18a1.956,1.956,0,0,1-2.053,2.022,2.07,2.07,0,0,1-1.507-.563,1.942,1.942,0,0,1-.58-1.459V21.936l-5.466,8.347a2.853,2.853,0,0,1-.762.647,1.538,1.538,0,0,1-.894.215,1.469,1.469,0,0,1-.862-.215,2.811,2.811,0,0,1-.763-.647l-5.465-8.646V35.285a2.04,2.04,0,0,1-.531,1.459,1.82,1.82,0,0,1-1.39.563,1.76,1.76,0,0,1-1.359-.58,2.057,2.057,0,0,1-.53-1.442V16.105a1.915,1.915,0,0,1,.613-1.424,2.038,2.038,0,0,1,1.474-.6,2.2,2.2,0,0,1,.994.249,1.93,1.93,0,0,1,.762.646l7.222,11.1,7.42-11.1a2.029,2.029,0,0,1,.712-.646,1.857,1.857,0,0,1,.912-.249A2.033,2.033,0,0,1,36.129,14.664Z"/><path class="cls-1" d="M58.108,17.3,51.185,27.2v8.082a1.985,1.985,0,0,1-.564,1.442,1.827,1.827,0,0,1-1.358.58,1.919,1.919,0,0,1-1.408-.58,1.959,1.959,0,0,1-.58-1.442V26.739L40.385,17.6a2.6,2.6,0,0,1-.6-1.557,1.818,1.818,0,0,1,.679-1.441,2.187,2.187,0,0,1,1.441-.58,2.008,2.008,0,0,1,1.623.928L49.362,23l5.466-7.984a2,2,0,0,1,1.657-.994,1.907,1.907,0,0,1,1.391.6,1.987,1.987,0,0,1,.6,1.458A2.214,2.214,0,0,1,58.108,17.3Z"/></g></g></svg>