<svg xmlns="http://www.w3.org/2000/svg" viewBox="0 0 379.475 381.294"><defs><style>.cls-1,.cls-2{fill:none;stroke:#fff;stroke-miterlimit:10;}.cls-1{stroke-width:13px;}.cls-2{stroke-width:5px;}.cls-3{fill:#fff;}</style></defs><title>smslogowhite</title><g id="Layer_2" data-name="Layer 2"><g id="Layer_2-2" data-name="Layer 2"><polygon class="cls-1" points="370.305 191.08 189.305 372.08 9.17 190.214 190.17 9.214 370.305 191.08"/><path class="cls-2" d="M23.966,130.665c1.573-.786,228.264-73.317,280.538-90.039a4.573,4.573,0,0,1,5.432,6.5L181.283,290.648Z"/><polygon class="cls-3" points="96.348 278.999 136.392 248.455 93.17 206.281 96.348 278.999"/><polygon class="cls-3" points="289.922 56.326 232.992 74.961 175.161 93.892 158.843 99.233 101.832 117.895 66.495 129.462 46.793 135.911 85.095 175.383 105.546 163.514 108.355 161.884 182.127 119.069 190.808 114.031 233.93 89.004 288.863 57.122 234.541 97.97 204.631 120.462 186.321 134.23 124.916 180.404 112.487 189.75 104.924 195.438 114.761 205.082 156.785 246.286 179.773 268.825 194.331 240.933 206.856 216.935 208.876 215.751 208.39 213.995 238.786 155.756 246.9 140.21 291.17 55.387 289.922 56.326"/></g></g></svg>