<svg id="Layer_1" data-name="Layer 1" xmlns="http://www.w3.org/2000/svg" viewBox="0 0 936 362.87"><defs><style>.cls-1{fill:#29abe2;}.cls-2{fill:#d60057;}.cls-3{fill:#ef3fa9;}.cls-4{fill:#ff5000;}.cls-5{fill:#d0009e;}.cls-6{fill:#8431a6;}.cls-7{fill:#ff6b00;}.cls-8{fill:#ffa400;}.cls-9{fill:#ffab4c;}.cls-10{fill:#9f26b5;}.cls-11{fill:#001fff;}.cls-12{fill:#06f;}.cls-13{fill:#f38b00;}.cls-14{fill:#e9004c;}.cls-15{fill:#00af41;}.cls-16{fill:#094;}.cls-17{fill:#05ce7c;}.cls-18{fill:#fff;}.cls-19{font-size:206.53px;fill:#333;font-family:MonotypeCorsiva, Monotype Corsiva;}</style></defs><title>smslogoblack</title><polygon class="cls-1" points="268.56 181.87 133.96 362.87 0 181 134.6 0 268.56 181.87"/><path class="cls-1" d="M16,198c1.17-.79,169.75-73.32,208.62-90,2.9-1.25,5.46,2.87,4,6.5L133,358Z" transform="translate(-5 -76.57)"/><path class="cls-2" d="M139.6,76.57c-3,4,0,85,0,85l38.31-33.49Z" transform="translate(-5 -76.57)"/><polygon class="cls-3" points="134.6 85 202.27 92 172.91 51.51 134.6 85"/><polygon class="cls-4" points="134.6 85 95.93 52 134.6 0 134.6 85"/><polygon class="cls-2" points="134.6 85 60.16 100.09 95.93 52 134.6 85"/><polygon class="cls-3" points="134.6 85 117.5 156 60.23 100 134.6 85"/><polygon class="cls-4" points="202.27 92 117.5 156 134.6 85 202.27 92"/><polygon class="cls-5" points="117.5 156 200.78 166 202.27 92 117.5 156"/><polygon class="cls-6" points="200.78 166 253.48 159.87 202.27 92 200.78 166"/><polygon class="cls-7" points="117.5 156 27.5 144.02 60.23 100 117.5 156"/><polygon class="cls-8" points="60.23 100 27.52 144 10.43 121.03 60.23 100"/><polygon class="cls-9" points="117.5 156 76.88 211.53 27.52 144 117.5 156"/><polygon class="cls-10" points="117.5 156 167.32 207 200.78 166 117.5 156"/><polygon class="cls-7" points="76.59 212 167.32 207 117.5 156 76.59 212"/><polygon class="cls-5" points="167.32 207 200.78 166 253.58 160 167.32 207"/><polygon class="cls-11" points="253.58 160 226.81 238 167.32 207 253.58 160"/><polygon class="cls-12" points="253.58 160 269.2 181 226.81 238 253.58 160"/><polygon class="cls-13" points="167.32 207 128.4 251.86 125.68 255 76.59 212 167.32 207"/><polygon class="cls-12" points="167.94 206.72 226.81 238 125.68 255 167.94 206.72"/><polygon class="cls-12" points="125.68 255 196.59 278.64 226.81 238 125.68 255"/><polygon class="cls-14" points="172.91 51.51 202.27 92 228.3 28 172.91 51.51"/><polygon class="cls-11" points="125.68 255 167.32 318 196.32 279 125.68 255"/><path class="cls-15" d="M81.6,288.57c-.74,5,13.39,58,13.39,58l35.69-15Z" transform="translate(-5 -76.57)"/><polygon class="cls-16" points="76.59 212 24.9 214.8 89.98 270 76.59 212"/><polygon class="cls-16" points="27.52 144 24.54 215 76.59 212 27.52 144"/><polygon class="cls-17" points="24.54 215 0 181 27.52 144 24.54 215"/><polygon class="cls-16" points="89.98 270 167.32 318 125.68 255 89.98 270"/><polygon class="cls-17" points="89.98 270 77.71 286.5 24.54 215 89.98 270"/><polygon class="cls-15" points="89.98 270 95.93 311.24 167.32 318 89.98 270"/><polygon class="cls-16" points="89.98 270 95.93 311 77.71 286.5 89.98 270"/><polyline class="cls-12" points="167.32 318 133.96 362.87 95.93 311"/><polygon class="cls-18" points="64.83 269.78 94.61 239.24 62.47 197.07 64.83 269.78"/><polygon class="cls-18" points="208.78 47.11 166.44 65.75 123.44 84.68 111.3 90.02 68.91 108.68 42.63 120.25 27.98 126.7 56.46 166.17 71.67 154.3 73.76 152.67 128.62 109.85 135.07 104.82 167.14 79.79 207.99 47.91 167.6 88.76 145.35 111.25 131.74 125.02 86.07 171.19 76.83 180.54 71.21 186.22 78.52 195.87 109.77 237.07 126.87 259.61 137.69 231.72 147.01 207.72 148.51 206.54 148.15 204.78 170.75 146.54 176.79 131 209.71 46.17 208.78 47.11"/><polyline class="cls-11" points="182.12 298.1 210.43 354.56 216.6 246.34 196.32 273.62"/><text class="cls-19" transform="translate(304.22 254.32) scale(0.74 1)">TripleSMS</text></svg>