<svg id="Layer_1" data-name="Layer 1" xmlns="http://www.w3.org/2000/svg" viewBox="0 0 964 304.22"><defs><style>.cls-1{fill:#29abe2;}.cls-2{fill:#d60057;}.cls-3{fill:#ef3fa9;}.cls-4{fill:#ff5000;}.cls-5{fill:#d0009e;}.cls-6{fill:#8431a6;}.cls-7{fill:#ff6b00;}.cls-8{fill:#ffa400;}.cls-9{fill:#ffab4c;}.cls-10{fill:#9f26b5;}.cls-11{fill:#001fff;}.cls-12{fill:#06f;}.cls-13{fill:#f38b00;}.cls-14{fill:#e9004c;}.cls-15{fill:#00af41;}.cls-16{fill:#094;}.cls-17{fill:#05ce7c;}.cls-18{fill:#fff;}.cls-19{font-size:173.15px;fill:#fffdfd;font-family:MonotypeCorsiva, Monotype Corsiva;}.cls-20{font-size:133.3px;}</style></defs><title>smslogo1</title><polygon class="cls-1" points="275.37 152.47 137.35 304.22 0 151.75 138.01 0 275.37 152.47"/><path class="cls-1" d="M23.27,225.6c1.2-.66,174.05-61.47,213.91-75.49,3-1,5.6,2.41,4.14,5.45l-98.1,204.17Z" transform="translate(-11.99 -123.78)"/><path class="cls-2" d="M150,123.78c-3.05,3.35,0,71.26,0,71.26L189.28,167Z" transform="translate(-11.99 -123.78)"/><polygon class="cls-3" points="138.01 71.26 207.4 77.13 177.29 43.19 138.01 71.26"/><polygon class="cls-4" points="138.01 71.26 98.36 43.6 138.01 0 138.01 71.26"/><polygon class="cls-2" points="138.01 71.26 61.69 83.92 98.36 43.6 138.01 71.26"/><polygon class="cls-3" points="138.01 71.26 120.47 130.79 61.76 83.84 138.01 71.26"/><polygon class="cls-4" points="207.4 77.13 120.47 130.79 138.01 71.26 207.4 77.13"/><polygon class="cls-5" points="120.47 130.79 205.88 139.17 207.4 77.13 120.47 130.79"/><polygon class="cls-6" points="205.88 139.17 259.91 134.03 207.4 77.13 205.88 139.17"/><polygon class="cls-7" points="120.47 130.79 28.2 120.74 61.76 83.84 120.47 130.79"/><polygon class="cls-8" points="61.76 83.84 28.21 120.73 10.69 101.47 61.76 83.84"/><polygon class="cls-9" points="120.47 130.79 78.83 177.35 28.21 120.73 120.47 130.79"/><polygon class="cls-10" points="120.47 130.79 171.56 173.54 205.88 139.17 120.47 130.79"/><polygon class="cls-7" points="78.54 177.74 171.56 173.54 120.47 130.79 78.54 177.74"/><polygon class="cls-5" points="171.56 173.54 205.88 139.17 260.01 134.14 171.56 173.54"/><polygon class="cls-11" points="260.01 134.14 232.56 199.53 171.56 173.54 260.01 134.14"/><polygon class="cls-12" points="260.01 134.14 276.02 151.75 232.56 199.53 260.01 134.14"/><polygon class="cls-13" points="171.56 173.54 131.66 211.15 128.86 213.79 78.54 177.74 171.56 173.54"/><polygon class="cls-12" points="172.2 173.31 232.56 199.53 128.86 213.79 172.2 173.31"/><polygon class="cls-12" points="128.86 213.79 201.57 233.61 232.56 199.53 128.86 213.79"/><polygon class="cls-14" points="177.29 43.19 207.4 77.13 234.09 23.48 177.29 43.19"/><polygon class="cls-11" points="128.86 213.79 171.56 266.61 201.3 233.91 128.86 213.79"/><path class="cls-15" d="M90.52,301.52c-.76,4.19,13.73,48.63,13.73,48.63l36.6-12.58Z" transform="translate(-11.99 -123.78)"/><polygon class="cls-16" points="78.54 177.74 25.53 180.09 92.26 226.36 78.54 177.74"/><polygon class="cls-16" points="28.21 120.73 25.16 180.25 78.54 177.74 28.21 120.73"/><polygon class="cls-17" points="25.16 180.25 0 151.75 28.21 120.73 25.16 180.25"/><polygon class="cls-16" points="92.26 226.36 171.56 266.61 128.86 213.79 92.26 226.36"/><polygon class="cls-17" points="92.26 226.36 79.68 240.2 25.16 180.25 92.26 226.36"/><polygon class="cls-15" points="92.26 226.36 98.36 260.94 171.56 266.61 92.26 226.36"/><polygon class="cls-16" points="92.26 226.36 98.36 260.74 79.68 240.2 92.26 226.36"/><polyline class="cls-12" points="171.56 266.61 137.35 304.22 98.36 260.74"/><polygon class="cls-18" points="66.47 226.18 97.01 200.57 64.05 165.22 66.47 226.18"/><polygon class="cls-18" points="214.07 39.5 170.66 55.12 126.57 70.99 114.13 75.47 70.66 91.12 43.71 100.81 28.69 106.22 57.89 139.31 73.49 129.36 75.63 128 131.88 92.1 138.5 87.88 171.38 66.89 213.27 40.16 171.84 74.41 149.04 93.27 135.08 104.81 88.26 143.52 78.78 151.36 73.01 156.13 80.51 164.21 112.56 198.76 130.09 217.65 141.19 194.27 150.74 174.15 152.28 173.16 151.91 171.68 175.08 122.86 181.27 109.82 215.03 38.71 214.07 39.5"/><polyline class="cls-11" points="186.74 249.92 215.77 297.25 222.1 206.53 201.3 229.4"/><text class="cls-19" transform="translate(311.93 213.22) scale(0.91 1)">Triple <tspan class="cls-20" x="394.58" y="0">SMS</tspan></text><text x="-11.99" y="-123.78"></text><text x="-11.99" y="-123.78"></text></svg>