<?xml version="1.0" encoding="utf-8"?>
<!-- Generator: Adobe Illustrator 21.1.0, SVG Export Plug-In . SVG Version: 6.00 Build 0)  -->
<svg version="1.1" id="Layer_1" xmlns="http://www.w3.org/2000/svg" xmlns:xlink="http://www.w3.org/1999/xlink" x="0px" y="0px"
	 viewBox="0 0 960 560" style="enable-background:new 0 0 960 560;" xml:space="preserve">
<style type="text/css">
	.st0{fill:#29ABE2;}
	.st1{fill:#D60057;}
	.st2{fill:#EF3FA9;}
	.st3{fill:#FF5000;}
	.st4{fill:#D0009E;}
	.st5{fill:#8431A6;}
	.st6{fill:#FF6B00;}
	.st7{fill:#FFA400;}
	.st8{fill:#FFAB4C;}
	.st9{fill:#9F26B5;}
	.st10{fill:#001FFF;}
	.st11{fill:#0066FF;}
	.st12{fill:#F38B00;}
	.st13{fill:#E9004C;}
	.st14{fill:#00AF41;}
	.st15{fill:#009944;}
	.st16{fill:#05CE7C;}
	.st17{fill:#FFFFFF;}
	.st18{fill:#333333;}
	.st19{font-family:'MonotypeCorsiva';}
	.st20{font-size:147.0901px;}
</style>
<g>
	<g>
		<polygon class="st0" points="281.1,181.1 152.2,310 23.9,180.5 152.8,51.6 		"/>
		<path class="st0" d="M34.4,138.1c1.1-0.6,162.6-52.2,199.8-64.1c2.8-0.9,5.2,2,3.9,4.6L146.4,252L34.4,138.1z"/>
	</g>
	<g>
		<path class="st1" d="M152.8,51.6c-2.8,2.8,0,60.5,0,60.5l36.7-23.8L152.8,51.6z"/>
		<polygon class="st2" points="152.8,112.1 217.6,117.1 189.5,88.3 		"/>
		<polygon class="st3" points="152.8,112.1 115.7,88.6 152.8,51.6 		"/>
		<polygon class="st1" points="152.8,112.1 81.5,122.9 115.7,88.6 		"/>
		<polygon class="st2" points="152.8,112.1 136.4,162.7 81.6,122.8 		"/>
		<polygon class="st3" points="217.6,117.1 136.4,162.7 152.8,112.1 		"/>
		<polygon class="st4" points="136.4,162.7 216.2,169.8 217.6,117.1 		"/>
		<polygon class="st5" points="216.2,169.8 266.6,165.4 217.6,117.1 		"/>
		<polygon class="st6" points="136.4,162.7 50.2,154.1 81.6,122.8 		"/>
		<polygon class="st7" points="81.6,122.8 50.2,154.1 33.9,137.8 		"/>
		<polygon class="st8" points="136.4,162.7 97.5,202.2 50.2,154.1 		"/>
		<polygon class="st9" points="136.4,162.7 184.1,199 216.2,169.8 		"/>
		<polygon class="st6" points="97.2,202.6 184.1,199 136.4,162.7 		"/>
		<polygon class="st4" points="184.1,199 216.2,169.8 266.7,165.5 		"/>
		<polygon class="st10" points="266.7,165.5 241.1,221.1 184.1,199 		"/>
		<polygon class="st11" points="266.7,165.5 281.7,180.5 241.1,221.1 		"/>
		<polygon class="st12" points="184.1,199 146.8,230.9 144.2,233.2 97.2,202.6 		"/>
		<polygon class="st11" points="184.7,198.8 241.1,221.1 144.2,233.2 		"/>
		<polygon class="st11" points="144.2,233.2 212.1,250 241.1,221.1 		"/>
		<polygon class="st13" points="189.5,88.3 217.6,117.1 242.5,71.5 		"/>
		<polygon class="st10" points="144.2,233.2 184.1,278 211.9,250.3 		"/>
		<path class="st14" d="M97.2,202.6c-0.7,3.6,12.8,41.3,12.8,41.3l34.2-10.7L97.2,202.6z"/>
		<polygon class="st15" points="97.2,202.6 47.7,204.6 110,243.9 		"/>
		<polygon class="st15" points="50.2,154.1 47.4,204.7 97.2,202.6 		"/>
		<polygon class="st16" points="47.4,204.7 23.9,180.5 50.2,154.1 		"/>
		<polygon class="st15" points="110,243.9 184.1,278 144.2,233.2 		"/>
		<polygon class="st16" points="110,243.9 98.3,255.6 47.4,204.7 		"/>
		<polygon class="st14" points="110,243.9 115.7,273.2 184.1,278 		"/>
		<polygon class="st15" points="110,243.9 115.7,273.1 98.3,255.6 		"/>
		<polyline class="st11" points="184.1,278 152.2,310 115.7,273.1 		"/>
	</g>
	<g>
		<g>
			<polygon class="st17" points="86,243.7 114.5,222 83.7,191.9 			"/>
		</g>
		<g>
			<polygon class="st17" points="223.8,85.1 183.3,98.4 142.1,111.9 130.5,115.7 89.9,129 64.7,137.2 50.7,141.8 77.9,169.9 
				92.5,161.5 94.5,160.3 147,129.8 153.2,126.2 183.9,108.4 223.1,85.7 184.4,114.8 163.1,130.8 150,140.6 106.3,173.5 97.5,180.1 
				92.1,184.2 99.1,191.1 129,220.4 145.4,236.5 155.7,216.6 164.7,199.5 166.1,198.7 165.8,197.4 187.4,155.9 193.2,144.9 
				224.7,84.5 			"/>
		</g>
	</g>
	<polyline class="st10" points="198.3,263.9 225.4,304.1 231.3,227 211.9,246.4 	"/>
</g>
<text transform="matrix(0.9102 0 0 1 315.2207 232.6963)" class="st18 st19 st20">TripleSMS</text>
</svg>
