<svg xmlns="http://www.w3.org/2000/svg" xmlns:xlink="http://www.w3.org/1999/xlink" viewBox="0 0 679.848 560.672"><defs><style>.cls-1{isolation:isolate;}.cls-10,.cls-12,.cls-14,.cls-15,.cls-17,.cls-19,.cls-2,.cls-21,.cls-22,.cls-23,.cls-24,.cls-26,.cls-28,.cls-29,.cls-31,.cls-32,.cls-34,.cls-36,.cls-38,.cls-41,.cls-43,.cls-44,.cls-46,.cls-47,.cls-49,.cls-5,.cls-51,.cls-52,.cls-59,.cls-6,.cls-60,.cls-64,.cls-65,.cls-66,.cls-68,.cls-71,.cls-73,.cls-74,.cls-75,.cls-77,.cls-79,.cls-80,.cls-81,.cls-82,.cls-83,.cls-86,.cls-87,.cls-88{mix-blend-mode:multiply;}.cls-2{fill:url(#linear-gradient);}.cls-3{fill:#12103d;}.cls-4{fill:#293271;}.cls-5{fill:url(#linear-gradient-2);}.cls-6{fill:url(#linear-gradient-3);}.cls-7{fill:#fdd4c0;}.cls-8{fill:#fbc4aa;}.cls-9{fill:#7a287a;}.cls-10{fill:url(#linear-gradient-4);}.cls-11,.cls-16,.cls-39,.cls-48,.cls-61,.cls-69,.cls-84{mix-blend-mode:overlay;}.cls-11{fill:url(#linear-gradient-5);}.cls-12{fill:url(#linear-gradient-6);}.cls-13{fill:#5d463a;}.cls-14{fill:url(#linear-gradient-7);}.cls-15{opacity:0.1;}.cls-16{fill:url(#linear-gradient-8);}.cls-17{fill:url(#linear-gradient-9);}.cls-18{fill:#f1f1f2;}.cls-19{fill:url(#linear-gradient-10);}.cls-20{fill:#d0d2d3;}.cls-21{fill:url(#linear-gradient-11);}.cls-22{fill:url(#linear-gradient-12);}.cls-23{fill:url(#linear-gradient-13);}.cls-24{fill:url(#linear-gradient-14);}.cls-25,.cls-30,.cls-69,.cls-72,.cls-78{opacity:0.78;}.cls-25,.cls-30,.cls-72,.cls-78{mix-blend-mode:soft-light;}.cls-25{fill:url(#linear-gradient-15);}.cls-26{fill:url(#linear-gradient-16);}.cls-27{fill:#b43f62;}.cls-28{fill:url(#linear-gradient-17);}.cls-29{fill:url(#linear-gradient-18);}.cls-30{fill:url(#linear-gradient-19);}.cls-31{fill:url(#linear-gradient-20);}.cls-32{fill:url(#linear-gradient-21);}.cls-33{fill:#b2e0e6;}.cls-34{fill:url(#linear-gradient-22);}.cls-35{fill:#88d1d1;}.cls-37{fill:url(#linear-gradient-23);}.cls-38{fill:url(#linear-gradient-24);}.cls-39{opacity:0.4;}.cls-40,.cls-61{fill:#fff;}.cls-41{fill:url(#linear-gradient-25);}.cls-42{fill:#6b1f6b;}.cls-43{fill:url(#linear-gradient-26);}.cls-44{fill:url(#linear-gradient-27);}.cls-45{fill:#535a9a;}.cls-46{fill:url(#linear-gradient-28);}.cls-47{fill:url(#linear-gradient-29);}.cls-48{fill:url(#linear-gradient-30);}.cls-49{fill:url(#linear-gradient-31);}.cls-50{fill:#c5c7c9;}.cls-51{fill:url(#linear-gradient-32);}.cls-52{fill:url(#linear-gradient-33);}.cls-53{fill:#515150;}.cls-54{fill:#434343;}.cls-55{fill:#353535;}.cls-56{fill:#232323;}.cls-57{fill:#5c5c5c;}.cls-58{fill:#49494a;}.cls-59{fill:url(#linear-gradient-34);}.cls-60,.cls-82,.cls-88{opacity:0.5;}.cls-60{fill:url(#linear-gradient-35);}.cls-61{opacity:0.3;}.cls-62{fill:#f05751;}.cls-63{fill:#e14949;}.cls-64{fill:url(#linear-gradient-36);}.cls-65{fill:url(#linear-gradient-37);}.cls-66{fill:url(#linear-gradient-38);}.cls-67{fill:#523d33;}.cls-68{fill:url(#linear-gradient-39);}.cls-70{fill:url(#linear-gradient-40);}.cls-71{fill:url(#linear-gradient-41);}.cls-72{fill:url(#linear-gradient-42);}.cls-73{fill:url(#linear-gradient-43);}.cls-74{fill:url(#linear-gradient-44);}.cls-75{fill:url(#linear-gradient-45);}.cls-76{fill:url(#linear-gradient-46);}.cls-77{fill:url(#linear-gradient-47);}.cls-78{fill:url(#linear-gradient-48);}.cls-79{fill:url(#linear-gradient-49);}.cls-80{fill:url(#linear-gradient-50);}.cls-81{fill:url(#linear-gradient-51);}.cls-82{fill:url(#linear-gradient-52);}.cls-83{fill:url(#linear-gradient-53);}.cls-84{fill:url(#linear-gradient-54);}.cls-85{fill:#9b3454;}.cls-86{fill:url(#linear-gradient-55);}.cls-87{fill:url(#linear-gradient-56);}.cls-88{fill:url(#linear-gradient-57);}.cls-89{opacity:0.8;}.cls-90{fill:#0f294c;}.cls-91{fill:#341a3f;}</style><linearGradient id="linear-gradient" x1="309.305" y1="614.437" x2="309.305" y2="99.396" gradientUnits="userSpaceOnUse"><stop offset="0" stop-color="#fff" stop-opacity="0"/><stop offset="1" stop-color="#231f20"/></linearGradient><linearGradient id="linear-gradient-2" x1="318.589" y1="377.958" x2="318.589" y2="358.605" gradientUnits="userSpaceOnUse"><stop offset="0.004" stop-color="#fff" stop-opacity="0"/><stop offset="1" stop-color="#12103d"/></linearGradient><linearGradient id="linear-gradient-3" x1="351.125" y1="379.269" x2="351.125" y2="357.969" xlink:href="#linear-gradient-2"/><linearGradient id="linear-gradient-4" x1="340.663" y1="205.467" x2="274.706" y2="259.631" xlink:href="#linear-gradient-2"/><linearGradient id="linear-gradient-5" x1="339.546" y1="204.425" x2="374.273" y2="169.697" gradientUnits="userSpaceOnUse"><stop offset="0" stop-color="#fff" stop-opacity="0"/><stop offset="1" stop-color="#fff"/></linearGradient><linearGradient id="linear-gradient-6" x1="322.029" y1="151.156" x2="300.244" y2="125.603" gradientUnits="userSpaceOnUse"><stop offset="0.004" stop-color="#fff" stop-opacity="0"/><stop offset="1" stop-color="#8a5d3b"/></linearGradient><linearGradient id="linear-gradient-7" x1="344.826" y1="125.597" x2="304.64" y2="167.749" xlink:href="#linear-gradient"/><linearGradient id="linear-gradient-8" x1="350.724" y1="198.027" x2="392.329" y2="174.931" xlink:href="#linear-gradient-5"/><linearGradient id="linear-gradient-9" x1="319.956" y1="197.177" x2="259.294" y2="197.177" xlink:href="#linear-gradient-2"/><linearGradient id="linear-gradient-10" x1="346.341" y1="423.07" x2="261.164" y2="390.31" gradientUnits="userSpaceOnUse"><stop offset="0" stop-color="#fff" stop-opacity="0"/><stop offset="0.255" stop-color="#c4c6c8" stop-opacity="0.255"/><stop offset="1" stop-color="#231f20"/></linearGradient><linearGradient id="linear-gradient-11" x1="331.805" y1="430.204" x2="273.927" y2="430.204" xlink:href="#linear-gradient"/><linearGradient id="linear-gradient-12" x1="336.391" y1="371.027" x2="317.828" y2="371.027" xlink:href="#linear-gradient"/><linearGradient id="linear-gradient-13" x1="333.606" y1="371.027" x2="315.044" y2="371.027" xlink:href="#linear-gradient"/><linearGradient id="linear-gradient-14" x1="352.382" y1="352.737" x2="309.359" y2="342.691" xlink:href="#linear-gradient"/><linearGradient id="linear-gradient-15" x1="319.048" y1="386.593" x2="349.406" y2="354.488" xlink:href="#linear-gradient-5"/><linearGradient id="linear-gradient-16" x1="285.625" y1="395.371" x2="272.193" y2="371.456" xlink:href="#linear-gradient-6"/><linearGradient id="linear-gradient-17" x1="264.318" y1="442.541" x2="305.397" y2="442.541" xlink:href="#linear-gradient-2"/><linearGradient id="linear-gradient-18" x1="253.78" y1="445.837" x2="244.442" y2="445.837" xlink:href="#linear-gradient"/><linearGradient id="linear-gradient-19" x1="250.292" y1="461.468" x2="260.284" y2="433.458" xlink:href="#linear-gradient-5"/><linearGradient id="linear-gradient-20" x1="254.806" y1="447.934" x2="221.554" y2="421.725" xlink:href="#linear-gradient"/><linearGradient id="linear-gradient-21" x1="254.764" y1="472.188" x2="219.158" y2="472.188" xlink:href="#linear-gradient"/><linearGradient id="linear-gradient-22" x1="259.17" y1="393.588" x2="169.079" y2="333.309" gradientUnits="userSpaceOnUse"><stop offset="0" stop-color="#fff" stop-opacity="0"/><stop offset="1" stop-color="#262261"/></linearGradient><linearGradient id="linear-gradient-23" x1="279.388" y1="408.391" x2="161.49" y2="408.391" xlink:href="#linear-gradient-22"/><linearGradient id="linear-gradient-24" x1="241.164" y1="409.08" x2="241.164" y2="462.817" xlink:href="#linear-gradient-22"/><linearGradient id="linear-gradient-25" x1="301.12" y1="373.372" x2="301.12" y2="346.436" xlink:href="#linear-gradient-6"/><linearGradient id="linear-gradient-26" x1="253.813" y1="373.831" x2="272.814" y2="335.611" xlink:href="#linear-gradient-2"/><linearGradient id="linear-gradient-27" x1="266.284" y1="368.112" x2="168.436" y2="368.112" xlink:href="#linear-gradient-2"/><linearGradient id="linear-gradient-28" x1="404.879" y1="402.856" x2="404.879" y2="329.908" xlink:href="#linear-gradient-2"/><linearGradient id="linear-gradient-29" x1="407.918" y1="383.711" x2="372.713" y2="383.711" xlink:href="#linear-gradient-2"/><linearGradient id="linear-gradient-30" x1="322.479" y1="308.924" x2="403.07" y2="242.748" xlink:href="#linear-gradient-5"/><linearGradient id="linear-gradient-31" x1="305.626" y1="292.25" x2="174.585" y2="264.076" xlink:href="#linear-gradient"/><linearGradient id="linear-gradient-32" x1="321.43" y1="332.844" x2="218.827" y2="332.844" xlink:href="#linear-gradient"/><linearGradient id="linear-gradient-33" x1="352.881" y1="332.844" x2="460.193" y2="332.844" xlink:href="#linear-gradient"/><linearGradient id="linear-gradient-34" x1="320.648" y1="298.358" x2="245.081" y2="209.687" xlink:href="#linear-gradient"/><linearGradient id="linear-gradient-35" x1="335.761" y1="307.241" x2="270.241" y2="254.169" gradientUnits="userSpaceOnUse"><stop offset="0" stop-color="#fff" stop-opacity="0"/><stop offset="0.032" stop-color="#f8fbfc" stop-opacity="0.032"/><stop offset="1" stop-color="#5ac7da"/></linearGradient><linearGradient id="linear-gradient-36" x1="244.833" y1="316.633" x2="201.589" y2="327.771" gradientUnits="userSpaceOnUse"><stop offset="0.004" stop-color="#fff" stop-opacity="0"/><stop offset="1" stop-color="#be1e2d"/></linearGradient><linearGradient id="linear-gradient-37" x1="235.447" y1="307.65" x2="222.561" y2="277.292" xlink:href="#linear-gradient-36"/><linearGradient id="linear-gradient-38" x1="234.387" y1="253.103" x2="202.719" y2="271.012" xlink:href="#linear-gradient"/><linearGradient id="linear-gradient-39" x1="297.98" y1="414.554" x2="252.989" y2="373.275" xlink:href="#linear-gradient-6"/><linearGradient id="linear-gradient-40" x1="449.996" y1="302.849" x2="481.009" y2="260.479" xlink:href="#linear-gradient-5"/><linearGradient id="linear-gradient-41" x1="420.456" y1="441.362" x2="411.117" y2="441.362" xlink:href="#linear-gradient"/><linearGradient id="linear-gradient-42" x1="416.968" y1="456.993" x2="426.96" y2="428.983" xlink:href="#linear-gradient-5"/><linearGradient id="linear-gradient-43" x1="421.481" y1="443.459" x2="388.228" y2="417.25" xlink:href="#linear-gradient"/><linearGradient id="linear-gradient-44" x1="421.438" y1="467.714" x2="385.832" y2="467.714" xlink:href="#linear-gradient"/><linearGradient id="linear-gradient-45" x1="425.846" y1="389.114" x2="335.755" y2="328.835" xlink:href="#linear-gradient-22"/><linearGradient id="linear-gradient-46" x1="446.064" y1="403.917" x2="328.168" y2="403.917" xlink:href="#linear-gradient-22"/><linearGradient id="linear-gradient-47" x1="407.84" y1="404.606" x2="407.84" y2="458.344" xlink:href="#linear-gradient-22"/><linearGradient id="linear-gradient-48" x1="455.88" y1="408.44" x2="443.007" y2="395.567" xlink:href="#linear-gradient-5"/><linearGradient id="linear-gradient-49" x1="414.62" y1="380.231" x2="409.706" y2="424.458" xlink:href="#linear-gradient-2"/><linearGradient id="linear-gradient-50" x1="377.123" y1="403.762" x2="344.609" y2="403.762" xlink:href="#linear-gradient-2"/><linearGradient id="linear-gradient-51" x1="364.446" y1="381.259" x2="347.411" y2="341.619" xlink:href="#linear-gradient-2"/><linearGradient id="linear-gradient-52" x1="401.829" y1="298.347" x2="373.438" y2="316.911" xlink:href="#linear-gradient-35"/><linearGradient id="linear-gradient-53" x1="438.596" y1="324.948" x2="351.968" y2="344.636" xlink:href="#linear-gradient-2"/><linearGradient id="linear-gradient-54" x1="434.937" y1="329.3" x2="499.509" y2="264.728" xlink:href="#linear-gradient-5"/><linearGradient id="linear-gradient-55" x1="440.69" y1="222.859" x2="413.008" y2="307.708" xlink:href="#linear-gradient"/><linearGradient id="linear-gradient-56" x1="421.146" y1="314.937" x2="392.973" y2="316.466" xlink:href="#linear-gradient-2"/><linearGradient id="linear-gradient-57" x1="361.746" y1="260.752" x2="344.875" y2="264.519" xlink:href="#linear-gradient-35"/></defs><title>working2</title><g class="cls-1"><g id="Background_2" data-name="Background 2"><g id="_Group_" data-name="&lt;Group&gt;"><path id="_Path_" data-name="&lt;Path&gt;" class="cls-2" d="M491.546,439.017c0,35.429-81.592,64.148-182.241,64.148s-182.241-28.719-182.241-64.148,81.592-64.151,182.241-64.151S491.546,403.587,491.546,439.017Z"/><g id="_Group_2" data-name="&lt;Group&gt;"><g id="_Group_3" data-name="&lt;Group&gt;"><path id="_Path_2" data-name="&lt;Path&gt;" class="cls-3" d="M325.035,390.173c1.723-2.055,1.97-8.04,1.142-10.591a4.279,4.279,0,0,0-3.447-3.24c-4.854-.743-9.628.648-13.806,7.078s-10.573,12.55-8.67,17.433,9.587,4.634,14.2-1.606C320.12,391.59,322.539,393.144,325.035,390.173Z"/><path id="_Path_3" data-name="&lt;Path&gt;" class="cls-4" d="M328.637,382.89s-10.66,4.009-20.426,0V354.533h20.755Z"/><path id="_Path_4" data-name="&lt;Path&gt;" class="cls-5" d="M328.637,382.89s-10.66,4.009-20.426,0V354.533h20.755Z"/><path id="_Path_5" data-name="&lt;Path&gt;" class="cls-3" d="M345.226,390.173c-1.725-2.055-1.971-8.04-1.145-10.591a4.282,4.282,0,0,1,3.449-3.24c4.853-.743,9.627.648,13.806,7.078s10.573,12.55,8.67,17.433-9.587,4.634-14.2-1.606C350.139,391.59,347.72,393.144,345.226,390.173Z"/><path id="_Path_6" data-name="&lt;Path&gt;" class="cls-4" d="M341.076,382.89s10.661,4.009,20.426,0V354.533H340.747Z"/><path id="_Path_7" data-name="&lt;Path&gt;" class="cls-6" d="M341.076,382.89s10.661,4.009,20.426,0V354.533H340.747Z"/><path id="_Path_8" data-name="&lt;Path&gt;" class="cls-7" d="M413.651,184.674a93.548,93.548,0,0,0-7.994,12.58c1.436-3.947.121-14.618-2.665-5.832a56.123,56.123,0,0,0-2.625,16.352l-19.6,18.658a4.521,4.521,0,0,1-7.482-2.092l-3.463-12.771h0c-2.1,2.3-6.71,5.848-14.835,5.318l8.046,17.7a13.68,13.68,0,0,0,22.162,3.972l21.917-22.548C429.241,196.8,418.238,178.728,413.651,184.674Z"/><path id="_Path_9" data-name="&lt;Path&gt;" class="cls-7" d="M248.151,184.674a93.5,93.5,0,0,1,8,12.58c-1.436-3.947-.121-14.618,2.666-5.832a56.187,56.187,0,0,1,2.626,16.352l19.8,18.856a4.351,4.351,0,0,0,7.2-2.013l3.538-13.048h0c2.1,2.3,6.712,5.848,14.836,5.318l-8.047,17.7a13.678,13.678,0,0,1-22.16,3.972l-21.918-22.548C232.563,196.8,243.566,178.728,248.151,184.674Z"/><path id="_Path_10" data-name="&lt;Path&gt;" class="cls-7" d="M248.151,184.674a93.5,93.5,0,0,1,8,12.58c-1.436-3.947-.121-14.618,2.666-5.832a56.187,56.187,0,0,1,2.626,16.352l19.8,18.856a4.351,4.351,0,0,0,7.2-2.013l3.538-13.048h0c2.1,2.3,6.712,5.848,14.836,5.318l-8.047,17.7a13.678,13.678,0,0,1-22.16,3.972l-21.918-22.548C232.563,196.8,243.566,178.728,248.151,184.674Z"/><g id="_Group_4" data-name="&lt;Group&gt;"><path id="_Path_11" data-name="&lt;Path&gt;" class="cls-8" d="M304.1,216.909l-6.472,14.234a13.679,13.679,0,0,1-22.161,3.974l-21.918-22.549c-6.085-5.283-9.655-10.476-11.551-15.111,1.368,5.42,5.056,11.917,12.7,18.551l21.918,22.548a13.678,13.678,0,0,0,22.16-3.972l8.047-17.7A23.912,23.912,0,0,1,304.1,216.909Z"/></g><path id="_Path_12" data-name="&lt;Path&gt;" class="cls-8" d="M279.107,238.556,257.19,216.008c-17.514-15.206-14.272-29.682-9.886-32.116-4.894-3.077-13.471,14.007,7.388,32.116l21.918,22.548a13.538,13.538,0,0,0,10.942,3.971A13.514,13.514,0,0,1,279.107,238.556Z"/><path id="_Path_13" data-name="&lt;Path&gt;" class="cls-9" d="M306.817,216.887s-1.822,17.752-2.755,21.869a12.7,12.7,0,0,0,.565,6.29,167.356,167.356,0,0,1,52.9-1.3,11.309,11.309,0,0,0,.209-4.988c-.933-4.117-2.755-21.869-2.755-21.869,11.883.775,16.249-7.178,16.249-7.178l-3.557-14.181c-4.8-14.275-22.395-15.88-28.535-16v3.1c0,2.8-3.542,5.073-7.912,5.073s-7.914-2.271-7.914-5.073v-2.638c.54-.1-23.349-1.842-29.192,15.54l-3.557,14.181S294.934,217.662,306.817,216.887Z"/><path id="_Path_14" data-name="&lt;Path&gt;" class="cls-10" d="M306.817,216.887s-1.822,17.752-2.755,21.869a12.7,12.7,0,0,0,.565,6.29,167.356,167.356,0,0,1,52.9-1.3,11.309,11.309,0,0,0,.209-4.988c-.933-4.117-2.755-21.869-2.755-21.869,11.883.775,16.249-7.178,16.249-7.178l-3.557-14.181c-4.8-14.275-22.395-15.88-28.535-16v3.1c0,2.8-3.542,5.073-7.912,5.073s-7.914-2.271-7.914-5.073v-2.638c.54-.1-23.349-1.842-29.192,15.54l-3.557,14.181S294.934,217.662,306.817,216.887Z"/><path id="_Path_15" data-name="&lt;Path&gt;" class="cls-11" d="M306.817,216.887s-1.822,17.752-2.755,21.869a12.7,12.7,0,0,0,.565,6.29,167.356,167.356,0,0,1,52.9-1.3,11.309,11.309,0,0,0,.209-4.988c-.933-4.117-2.755-21.869-2.755-21.869,11.883.775,16.249-7.178,16.249-7.178l-3.557-14.181c-4.8-14.275-22.395-15.88-28.535-16v3.1c0,2.8-3.542,5.073-7.912,5.073s-7.914-2.271-7.914-5.073v-2.638c.54-.1-23.349-1.842-29.192,15.54l-3.557,14.181S294.934,217.662,306.817,216.887Z"/><path id="_Path_16" data-name="&lt;Path&gt;" class="cls-7" d="M335.21,174.817c-4.569,2.9-9.3,3.634-12.018,4.158v3.7c0,2.843,3.594,5.149,8.03,5.149s8.03-2.306,8.03-5.149V170.9A22.549,22.549,0,0,1,335.21,174.817Z"/><path id="_Path_17" data-name="&lt;Path&gt;" class="cls-8" d="M335.27,179.731a19.789,19.789,0,0,0,3.982-3.348V170.9a22.549,22.549,0,0,1-4.042,3.921c-4.569,2.9-9.3,3.634-12.018,4.158v3.7a3.517,3.517,0,0,0,.417,1.631A34.869,34.869,0,0,0,335.27,179.731Z"/><path id="_Path_18" data-name="&lt;Path&gt;" class="cls-7" d="M299.953,148.047c-.652-10.579,5.738-20.489,16.32-22.88A21.1,21.1,0,0,1,341.508,141.1c.026.117.037.232.06.349l.019,0,2.587,11.457a20.952,20.952,0,0,1-8.9,22.35,35.043,35.043,0,0,1-12,4.644,6.538,6.538,0,0,1-4.072-.523C308.255,174.065,300.943,164.082,299.953,148.047Z"/><path id="_Path_19" data-name="&lt;Path&gt;" class="cls-12" d="M303.064,134.865a23.167,23.167,0,0,0-3.111,13.182c.094,1.5.259,2.935.461,4.333,1.8-.218,4.723-1.3,7.584-5.513l-1.181,3.934s2,2.994,6.342.291a27.177,27.177,0,0,0,6.8-5.979l-1.14,3.658s4.169,1.912,7.609-.791,5.288-12.043,5.288-12.043l-10.693-5.074Z"/><path id="_Path_20" data-name="&lt;Path&gt;" class="cls-13" d="M349.933,142.488c-2.044-15.039-12.943-25.083-30.634-22.429-19.732,2.959-22.264,19.782-22.506,26.155-.065,1.668.722,4.278,3.115,4.278,4.151,0,8.09-3.625,8.09-3.625s-3.494,4.28.107,4.28c5.463,0,12.41-8.743,12.41-8.743s-6.051,7.61.736,6.466,10.463-12.933,10.463-12.933a18.25,18.25,0,0,0,7.619,7.214v.011a6.71,6.71,0,0,1,2.178-2.039c.023.109.035.218.057.328l.019,0,2.587,11.457c.045.2.073.4.113.606a21.469,21.469,0,0,1-2.2,14.43v.006a10.4,10.4,0,0,0,6.207-6.5,37.766,37.766,0,0,0,1.871-10.486A41.158,41.158,0,0,0,349.933,142.488Z"/><path id="_Path_21" data-name="&lt;Path&gt;" class="cls-14" d="M349.933,142.488c-2.044-15.039-12.943-25.083-30.634-22.429-19.732,2.959-22.264,19.782-22.506,26.155-.065,1.668.722,4.278,3.115,4.278,4.151,0,8.09-3.625,8.09-3.625s-3.494,4.28.107,4.28c5.463,0,12.41-8.743,12.41-8.743s-6.051,7.61.736,6.466,10.463-12.933,10.463-12.933a18.25,18.25,0,0,0,7.619,7.214v.011a6.71,6.71,0,0,1,2.178-2.039c.023.109.035.218.057.328l.019,0,2.587,11.457c.045.2.073.4.113.606a21.469,21.469,0,0,1-2.2,14.43v.006a10.4,10.4,0,0,0,6.207-6.5,37.766,37.766,0,0,0,1.871-10.486A41.158,41.158,0,0,0,349.933,142.488Z"/><path id="_Path_22" data-name="&lt;Path&gt;" class="cls-7" d="M338.365,148.344a6.7,6.7,0,1,0,5.061-8.013A6.7,6.7,0,0,0,338.365,148.344Z"/><path id="_Path_23" data-name="&lt;Path&gt;" class="cls-15" d="M311.1,181.2c2.449,4.476,12.5,3.1,12.5,3.1l.058-.189a3.428,3.428,0,0,1-.35-1.491v-2.638A37.89,37.89,0,0,0,311.1,181.2Z"/><path id="_Path_24" data-name="&lt;Path&gt;" class="cls-8" d="M367.294,234.3c-1.349-2.209-5.821-12.5-7.983-17.532a22.723,22.723,0,0,1-4.325.115l8.046,17.7a13.68,13.68,0,0,0,22.162,3.972l13.753-14.147C379.054,244.072,369.007,237.106,367.294,234.3Z"/><path id="_Path_25" data-name="&lt;Path&gt;" class="cls-16" d="M371.235,209.709l-3.557-14.181c-4.8-14.275-22.395-15.88-28.535-16v3.1c0,.016,0,.032,0,.049h.113c18.516,0,25.811,21.378,28.2,30.992A13.667,13.667,0,0,0,371.235,209.709Z"/><path id="_Path_26" data-name="&lt;Path&gt;" class="cls-17" d="M323.609,184.306l.059-.184a3.451,3.451,0,0,1-.351-1.5v-2.638c.54-.1-23.349-1.842-29.192,15.54l-3.557,14.181a14.353,14.353,0,0,0,5.008,4.751C299.863,182.348,323.609,184.306,323.609,184.306Z"/></g><path id="_Path_27" data-name="&lt;Path&gt;" class="cls-18" d="M356.878,431.325c-12.042,6.951-31.565,6.951-43.606,0s-12.041-18.224,0-25.175,31.563-6.953,43.606,0S368.92,424.374,356.878,431.325Z"/><path id="_Path_28" data-name="&lt;Path&gt;" class="cls-19" d="M356.878,431.325c-12.042,6.951-31.565,6.951-43.606,0s-12.041-18.224,0-25.175,31.563-6.953,43.606,0S368.92,424.374,356.878,431.325Z"/><path id="_Path_29" data-name="&lt;Path&gt;" class="cls-15" d="M304.274,419.134h30.8V411h-27.74A11.919,11.919,0,0,0,304.274,419.134Z"/><path id="_Path_30" data-name="&lt;Path&gt;" class="cls-20" d="M356.878,431.325c-12.042,6.951-31.565,6.951-43.606,0-6.021-3.476-9.031-8.032-9.031-12.588h0v5.131c0,4.556,3.01,9.112,9.031,12.588,12.041,6.953,31.564,6.953,43.606,0,6.021-3.476,9.03-8.032,9.03-12.588v-5.131C365.908,423.293,362.9,427.849,356.878,431.325Z"/><path id="_Path_31" data-name="&lt;Path&gt;" class="cls-21" d="M356.878,431.325c-12.042,6.951-31.565,6.951-43.606,0-6.021-3.476-9.031-8.032-9.031-12.588h0v5.131c0,4.556,3.01,9.112,9.031,12.588,12.041,6.953,31.564,6.953,43.606,0,6.021-3.476,9.03-8.032,9.03-12.588v-5.131C365.908,423.293,362.9,427.849,356.878,431.325Z"/><path id="_Path_32" data-name="&lt;Path&gt;" class="cls-20" d="M328.637,322.92v92.5h0a3.2,3.2,0,0,0,1.886,2.629,10.064,10.064,0,0,0,9.1,0,3.2,3.2,0,0,0,1.884-2.629v-92.5Z"/><path id="_Path_33" data-name="&lt;Path&gt;" class="cls-22" d="M328.637,322.92v92.5h0a3.2,3.2,0,0,0,1.886,2.629,10.064,10.064,0,0,0,9.1,0,3.2,3.2,0,0,0,1.884-2.629v-92.5Z"/><path id="_Path_34" data-name="&lt;Path&gt;" class="cls-23" d="M328.637,322.92v92.5h0a3.2,3.2,0,0,0,1.886,2.629,10.064,10.064,0,0,0,9.1,0,3.2,3.2,0,0,0,1.884-2.629v-92.5Z"/><path id="_Path_35" data-name="&lt;Path&gt;" class="cls-24" d="M328.637,374.47c4.284.2,8.591.2,12.874,0V322.92H328.637Z"/><path id="_Path_36" data-name="&lt;Path&gt;" class="cls-25" d="M328.637,322.92v4.855h8.719v91.111a8,8,0,0,0,2.271-.841,3.2,3.2,0,0,0,1.884-2.629v-92.5Z"/><g id="_Group_5" data-name="&lt;Group&gt;"><path id="_Path_37" data-name="&lt;Path&gt;" class="cls-7" d="M272.916,367.26,278,363.981a96.466,96.466,0,0,0-6.73,33.465c-.417,19.141-.32,25.255-2.635,34.091l8.565,8.414a11.106,11.106,0,0,0,12.166,2.282l.907-.39s-8.508-6.5-9.275-13.364,15.033-60.381,14.784-77.436-20.973-14.294-27.147-11.791Z"/><path id="_Path_38" data-name="&lt;Path&gt;" class="cls-26" d="M272.916,367.26,278,363.981a96.466,96.466,0,0,0-6.73,33.465c-.417,19.141-.32,25.255-2.635,34.091l8.565,8.414a11.106,11.106,0,0,0,12.166,2.282l.907-.39s-8.508-6.5-9.275-13.364,15.033-60.381,14.784-77.436-20.973-14.294-27.147-11.791Z"/><path id="_Path_39" data-name="&lt;Path&gt;" class="cls-27" d="M298.391,442.607l-8.117-.764-.907.39a11.106,11.106,0,0,1-12.166-2.282s-8.4-9.083-8.315-9.416c-.043.022-5.6,3.072-2.565,11.355,3.046,8.318,2.315,12.148,2.315,12.148a1.89,1.89,0,0,0,2.561,0V444.7l10.177,5.878a5.909,5.909,0,0,0,5.91,0l11.409-6.587A.745.745,0,0,0,298.391,442.607Z"/><path id="_Path_40" data-name="&lt;Path&gt;" class="cls-28" d="M298.391,442.607l-8.117-.764-.907.39a11.106,11.106,0,0,1-12.166-2.282s-8.4-9.083-8.315-9.416c-.043.022-5.6,3.072-2.565,11.355,3.046,8.318,2.315,12.148,2.315,12.148a1.89,1.89,0,0,0,2.561,0V444.7l10.177,5.878a5.909,5.909,0,0,0,5.91,0l11.409-6.587A.745.745,0,0,0,298.391,442.607Z"/><g id="_Group_6" data-name="&lt;Group&gt;"><path id="_Path_41" data-name="&lt;Path&gt;" class="cls-18" d="M266.44,472.852c-7.141,4.124-18.718,4.124-25.859,0s-7.139-10.8,0-14.928,18.718-4.124,25.859,0S273.58,468.73,266.44,472.852Z"/><path id="_Path_42" data-name="&lt;Path&gt;" class="cls-15" d="M253.51,461.58H236.466A6.511,6.511,0,0,0,235.458,467H253.51Z"/><path id="_Path_43" data-name="&lt;Path&gt;" class="cls-20" d="M249.634,424.676v40.082h0a1.927,1.927,0,0,0,1.135,1.584,6.054,6.054,0,0,0,5.483,0,1.929,1.929,0,0,0,1.135-1.584V424.676Z"/><path id="_Path_44" data-name="&lt;Path&gt;" class="cls-29" d="M249.634,424.676v40.082h0a1.927,1.927,0,0,0,1.135,1.584,6.054,6.054,0,0,0,5.483,0,1.929,1.929,0,0,0,1.135-1.584V424.676Z"/><path id="_Path_45" data-name="&lt;Path&gt;" class="cls-30" d="M255.066,424.676V466.8a4.663,4.663,0,0,0,1.186-.461,1.929,1.929,0,0,0,1.135-1.584V424.676Z"/><path id="_Path_46" data-name="&lt;Path&gt;" class="cls-31" d="M252.746,424.676h-3.112v40.082h0a1.927,1.927,0,0,0,1.135,1.584,5.214,5.214,0,0,0,1.977.61Z"/><path id="_Path_47" data-name="&lt;Path&gt;" class="cls-20" d="M266.44,472.852c-7.141,4.123-18.718,4.123-25.859,0-3.57-2.06-5.355-4.762-5.355-7.463h0v3.042c0,2.7,1.785,5.4,5.355,7.465,7.141,4.123,18.718,4.123,25.859,0,3.57-2.061,5.355-4.763,5.355-7.465v-3.042C271.8,468.09,270.01,470.792,266.44,472.852Z"/><path id="_Path_48" data-name="&lt;Path&gt;" class="cls-32" d="M266.44,472.852c-7.141,4.123-18.718,4.123-25.859,0-3.57-2.06-5.355-4.762-5.355-7.463h0v3.042c0,2.7,1.785,5.4,5.355,7.465,7.141,4.123,18.718,4.123,25.859,0,3.57-2.061,5.355-4.763,5.355-7.465v-3.042C271.8,468.09,270.01,470.792,266.44,472.852Z"/><path id="_Path_49" data-name="&lt;Path&gt;" class="cls-33" d="M277.576,403.7c-13.291,7.673-34.839,7.673-48.131,0s-13.292-20.115,0-27.789,34.84-7.675,48.131,0S290.868,396.021,277.576,403.7Z"/><path id="_Path_50" data-name="&lt;Path&gt;" class="cls-34" d="M277.576,403.7c-13.291,7.673-34.839,7.673-48.131,0s-13.292-20.115,0-27.789,34.84-7.675,48.131,0S290.868,396.021,277.576,403.7Z"/><path id="_Path_51" data-name="&lt;Path&gt;" class="cls-15" d="M277.576,375.907c-13.291-7.675-34.841-7.675-48.131,0-5.661,3.266-8.9,7.4-9.741,11.66a23.47,23.47,0,0,0,8.826,8.229c14.3,8.256,37.489,8.256,51.791,0a26.055,26.055,0,0,0,7.221-5.918C287.576,384.823,284.256,379.763,277.576,375.907Z"/><g id="_Group_7" data-name="&lt;Group&gt;"><path id="_Path_52" data-name="&lt;Path&gt;" class="cls-35" d="M277.576,403.7c-13.291,7.673-34.839,7.673-48.131,0-6.646-3.837-9.971-8.867-9.971-13.9h0v17.532c0,5.029,3.325,10.057,9.971,13.894,13.292,7.673,34.84,7.673,48.131,0,6.645-3.837,9.968-8.865,9.968-13.894V389.8C287.544,394.829,284.221,399.859,277.576,403.7Z"/></g><g id="_Group_8" data-name="&lt;Group&gt;" class="cls-36"><path id="_Path_53" data-name="&lt;Path&gt;" class="cls-37" d="M277.576,403.7c-13.291,7.673-34.839,7.673-48.131,0-6.646-3.837-9.971-8.867-9.971-13.9h0v17.532c0,5.029,3.325,10.057,9.971,13.894,13.292,7.673,34.84,7.673,48.131,0,6.645-3.837,9.968-8.865,9.968-13.894V389.8C287.544,394.829,284.221,399.859,277.576,403.7Z"/></g><path id="_Path_54" data-name="&lt;Path&gt;" class="cls-38" d="M262.854,408.691c-11.491,1.888-24.363.228-33.409-4.995-6.646-3.837-9.971-8.867-9.971-13.9v17.532c0,5.028,3.325,10.057,9.971,13.894,9.046,5.223,21.918,6.882,33.409,5Z"/><g id="_Group_9" data-name="&lt;Group&gt;" class="cls-39"><path id="_Path_55" data-name="&lt;Path&gt;" class="cls-40" d="M286.444,394.77l-.338.767a14.2,14.2,0,0,1-1.19,2.059,22,22,0,0,1-6.172,5.822c-.735.5-1.568.946-2.382,1.385-.416.223-.828.462-1.265.682l-1.375.615c-.467.2-.936.427-1.419.624l-1.482.539a27.415,27.415,0,0,1-3.108.962c-1.059.32-2.16.538-3.274.767-1.108.261-2.25.395-3.4.569a59.243,59.243,0,0,1-7,.529c-1.178.022-2.356-.062-3.527-.089-1.17-.071-2.332-.2-3.486-.295q-1.722-.255-3.408-.5c-1.111-.239-2.216-.447-3.29-.7-1.061-.306-2.121-.549-3.127-.893-1-.374-1.987-.694-2.921-1.087-.921-.422-1.832-.795-2.682-1.225l-2.421-1.327a25.839,25.839,0,0,1-3.878-2.849,21.186,21.186,0,0,1-2.547-2.693,14.957,14.957,0,0,1-1.318-1.977c-.256-.484-.393-.741-.393-.741l.454.7a17.865,17.865,0,0,0,1.453,1.851,24.99,24.99,0,0,0,6.607,5.07l2.406,1.2c.848.388,1.755.718,2.668,1.095.926.349,1.908.623,2.893.95,1,.286,2.029.536,3.071.815,1.055.236,2.137.425,3.225.645l3.342.451c1.132.079,2.27.19,3.415.245,1.149.012,2.3.076,3.452.046a58.414,58.414,0,0,0,6.858-.431c1.122-.157,2.244-.273,3.328-.515,1.092-.21,2.173-.409,3.21-.708,1.048-.259,2.07-.544,3.054-.88l1.467-.469c.474-.172.93-.369,1.388-.549s.907-.363,1.353-.539c.437-.2.865-.427,1.286-.632.86-.423,1.648-.808,2.381-1.262a22.98,22.98,0,0,0,6.357-5.353,16.655,16.655,0,0,0,1.333-1.94Z"/></g></g><path id="_Path_56" data-name="&lt;Path&gt;" class="cls-7" d="M291.824,379.266l5.086-3.279a96.456,96.456,0,0,0-6.73,33.464c-.416,19.141-.321,25.256-2.636,34.091l8.567,8.414a11.1,11.1,0,0,0,12.165,2.283l.907-.39s-8.508-6.5-9.275-13.364,15.032-60.381,14.785-77.436-20.973-14.295-27.149-11.792Z"/><path id="_Path_57" data-name="&lt;Path&gt;" class="cls-41" d="M291.824,379.266l5.086-3.279a96.456,96.456,0,0,0-6.73,33.464c-.416,19.141-.321,25.256-2.636,34.091l8.567,8.414a11.1,11.1,0,0,0,12.165,2.283l.907-.39s-8.508-6.5-9.275-13.364,15.032-60.381,14.785-77.436-20.973-14.295-27.149-11.792Z"/><path id="_Path_58" data-name="&lt;Path&gt;" class="cls-9" d="M281.026,346.34c-5.947-4.118-13.431-8.09-13.431-8.09l-7.9,4.561h0l-1.82,11.2c-17.111,16.1-34.921.082-35.1-.082l-.011,0s-13.32,23.292,5.664,35.867,37.042,11.315,62.664-8.525C291.085,381.276,300.692,359.955,281.026,346.34Z"/><path id="_Path_59" data-name="&lt;Path&gt;" class="cls-42" d="M281.026,346.34c-5.947-4.118-13.431-8.09-13.431-8.09l-7.9,4.56,0,0-1.82,11.2c-17.111,16.1-34.921.082-35.1-.082l-.011,0s-.513.9-1.191,2.432c4.062,4.1,14.118,11.482,30.739,6.683,0,0,5.592,12.245,17.866,1.565l9.225-8.278s10.76,4.683,10.76,20.838l2.357-.371C294.177,369.816,295.122,356.1,281.026,346.34Z"/><path id="_Path_60" data-name="&lt;Path&gt;" class="cls-42" d="M226.854,383.966a23.732,23.732,0,0,1-8.336-9.1c.83,5.33,3.556,10.73,9.9,14.935,18.982,12.575,37.042,11.315,62.664-8.525a30.025,30.025,0,0,0,1.781-6.145C265.9,395.931,246.864,397.22,226.854,383.966Z"/><path id="_Path_61" data-name="&lt;Path&gt;" class="cls-43" d="M281.026,346.34c-5.947-4.118-13.431-8.09-13.431-8.09l-7.9,4.561h0l-1.82,11.2c-17.111,16.1-34.921.082-35.1-.082l-.011,0s-13.32,23.292,5.664,35.867,37.042,11.315,62.664-8.525C291.085,381.276,300.692,359.955,281.026,346.34Z"/><path id="_Path_62" data-name="&lt;Path&gt;" class="cls-44" d="M281.026,346.34c-5.947-4.118-13.431-8.09-13.431-8.09l-7.9,4.561h0l-1.82,11.2c-17.111,16.1-34.921.082-35.1-.082l-.011,0s-13.32,23.292,5.664,35.867,37.042,11.315,62.664-8.525C291.085,381.276,300.692,359.955,281.026,346.34Z"/><path id="_Path_63" data-name="&lt;Path&gt;" class="cls-3" d="M410.817,433.116s4.8,8.688-.741,11.888-12,3.771-20.118-2.06-18.783-10.238-18.783-17.07,9.234-9.805,18.01-4.773S410.817,433.116,410.817,433.116Z"/><path id="_Path_64" data-name="&lt;Path&gt;" class="cls-45" d="M413.923,363.608v68.471s-11.261,7.034-22.24,0V355.547c0-13.644,12.793-24.377,26.391-23.248h0Z"/><path id="_Path_65" data-name="&lt;Path&gt;" class="cls-46" d="M413.923,363.608v68.471s-11.261,7.034-22.24,0V355.547c0-13.644,12.793-24.377,26.391-23.248h0Z"/><path id="_Path_66" data-name="&lt;Path&gt;" class="cls-47" d="M413.923,363.608v68.471s-11.261,7.034-22.24,0V355.547c0-13.644,12.793-24.377,26.391-23.248h0Z"/><g id="_Group_10" data-name="&lt;Group&gt;"><path id="_Compound_Path_" data-name="&lt;Compound Path&gt;" class="cls-40" d="M404.09,258.735c-38.116-22.007-99.915-22.007-138.031,0-20.848,12.036-30.265,28.162-28.308,43.9-1.957,15.743,7.46,31.87,28.308,43.9,38.116,22.007,99.915,22.007,138.031,0,20.847-12.036,30.266-28.163,28.308-43.905C434.356,286.9,424.937,270.771,404.09,258.735Z"/><path id="_Path_67" data-name="&lt;Path&gt;" class="cls-18" d="M404.09,338.427c-38.116,22.007-99.915,22.007-138.031,0s-38.116-57.686,0-79.692,99.915-22.007,138.031,0S442.206,316.422,404.09,338.427Z"/><path id="_Path_68" data-name="&lt;Path&gt;" class="cls-48" d="M404.09,338.427c-38.116,22.007-99.915,22.007-138.031,0s-38.116-57.686,0-79.692,99.915-22.007,138.031,0S442.206,316.422,404.09,338.427Z"/><path id="_Path_69" data-name="&lt;Path&gt;" class="cls-49" d="M404.09,338.427c-38.116,22.007-99.915,22.007-138.031,0s-38.116-57.686,0-79.692,99.915-22.007,138.031,0S442.206,316.422,404.09,338.427Z"/><polygon id="_Path_70" data-name="&lt;Path&gt;" class="cls-15" points="284.284 292.787 251.98 292.787 265.083 307.902 284.284 292.787"/><path id="_Path_71" data-name="&lt;Path&gt;" class="cls-50" d="M404.09,338.427c-38.116,22.007-99.915,22.007-138.031,0-17.268-9.971-26.685-22.748-28.308-35.788-1.957,15.743,7.46,31.869,28.308,43.9,38.116,22.007,99.915,22.007,138.031,0,20.847-12.036,30.266-28.163,28.308-43.905C430.776,315.679,421.359,328.457,404.09,338.427Z"/><path id="_Path_72" data-name="&lt;Path&gt;" class="cls-51" d="M404.09,338.427c-38.116,22.007-99.915,22.007-138.031,0-17.268-9.971-26.685-22.748-28.308-35.788-1.957,15.743,7.46,31.869,28.308,43.9,38.116,22.007,99.915,22.007,138.031,0,20.847-12.036,30.266-28.163,28.308-43.905C430.776,315.679,421.359,328.457,404.09,338.427Z"/><path id="_Path_73" data-name="&lt;Path&gt;" class="cls-52" d="M404.09,338.427c-38.116,22.007-99.915,22.007-138.031,0-17.268-9.971-26.685-22.748-28.308-35.788-1.957,15.743,7.46,31.869,28.308,43.9,38.116,22.007,99.915,22.007,138.031,0,20.847-12.036,30.266-28.163,28.308-43.905C430.776,315.679,421.359,328.457,404.09,338.427Z"/><g id="_Group_11" data-name="&lt;Group&gt;"><path class="cls-40" d="M410.882,334.081a70.428,70.428,0,0,1-8.228,5.221,94.773,94.773,0,0,1-8.71,4.394l-4.482,1.939c-1.5.623-3.065,1.1-4.595,1.65-1.54.527-3.07,1.092-4.62,1.587l-4.71,1.294a158.212,158.212,0,0,1-38.636,5.17,161.351,161.351,0,0,1-38.76-4.223l-4.711-1.3-2.354-.647c-.785-.216-1.575-.416-2.337-.7l-4.612-1.607a45.947,45.947,0,0,1-4.561-1.735,95.185,95.185,0,0,1-8.837-4.134l-4.3-2.306c-1.408-.81-2.764-1.711-4.147-2.561A122.6,122.6,0,0,0,298.3,350.431a164.383,164.383,0,0,0,38.59,4,161.08,161.08,0,0,0,38.468-4.935l4.705-1.228c1.549-.473,3.077-1.016,4.617-1.52,1.53-.533,3.092-.984,4.6-1.584l4.489-1.869a94.534,94.534,0,0,0,8.781-4.183A70.264,70.264,0,0,0,410.882,334.081Z"/></g></g><g id="_Group_12" data-name="&lt;Group&gt;"><polygon id="_Path_74" data-name="&lt;Path&gt;" class="cls-53" points="293.589 254.104 291.775 255.167 284.284 292.787 330.919 319.723 332.732 318.661 340.224 281.04 293.589 254.104"/><polygon id="_Path_75" data-name="&lt;Path&gt;" class="cls-54" points="299.908 337.612 253.253 310.676 286.078 291.724 332.732 318.661 299.908 337.612"/><polygon id="_Path_76" data-name="&lt;Path&gt;" class="cls-55" points="306.748 328.413 270.171 307.295 285.569 298.582 322.145 319.698 306.748 328.413"/><g id="_Group_13" data-name="&lt;Group&gt;"><path id="_Compound_Path_2" data-name="&lt;Compound Path&gt;" class="cls-56" d="M308.421,327.466l.659-.374-2.031-1.187,2.1-1.229,2.07,1.21.66-.374-2.083-1.216,2.1-1.229,2.119,1.237.659-.372-2.131-1.245,2.1-1.229,2.168,1.266.658-.372-2.179-1.274,2.1-1.229,2.217,1.3.66-.374-2.23-1.3,1.847-1.085-.653-.377-1.843,1.082-1.77-1.034,1.833-1.076-.653-.377-1.83,1.073-1.769-1.035L315,315.574l-.654-.377-1.815,1.064-1.77-1.033,1.8-1.059-.654-.378-1.8,1.056-1.769-1.034,1.791-1.05-.655-.377-1.787,1.048-1.77-1.034,1.776-1.041-.653-.379-1.771,1.039-1.775-1.036,1.763-1.032-.654-.378-1.76,1.032-1.768-1.034,1.749-1.024-.654-.378-1.745,1.022-1.779-1.038,1.738-1.016-.654-.378L298,307.772l-1.752-1.023,1.717-1.01-.645-.374-1.71,1.011-1.789-1.044,1.706-1-.653-.377-1.7,1-1.769-1.035,1.691-.992-.654-.376-1.687.988-1.77-1.034,1.676-.982-.654-.378-1.672.982-1.769-1.034,1.662-.976-.654-.378-1.658.974-2.021-1.182-.66.375,2.034,1.187-2.1,1.228-2.07-1.209-.659.373,2.081,1.217-2.095,1.229-2.12-1.238-.66.373,2.131,1.245-2.094,1.229-2.169-1.266-.659.371,2.18,1.275-2.1,1.23-2.216-1.3-.66.373,2.23,1.3-1.844,1.082.653.377,1.84-1.08,1.77,1.033-1.83,1.075.653.376,1.827-1.07,1.771,1.035-1.817,1.064.653.378,1.814-1.063,1.77,1.034-1.8,1.057.654.377,1.8-1.055,11.449,6.689-1.732,1.016.654.377,1.727-1.013,1.771,1.034-1.716,1.006.653.379,1.713-1,1.771,1.032-1.7,1,.654.377,1.7-1,1.771,1.034-1.69.992.655.376,1.683-.988,1.77,1.034-1.673.982.654.377,1.669-.979,1.771,1.033-1.66.974.654.378,1.656-.972Zm.721-3.549-1.771-1.034,2.1-1.23,1.77,1.035Zm-2.1-4.437-1.77-1.035,2.1-1.228,1.771,1.034Zm2.746-.851,1.771,1.035-2.1,1.229-1.77-1.033Zm-5.166-.563-1.77-1.034,2.1-1.23,1.771,1.035Zm-2.42-1.413-1.769-1.034,2.1-1.23,1.77,1.034Zm-2.42-1.415-1.779-1.038,2.1-1.229,1.777,1.039Zm-2.428-1.419-1.766-1.031,2.1-1.229,1.766,1.033Zm-2.417-1.411-1.79-1.046,2.1-1.226,1.786,1.043Zm-2.441-1.426-1.73-1.01,2.093-1.233,1.739,1.017Zm-2.354-1.377-1.809-1.056,2.1-1.229,1.8,1.053Zm-2.459-1.435-1.77-1.035,2.1-1.228,1.77,1.034Zm-2.419-1.413-1.771-1.034,2.1-1.231,1.769,1.035Zm-.648.38-2.1,1.229-1.77-1.035,2.1-1.229Zm.65.379,1.771,1.035-2.1,1.229-1.77-1.035Zm2.419,1.414,1.812,1.058-2.089,1.234-1.818-1.063Zm2.434,1.422,1.728,1.009-2.1,1.226-1.72-1Zm2.379,1.39,1.791,1.046-2.1,1.228-1.8-1.049Zm2.44,1.425,1.766,1.031-2.1,1.23-1.765-1.032Zm2.417,1.412,1.78,1.04-2.1,1.229-1.782-1.041Zm2.43,1.42,1.77,1.035-2.095,1.228-1.772-1.035Zm2.419,1.413,1.771,1.033-2.1,1.23-1.77-1.033Zm2.42,1.414,1.771,1.034-2.1,1.229-1.771-1.034Zm2.421,1.414,1.768,1.033-2.093,1.23-1.771-1.034Zm4.838,2.068-1.771-1.035,2.1-1.229,1.769,1.034Zm3.069-3.873,1.771,1.034-2.1,1.228-1.771-1.033Zm-2.42-1.414,1.771,1.034-2.1,1.23-1.77-1.034Zm-2.42-1.414,1.771,1.033-2.1,1.231-1.77-1.035Zm-2.421-1.413,1.771,1.034-2.1,1.228-1.769-1.033Zm-2.419-1.414,1.77,1.033-2.1,1.23-1.77-1.035Zm-2.424-1.417,1.774,1.037-2.1,1.229-1.777-1.037Zm-2.419-1.412,1.768,1.031-2.1,1.23-1.767-1.033ZM298,308.53l1.78,1.041-2.1,1.229-1.784-1.044Zm-.651-.38-2.1,1.226-1.74-1.016,2.092-1.231Zm-4.175-2.438,1.79,1.046-2.088,1.234-1.8-1.052Zm-2.42-1.414,1.77,1.034-2.1,1.228-1.771-1.033Zm-2.42-1.414,1.769,1.033-2.1,1.23-1.771-1.034Zm-2.42-1.414,1.769,1.033-2.1,1.231-1.77-1.035Zm-2.744,1.609,1.77,1.035-2.1,1.228-1.77-1.034Zm-2.744,1.61,1.77,1.034-2.095,1.228-1.77-1.033Zm-3.069,3.872-1.77-1.034,2.1-1.23,1.769,1.035Zm2.42,1.414-1.771-1.035,2.1-1.228,1.77,1.034Zm2.42,1.414-1.769-1.034,2.095-1.231,1.77,1.035Zm.65.379,2.1-1.229,1.82,1.064-2.088,1.233Zm2.44,1.426,2.093-1.231,1.717,1-2.1,1.227Zm2.36,1.379,2.1-1.226,1.8,1.049-2.1,1.228ZM290.1,316l2.1-1.228,1.764,1.03-2.1,1.229Zm4.2,2.453-1.784-1.043,2.1-1.228,1.781,1.042Zm2.421,1.414-1.771-1.034,2.1-1.229,1.771,1.034Zm2.42,1.413-1.77-1.033,2.095-1.23,1.77,1.034Zm2.419,1.414-1.769-1.034,2.094-1.23,1.772,1.035Zm2.42,1.413-1.769-1.033,2.095-1.229,1.77,1.035Zm.65.381,2.1-1.231L308.5,324.3l-2.1,1.231Z"/></g><polygon id="_Path_77" data-name="&lt;Path&gt;" class="cls-55" points="284.278 324.311 274.343 318.575 278.526 316.208 288.459 321.944 284.278 324.311"/><polygon id="_Path_78" data-name="&lt;Path&gt;" class="cls-57" points="332.732 318.661 332.732 320.621 299.908 339.571 299.908 337.612 332.732 318.661"/><polygon id="_Path_79" data-name="&lt;Path&gt;" class="cls-53" points="299.908 339.571 299.908 337.612 253.253 310.676 253.253 312.635 299.908 339.571"/><polygon id="_Path_80" data-name="&lt;Path&gt;" class="cls-58" points="284.284 292.787 291.775 255.167 338.41 282.103 330.918 319.723 284.284 292.787"/><polygon id="_Path_81" data-name="&lt;Path&gt;" class="cls-59" points="284.284 292.787 291.775 255.167 338.41 282.103 330.918 319.723 284.284 292.787"/><polygon id="_Path_82" data-name="&lt;Path&gt;" class="cls-35" points="288.459 290.35 294.236 261.342 334.135 284.5 328.357 313.507 288.459 290.35"/><polygon id="_Path_83" data-name="&lt;Path&gt;" class="cls-60" points="288.459 290.35 294.236 261.342 334.135 284.5 328.357 313.507 288.459 290.35"/><polygon id="_Path_84" data-name="&lt;Path&gt;" class="cls-57" points="330.918 319.723 332.732 318.661 340.224 281.04 338.41 282.103 330.918 319.723"/><polygon id="_Path_85" data-name="&lt;Path&gt;" class="cls-53" points="338.41 282.103 291.775 255.167 293.589 254.104 340.224 281.04 338.41 282.103"/><path id="_Path_86" data-name="&lt;Path&gt;" class="cls-15" d="M301.709,330.626l-.016,0a21.4,21.4,0,0,1-9.461,4.508L268.088,321.2l-6.92,3.924,30.019,11.195a103.172,103.172,0,0,1-12.579,16.335c.926.379,1.85.763,2.794,1.122l5.683-6.11,5.753-10.731,7.07,2.636-6.478-3.738,2.357-.6A26.539,26.539,0,0,0,301.709,330.626Z"/><polygon id="_Path_87" data-name="&lt;Path&gt;" class="cls-61" points="334.135 284.5 299.908 296.995 304.277 299.529 333.188 289.258 334.135 284.5"/><polygon id="_Path_88" data-name="&lt;Path&gt;" class="cls-61" points="309.183 302.395 332.149 294.465 331.804 296.195 310.771 303.3 309.183 302.395"/></g><g id="_Group_14" data-name="&lt;Group&gt;"><path id="_Path_89" data-name="&lt;Path&gt;" class="cls-7" d="M211.216,296.081c-4.854,18.749-9.462,46.163,5.14,42.169.086-.023.176-.051.262-.076C210.685,320.25,209.776,306.1,211.216,296.081Z"/><path id="_Path_90" data-name="&lt;Path&gt;" class="cls-7" d="M278.851,306.682c-2.706-2.362-7.883-5.616-14.4-3.716,2.264,3.212,4.518,7.108,5.218,10.637a14.527,14.527,0,0,0,3.116-1.755,14.075,14.075,0,0,1,5.385-2.445A1.568,1.568,0,0,0,278.851,306.682Z"/></g><path id="_Path_91" data-name="&lt;Path&gt;" class="cls-62" d="M234.851,280.489s-12.095-6.2-18.006.664c-6.771,7.858-11.823,33.092,5.912,72.781,0,0,17.916,16.278,35.118.09l3.994-24.584s4.182-3.121,7.5-10.984c1.954-4.626-1.733-11.905-5.1-17.11a29.106,29.106,0,0,0-9.723-9.3Z"/><path id="_Path_92" data-name="&lt;Path&gt;" class="cls-63" d="M257.875,354.024l1.371-8.437L247.235,305.22s-4.566,15.065-.277,39.513a9.651,9.651,0,0,1-9,11.422,28.627,28.627,0,0,1-5.145-.31c-5.646-.83-8.99-2.477-10.919-3.9.286.662.562,1.318.863,1.988C222.757,353.934,240.673,370.212,257.875,354.024Z"/><path id="_Path_93" data-name="&lt;Path&gt;" class="cls-64" d="M234.851,280.489s-12.095-6.2-18.006.664c-6.771,7.858-11.823,33.092,5.912,72.781,0,0,17.916,16.278,35.118.09l3.994-24.584s4.182-3.121,7.5-10.984c1.954-4.626-1.733-11.905-5.1-17.11a29.106,29.106,0,0,0-9.723-9.3Z"/><path id="_Path_94" data-name="&lt;Path&gt;" class="cls-65" d="M234.851,280.489s-12.095-6.2-18.006.664c-6.771,7.858-11.823,33.092,5.912,72.781,0,0,17.916,16.278,35.118.09l3.994-24.584s4.182-3.121,7.5-10.984c1.954-4.626-1.733-11.905-5.1-17.11a29.106,29.106,0,0,0-9.723-9.3Z"/><path id="_Path_95" data-name="&lt;Path&gt;" class="cls-8" d="M211.216,296.081c-1.2,4.624-2.378,9.775-3.26,14.852a108.819,108.819,0,0,0,5.191,27.668,9.352,9.352,0,0,0,3.209-.351c.086-.023.176-.051.262-.076C210.685,320.25,209.776,306.1,211.216,296.081Z"/><path id="_Path_96" data-name="&lt;Path&gt;" class="cls-7" d="M245.8,282.011s-.972,3.033,3.831,7.2c0,0-5.036,4.246-10.267,2.957s-9.466-5.364-8.263-7.9a50.031,50.031,0,0,0,1.966-4.772Z"/><path id="_Path_97" data-name="&lt;Path&gt;" class="cls-8" d="M240.155,286.066a33.172,33.172,0,0,0,8.03,1.736c-3.134-3.422-2.382-5.791-2.382-5.791l-12.733-2.519s-.215.628-.59,1.583A19.945,19.945,0,0,0,240.155,286.066Z"/><path id="_Path_98" data-name="&lt;Path&gt;" class="cls-7" d="M263.039,246.723C261.344,236.26,252.928,228,242.079,228a21.1,21.1,0,0,0-21.1,21.1c0,.119.016.234.018.353h-.018V261.2a20.953,20.953,0,0,0,13.61,19.839,35.011,35.011,0,0,0,12.729,1.885,6.532,6.532,0,0,0,3.856-1.407C260.675,273.93,265.607,262.582,263.039,246.723Z"/><path id="_Path_99" data-name="&lt;Path&gt;" class="cls-13" d="M261.157,240.567s.9,11.619-13.516,17.538a29.624,29.624,0,0,0-6.629,14.975,8.412,8.412,0,0,1-11.927,6.578c-6.92-3.224-14.021-9.83-14.021-23.366,0-26.4,18.531-31.035,27.012-31.035C251.08,225.257,261.157,230.661,261.157,240.567Z"/><path id="_Path_100" data-name="&lt;Path&gt;" class="cls-66" d="M261.157,240.567s.9,11.619-13.516,17.538a29.624,29.624,0,0,0-6.629,14.975,8.412,8.412,0,0,1-11.927,6.578c-6.92-3.224-14.021-9.83-14.021-23.366,0-26.4,18.531-31.035,27.012-31.035C251.08,225.257,261.157,230.661,261.157,240.567Z"/><path id="_Path_101" data-name="&lt;Path&gt;" class="cls-67" d="M222.281,253.492c.286-4.348-2.139-8.376-6.433-9.118-10.484-1.811-11.55,12.469-12.328,16.976-1.873,10.853-8.767,19.53-8.767,19.53C211.459,285.235,221.37,267.363,222.281,253.492Z"/><path id="_Path_102" data-name="&lt;Path&gt;" class="cls-27" d="M317.3,454.613l-8.118-.764-.907.39a11.1,11.1,0,0,1-12.165-2.283s-8.4-9.082-8.316-9.415c-.043.022-5.6,3.07-2.565,11.355,3.046,8.318,2.314,12.148,2.314,12.148a1.89,1.89,0,0,0,2.562,0v-9.335l10.178,5.877a5.913,5.913,0,0,0,5.91,0L317.6,456A.744.744,0,0,0,317.3,454.613Z"/><path id="_Path_103" data-name="&lt;Path&gt;" class="cls-7" d="M256.9,296.2c-3.432,0-10.293,1.931-10.293,15.2s2.3,63.607,18.755,52.614,26.483-28.8,26.483-28.8,8.032-1.17,12.236-7.221a14.028,14.028,0,0,1,4.335-4.023h0a1.569,1.569,0,0,0-.213-2.8c-4.744-1.981-14.859-4.109-21.618,9.41L266.231,344.8a1.061,1.061,0,0,1-1.719-.9C265.188,333.817,266.7,296.2,256.9,296.2Z"/><g id="_Group_15" data-name="&lt;Group&gt;"><path id="_Path_104" data-name="&lt;Path&gt;" class="cls-8" d="M267.049,359.831c-16.46,10.994-18.323-38.291-18.323-51.565a22.427,22.427,0,0,1,1.684-9.378c-2.115,2.154-3.8,5.939-3.8,12.511,0,13.274,2.3,63.607,18.755,52.614,12.512-8.358,21.3-20.646,24.8-26.063C285.827,344.119,277.528,352.829,267.049,359.831Z"/></g><path id="_Path_105" data-name="&lt;Path&gt;" class="cls-7" d="M249.634,262.38a5.188,5.188,0,1,1-5.188-5.189A5.188,5.188,0,0,1,249.634,262.38Z"/><path id="_Path_106" data-name="&lt;Path&gt;" class="cls-68" d="M296.91,375.987a96.456,96.456,0,0,0-6.73,33.464c-.416,19.141-.321,25.256-2.636,34.091l2.619,2.571h0s2.438-11.644,2.7-31.3c.2-15.152,4.217-30.68,6.048-37a1.512,1.512,0,0,0-2-1.826Z"/><g id="_Group_16" data-name="&lt;Group&gt;"><g id="_Group_17" data-name="&lt;Group&gt;"><path id="_Path_107" data-name="&lt;Path&gt;" class="cls-7" d="M467.5,308.517a25.789,25.789,0,0,1-5.572,3.107c0-.221-.591,20.277-2.89,32.2C470.055,346.27,469.769,325.966,467.5,308.517Z"/></g><path id="_Path_108" data-name="&lt;Path&gt;" class="cls-8" d="M464.7,311.007l-.142-.624a23.411,23.411,0,0,1-2.622,1.241c0-.221-.591,20.277-2.89,32.2a6.648,6.648,0,0,0,3.541-.079C466.116,334.009,464.7,311.007,464.7,311.007Z"/><path id="_Compound_Path_3" data-name="&lt;Compound Path&gt;" class="cls-27" d="M468.765,307.764c-1.118-8.6-2.715-16.507-3.68-20.651-3.012-12.928-13.764-12.8-17.107-12.025l-.036.011h0a.572.572,0,0,0-.164.046L416.958,291.9a16.913,16.913,0,0,0-5.868,5.967c-4.779,5.308-5.961,22.138-5.761,34.347a14.05,14.05,0,0,0,4.373,1.728l-.091,31.625c22.065,16.4,41.642,2.6,46.58-1.475a5.068,5.068,0,0,0,1.631-2.428c5.55-18.1,4.368-35.755,4.109-50.046v0C464.1,311.624,466.068,310.676,468.765,307.764Z"/><g id="_Group_18" data-name="&lt;Group&gt;"><path id="_Path_109" data-name="&lt;Path&gt;" class="cls-27" d="M455.412,280.954c3.452,4.007,6.242,15.425,6.519,30.67,2.171,0,4.137-.948,6.834-3.86-1.118-8.6-2.715-16.507-3.68-20.651-3.012-12.928-13.764-12.8-17.107-12.025l-.036.011C448.483,275.016,450.5,275.249,455.412,280.954Z"/></g><g id="_Group_19" data-name="&lt;Group&gt;" class="cls-69"><path id="_Path_110" data-name="&lt;Path&gt;" class="cls-70" d="M455.412,280.954c3.452,4.007,6.242,15.425,6.519,30.67,2.171,0,4.137-.948,6.834-3.86-1.118-8.6-2.715-16.507-3.68-20.651-3.012-12.928-13.764-12.8-17.107-12.025l-.036.011C448.483,275.016,450.5,275.249,455.412,280.954Z"/></g><g id="_Group_20" data-name="&lt;Group&gt;"><path id="_Path_111" data-name="&lt;Path&gt;" class="cls-18" d="M433.115,468.379c-7.141,4.122-18.718,4.122-25.858,0s-7.141-10.807,0-14.93,18.717-4.122,25.858,0S440.256,464.257,433.115,468.379Z"/><path id="_Path_112" data-name="&lt;Path&gt;" class="cls-15" d="M420.185,457.894H402.663a6.341,6.341,0,0,0-.528,4.628h18.05Z"/><path id="_Path_113" data-name="&lt;Path&gt;" class="cls-20" d="M416.309,420.2v40.084h0a1.928,1.928,0,0,0,1.136,1.583,6.065,6.065,0,0,0,5.482,0,1.925,1.925,0,0,0,1.135-1.583V420.2Z"/><path id="_Path_114" data-name="&lt;Path&gt;" class="cls-71" d="M416.309,420.2v40.084h0a1.928,1.928,0,0,0,1.136,1.583,6.065,6.065,0,0,0,5.482,0,1.925,1.925,0,0,0,1.135-1.583V420.2Z"/><path id="_Path_115" data-name="&lt;Path&gt;" class="cls-72" d="M421.742,420.2v42.128a4.67,4.67,0,0,0,1.185-.461,1.925,1.925,0,0,0,1.135-1.583V420.2Z"/><path id="_Path_116" data-name="&lt;Path&gt;" class="cls-73" d="M419.421,420.2h-3.112v40.084h0a1.928,1.928,0,0,0,1.136,1.583,5.192,5.192,0,0,0,1.976.61Z"/><path id="_Path_117" data-name="&lt;Path&gt;" class="cls-20" d="M433.115,468.379c-7.141,4.122-18.718,4.122-25.858,0-3.57-2.061-5.356-4.763-5.356-7.465h0v3.043c0,2.7,1.786,5.4,5.356,7.465,7.14,4.122,18.717,4.122,25.858,0,3.57-2.062,5.355-4.764,5.355-7.465v-3.043C438.47,463.616,436.685,466.318,433.115,468.379Z"/><path id="_Path_118" data-name="&lt;Path&gt;" class="cls-74" d="M433.115,468.379c-7.141,4.122-18.718,4.122-25.858,0-3.57-2.061-5.356-4.763-5.356-7.465h0v3.043c0,2.7,1.786,5.4,5.356,7.465,7.14,4.122,18.717,4.122,25.858,0,3.57-2.062,5.355-4.764,5.355-7.465v-3.043C438.47,463.616,436.685,466.318,433.115,468.379Z"/><path id="_Path_119" data-name="&lt;Path&gt;" class="cls-33" d="M444.252,399.221c-13.291,7.674-34.841,7.674-48.132,0s-13.291-20.115,0-27.789,34.841-7.673,48.132,0S457.543,391.548,444.252,399.221Z"/><path id="_Path_120" data-name="&lt;Path&gt;" class="cls-75" d="M444.252,399.221c-13.291,7.674-34.841,7.674-48.132,0s-13.291-20.115,0-27.789,34.841-7.673,48.132,0S457.543,391.548,444.252,399.221Z"/><path id="_Path_121" data-name="&lt;Path&gt;" class="cls-15" d="M444.252,371.432c-13.291-7.673-34.841-7.673-48.132,0-5.643,3.258-8.881,7.377-9.732,11.623.269,7.1,5.763,9.982,10.282,12.7,12.557,7.547,34.166,7.558,48.487-3.275a21.381,21.381,0,0,0,7.569-12.91A21.331,21.331,0,0,0,444.252,371.432Z"/><g id="_Group_21" data-name="&lt;Group&gt;"><path id="_Path_122" data-name="&lt;Path&gt;" class="cls-35" d="M444.252,399.221c-13.291,7.674-34.841,7.674-48.132,0-6.645-3.836-9.968-8.865-9.968-13.895h0v17.532c0,5.029,3.323,10.058,9.968,13.894,13.291,7.675,34.841,7.675,48.132,0,6.645-3.837,9.969-8.866,9.969-13.895V385.326C454.221,390.356,450.9,395.385,444.252,399.221Z"/></g><g id="_Group_22" data-name="&lt;Group&gt;" class="cls-36"><path id="_Path_123" data-name="&lt;Path&gt;" class="cls-76" d="M444.252,399.221c-13.291,7.674-34.841,7.674-48.132,0-6.645-3.836-9.968-8.865-9.968-13.895h0v17.532c0,5.029,3.323,10.058,9.968,13.894,13.291,7.675,34.841,7.675,48.132,0,6.645-3.837,9.969-8.866,9.969-13.895V385.326C454.221,390.356,450.9,395.385,444.252,399.221Z"/></g><path id="_Path_124" data-name="&lt;Path&gt;" class="cls-77" d="M429.529,404.215c-11.49,1.888-24.361.229-33.409-4.994-6.645-3.836-9.968-8.865-9.968-13.895v17.532c0,5.029,3.323,10.058,9.968,13.894,9.048,5.224,21.919,6.884,33.409,5Z"/><path id="_Path_125" data-name="&lt;Path&gt;" class="cls-78" d="M444.252,399.221c-.32.186-.666.343-1,.52v17.531c.329-.176.675-.334,1-.519,6.645-3.837,9.969-8.866,9.969-13.895V385.326C454.221,390.356,450.9,395.385,444.252,399.221Z"/><g id="_Group_23" data-name="&lt;Group&gt;" class="cls-39"><path id="_Path_126" data-name="&lt;Path&gt;" class="cls-40" d="M453.12,390.3s-.117.266-.339.765a14,14,0,0,1-1.189,2.058,21.992,21.992,0,0,1-6.172,5.825c-.735.5-1.568.944-2.382,1.383-.416.223-.828.464-1.265.682-.453.2-.912.408-1.376.616s-.935.428-1.418.625c-.49.175-.983.356-1.484.537a27.183,27.183,0,0,1-3.106.963c-1.06.32-2.16.539-3.275.766-1.107.262-2.25.4-3.4.571a59.905,59.905,0,0,1-7,.529c-1.177.021-2.354-.062-3.526-.09-1.17-.071-2.331-.2-3.487-.3l-3.407-.5c-1.111-.236-2.214-.445-3.288-.7-1.061-.307-2.122-.55-3.127-.894-1-.374-1.988-.693-2.921-1.087-.922-.423-1.834-.8-2.684-1.225q-1.257-.688-2.42-1.329a25.828,25.828,0,0,1-3.879-2.846,21.664,21.664,0,0,1-2.546-2.693,15.081,15.081,0,0,1-1.319-1.979l-.393-.74s.159.244.453.7a17.92,17.92,0,0,0,1.455,1.853,24.987,24.987,0,0,0,6.606,5.068q1.158.58,2.408,1.2c.846.386,1.754.717,2.667,1.1.925.347,1.908.623,2.892.949,1,.287,2.031.538,3.073.816,1.053.236,2.136.425,3.224.646q1.653.222,3.34.449c1.132.079,2.271.191,3.416.246,1.149.012,2.3.075,3.451.046a58.607,58.607,0,0,0,6.859-.431c1.123-.157,2.244-.274,3.329-.516,1.092-.208,2.171-.408,3.209-.707,1.05-.259,2.071-.544,3.053-.88l1.468-.469c.475-.171.932-.369,1.388-.548l1.352-.541c.439-.2.865-.426,1.287-.632.861-.422,1.647-.806,2.381-1.262a23.021,23.021,0,0,0,6.359-5.352,16.4,16.4,0,0,0,1.33-1.939C452.98,390.551,453.12,390.3,453.12,390.3Z"/></g></g><polygon id="_Path_127" data-name="&lt;Path&gt;" class="cls-15" points="390.32 334.198 405.379 325.46 405.379 328.248 392.436 335.69 390.32 334.198"/><path id="_Path_128" data-name="&lt;Path&gt;" class="cls-15" d="M362.461,302.11,359,303.766a1.444,1.444,0,0,0-.477,2.239l7.876,9.258s-3.441,11.534,5.569,17.581,6.716,4.163,6.716,4.163l5.628,10.247,1.747,7.532,8.185-3.117-9.991-15.317L373.784,321.61l1.988-1.887L365.59,301.708Z"/><path id="_Compound_Path_4" data-name="&lt;Compound Path&gt;" class="cls-53" d="M412.919,316.988h0a1.377,1.377,0,0,0-.236-.8l-22.768-31.5a1.407,1.407,0,0,0-1.8-.417l-24.912,13.234a1.379,1.379,0,0,0-.714,1.214h0l-.031-.012v3.4l.031.011a1.354,1.354,0,0,0,.256.788l16.961,22.38c.018.024.034.048.051.072l6.431,9.7a1.406,1.406,0,0,0,1.87.44l24.186-13.964a1.37,1.37,0,0,0,.671-1.206l.03.011V317Z"/><path id="_Path_129" data-name="&lt;Path&gt;" class="cls-3" d="M378.9,450.784s4.8,8.689-.742,11.888-12,3.773-20.117-2.06-18.784-10.238-18.784-17.07,9.232-9.8,18.011-4.772S378.9,450.784,378.9,450.784Z"/><path id="_Path_130" data-name="&lt;Path&gt;" class="cls-45" d="M453.369,352.577c-.183.166-22.547,17.539-39.658,1.437l-1.819-11.2,0,0-1.042-.6c-2.105,1.495-4.344,2.945-6.755,4.337a102.8,102.8,0,0,1-11.441,5.643l16.962,13.383-23.556-10.785.186-.122c-1.624.577-3.255,1.146-4.922,1.663-6.6,12.114-.818,24.949-.818,24.949,25.622,19.84,43.643,21.045,62.662,8.525C458.156,379.933,453.369,352.577,453.369,352.577Z"/><path id="_Path_131" data-name="&lt;Path&gt;" class="cls-79" d="M453.369,352.577c-.183.166-22.547,17.539-39.658,1.437l-1.819-11.2,0,0-1.042-.6c-2.105,1.495-4.344,2.945-6.755,4.337a102.8,102.8,0,0,1-11.441,5.643l16.962,13.383-23.556-10.785.186-.122c-1.624.577-3.255,1.146-4.922,1.663-6.6,12.114-.818,24.949-.818,24.949,25.622,19.84,43.643,21.045,62.662,8.525C458.156,379.933,453.369,352.577,453.369,352.577Z"/><path id="_Path_132" data-name="&lt;Path&gt;" class="cls-15" d="M453.762,355.668l-3.791-.813c-5.062,3.046-15.09,7.779-25.256,5.275l-11.77,7.692c-1.105-.678-2.215-1.42-3.334-2.251l-23.556-10.785.186-.122q-1.786.636-3.6,1.232h0a81.166,81.166,0,0,0,21.034,10.435,62.913,62.913,0,0,1,13.106,6.288c6.4,3.936,18.857,7.974,36.787-2.247A63.9,63.9,0,0,0,453.762,355.668Z"/><path id="_Path_133" data-name="&lt;Path&gt;" class="cls-45" d="M383.161,381.276v68.472s-11.288,7.033-22.267,0V373.215c0-13.645,11.564-19.556,25.161-18.429Z"/><path id="_Path_134" data-name="&lt;Path&gt;" class="cls-80" d="M383.161,381.276v68.472s-11.288,7.033-22.267,0V373.215c0-13.645,11.564-19.556,25.161-18.429Z"/><path id="_Path_135" data-name="&lt;Path&gt;" class="cls-81" d="M383.161,381.276v68.472s-11.288,7.033-22.267,0V373.215c0-13.645,11.564-19.556,25.161-18.429Z"/><path id="_Path_136" data-name="&lt;Path&gt;" class="cls-57" d="M379.709,321.974l-16.961-22.381a1.4,1.4,0,0,1,.458-2.087l24.912-13.234a1.407,1.407,0,0,1,1.8.417l22.768,31.5a1.405,1.405,0,0,1-.436,2.038l-24.186,13.961a1.4,1.4,0,0,1-1.87-.438l-6.431-9.7C379.743,322.022,379.727,322,379.709,321.974Z"/><path id="_Path_137" data-name="&lt;Path&gt;" class="cls-35" d="M380.7,319.933,365.84,300.325a1.229,1.229,0,0,1,.4-1.828l21.825-11.6a1.231,1.231,0,0,1,1.573.365l19.946,27.594a1.23,1.23,0,0,1-.38,1.785l-21.188,12.232a1.231,1.231,0,0,1-1.64-.384l-5.634-8.5C380.73,319.975,380.715,319.952,380.7,319.933Z"/><path id="_Path_138" data-name="&lt;Path&gt;" class="cls-57" d="M379.709,321.974l-16.961-22.381a1.4,1.4,0,0,1,.458-2.087l24.912-13.234a1.407,1.407,0,0,1,1.8.417l22.768,31.5a1.405,1.405,0,0,1-.436,2.038l-24.186,13.961a1.4,1.4,0,0,1-1.87-.438l-6.431-9.7C379.743,322.022,379.727,322,379.709,321.974Z"/><path id="_Path_139" data-name="&lt;Path&gt;" class="cls-35" d="M380.7,319.933,365.84,300.325a1.229,1.229,0,0,1,.4-1.828l21.825-11.6a1.231,1.231,0,0,1,1.573.365l19.946,27.594a1.23,1.23,0,0,1-.38,1.785l-21.188,12.232a1.231,1.231,0,0,1-1.64-.384l-5.634-8.5C380.73,319.975,380.715,319.952,380.7,319.933Z"/><path id="_Path_140" data-name="&lt;Path&gt;" class="cls-82" d="M380.7,319.933,365.84,300.325a1.229,1.229,0,0,1,.4-1.828l21.825-11.6a1.231,1.231,0,0,1,1.573.365l19.946,27.594a1.23,1.23,0,0,1-.38,1.785l-21.188,12.232a1.231,1.231,0,0,1-1.64-.384l-5.634-8.5C380.73,319.975,380.715,319.952,380.7,319.933Z"/><path id="_Path_141" data-name="&lt;Path&gt;" class="cls-15" d="M397.745,303.051a10.086,10.086,0,0,0,3.839,6.6,35.626,35.626,0,0,0,7.482,4.751l.754-3.166Z"/><path id="_Path_142" data-name="&lt;Path&gt;" class="cls-7" d="M407.87,312.486s-6.149-3.514-9.466-8.2,6.328.906,6.328.906l-5.6-7.748s11.892-.591,13.816,12.674Z"/><path id="_Path_143" data-name="&lt;Path&gt;" class="cls-53" d="M412.919,316.988a1.377,1.377,0,0,1-.672,1.235l-24.186,13.961a1.4,1.4,0,0,1-1.87-.438l-6.431-9.7c-.017-.024-.033-.049-.051-.072l-16.961-22.381a1.365,1.365,0,0,1-.256-.873l-.031-.011v3.4l.031.011a1.354,1.354,0,0,0,.256.788l16.961,22.38c.018.024.034.048.051.072l6.431,9.7a1.406,1.406,0,0,0,1.87.44l24.186-13.964a1.37,1.37,0,0,0,.671-1.206l.03.011V317Z"/><path id="_Path_144" data-name="&lt;Path&gt;" class="cls-27" d="M447.778,275.145s1.723-1.052,7.634,5.809c6.671,7.743,11.5,46.988,2.39,80.6a5.086,5.086,0,0,1-1.688,2.6c-5.057,4.151-24.549,17.727-46.5,1.412l.1-36.131s-2.18-21.885-.253-27.777a16.8,16.8,0,0,1,7.5-9.759Z"/><path id="_Path_145" data-name="&lt;Path&gt;" class="cls-83" d="M447.778,275.145s1.723-1.052,7.634,5.809c6.673,7.747,11.5,44.265,2.376,80.537a5.088,5.088,0,0,1-1.713,2.7c-5.119,4.189-24.567,17.655-46.464,1.381l.1-36.131s-2.18-21.885-.253-27.777a16.8,16.8,0,0,1,7.5-9.759Z"/><path id="_Path_146" data-name="&lt;Path&gt;" class="cls-84" d="M447.778,275.145s1.723-1.052,7.634,5.809c6.673,7.747,11.5,44.265,2.376,80.537a5.088,5.088,0,0,1-1.713,2.7c-5.119,4.189-24.567,17.655-46.464,1.381l.1-36.131s-2.18-21.885-.253-27.777a16.8,16.8,0,0,1,7.5-9.759Z"/><path id="_Path_147" data-name="&lt;Path&gt;" class="cls-85" d="M455.352,364.765a38.94,38.94,0,0,1-20.552,3.592,11.676,11.676,0,0,1-10.367-13.784,125.3,125.3,0,0,0,1.668-22.355l-3.332.155-6.323,7.2-6.8,12.127-.04,13.873a45.017,45.017,0,0,0,5.3,3.392l.5.311c.013,0,.027,0,.041-.006C434,379.029,449.886,369.016,455.352,364.765Z"/><path id="_Path_148" data-name="&lt;Path&gt;" class="cls-15" d="M378.332,312.064s-1.776.466-.619,7.3l2.021,3.831,1.757-.929Z"/><g id="_Group_24" data-name="&lt;Group&gt;"><path id="_Path_149" data-name="&lt;Path&gt;" class="cls-7" d="M423.874,332.347c-6.948,2.907-13.29,2.411-17.261.557.092,4.636.3,8.6.458,11a1.059,1.059,0,0,1-1.717.9L385.62,330.883s.465-10.7-4.941-17.28-.945,8.406-.945,8.406l-7.288-9.535a1.671,1.671,0,0,0-2.769.154c-2.288,3.92-5.19,13.174,10.057,22.58,0,0,9.865,18.053,26.484,28.8C421.951,374.191,424.258,332.373,423.874,332.347Z"/></g><g id="_Group_25" data-name="&lt;Group&gt;"><path id="_Path_150" data-name="&lt;Path&gt;" class="cls-8" d="M423.874,332.347a27.922,27.922,0,0,1-3.859,1.3c-1.2,11.249-5.433,33.107-17.289,25.436-8.833-5.716-15.758-13.493-20.308-19.525,3.986,6.018,12.264,16.994,23.8,24.459C421.951,374.191,424.258,332.373,423.874,332.347Z"/></g><path id="_Path_151" data-name="&lt;Path&gt;" class="cls-7" d="M439.146,281.089l-.631-1.6-12.733,2.519s.972,3.033-3.831,7.2c8.615.486,13.865-2.673,16.3-4.687A3.007,3.007,0,0,0,439.146,281.089Z"/><path id="_Path_152" data-name="&lt;Path&gt;" class="cls-8" d="M433.875,283.709a19.86,19.86,0,0,0,5.2-2.806l-.557-1.411-12.733,2.519a4.9,4.9,0,0,1-.725,3.507A33.625,33.625,0,0,0,433.875,283.709Z"/><path id="_Path_153" data-name="&lt;Path&gt;" class="cls-7" d="M408.545,245.785c1.693-10.461,10.111-18.721,20.959-18.721a21.1,21.1,0,0,1,21.1,21.1c0,.12-.015.235-.017.353l.017,0v11.744A20.953,20.953,0,0,1,437,280.105a35.068,35.068,0,0,1-12.729,1.887,6.552,6.552,0,0,1-3.857-1.408C410.909,272.993,405.976,261.644,408.545,245.785Z"/><path id="_Path_154" data-name="&lt;Path&gt;" class="cls-13" d="M429.51,224.319c-6.7,0-13.982,3-17.278,8.6l0-.007s-9.135,4.7-3.531,15.675c0,0,.346-1.369,2.631-2.686a8.583,8.583,0,0,0,2.787,8.855,12.765,12.765,0,0,0,9.827,2.408s6.226,6.9,6.739,16.27a7.23,7.23,0,0,0,9.665,6.344c7.511-2.824,16.176-9.483,16.176-24.427C456.522,228.951,437.989,224.319,429.51,224.319Z"/><path id="_Path_155" data-name="&lt;Path&gt;" class="cls-86" d="M429.51,224.319c-6.7,0-13.982,3-17.278,8.6l0-.007s-9.135,4.7-3.531,15.675c0,0,.346-1.369,2.631-2.686a8.583,8.583,0,0,0,2.787,8.855,12.765,12.765,0,0,0,9.827,2.408s6.226,6.9,6.739,16.27a7.23,7.23,0,0,0,9.665,6.344c7.511-2.824,16.176-9.483,16.176-24.427C456.522,228.951,437.989,224.319,429.51,224.319Z"/><path id="_Path_156" data-name="&lt;Path&gt;" class="cls-7" d="M421.951,261.057a4.8,4.8,0,1,0,4.8-4.8A4.8,4.8,0,0,0,421.951,261.057Z"/><path id="_Path_157" data-name="&lt;Path&gt;" class="cls-27" d="M414.68,296.2c-7.8-.466-9.593,21.195-9.351,36.023,3.791,2.385,13.023,3.243,20.772,0,.862-8.63.215-16.564.215-20.819C426.316,298.126,418.107,296.4,414.68,296.2Z"/><path id="_Path_158" data-name="&lt;Path&gt;" class="cls-87" d="M414.68,296.2c-7.8-.466-9.593,21.195-9.351,36.023,3.791,2.385,13.023,3.243,20.772,0,.862-8.63.215-16.564.215-20.819C426.316,298.126,418.107,296.4,414.68,296.2Z"/><path id="_Path_159" data-name="&lt;Path&gt;" class="cls-8" d="M369.677,312.628c-2.288,3.92-5.19,13.174,10.057,22.58C366.3,326.421,369.677,312.628,369.677,312.628Z"/><polygon id="_Path_160" data-name="&lt;Path&gt;" class="cls-61" points="381.969 290.141 389.11 328.248 392.684 326.184 385.338 288.352 381.969 290.141"/><polygon id="_Path_161" data-name="&lt;Path&gt;" class="cls-61" points="387.327 287.295 394.521 325.124 396.291 324.101 388.067 286.902 387.327 287.295"/></g></g><path id="_Path_162" data-name="&lt;Path&gt;" class="cls-15" d="M357.532,243.744c.089-.371.164-.753.226-1.141-.044-.01-15.377-3.3-26.856-2.812-5.687.243-11.312.607-15.544.912A6.752,6.752,0,0,1,308.125,234L308,210.061l-1.181,6.826s-1.822,17.752-2.755,21.869a12.7,12.7,0,0,0,.565,6.29A167.356,167.356,0,0,1,357.532,243.744Z"/><g id="_Group_26" data-name="&lt;Group&gt;"><path id="_Path_163" data-name="&lt;Path&gt;" class="cls-15" d="M356.266,280.175H344.961a1.163,1.163,0,0,1-.831-.349l-17.5-17.847a1.163,1.163,0,0,1,.721-1.972l9.413-.9Z"/><path id="_Compound_Path_5" data-name="&lt;Compound Path&gt;" class="cls-57" d="M372.807,268.605,353.891,249.08a1.548,1.548,0,0,0-1.641-.377L337.747,254a1.531,1.531,0,0,0-.991,1.235l-.025-.01v3.531h0a1.531,1.531,0,0,0,.4,1.083l18.075,19.833a1.544,1.544,0,0,0,1.672.412l15.345-5.6a1.541,1.541,0,0,0,1.01-1.524v-3.237A1.526,1.526,0,0,0,372.807,268.605Z"/><path id="_Path_164" data-name="&lt;Path&gt;" class="cls-53" d="M337.747,254l14.5-5.294a1.548,1.548,0,0,1,1.641.377l18.916,19.525a1.547,1.547,0,0,1-.581,2.528l-15.345,5.6a1.543,1.543,0,0,1-1.672-.41L337.134,256.49A1.546,1.546,0,0,1,337.747,254Z"/><path id="_Path_165" data-name="&lt;Path&gt;" class="cls-35" d="M340.31,254.527l11.266-4.054a1.214,1.214,0,0,1,1.274.287l16.942,17.282c1.29,1.3.554,1.527-.451,1.936l-11.919,4.29a1.211,1.211,0,0,1-1.3-.315l-16.29-17.517C338.876,255.5,338.712,255.011,340.31,254.527Z"/><path id="_Path_166" data-name="&lt;Path&gt;" class="cls-88" d="M340.31,254.527l11.266-4.054a1.214,1.214,0,0,1,1.274.287l16.942,17.282c1.29,1.3.554,1.527-.451,1.936l-11.919,4.29a1.211,1.211,0,0,1-1.3-.315l-16.29-17.517C338.876,255.5,338.712,255.011,340.31,254.527Z"/><path id="_Path_167" data-name="&lt;Path&gt;" class="cls-57" d="M372.226,271.133l-15.345,5.6a1.543,1.543,0,0,1-1.672-.41L337.134,256.49a1.523,1.523,0,0,1-.378-1.258l-.025-.01v3.531h0a1.531,1.531,0,0,0,.4,1.083l18.075,19.833a1.544,1.544,0,0,0,1.672.412l15.345-5.6a1.541,1.541,0,0,0,1.01-1.524v-3.237A1.537,1.537,0,0,1,372.226,271.133Z"/><polygon id="_Path_168" data-name="&lt;Path&gt;" class="cls-61" points="362.933 261.046 344.243 253.111 342.832 253.631 364.575 262.72 362.933 261.046"/><path id="_Path_169" data-name="&lt;Path&gt;" class="cls-61" d="M367.626,265.834l-27.162-11.363-.154.056c-1.6.484-1.434.976-.477,1.909l2.613,2.808,26.381,10.918.514-.184c1-.409,1.741-.633.451-1.936Z"/></g></g><g id="_Group_27" data-name="&lt;Group&gt;" class="cls-89"><g id="_Group_28" data-name="&lt;Group&gt;"><g id="_Group_29" data-name="&lt;Group&gt;"><path id="_Path_170" data-name="&lt;Path&gt;" class="cls-40" d="M181.872,233l18.445-10.649a.918.918,0,0,0,.457-.793V202.622a.915.915,0,0,0-1.373-.792l-18.045,10.418a1.716,1.716,0,0,0-.857,1.485V232.2A.915.915,0,0,0,181.872,233Z"/></g><g id="_Group_30" data-name="&lt;Group&gt;"><path id="_Path_171" data-name="&lt;Path&gt;" class="cls-90" d="M187.788,216.787c0,1.816,1.276,2.553,2.848,1.644a6.3,6.3,0,0,0,2.849-4.933c0-1.816-1.276-2.552-2.849-1.644A6.3,6.3,0,0,0,187.788,216.787Z"/><path id="_Path_172" data-name="&lt;Path&gt;" class="cls-91" d="M190.636,218.431c1.931-1.114,3.5-.211,3.5,2.018l-6.989,4.037A7.725,7.725,0,0,1,190.636,218.431Z"/></g></g><g id="_Group_31" data-name="&lt;Group&gt;"><g id="_Group_32" data-name="&lt;Group&gt;"><path id="_Path_173" data-name="&lt;Path&gt;" class="cls-40" d="M206.621,218.8l18.444-10.649a.913.913,0,0,0,.457-.792V188.429a.915.915,0,0,0-1.372-.792l-18.045,10.418a1.713,1.713,0,0,0-.858,1.484V218.01A.916.916,0,0,0,206.621,218.8Z"/></g><g id="_Group_33" data-name="&lt;Group&gt;"><path id="_Path_174" data-name="&lt;Path&gt;" class="cls-91" d="M212.537,202.974c0,1.816,1.275,2.552,2.848,1.644a6.3,6.3,0,0,0,2.849-4.934c0-1.816-1.277-2.552-2.849-1.644A6.3,6.3,0,0,0,212.537,202.974Z"/><path id="_Path_175" data-name="&lt;Path&gt;" class="cls-90" d="M215.385,204.618c1.932-1.115,3.5-.211,3.5,2.018l-6.99,4.036A7.725,7.725,0,0,1,215.385,204.618Z"/></g></g><g id="_Group_34" data-name="&lt;Group&gt;"><g id="_Group_35" data-name="&lt;Group&gt;"><path id="_Path_176" data-name="&lt;Path&gt;" class="cls-91" d="M234.1,159.217l18.052-10.024a1.186,1.186,0,0,0,.593-1.027V104.44a1.186,1.186,0,0,0-1.779-1.027l-17.533,9.725a2.22,2.22,0,0,0-1.111,1.923V158.19A1.186,1.186,0,0,0,234.1,159.217Z"/></g><path id="_Path_177" data-name="&lt;Path&gt;" class="cls-40" d="M237.056,126.342a.475.475,0,0,0,.24-.064l10.957-6.326a.48.48,0,0,0-.479-.832l-10.958,6.326a.48.48,0,0,0,.24.9Z"/><path id="_Path_178" data-name="&lt;Path&gt;" class="cls-40" d="M237.056,131.208a.475.475,0,0,0,.24-.064l10.957-6.326a.48.48,0,1,0-.479-.831l-10.958,6.325a.48.48,0,0,0,.24.9Z"/><path id="_Path_179" data-name="&lt;Path&gt;" class="cls-40" d="M237.056,136.075a.476.476,0,0,0,.24-.065l10.957-6.325a.48.48,0,0,0-.479-.832l-10.958,6.326a.48.48,0,0,0,.24.9Z"/><path id="_Path_180" data-name="&lt;Path&gt;" class="cls-40" d="M237.056,140.941a.485.485,0,0,0,.24-.064l10.957-6.326a.48.48,0,0,0-.479-.832l-10.958,6.326a.48.48,0,0,0,.24.9Z"/><path id="_Path_181" data-name="&lt;Path&gt;" class="cls-40" d="M237.056,145.807a.475.475,0,0,0,.24-.064l10.957-6.326a.48.48,0,0,0-.479-.831l-10.958,6.325a.48.48,0,0,0,.24.9Z"/></g><g id="_Group_36" data-name="&lt;Group&gt;"><g id="_Group_37" data-name="&lt;Group&gt;"><path id="_Path_182" data-name="&lt;Path&gt;" class="cls-40" d="M144.626,253.29l23.895-13.8a1.185,1.185,0,0,0,.592-1.027V221.139a1.185,1.185,0,0,0-1.777-1.026l-23.379,13.5a2.217,2.217,0,0,0-1.109,1.922v16.73A1.185,1.185,0,0,0,144.626,253.29Z"/></g><path id="_Path_183" data-name="&lt;Path&gt;" class="cls-91" d="M155.6,243.144a1.182,1.182,0,0,0,.3-.039,1.205,1.205,0,0,0,.739-.561l8.3-14.372a1.2,1.2,0,0,0-2.079-1.2l-7.688,13.316-4.074-2.44a1.2,1.2,0,0,0-1.233,2.06l5.121,3.065A1.2,1.2,0,0,0,155.6,243.144Z"/></g><g id="_Group_38" data-name="&lt;Group&gt;"><g id="_Group_39" data-name="&lt;Group&gt;"><path id="_Path_184" data-name="&lt;Path&gt;" class="cls-91" d="M145.749,223.535l77.843-44.943a3.86,3.86,0,0,0,1.93-3.345v-79.9A3.862,3.862,0,0,0,219.729,92l-76.157,43.969a7.232,7.232,0,0,0-3.617,6.264V220.19A3.863,3.863,0,0,0,145.749,223.535Z"/><path id="_Compound_Path_6" data-name="&lt;Compound Path&gt;" class="cls-40" d="M144.075,219.713a1.785,1.785,0,0,1-.9-1.563V141.992a3.3,3.3,0,0,1,1.647-2.853L219.893,95.8a1.607,1.607,0,0,1,2.411,1.392v76.953a2.515,2.515,0,0,1-1.254,2.172l-75.169,43.4a1.793,1.793,0,0,1-1.806,0ZM220.613,97.044,145.54,140.386a1.855,1.855,0,0,0-.926,1.606V218.15a.364.364,0,0,0,.546.316l75.171-43.4a1.072,1.072,0,0,0,.534-.925V97.189a.158.158,0,0,0-.084-.145.163.163,0,0,0-.084-.024A.159.159,0,0,0,220.613,97.044Z"/></g><path id="_Path_185" data-name="&lt;Path&gt;" class="cls-40" d="M159.268,169.868a.72.72,0,0,0,.36-1.343l-3.668-2.117,3.971-6.876a.721.721,0,0,0-1.249-.72l-4.329,7.5a.721.721,0,0,0,.264.983l4.291,2.478A.723.723,0,0,0,159.268,169.868Z"/><path id="_Path_186" data-name="&lt;Path&gt;" class="cls-40" d="M206.208,142.687a.72.72,0,0,0,.624-.36l4.291-7.433a.725.725,0,0,0,.072-.547.717.717,0,0,0-.335-.436l-4.33-2.5a.72.72,0,1,0-.72,1.247l3.7,2.14-3.93,6.809a.719.719,0,0,0,.264.983A.71.71,0,0,0,206.208,142.687Z"/><path id="_Path_187" data-name="&lt;Path&gt;" class="cls-40" d="M199.017,147.082c0,8.78-6.163,19.456-13.767,23.846s-13.767.832-13.767-7.948,6.165-19.456,13.767-23.846S199.017,138.3,199.017,147.082Z"/></g></g><g id="_Group_40" data-name="&lt;Group&gt;"><path id="_Path_188" data-name="&lt;Path&gt;" class="cls-40" d="M228.211,85.624c0,1.086.762,1.526,1.7.983a3.764,3.764,0,0,0,1.7-2.95c0-1.086-.762-1.526-1.7-.983A3.764,3.764,0,0,0,228.211,85.624Z"/><path id="_Path_189" data-name="&lt;Path&gt;" class="cls-40" d="M148.318,120.767c0,1.086.761,1.526,1.7.983a3.764,3.764,0,0,0,1.7-2.95c0-1.086-.762-1.526-1.7-.983A3.763,3.763,0,0,0,148.318,120.767Z"/><path id="_Path_190" data-name="&lt;Path&gt;" class="cls-40" d="M239.651,173.792c0,1.086.762,1.526,1.7.983a3.764,3.764,0,0,0,1.7-2.95c0-1.086-.762-1.526-1.7-.983A3.76,3.76,0,0,0,239.651,173.792Z"/><path id="_Path_191" data-name="&lt;Path&gt;" class="cls-40" d="M107.98,190.627c0,.764.536,1.074,1.2.692a2.652,2.652,0,0,0,1.2-2.076c0-.764-.536-1.074-1.2-.692A2.646,2.646,0,0,0,107.98,190.627Z"/><path id="_Path_192" data-name="&lt;Path&gt;" class="cls-40" d="M230.419,92.427c0,.764.536,1.074,1.2.692a2.649,2.649,0,0,0,1.2-2.076c0-.765-.536-1.074-1.2-.692A2.647,2.647,0,0,0,230.419,92.427Z"/><path id="_Path_193" data-name="&lt;Path&gt;" class="cls-40" d="M130.289,145.991c0,.764.537,1.074,1.2.692a2.653,2.653,0,0,0,1.2-2.077c0-.764-.537-1.074-1.2-.692A2.652,2.652,0,0,0,130.289,145.991Z"/><path id="_Path_194" data-name="&lt;Path&gt;" class="cls-40" d="M190.308,243.423c0,.764.537,1.074,1.2.692a2.648,2.648,0,0,0,1.2-2.077c0-.764-.536-1.073-1.2-.691A2.652,2.652,0,0,0,190.308,243.423Z"/><path id="_Path_195" data-name="&lt;Path&gt;" class="cls-40" d="M184.052,240.854c0,.765.537,1.074,1.2.692a2.645,2.645,0,0,0,1.2-2.075c0-.765-.536-1.075-1.2-.692A2.65,2.65,0,0,0,184.052,240.854Z"/><path id="_Path_196" data-name="&lt;Path&gt;" class="cls-40" d="M227.013,213.778c0,.764.537,1.074,1.2.692a2.647,2.647,0,0,0,1.2-2.077c0-.764-.536-1.074-1.2-.691A2.65,2.65,0,0,0,227.013,213.778Z"/><path id="_Path_197" data-name="&lt;Path&gt;" class="cls-40" d="M141.973,127.707c0,.764.537,1.074,1.2.692a2.648,2.648,0,0,0,1.2-2.076c0-.764-.537-1.074-1.2-.692A2.65,2.65,0,0,0,141.973,127.707Z"/><path id="_Path_198" data-name="&lt;Path&gt;" class="cls-40" d="M120.588,198.344c0,.763.536,1.073,1.2.691a2.647,2.647,0,0,0,1.2-2.076c0-.764-.536-1.074-1.2-.692A2.649,2.649,0,0,0,120.588,198.344Z"/></g><g id="_Group_41" data-name="&lt;Group&gt;"><g id="_Group_42" data-name="&lt;Group&gt;"><g id="_Group_43" data-name="&lt;Group&gt;" class="cls-89"><g id="_Group_44" data-name="&lt;Group&gt;"><g id="_Group_45" data-name="&lt;Group&gt;"><path id="_Path_199" data-name="&lt;Path&gt;" class="cls-91" d="M450.416,153.1,414.1,132.126a1.8,1.8,0,0,1-.9-1.561V93.283a1.8,1.8,0,0,1,2.7-1.56l35.535,20.516a3.377,3.377,0,0,1,1.687,2.923v36.373A1.8,1.8,0,0,1,450.416,153.1Z"/><path id="_Compound_Path_7" data-name="&lt;Compound Path&gt;" class="cls-40" d="M450.776,151.427a.84.84,0,0,1-.421-.114l-35.075-20.25a1.173,1.173,0,0,1-.584-1.013V94.143a.75.75,0,0,1,1.125-.649l35.028,20.223a1.539,1.539,0,0,1,.769,1.332v35.535a.834.834,0,0,1-.42.729A.847.847,0,0,1,450.776,151.427Zm-35.33-57.363a.075.075,0,0,0-.039.011.079.079,0,0,0-.04.068V130.05a.5.5,0,0,0,.25.431l35.073,20.25a.174.174,0,0,0,.172,0,.167.167,0,0,0,.085-.147V115.049a.871.871,0,0,0-.432-.75L415.486,94.075A.086.086,0,0,0,415.446,94.064Z"/></g><path id="_Path_200" data-name="&lt;Path&gt;" class="cls-40" d="M444.108,128.055a.335.335,0,0,1-.168-.626l1.712-.989-1.852-3.207a.336.336,0,1,1,.582-.336l2.018,3.5a.334.334,0,0,1-.122.459l-2,1.156A.331.331,0,0,1,444.108,128.055Z"/><path id="_Path_201" data-name="&lt;Path&gt;" class="cls-40" d="M422.207,115.372a.34.34,0,0,1-.293-.168l-2-3.468a.336.336,0,0,1,.125-.459l2.019-1.166a.336.336,0,1,1,.336.582l-1.729,1,1.834,3.177a.336.336,0,0,1-.124.459A.322.322,0,0,1,422.207,115.372Z"/><path id="_Path_202" data-name="&lt;Path&gt;" class="cls-40" d="M425.561,117.423a14.2,14.2,0,0,0,6.425,11.127c3.546,2.049,6.423.388,6.423-3.709a14.2,14.2,0,0,0-6.423-11.126C428.438,111.666,425.561,113.327,425.561,117.423Z"/></g></g><g id="_Group_46" data-name="&lt;Group&gt;" class="cls-89"><g id="_Group_47" data-name="&lt;Group&gt;"><g id="_Group_48" data-name="&lt;Group&gt;"><path id="_Path_203" data-name="&lt;Path&gt;" class="cls-91" d="M470.725,220.622,434.4,199.651a1.8,1.8,0,0,1-.9-1.561V160.809a1.8,1.8,0,0,1,2.7-1.56l35.535,20.515a3.376,3.376,0,0,1,1.689,2.923V219.06A1.8,1.8,0,0,1,470.725,220.622Z"/><path id="_Compound_Path_8" data-name="&lt;Compound Path&gt;" class="cls-40" d="M471.085,218.952a.847.847,0,0,1-.422-.114l-35.074-20.25a1.175,1.175,0,0,1-.585-1.013V161.669a.751.751,0,0,1,1.126-.65l35.028,20.224a1.538,1.538,0,0,1,.769,1.331v35.535a.833.833,0,0,1-.421.729A.843.843,0,0,1,471.085,218.952Zm-35.33-57.362a.078.078,0,0,0-.039.011.073.073,0,0,0-.04.068v35.906a.5.5,0,0,0,.249.432L471,218.256a.165.165,0,0,0,.169,0,.163.163,0,0,0,.086-.147V182.574a.866.866,0,0,0-.433-.75L435.794,161.6A.08.08,0,0,0,435.755,161.59Z"/></g><path id="_Path_204" data-name="&lt;Path&gt;" class="cls-40" d="M464.417,195.581a.34.34,0,0,1-.292-.169.335.335,0,0,1,.124-.458l1.711-.988-1.852-3.208a.336.336,0,0,1,.582-.336l2.02,3.5a.338.338,0,0,1-.122.459l-2,1.156A.328.328,0,0,1,464.417,195.581Z"/><path id="_Path_205" data-name="&lt;Path&gt;" class="cls-40" d="M442.515,182.9a.336.336,0,0,1-.291-.168l-2-3.468a.337.337,0,0,1,.123-.459l2.021-1.166a.336.336,0,1,1,.335.582l-1.729,1,1.834,3.178a.336.336,0,0,1-.29.5Z"/><path id="_Path_206" data-name="&lt;Path&gt;" class="cls-40" d="M445.869,184.948a14.2,14.2,0,0,0,6.424,11.127c3.548,2.049,6.425.388,6.425-3.709a14.2,14.2,0,0,0-6.425-11.126C448.747,179.192,445.869,180.852,445.869,184.948Z"/></g></g><g id="_Group_49" data-name="&lt;Group&gt;" class="cls-89"><g id="_Group_50" data-name="&lt;Group&gt;"><g id="_Group_51" data-name="&lt;Group&gt;"><path id="_Path_207" data-name="&lt;Path&gt;" class="cls-91" d="M504.252,184.256l-36.321-20.969a1.8,1.8,0,0,1-.9-1.561V124.444a1.8,1.8,0,0,1,2.705-1.561L505.269,143.4a3.376,3.376,0,0,1,1.687,2.923V182.7A1.8,1.8,0,0,1,504.252,184.256Z"/><path id="_Compound_Path_9" data-name="&lt;Compound Path&gt;" class="cls-40" d="M504.612,182.587a.837.837,0,0,1-.42-.114l-35.076-20.25a1.176,1.176,0,0,1-.585-1.013V125.3a.751.751,0,0,1,1.126-.65l35.029,20.224a1.538,1.538,0,0,1,.768,1.331v35.535a.834.834,0,0,1-.42.729A.85.85,0,0,1,504.612,182.587Zm-35.33-57.362a.078.078,0,0,0-.039.01.08.08,0,0,0-.04.069V161.21a.5.5,0,0,0,.25.431l35.073,20.251a.171.171,0,0,0,.172,0,.167.167,0,0,0,.084-.148V146.209a.868.868,0,0,0-.432-.75l-35.028-20.224A.094.094,0,0,0,469.282,125.225Z"/></g><path id="_Path_208" data-name="&lt;Path&gt;" class="cls-40" d="M497.944,159.216a.336.336,0,0,1-.168-.627l1.712-.988-1.852-3.208a.335.335,0,1,1,.58-.336l2.021,3.5a.338.338,0,0,1,.034.255.329.329,0,0,1-.156.2l-2,1.157A.332.332,0,0,1,497.944,159.216Z"/><path id="_Path_209" data-name="&lt;Path&gt;" class="cls-40" d="M476.043,146.533a.334.334,0,0,1-.292-.169l-2-3.467a.349.349,0,0,1-.033-.255.334.334,0,0,1,.158-.2l2.019-1.167a.336.336,0,0,1,.336.582l-1.728,1,1.834,3.176a.337.337,0,0,1-.125.46A.331.331,0,0,1,476.043,146.533Z"/><path id="_Path_210" data-name="&lt;Path&gt;" class="cls-40" d="M479.4,148.584a14.2,14.2,0,0,0,6.424,11.127c3.548,2.048,6.424.387,6.424-3.71a14.2,14.2,0,0,0-6.424-11.126C482.274,142.827,479.4,144.488,479.4,148.584Z"/></g></g></g><g id="_Group_52" data-name="&lt;Group&gt;"><path id="_Path_211" data-name="&lt;Path&gt;" class="cls-40" d="M406.084,94.782c0,1.086-.761,1.527-1.7.983a3.76,3.76,0,0,1-1.7-2.95c0-1.086.762-1.526,1.7-.984A3.768,3.768,0,0,1,406.084,94.782Z"/><path id="_Path_212" data-name="&lt;Path&gt;" class="cls-40" d="M462.434,100.945c0,1.087-.763,1.527-1.7.984a3.765,3.765,0,0,1-1.7-2.95c0-1.086.762-1.526,1.7-.984A3.768,3.768,0,0,1,462.434,100.945Z"/><path id="_Path_213" data-name="&lt;Path&gt;" class="cls-40" d="M417.632,161.571c0,1.086-.763,1.526-1.7.983a3.763,3.763,0,0,1-1.7-2.949c0-1.087.763-1.527,1.7-.984A3.766,3.766,0,0,1,417.632,161.571Z"/><path id="_Path_214" data-name="&lt;Path&gt;" class="cls-40" d="M515.632,173.5c0,.764-.537,1.074-1.2.691a2.645,2.645,0,0,1-1.2-2.075c0-.765.536-1.074,1.2-.693A2.655,2.655,0,0,1,515.632,173.5Z"/><path id="_Path_215" data-name="&lt;Path&gt;" class="cls-40" d="M403.877,101.585c0,.764-.536,1.074-1.2.691a2.647,2.647,0,0,1-1.2-2.075c0-.765.536-1.075,1.2-.692A2.646,2.646,0,0,1,403.877,101.585Z"/><path id="_Path_216" data-name="&lt;Path&gt;" class="cls-40" d="M505.981,129.481c0,.764-.536,1.074-1.2.692a2.652,2.652,0,0,1-1.2-2.076c0-.764.536-1.074,1.2-.692A2.646,2.646,0,0,1,505.981,129.481Z"/><path id="_Path_217" data-name="&lt;Path&gt;" class="cls-40" d="M494.476,206.982c0,.765-.536,1.075-1.2.693a2.647,2.647,0,0,1-1.2-2.076c0-.764.536-1.074,1.2-.692A2.647,2.647,0,0,1,494.476,206.982Z"/><path id="_Path_218" data-name="&lt;Path&gt;" class="cls-40" d="M500.732,204.415c0,.764-.537,1.074-1.2.692a2.65,2.65,0,0,1-1.2-2.076c0-.764.536-1.075,1.2-.692A2.647,2.647,0,0,1,500.732,204.415Z"/><path id="_Path_219" data-name="&lt;Path&gt;" class="cls-40" d="M420.756,152.119c0,.765-.537,1.074-1.2.692a2.652,2.652,0,0,1-1.2-2.076c0-.764.537-1.074,1.2-.692A2.65,2.65,0,0,1,420.756,152.119Z"/><path id="_Path_220" data-name="&lt;Path&gt;" class="cls-40" d="M468.777,107.886c0,.764-.537,1.074-1.2.692a2.649,2.649,0,0,1-1.2-2.075c0-.765.536-1.075,1.2-.693A2.651,2.651,0,0,1,468.777,107.886Z"/><path id="_Path_221" data-name="&lt;Path&gt;" class="cls-40" d="M524.134,195.571c0,.764-.536,1.074-1.2.692a2.653,2.653,0,0,1-1.2-2.076c0-.764.537-1.074,1.2-.691A2.642,2.642,0,0,1,524.134,195.571Z"/></g></g></g></g></g></svg>